<svg version="1.0" xmlns="http://www.w3.org/2000/svg" class="fill-current"  width="1365.333" height="1365.333" viewBox="0 0 1024 1024">
    <path d="M66.5 160.1c-8.2 1-15.9 1.8-17 1.8-2.6.1-25.1 18.8-28.9 24-2.1 2.8-4.3 4.5-7.8 5.8-4.9 1.7-5.1 2.1-6.3 8.3-.4 1.9-2.1 4.9-3.7 6.7l-3 3.1 4.1 6c3.7 5.4 4.1 6.7 4.1 12v5.9l10.8 5 10.8 5.1 2.8 9.6c1.6 5.3 3 9.6 3.1 9.6 1 0 24.2-9.3 24.8-10 .5-.4.4-3.6-.1-7.1-1-6.2-.9-6.5 1.6-9.2 2.2-2.3 3.4-2.7 7.8-2.7h5.2l3.9-9.7c2.1-5.3 4.5-10 5.3-10.4.8-.5 4.9-1.6 9.1-2.4l7.6-1.6 5.9-7.6c7.9-10.3 7.7-9.7 6.9-16.3l-.7-5.9-6.2-2.1c-5.3-1.7-7.4-3.2-15.1-11-4.9-5-9.2-8.9-9.5-8.9-.3.1-7.2 1-15.5 2zM227.6 248l-10.9 2.9-8.1 8-8.1 8.1 4.9 4.9 4.8 4.8-6.7 1.8c-5.2 1.4-9.5 3.8-19.8 11-7.3 5-15.2 10.3-17.7 11.8l-4.6 2.6-8.9-5.9-8.9-5.9-3.3 1.9c-1.8 1.1-4.9 2.9-6.7 4l-3.5 2.1-4-2.1-4.1-2-6 3-5.9 3 1.8 4.2c1 2.4 3.3 7.4 5 11.2l3.1 6.8 4.4-3.6c2.5-2 4.9-3.6 5.5-3.6.7 0 4.5 2.5 8.6 5.6 6.4 4.8 7.4 6 8 9.4.6 3.6.9 3.9 4.8 4.5 7.9 1.2 7.9 1.2 7.2 5.8-.4 2.3-1.2 4.5-1.7 4.8-.6.4-5.5 1-10.9 1.4-5.5.3-9.9.9-9.9 1.1 0 .9 11.3 17.4 12 17.4.3 0 4.6-1.3 9.4-3 7.9-2.6 10.3-4.1 26-16.4l17.3-13.4 23.9-1.1c28.8-1.3 27.4-1.3 27.4-.2 0 .5-2.5 4.3-5.7 8.5l-5.6 7.6H223l-31.8 15.9-31.9 15.9-3.8 10.6c-2 5.9-4.1 10.8-4.5 11.1-.4.2-3.2.7-6.2 1.1-5 .6-6.3.2-18.8-5.1-7.4-3.2-13.6-5.8-13.6-5.9-.1 0-.5-4.9-.9-10.8l-.7-10.6 4.6-.7c4.7-.7 4.8-.9 6.1-7.3.6-3.1.2-3.8-6.2-10.5l-6.9-7.2-1.8-12.5c-2.3-15.9-5.8-24.5-12.8-31.6l-5-5.2 2-8.6C93 278 93 278 86 280.5c-2.3.8-4.6 1.5-5 1.5-.3 0-1.7-2.3-3-5.1s-2.7-5.2-3.2-5.5c-.4-.3-9.9 3.9-21.1 9.2l-20.4 9.6-1.8 7.7c-1.5 6.6-3.4 10.2-13.7 26.6l-12 18.9.8 5.1c.9 4.7 1.1 5 4.1 5.3 2.4.2 4.1 1.3 6 3.9l2.7 3.5-1.8 16.3c-1 9-1.5 16.8-1.2 17.4.4.5 4.3 2.9 8.7 5.3 7.3 4 7.9 4.5 7.3 6.8-1 3.7-.9 4.3 4.1 20.3 4.4 14 4.6 15.2 3.7 20.5l-1 5.7L52.6 467C60 474.4 66 481.1 66 481.8c0 .7-2.9 7.1-6.5 14.2L53 508.9l3.9 10.9 4 11-2 14.7c-1.1 8.1-1.8 14.9-1.6 15.1.2.2 11.2.7 24.4 1.1l24.1.6 21.8 21.8 21.9 21.9 4.1-4.1c3.6-3.5 4.9-4.1 11.1-5.1l6.9-1 7.8-8.9 7.8-8.9h15.6l.7 5.1c.4 2.8 2.5 10.4 4.6 16.7 2.8 8.5 3.9 13.3 3.9 17.7v6.1l-5.8 2.8-5.7 2.7-8.8 16.8-8.7 16.8 4.8 11.7c4.3 10.4 6 13 14.7 23.7 5.5 6.5 10.2 11.9 10.5 11.9.3 0 5.1-1.3 10.8-2.9l10.2-2.8v11.6l-5.5 1.7c-3 1-5.5 2-5.5 2.3 0 .3 3.8 4.9 8.5 10.1 4.7 5.2 13.3 16.5 19.1 25 5.9 8.5 10.8 15.6 11 15.8.1.2 9-1.4 19.8-3.6s19.8-3.6 20-3.3c.2.3 2.4 7 5 14.8l4.7 14.1 3.7.9c2.9.7 4.5 2 7.5 6.3 2.1 3 4.3 5.5 4.8 5.5s3.9-2.4 7.4-5.4l6.5-5.4v-15.6c0-12.6-.4-17-2-22.6-1.5-5.4-1.7-7.1-.7-7.7.6-.5 4.6-2.7 8.8-5 7.4-4.1 7.7-4.4 11.7-12.2 2.3-4.5 5.3-10.2 6.8-12.8l2.7-4.8-1.8-4-1.8-4 2.8-4 2.8-4-2.8-20.3c-2.6-18.8-3.1-21-7.7-32.2-2.7-6.6-7.6-16.1-10.9-21.1l-6-9.1 3.9-9.9 4-9.9-3-3.8-3-3.8 7.3-15.4c4-8.5 7.4-15.3 7.5-15.2.2.2-.1 3.9-.6 8.3-.8 7.5-.6 8.9 4.1 29.8 2.9 13.2 4.9 24.3 4.9 28v6.1l10.6 5.5c10.5 5.5 10.6 5.5 17.5 15.2 3.8 5.3 6.9 10 6.9 10.4 0 .4-2 4-4.5 8-4.1 6.5-4.5 7.8-4.5 13.3 0 3.3.2 6.1.5 6.1.2 0 2.9-1.2 5.9-2.6 4.2-2.1 6-3.8 8.2-7.6 2.8-4.7 14-14.1 16.9-14.1 2.7 0 19.5 11 25.2 16.6l6.1 6 5.1-1.8 5-1.9 4.8-11.7 4.8-11.8 7-3.1 7-3.1 5.8 2 5.8 2 3.1-4.9 3-4.8 8.6-.7c4.8-.3 10.4-.8 12.5-1.1l3.7-.6v12l-9.5 1.8c-5.2 1-9.5 2-9.5 2.3 0 .3 2.2 8 4.9 17.1l4.8 16.4 2.7-4.2c1.4-2.3 2.8-4.2 3-4.2.2 0 1.1 9.8 2.1 21.7l1.8 21.8 4.5 8.5c2.5 4.6 5.9 9.8 7.5 11.5 1.6 1.6 3.6 4.6 4.4 6.5.9 1.9 3.9 6.2 6.8 9.6 4.3 4.9 9.5 8.6 26.2 19.1 27.7 17.4 34.2 21.3 35.3 21.3.5 0 2.6-2.5 4.7-5.6 2.9-4.4 4.1-5.4 5.7-5 3.6.8 21.9 4.4 25.6 4.9 3.1.4 4.3-.1 9.5-4.3 6.8-5.7 4.4-6.2 21.8 5 9.1 5.9 11.9 8.2 12.6 10.5.6 1.6 2.8 8.8 5.1 16l4.1 13 5.9 4.8 5.9 4.8 6.1-4.1 6-4.1-4-7.9-4-8 8.4-5.5c4.6-3 9.3-5.5 10.3-5.5 1.1 0 4.4 1.7 7.4 3.9 4.2 3 8.8 8.6 20.7 25 8.5 11.6 15.6 21.1 15.8 21.1.9 0 15.2-30.8 17.3-37.3 1.3-3.7 2.8-6.7 3.4-6.7.7 0 6.8 2.1 13.7 4.6 11.6 4.2 12.9 4.9 18.6 10.5l6.1 6.1 5.9-3 5.9-3 1.2-9.8c1.1-9.5 1.3-9.9 5-13.1 2.1-1.8 4.1-3.2 4.6-3.3.4 0 .7 5.4.7 12v12h31.8l5.2-4.2c9.6-7.8 8.3-7.6 14.6-2.2 10.6 9.3 9.4 8.8 17.1 6.5 3.7-1 10.6-2.4 15.3-3 10.4-1.4 14.6-2.4 14.2-3.7-.2-.5-3.2-4.6-6.7-9.1-5.2-6.6-6.5-9-6.5-11.8V803h6.6c4 0 11.2-1.2 18.6-3 6.6-1.7 12.2-3 12.3-2.8.1.2 1.4 2.2 2.9 4.5 1.4 2.4 3.2 4.3 3.9 4.3 3.6-.1 9.9-4.4 15.1-10.4l5.8-6.6 3-22.3 3-22.2-1.8-9.7c-.9-5.3-2-10.1-2.3-10.6-.3-.4-4-1.7-8.1-2.8l-7.4-1.9-4-8.7-3.9-8.7 4.8-12.6c4.7-12.4 4.8-12.6 3.9-19.7l-.9-7.2-9.1-2.1c-5-1.2-14.8-4.3-21.8-7-8.2-3.1-13-4.5-13.4-3.8-.4.6-4 6-8 12.1l-7.3 11 3.5 7.1c2 3.9 3.6 7.2 3.6 7.5 0 .5-4.3 1.1-13.1 2.1l-5.6.6-4.8 10.5c-2.6 5.7-5.2 10.4-5.7 10.4-.4 0-4.8-2-9.6-4.4-8.6-4.3-16.2-10.9-16.2-14 0-.8-.3-2.1-.6-2.9-.4-1.2.8-1.6 5.7-2.2l6.1-.7-9.3-9.4-9.4-9.4h-15.2l-4.8 6-4.8 6-2.5-2.2c-3.1-3-3.8-4.4-4.6-9.3l-.6-4 13.5-14.5 13.5-14.5v-10.3l7.1-1.8 7.1-1.8 3-6.1 3-6-3.6-6.2c-2-3.4-3.6-6.5-3.6-7s2-1.8 4.5-2.9l4.5-1.9-17-14.9c-9.3-8.2-22.9-19.2-30.2-24.4-11.1-8-15-10.1-24.3-13.5-10-3.7-12-4.9-22-13.1-6-5-15.1-13-20.1-17.9-8.8-8.5-9.5-8.9-16.8-10.8-7.6-1.9-7.6-1.9-11.5.1l-4 2-15.8-12.9c-8.7-7-25.5-19.9-37.3-28.5l-21.5-15.7-10 .6c-5.5.3-12.1.8-14.7 1.1l-4.7.6-3.2-5.2c-2.9-4.8-4-5.5-17.1-12.1-10.9-5.5-16.4-9-24.7-15.8-13.5-11.2-30.9-21.3-43.2-25.2-7.1-2.2-12.9-3.2-23.9-4l-14.5-1.1-6-5.8-6-5.9-14.4 3c-13.1 2.6-15.2 2.8-22.5 1.9-4.4-.5-8.5-1-9.1-1-.6 0-2.8 2.9-4.8 6.5-2.1 3.6-4 6.5-4.3 6.5-.2 0-3.8-2.5-7.8-5.5l-7.4-5.6 2.9-9.7 3-9.7-5.7-12.5c-5.9-12.9-9.9-18.6-20.9-29.5-12.3-12.2-13.7-13-29.9-17.4l-14.7-4-7.9 5-7.9 5-8.8-1.7c-10.2-1.9-10.3-2-20.7-11.1l-7.8-7-14.7 4.2c-8 2.3-16.7 4.5-19.3 4.9l-4.8.7V281h21.1l3-6.7c2.5-5.6 2.9-7.7 2.7-13.2l-.3-6.4-10.4-2.9-10.4-2.9-6 2-5.9 2-10.7-2.9c-9.6-2.7-25.5-5.1-32.1-4.9-1.4 0-7.4 1.4-13.4 2.9z"/>
</svg>
