<svg version="1.0" xmlns="http://www.w3.org/2000/svg" class="fill-current"  width="1365.333" height="1365.333" viewBox="0 0 1024 1024">
    <path d="M897.5 145.6c-2.7.7-6.4 1.3-8.2 1.3-2.2.1-3.8 1-5.5 3-1.3 1.6-4.2 3.8-6.4 4.9-5.5 2.8-14.4 12.7-18.8 21-3.8 7.2-8.7 11.2-20.6 16.6-3.2 1.5-7.8 4.8-11 8.1-3.3 3.4-8.3 7.1-12.5 9.2-3.8 2-9.9 6.3-13.5 9.5-3.6 3.3-9.2 7.4-12.5 9-4.2 2.1-8.3 5.5-13.6 11.2-7 7.4-8.5 8.5-17.5 12.4l-9.9 4.3-5 7.6c-2.7 4.3-7.3 10.6-10.2 14.1-3.4 4.1-6.3 9.2-8.3 14.3-4.5 11.8-4.6 13.1-1.6 18.5 1.4 2.5 2.6 4.8 2.6 4.9 0 .1-1.7.5-3.9.9-3.3.5-4.6 1.5-8.7 7-10.4 13.8-13.4 18.5-13.4 20.8 0 1.7-2 4-7.3 8.5-10.6 8.9-18.7 13.3-29.2 15.9-4.9 1.2-12.1 3.5-16 5.1-7.8 3.3-8.2 4-8.4 14.1-.1 4.3-.9 6.7-4.1 12-2.1 3.7-5.3 10-7 14.1-1.7 4.1-4.8 9.8-7.1 12.7-3 3.9-4.1 6.4-4.6 10.2l-.6 5.1 3.9.9c2.2.6 5.3 1.3 7.1 1.7l3.2.6-7.5 10.5c-7.5 10.3-7.6 10.5-8.1 17.9l-.6 7.5 4.2-1.5c2.3-.8 5.5-2.4 7.1-3.5 1.5-1.1 6.6-3.8 11.3-5.9l8.5-3.9 4.9-8.4c5.1-8.6 8.9-21 11.2-36.6.9-5.5 1.6-7.1 6.1-12.2 2.8-3.3 5.9-6.1 6.8-6.4.9-.2 9.4-1.2 18.7-2.1l17-1.7 5.5-5.9 5.5-5.9 14-.6 14-.6 7.2 3.2 7.3 3.3 1.9 6.6c4.7 15.9 4.7 15.3.8 21.8l-3.6 5.8 8.1.3c7.3.3 11-.4 19.4-3.5 1.8-.7 4.4 8.4 4.4 15.3v6.2l-9.5 3.2c-9.3 3.1-9.5 3.2-16.2 11-5.8 6.6-8 8.4-14.6 11.5-4.3 2.1-11.3 4.5-15.5 5.4l-7.7 1.6-3.5 6.7-3.5 6.7 1.8 6.5c.9 3.5 1.7 6.7 1.7 6.9 0 .3-2.7 1.4-6 2.6-5 1.6-7 1.8-11.5 1.1-7.4-1.2-10.5-3-16.7-10l-5.4-6.1H675c-9.2 0-12.6.4-17.7 2.3l-6.4 2.2-9.2-1.8c-5.1-1.1-12.2-3.2-15.9-4.8-5.1-2.1-8.3-2.8-13.2-2.8-7 0-7.8.6-4.7 3.4 1.8 1.6 1.8 1.9.3 6.8-1.4 4.1-3.2 6.5-10.1 12.9-4.6 4.4-10.7 9-13.5 10.3-2.8 1.3-8.1 3.8-11.9 5.4-3.8 1.8-9 5.2-12 8.1-8.4 8-29.6 17.1-39.6 17.1-4.2 0-5.6.5-8.4 3-2.9 2.5-4.3 3-8.6 3-3.9 0-6 .6-8.4 2.4-3.9 2.8-13.9 4.6-26.4 4.6-4.8 0-13.7.9-19.7 2s-13 2-15.5 2-8.4 1.4-13.1 3c-10.4 3.7-19.2 3.9-36 1-6.3-1.1-14.1-2-17.4-2-5.1 0-6.6-.5-12.6-4.2-3.8-2.3-7.6-5.5-8.5-7-1.5-2.6-2.1-2.8-8.1-2.8-4.8 0-7.6.6-10.7 2.2-2.3 1.2-8.2 2.9-13.2 3.8l-9 1.5.3 3.2c.3 2.8 0 3.2-2.5 3.5-2.7.3-2.8.4-3.1 7.4-.2 6 0 7.3 1.7 8.8 1.7 1.5 2.5 1.7 5.2.7 4.5-1.6 4.6-1.5 5.9 2.5 1 3.1.9 4.5-.6 9-1.8 5.4-1.8 5.4.3 7.6l2.1 2.1 4.6-2.9c2.9-1.8 5.5-4.6 7.1-7.6 2.6-4.7 2.7-4.8 7.8-4.9 10.8-.3 15.2.3 20.2 2.9 5 2.5 5 2.5 2.3 3.4-1.9.7-4.5.4-9.3-1.1l-6.6-2.1-5.7 2.2-5.7 2.1 4 1.8c2.2 1 4.5 1.8 5.1 1.8.7.1 1.7 2.1 2.3 4.5.6 2.4 2.2 5.7 3.5 7.3l2.5 2.9-2.9 1.8c-5 2.9-5.5 13.9-.9 20.9 2.4 3.6 2.5 3.7 9.1 3.7h6.6l5.3-6.1 5.2-6 5.6 5.4c8.1 7.8 10.5 9.1 14.3 7.8 4.5-1.6 4.6-1.5 5 2.6.4 5.2 3.3 5.9 20.8 4.7 13.8-1 14-1 17.3-4.2 3.3-3.2 3.3-3.2 13.7-3.2 9 0 10.8-.3 14.4-2.4 2.3-1.3 6.4-2.6 9.1-3 2.8-.4 6.2-.9 7.8-1.2 2.6-.5 2.7-.4 2.7 3.9v4.5l-4.3.6c-3 .5-6.1 2.1-11 6-3.7 3-9 6.8-11.7 8.6-4.6 3-5 3.5-5 7.2 0 3.1-.6 4.5-3.2 6.9-2.8 2.5-4.1 2.9-8.7 2.9-3 0-8.5 1-12.3 2.2l-6.8 2.2-1.7-2.3c-2.5-3.6-11.2-7.1-16.2-6.4l-4.1.6v5.1c.1 2.8.7 6.2 1.5 7.6.8 1.4 1.4 2.8 1.5 3.1 0 .4-2.3 1.5-5.2 2.5-3.1 1.2-7.4 3.9-10.6 6.9-3 2.7-7.3 5.7-9.6 6.6-3.3 1.3-4.2 2.3-4.7 4.9-.9 4-1.2 4.3-7.9 7.1-3 1.2-7.1 3.7-9 5.4-1.9 1.8-8 5.2-13.5 7.5s-11.6 5.2-13.5 6.5c-1.9 1.3-6.9 3.3-11 4.5-10.1 3-26.6 12.1-30.8 17.1l-3.4 3.9h-9.5c-8.3 0-10.3.4-16.9 3.1-4.2 1.7-9.6 3.7-12.2 4.3-5.5 1.4-5.9 2.4-6.1 15.9l-.1 8.7 4.1 3.7 4.1 3.7-5.4 2.7c-2.9 1.5-7.1 4.6-9.3 6.8-3.8 3.9-4.1 4.1-10.2 4.1-3.5 0-6.3.3-6.3.8 0 .4.4 2.3 1 4.2.9 3.2.8 3.7-3.1 7.6-3.8 3.9-4.5 4.2-11.2 4.8-4 .4-12.1 1.8-18.1 3.2-12.8 2.8-24.6 3.1-32.1.8-4.7-1.5-5.7-1.5-11.8-.1l-6.7 1.5-1.8-4.1-1.9-4.2 3.1-.9c1.7-.5 3.2-1 3.3-1.1.2-.1-.4-2.5-1.2-5.3-1.4-4.4-2-5.2-5.2-6.3-3.6-1.2-3.7-1.1-7.3 3.1l-3.6 4.2-3.2-1.6c-1.8-.9-3.9-2.7-4.7-4-.9-1.3-2.7-2.7-4.1-3-2.8-.8-2.9-1.1-.8-8.4 1.2-4.1 1.5-7.4 1-12.6-.4-3.9-1.1-11.8-1.5-17.6-.5-5.8-1.4-12-2.1-13.8-.7-1.8-1.1-3.5-.8-3.7.2-.2 6.6.1 14.3.6 10.8.8 15.9 1.7 22.5 3.9 13.7 4.6 15.4 4.6 24.2.6 4.1-1.9 9.7-3.8 12.2-4.1l4.6-.7-.6-5.2c-.9-8-.3-7.6-11.1-7.6-5.4 0-13-.6-16.8-1.3-6.9-1.3-7.2-1.3-10.4.9-2.5 1.7-5.4 2.4-11.5 2.9-8 .6-8.3.5-19.3-3.9-9.2-3.8-12.4-4.6-17.5-4.6-3.9 0-8.2-.8-11.3-2-2.7-1.1-7.5-2.7-10.5-3.5-4.3-1.2-7-2.9-12.5-8l-7-6.4 4.2-.1c2.8 0 6.9-1.4 12.5-4.1 4.6-2.3 9.4-4.7 10.8-5.3 2.1-1 2.5-2 2.8-6.2l.3-5-6-2.8c-5.6-2.7-5.9-3-4.6-5 3.1-4.8 8.6-21.2 9.2-27.1l.6-6.3 8.9-2.3 9-2.3 2.4-4.8c1.3-2.6 2.4-6 2.4-7.5s.4-3.3.8-3.8c.9-1.3 11.4-3.8 16.4-3.9 5.3-.1 6.2-1.5 4.3-6.3-1.4-3.5-2.1-4.1-6.5-5.2-4.5-1.2-5-1.6-5.6-4.9-.5-2.3-.1-5 .8-7.7 1.5-4 1.5-4.3-1.5-11.4-4.3-10.2-5.1-10.6-16.2-7.6-5 1.4-9.1 2.5-9.2 2.5-.2 0-.3-1.9-.3-4.3 0-3.2-.8-5.3-3.1-8.5l-3-4.2 3.5-1.7c3.1-1.4 3.6-2.2 3.6-5 0-3.3-.1-3.3-4.6-3.3-2.8 0-5.9.8-7.8 1.9-1.7 1-4.9 2.4-7.1 3.1-2.2.7-4.4 1.6-4.8 2-.4.3.1 2.8 1.3 5.4 1.1 2.6 2 5.4 2 6.2 0 .8-1.9 3.5-4.2 6l-4.2 4.5-8.5-.4c-4.7-.2-11.7-.9-15.4-1.6-5.3-1-7.9-1-11.8-.1-4.9 1.2-5 1.3-4.4 4.4.4 1.7 2.6 5.1 5 7.6 6.5 6.9 7.5 8.9 7.5 14.6 0 4.8.3 5.4 4.3 9.1 2.3 2.1 5.3 4.6 6.7 5.6 2.4 1.6 2.5 2.3 2.8 13.2.3 9.1.1 12.3-1.3 16l-1.8 4.6 3.1 3.2c2.9 3 3.2 3.9 3.2 9.7 0 5.7-.4 7-3.9 12.4-3.1 4.8-4 7.3-4.3 11.9-.5 5.8-.5 5.9 2.9 7.5 4.3 2 4.2 3-.4 3.7-2.1.4-5.1.9-6.7 1.2-2.7.5-2.8.4-2.4-2.6.4-2.5-.2-3.7-2.8-6.2-2.8-2.7-3.5-2.9-5.4-1.9-2.9 1.6-4.1.3-4.7-5.3-.5-4.1-.3-4.7 2.6-6.8 3-2.2 4.3-5.9 2-5.9-.6 0-4 .8-7.6 1.7-5.8 1.6-6.8 2.3-10 6.6l-3.5 4.8 2.1 5.7c1.1 3.1 2.5 7.9 3.1 10.6.6 2.7 2.8 7.8 5 11.5 2.1 3.6 4.5 8.8 5.3 11.6.8 2.7 2.8 7.8 4.5 11.3 2.4 5.1 3.1 8 3.7 16.6.5 8.4 1.1 10.8 2.6 12.2 1 .9 2.5 4.2 3.4 7.3 2.9 10.5 7.8 22.6 11.4 28.3 2.8 4.4 9.4 10.7 27.6 26.3 29.4 25.2 29.9 25.5 55.2 30l18.3 3.2 11.7-6.4 11.7-6.4 6.5 3c5.6 2.5 8.7 3.1 20.1 4.1 7.4.6 16 1.7 19 2.4 7.1 1.7 16.7.7 18.6-1.9.8-1 1.4-3 1.5-4.4 0-2.1.5-1.5 2.4 2.7 2.4 5.2 2.5 5.3 6.2 5 3.2-.3 4.1-.9 6-4.4 3.3-6 9.3-8.7 23.6-10.9l11.7-1.8 2.8-4.4c2.7-4.2 2.8-4.3 8.4-4.3 5.5 0 5.7-.1 10-4.9 2.4-2.7 7.1-6.5 10.4-8.5 3.6-2.1 7-4.9 8.1-6.9 1.6-2.6 5.6-5.2 19.4-12.6 14.7-7.9 33.1-20.2 43.4-29.1 1.1-.9 6.7-3.4 12.5-5.5s13-5.1 16-6.6c3-1.4 8.9-3.7 13-4.9 9.6-2.8 22-9.1 29-14.6 3-2.3 8.9-5.8 13.2-7.7 4.2-1.9 8.1-4.4 8.7-5.5 2-3.7 11.5-13.9 16.7-18.1 4.2-3.3 6.7-6.7 13-17.9 4.3-7.5 9.4-15.4 11.3-17.6 4.3-4.5 16.7-14.1 23.4-18 4-2.4 4.8-3.4 5.3-6.7.4-2.3 1.2-3.9 2-3.9s2.3-1.9 3.5-4.2c2.7-5.5 5.6-7.8 9.8-7.8 3.6 0 7.2-3.2 14.9-13.3 2.6-3.4 4.3-4.7 6.2-4.7 1.4 0 4.5-1.4 7-3.1 2.5-1.6 7.5-4.6 11.2-6.4 6-3.1 6.8-3.9 7.8-7.5s1.5-4.1 5.5-5.1c2.4-.6 5.1-1.9 6-2.9 1.6-1.8 1.6-2.1-.3-4.8-1.2-1.6-2.8-3.5-3.7-4.2-2.3-1.9-1.9-2.6 2.5-4.4 5.1-2 6.1-2 5.3 0-.6 1.5 4 6.3 6.1 6.4.4 0 2.6-1.4 4.7-3.1 3.4-2.6 3.9-3.6 3.9-7.1 0-3.5.6-4.5 6.2-9.8 4.9-4.7 7.2-6.1 11-7 3-.6 7-2.6 10.1-5 3.5-2.6 7.2-4.3 10.7-5.1 6.2-1.3 15.2-5.7 19-9.1 1.4-1.3 3.8-4.1 5.4-6.3 6.6-9.1 10.6-12.3 15.9-13 9.3-1.3 14.1-3.7 21.5-10.6 6.1-5.7 7.3-7.3 8.2-11.5 2.1-9.8 2.9-11.2 9.1-15.7 3.3-2.5 7.8-5 10.2-5.7 3.5-1 4.6-1.9 6.2-5.3 2.4-5.1 9.2-9.8 18.5-12.9 3.6-1.1 8.5-3.8 11-5.8 5.1-4.2 21.9-14.5 32.8-20.2l7.4-3.8 4.4 2.6c2.5 1.5 4.9 2.2 5.6 1.8 3.7-2.2 10.8-8.8 11.4-10.7.4-1.2 2.6-4 4.9-6.3 3.2-3.3 5.9-4.7 12.1-6.7 4.4-1.4 9.7-2.9 11.8-3.3 2.9-.5 5.1-2 8.5-5.6 4.3-4.6 5-4.9 10.6-5.5 5.5-.5 14.5-4.4 14.5-6.1 0-.4-1.8-1.7-4.1-3-3.8-2.2-4.4-2.3-12.8-1.3-13 1.6-17.2 3.2-23.9 9-5.1 4.4-6.3 5-8.9 4.5-1.8-.3-3.3-.1-3.7.5-.4.6-3.7 1.1-7.6 1.1-6.6 0-7 .1-10.3 3.6l-3.4 3.6-5.5-1.2-5.4-1.2-1.5-5.6c-1.2-4.9-1.9-5.9-6-8.4-3.9-2.4-5.1-2.7-7.4-1.8-1.4.5-5.1 1-8.2 1-5.3 0-5.7-.2-11.6-5.6-3.3-3.1-8.4-7.2-11.2-9.1l-5.3-3.4-6.2 2.5c-3.5 1.4-6.4 2.6-6.5 2.6-.1 0-1-2.5-2.1-5.5-1.3-4.1-2.4-5.7-4.1-6.1-1.4-.4-2.6-1.9-3.4-4.2-1.1-3.2-1-3.7 1-5.3 2.4-2 2.6-3.6.9-9.1-.8-2.8-2.5-5-5.5-7.2-3.5-2.5-4.2-3.7-4.3-6.4 0-1.8-1.5-6.6-3.4-10.7-3.1-6.7-3.7-7.4-7.3-8.4-2.1-.6-5.4-1.1-7.4-1.1-3.7 0-6.4-2.1-8.8-6.8-1.5-2.9-.2-5.6 5.5-10.7 3.6-3.3 4.5-4.7 4.7-8l.2-3.9-6.7-1.1-6.6-1 1.4-2.8c1.7-3.2 1.1-3.1 6.1-1.3l4 1.4 4.5-4.6c2.4-2.6 6.1-6.8 8.1-9.3 2.5-3.2 4.6-4.8 6.9-5.3 1.8-.3 4.8-2.1 6.8-4 3-2.8 4.7-3.5 11.4-4.6 6.5-1 10.2-2.4 21-8.1 7.2-3.7 16.1-7.7 19.7-8.8 4.8-1.5 6.9-2.7 7.7-4.5 1.6-3.6 5.2-3.9 11.7-1.1 6.5 2.9 6.6 2.8 10.1-4.8l1.7-3.8-3.4-3.5-3.4-3.6 4-3.4c2.2-1.8 5.2-3.8 6.6-4.4 1.4-.6 3.2-2.3 4.1-3.8 1.3-2.2 3.5-3.3 10.5-5.5 6.6-2.1 9.5-3.6 11.5-6 1.5-1.7 4.9-3.9 7.5-4.9 6-2.2 6.3-2.2 6.3.1 0 1.4.9 2.1 3.1 2.6 2.6.6 3.6.2 6.5-2.6 1.9-1.9 3.4-4.3 3.4-5.6 0-3.3 4.5-3.1 11.8.6 3.1 1.5 7.5 3.1 9.7 3.5 2.4.5 5.3 2 7.3 3.9l3.2 3.1 8.8-1.8c4.8-1 8.8-1.9 9-2.1.2-.1-.5-2.1-1.4-4.4-1-2.6-3.8-6-7.5-9.2-4.1-3.6-5.9-5.8-5.9-7.5 0-1.8-1.5-3.5-5.8-6.7-19.3-14.2-22.9-17.5-23.8-21.8-.8-3.7-1.4-4.4-4.9-5.9-3.4-1.4-4.7-1.4-9-.4z"/>
    <path d="M952.3 206.6c-.9 1.4-1.9 5-2.1 8-.6 6.7.9 8.7 7.5 10.3 2.5.7 7.2 2.5 10.4 4.2 5.6 2.8 6.1 2.9 8.8 1.4 2.2-1.1 3.1-2.4 3.6-5.6.6-3.6.4-4.4-2.1-7.1-3.5-3.7-10.4-6.8-15.1-6.8-3.2 0-3.5-.2-2.9-2.4.5-2 .1-2.6-2.6-3.5-3.9-1.4-3.5-1.5-5.5 1.5zm-40.3 7.9c0 .2.5 1.5 1.1 2.9 1.6 3.4 4.6 4.5 9.2 3.3 4.9-1.3 4.8-4.1-.3-4.5-1.9-.2-3.9-.8-4.4-1.3-1-.9-5.6-1.3-5.6-.4zm9 12.3c0 .4.5 1.3 1.2 2s1.9 3.6 2.8 6.5c2.3 7.7 5.8 9.2 23.2 10.1 7.3.3 16.3.9 19.9 1.2l6.6.6 1.3-3.2c1.1-2.8 1.1-3.4-.6-5.6-3-4-11.5-6.7-22.4-7.2-8.3-.3-9.9-.7-12.8-2.9-3.1-2.3-3.5-2.4-5.1-.9-2.2 2-4 2-6.5.1-2.1-1.6-7.6-2.1-7.6-.7z"/>
    <path d="M990 234.7c-3.9.7-7 4.2-7 7.8 0 2.1-.9 4-2.5 5.5-1.4 1.3-2.5 3.4-2.5 4.8 0 2.3.2 2.4 6 2 5.7-.3 6-.2 6 2 0 4-7.9 5.1-18.6 2.6-1.7-.4-2.7.4-4.8 4.1-2.1 3.5-3.2 4.5-4.4 4-1-.4-4.1-1.1-7.1-1.5-6.4-1.1-6.9-1.5-4.2-3 1.6-.8 2.1-2 2.1-4.9 0-5-2.7-7.3-11.5-9.6-7.4-1.9-9.7-2.1-18.6-1-5.1.7-5.8.5-6.3-1.3-1.3-3.9-12.4-4.4-17.8-.7-3.5 2.4-3.9 2.4-7.5 1.1-2.1-.8-6.3-1.7-9.4-1.9-3.1-.3-7.1-1.4-9-2.6-2.4-1.5-5.1-2.1-8.9-2.1-7.7 0-8.6.8-6 5.3l2.1 3.6-6.8 3.5-6.9 3.4-3.2-2.4c-3-2.4-3.4-2.5-10.6-1.5-4.1.6-11.9 2.8-17.3 4.9-5.4 2.2-13.4 5.1-17.8 6.6-7.1 2.3-8.3 3-10 6.3-1.2 2.2-4.5 5.3-8.6 8-5.6 3.7-6.8 5.1-7.4 7.9-.3 1.9-.3 3.9.1 4.5.4.6.9 4.5 1.3 8.7l.6 7.5 6.5 2.2c3.6 1.2 8.6 2.5 11.2 2.9l4.6.7 6-7.8c9.6-12.6 11.8-14.2 27.7-19.5 7.7-2.6 16.7-5 20-5.4l6.1-.6 2.8 4.3c2.8 4.1 2.8 4.4 2.4 15.8-.3 8.2-.9 12.5-2.1 14.7-1.4 2.7-1.5 5.1-1 14.9.6 11.1.8 12 3.5 15 2.1 2.5 3.9 3.4 7.6 3.9 2.6.4 5.5.9 6.4 1.2 2.4.7 4.8-4.4 4.8-10.5 0-2.8.5-7.3 1.1-10 .7-3.6.7-7.6 0-13.8-.8-6.3-.8-10.5 0-15.1 1.1-6 1.4-6.5 4.7-7.9 3.2-1.3 4.3-1.3 14.6 1.2 9 2.2 12.4 3.6 17.8 7.1 3.6 2.5 9.6 5.3 13.2 6.4 6.7 1.9 7.4 2.3 16.2 9.8 7 5.8 13.9 17.1 15.3 24.7.8 4.5 1.8 6.5 3.9 8.2 3.6 3 4.8 2.9 6.8-.6 1-1.7 2.1-2.8 2.5-2.6.3.3.9 2.7 1.3 5.5l.7 5.1 4.1-3.6 4.2-3.5 3 4.9 3.1 4.9 3.2-1.6c3.1-1.5 3.2-1.8 2.6-5.6-.4-2.8-2.3-6.3-6-11-2.9-3.8-5.3-7.7-5.3-8.6 0-.9.6-3.8 1.4-6.4l1.4-4.7-6.8-3.7c-6.9-3.7-6.9-3.7-7.5-8.8-.6-4-.2-6.1 1.5-10.2l2.2-5.2h7.9c7.6 0 7.8.1 9.6 3 1.4 2.5 2.4 3 5.5 3 8.6 0 13.6-9.1 14.5-26.2l.6-9.6 3.3-1.8c1.9-1 3.4-2.1 3.4-2.5 0-2.3-3.4-8.1-5.6-9.6-3.2-2.1-5.4-6.9-5.5-12 0-3.7-.1-3.7-1.5-1.7l-1.5 2.2-6-1.9c-5.9-1.9-8.8-2.1-13.9-1.2zM207.3 477.2c-5.9.9-6.3 1.2-7.1 4.1-.7 2.6-2.1 3.9-7.3 6.7-6.3 3.5-6.4 3.6-6.6 8-.2 2.5-.5 6.4-.9 8.7l-.5 4.3h-4.7l-4.7.1-10.6 14.2c-5.8 7.8-12.7 18.1-15.3 22.9l-4.7 8.6 3.3 2c6.8 4.1 10.9 5.3 14.4 4.2 1.8-.6 4-2.2 4.8-3.6 1.4-2 2.4-2.4 6.6-2.4h5v-6.3c0-3.4.5-8.9 1-12.2.9-5.8 1.2-6.2 10.6-15.4 5.2-5.2 10.5-11.3 11.6-13.5 1.1-2.3 3.8-6.5 6.1-9.5 3.1-4.2 4.3-7 5.3-12.5 1.6-8.1 1.7-9.6.7-9.5-.5.1-3.6.6-7 1.1zm-79.4 89c-12.1 15.5-13.4 17.9-13.1 23.7.4 5.1.4 5.1 3.8 5.1 2.9 0 3.8-.6 5.5-3.5 1.9-3.1 2.6-3.5 6.2-3.5 6.4 0 9-1.8 10.9-7.5 1.7-5 2.2-14.9.9-19.5-.5-2-1.4-2.6-4.2-2.8-3.3-.3-3.8.1-10 8zM296.3 664c-1.8.4-3.9 1.2-4.5 1.8-1.8 1.4-12.1 3.2-18.8 3.2-4.9 0-6 .4-8.4 2.9l-2.7 2.9 3.4 2.1c1.9 1.1 5 2.1 6.9 2.1 1.8 0 5.6.6 8.3 1.3 4 1 5.7 1 8.5 0 1.9-.6 4.4-1.2 5.5-1.3 1.1-.1 3.8-2.3 6.1-4.9 3.4-4 4-5.4 3.6-8-.5-3.4-1.5-3.6-7.9-2.1zm-61.1 1.4-2.3 1.2 2.4 2.2c1.8 1.7 2.8 4.2 3.7 9.7l1.3 7.4 3.3-1.4c1.9-.8 5.4-2.8 7.9-4.5 3.6-2.5 4.5-3.7 4.5-6 0-4.4-4-6.7-16-9.3-1.4-.3-3.5 0-4.8.7zm84.8 6.7v5.1l-5.2-.7c-6.4-.9-5.8-.9-8.5 0-1.9.6-2.3 1.5-2.3 5.1 0 4 .2 4.4 2.4 4.4 2 0 2.5.6 3 4.3.6 3.7 1.2 4.6 4 6 3.3 1.5 3.4 1.5 6.2-1.4l2.8-2.9 2.6 2.5c1.7 1.6 3.8 2.5 5.8 2.5 2.7 0 3.2-.4 4.1-3.8.6-2 1.1-4.2 1.1-4.8 0-1.3-5.8-6.8-8.9-8.4l-2.5-1.3 2.3-1.8c4.1-3.4.5-9.9-5.4-9.9-1.1 0-1.5 1.3-1.5 5.1zm-59.7 7.6c-3 1.5-3.3 2.1-3.3 6 0 5.6 1.4 8.3 4.4 8.3 2.8 0 5.6-3.8 5.6-7.5 0-2.2-2.5-8.7-3.3-8.4-.1 0-1.7.8-3.4 1.6zm93.5 3.4c-1.2 1.9-1.6 2-3.6.8-1.9-1.2-2.6-1.1-5.7.5-2 1.1-3.4 2.3-3.3 2.7.8 2.2 12.4 14.2 14.4 15 3.7 1.3 10.8-2.4 12.2-6.5 2.2-5.9 1.6-7.2-4.7-11-6.9-4.2-7.4-4.3-9.3-1.5zm-81.5 5.4c-4.4 3.9-4.6 4.4-3.3 6 2.6 3.2 7.5 4.6 13.6 3.9l5.5-.7-.6-5.1c-.4-2.8-1-5.4-1.4-5.8-.3-.4-2.5-1.1-4.8-1.6-4-.9-4.3-.8-9 3.3zm-55.7 45c-3.7 5.6-.1 14.1 5.6 13.3 1.9-.2 2.5-1.2 3.2-5.1 1.1-5.7.3-7.6-4.1-9.4-2.9-1.1-3.2-1-4.7 1.2z"/>
</svg>
