<svg version="1.0" xmlns="http://www.w3.org/2000/svg" class="fill-current"  width="1365.333" height="1365.333" viewBox="0 0 1024 1024">
    <path d="M942 58c-5.2 1-17.4 4.6-27 8-9.6 3.3-25.7 8-35.7 10.4l-18.1 4.3-12.9-2.1c-12-1.9-13.6-2.5-21.9-7.2-5.9-3.5-10.6-5.4-13.9-5.9l-5-.6-3.6 4.8c-3.1 4.1-4.1 6.7-6.3 17.3-2.2 9.8-3.5 13.6-6.3 17.9l-3.5 5.4 2 5.4 2 5.4-3.5 2.6-3.6 2.7.5 9.2.5 9.1-4.1 4.8c-2.6 2.9-5.9 5.4-8.6 6.5-4.3 1.7-4.6 1.7-10.4-.3-3.3-1.1-9-4.2-12.6-6.9l-6.7-4.8-5.1 1.5-5.1 1.5-.7 5.8c-1.1 8.1-1 11.7.5 29.7l1.4 16.1-3.9 8.8-3.9 8.8-17.5 13.6c-16.6 13.1-17.8 14.2-25.1 24.7-7.4 10.6-8.1 11.3-19.2 18.7-13.5 9-33.3 19.1-48.2 24.8-14.8 5.5-28.7 14.2-31.3 19.6l-2 4-53.3 18.6-53.4 18.5-21 1.8-21 1.7-11.9 5c-11.4 4.8-12.1 5-16 3.8-2.2-.7-7.6-3.3-12-5.8-4.4-2.4-14.6-6.7-22.5-9.3-11.8-4-15.8-4.9-21.6-4.9-3.8 0-9.9-.5-13.5-1-3.6-.5-13.9-1.4-23-2.1-9.4-.6-21.1-2.1-27.2-3.4-10.4-2.3-11-2.7-26.5-12.7-13-8.5-19.1-11.7-34.5-18.2-16.9-7.1-19.1-7.8-23.1-7.2-4.3.7-4.9.4-15.8-6.7l-11.4-7.5-9.8-16.6c-9.2-15.9-9.7-17-9.7-22.5v-5.7l-6.7-4.6c-3.8-2.5-10.2-6-14.3-7.8-4.1-1.8-10.8-5-14.7-7.2-9.5-5.2-13.4-4.8-18.9 1.8C95.8 236.5 88 255 88 261.4c0 3.2-1.3 9.1-3.6 15.9L80.8 288l2.2 14.3c3 19.5 6.9 28.7 15.9 38.1 4.9 5.1 8.4 7.7 13.7 10.1 3.9 1.8 9.2 5.4 12.1 8.1 5.1 4.9 5.2 5 12.2 26.4 6.7 20.2 7.1 22 7.1 30.5v9l-6 3.9c-4.9 3.1-6.9 5.3-10.1 10.8-8.5 14.6-12.3 27-13.9 45.8-1.7 19.2-2.5 22.9-6.3 26.9-1.8 2-3.8 4.8-4.4 6.2-.9 2.1-2.7 3-10.7 5.4-9.6 2.9-9.6 2.9-9.6 6.2 0 2.8-.4 3.3-2.4 3.3-2.1 0-2.7.9-4.6 6.5-1.6 4.9-3 7.2-5.8 9.4-3.5 2.7-4.2 2.9-10.2 2.4l-6.5-.5-5.8 4.9c-9.8 8.2-19.3 19.9-33.9 41.7l-14 20.8 2.8 11.2c1.5 6.1 3.1 11.6 3.6 12.3 2.3 2.9 12.9 7.7 24 10.7 11.4 3.1 12.3 3.2 18.6 2.1 9.6-1.7 26.9-9 31.6-13.4 2.1-2 7.9-9 12.9-15.6 18.8-24.8 26.9-33.2 38.5-39.8l4.1-2.3 24.8 3.4 24.8 3.4 12.5-1.6c6.9-.9 17.7-2.1 24-2.7 6.3-.5 14-1.3 17-1.7 3.9-.5 12.5.2 29.1 2.3l23.6 3 12.6 15c16 19.1 21.4 23.1 33.1 24.6 9.8 1.3 19.4.5 34.4-2.7 6.3-1.3 12.4-2.4 13.6-2.4 1.2 0 6.1 1.6 10.9 3.5 6.9 2.8 10 3.5 15.5 3.5 3.7 0 19.1 1.6 34.2 3.6 21.6 2.7 30.4 4.3 41 7.4 7.4 2.1 20.1 5.7 28.2 7.9 11.7 3.1 15.5 4.6 18.8 7.3 2.3 1.8 11.4 12.4 20.2 23.6 12.4 15.8 16 21.1 16.5 24 .2 2 1.8 6.3 3.4 9.4 2.9 5.6 3 6.2 4.5 32.3l1.5 26.7 4.5 13.2c2.5 7.2 6.2 19.9 8.3 28.3l3.8 15.1-2.4 12.4-2.5 12.3 2.7 12c1.5 6.6 4.6 18.1 7 25.5 2.4 7.4 5.5 18.7 7.1 25 2.3 9.8 3.5 12.6 7.8 19 2.7 4.1 6.1 8.4 7.5 9.5 1.4 1 5.5 4.7 9.2 8.2 7.3 7 15.7 11.4 25.6 13.3 9.5 1.9 39.5.8 50.8-1.9 5-1.2 14.4-2.6 21-3.2 15.5-1.4 24.1-4.4 30.9-11l5-4.7-.1-13.3c-.1-10.4-.7-16.1-2.7-25.2-2.8-12.6-3.3-23.1-1.6-33.2.5-3.3 1.7-12.8 2.5-21 .8-8.3 1.9-17.7 2.5-21 .5-3.3 1-10 1-14.8 0-5.7 1.2-15.4 3.4-27.5 1.9-10.3 4-22.3 4.6-26.7 1.1-6.8 2.1-9.5 7.3-18.5 3.3-5.8 8.2-13.7 10.8-17.7 3.5-5.4 4.8-8.5 5.3-12.7.6-4.8 1.2-5.8 3.9-7.5 1.8-1.1 6.9-5.8 11.5-10.4l8.2-8.5v-22l-7.5-15.7-7.5-15.8V574l7.6-13.4 7.7-13.3 9.2-4.9 9.3-4.9 1-7.7c1.6-10.7 6.3-19.7 13.9-26.4 5.1-4.4 6.9-5.3 15.1-7.4 5-1.3 9.2-2.9 9.2-3.5 0-.6.7-6.4 1.5-12.8l1.4-11.8 12.7-19.9c10.2-16.2 14-21.3 19.8-26.6 3.9-3.7 8-7 9.1-7.4 3.4-1.2 30.2-3.3 34.3-2.7 3.5.6 4.1.4 6.1-2.3 1.8-2.6 2.8-3 6.7-3 3.7 0 6.4-1 13.3-4.9 4.7-2.6 12.3-6 16.9-7.5 7.8-2.6 8.2-2.9 8.2-5.7 0-2.3 1.4-4.2 6.6-9.2l6.7-6.3-21.2-15.7c-18.5-13.7-21.1-16-21.2-18.4 0-1.5-1-13-2.2-25.5l-2.3-22.8 2.4-4.7c1.3-2.7 5.2-7.7 8.7-11.3 3.4-3.6 6.7-7.4 7.3-8.5.5-1.1 1.3-5.6 1.7-10 .3-4.4 1.3-11.9 2-16.7 1.3-8.3 1.3-9-.9-16.1-1.3-4.2-4.8-11.5-8.1-16.8-9-14.5-15.5-29-15.5-34.7 0-2.6-.7-7.2-1.5-10.2-.8-3-1.5-8.5-1.5-12.2 0-6-.4-7.3-3.9-13-2.9-4.7-4.3-8.5-5.5-15.1-1.7-8.9-1.7-8.9.8-18.5 2.4-9.5 3.2-18.9 2.8-32.3l-.2-6.7-6.9-3.6c-3.8-2-7.1-3.6-7.2-3.5-.2 0-4.7.9-9.9 1.9z"/>
</svg>
