<svg version="1.0" xmlns="http://www.w3.org/2000/svg" class="fill-current"  width="1365.333" height="1365.333" viewBox="0 0 1024 1024">
    <path d="M912 63.6c-94.4 3.8-355.4 9.3-395 8.4-12.9-.3-23.6-.5-23.8-.4-.2.1-1.8 6-3.5 13.1-3.1 12.4-3.5 13.4-11.3 25.3-4.5 6.9-9.9 15.9-11.9 20-3.3 6.5-3.8 8.5-4 15.3-.1 6.8-.6 8.7-4.2 16-3.1 6.1-4.3 9.9-4.8 15.1-.5 5.3-1.4 8-4 12-4.3 6.7-17.7 18.8-29 26.1-4.9 3.2-12 7.9-15.8 10.4-14.1 9.6-15.6 10.2-22.5 9.8l-6.3-.5-3.1 4.7c-1.7 2.5-5.4 7-8.2 9.8-4.6 4.8-5.5 5.3-9.6 5.4-2.5.1-5.6.4-7 .8-4.9 1.3-10 14.4-10 25.5 0 4.8-.8 7.7-4.5 16.1-2.8 6.1-6.4 12.2-9 15.2-4.9 5.6-7.9 12.5-12.5 29.3-1.8 6.3-4.5 13.5-6.1 16-1.6 2.6-4.7 9.4-6.9 15.3l-4 10.7-.9 27.3c-.9 27.1-.9 27.2-4.1 36.2-1.8 4.9-3.8 10.1-4.5 11.5-1.6 3-5.9 7.1-10 9.4-1.8 1.1-3.8 3.7-5.2 6.7-2 4.5-2.8 5.2-9.4 8.4-8.6 4.1-11.3 6.5-14.4 12.5-4.1 8.1-11.3 16.8-17.8 21.7-13.7 10.2-25.4 20.4-28.8 25-2.9 3.9-5.6 5.8-14 10.1-13.3 6.9-24.4 17.2-28.4 26.6-1.4 3.4-3.4 7.8-4.5 9.8-1.1 2-2 4.7-2 6 0 1.9.6 1.4 3.6-2.7 2-2.8 4.9-7.7 6.6-11 1.7-3.3 5.7-8.6 9.1-11.9 5.6-5.5 6.1-5.7 7.4-4 .7 1 1.3 4.2 1.3 7.2 0 6.1-2.5 10.5-11.5 20.3-9.2 10-16.5 21.3-17.7 27.5-.9 4.6-2.2 6.8-6.5 11.8-2.9 3.3-5.6 7.2-6 8.6-.3 1.4-1.9 4.1-3.4 6.1-2.1 2.7-2.9 4.8-2.9 7.8 0 3.6-.6 4.7-4 8-4.6 4.3-5 5.8-1.7 6.3 1.6.2 2.4 1.3 3.1 4 1.1 4.6.2 6.7-6.4 13.7-3.7 4.1-5.3 5.1-7.8 5.1-3.1 0-3.2.2-3.2 4.1 0 2.8-.8 5.1-2.6 7.5-2.3 3-2.8 5.1-4.1 17-1.2 11.5-1.8 14.2-4 17.5-1.4 2.1-3.1 3.9-3.9 3.9-2.2 0-4.4 3-4.4 6.1 0 3.4-5.8 16.1-8.9 19.7-2.8 3.2-11.4 5.6-17.4 4.8-5-.7-9.7 1-9.7 3.5 0 .6-1.7 3.2-3.8 5.8-5.7 6.7-11.9 18.1-14.3 25.6-1.1 3.6-4 9.5-6.6 13.1-4.4 6.3-4.6 6.8-5.3 16.2-.5 5.3-1.3 11-1.9 12.7-.5 1.6-1.5 6.4-2.2 10.5-.6 4.1-2.2 10.4-3.5 13.9-1.4 3.6-3.1 11-3.9 16.6-.8 5.6-2.5 15.3-3.9 21.6-1.4 6.3-3.4 16.3-4.6 22.4-1.2 6-3 13.9-4.1 17.5-2.3 7.5-1.4 12 2.6 12 2.4 0 3.5-3.5 5.5-17.7 1.5-11.1 5.6-27.2 8.4-33.3 1.3-3 3-7.6 3.7-10.3l1.1-4.7h21.9c12 0 67.4 1.8 123.1 3.9 98.1 3.8 105.2 4 223.6 4.6 93.7.5 122.2.3 122.2-.6 0-.6-1.8-23.9-3.9-51.8-2.2-27.8-4.5-63-5.1-78.1l-1.2-27.5-4.5-14.3-4.5-14.2 3.8-10.3c2.4-6.7 5.8-13.1 9.6-18.7l5.9-8.5 25.7-17.4 25.7-17.3 13.5-2c14.6-2.1 16-2.7 34-13.2 8.8-5.1 11.5-6.1 16.5-6.6l6-.5-.3-19.5c-1.8-147.3-3.4-315.2-3-315.5.3-.3 37.8-1.2 83.4-1.9 69.6-1.2 307.1-8.3 308.3-9.2.3-.3-8.1-184.2-9.6-208.2l-.6-10.2-9.6.1c-5.3.1-46.7 1.7-92.1 3.5z"/>
</svg>
