<svg version="1.0" xmlns="http://www.w3.org/2000/svg" class="fill-current"  width="1365.333" height="1365.333" viewBox="0 0 1024 1024">
    <path d="M671.3 152c-2.9 1.7-5.7 3-6.2 3-.6 0-4.8 1.8-9.4 4-4.9 2.3-9.1 3.7-10.3 3.4-1.2-.3-2.6.1-3.3 1-.8.9-1.9 1.6-2.5 1.6-2.2 0-5.6 4.5-5.6 7.4 0 1.5-.4 2.5-1 2.1-.5-.3-1-1.5-1-2.6 0-1-.4-1.9-1-1.9-.5 0-1 .8-1 1.9 0 1.2-.9 2-2.7 2.4-3.7.7-4.2 0-1.8-2.1 1.1-.9 2.9-2.7 3.9-4l1.9-2.2h-3.2c-2.4 0-3.4.5-3.8 1.9-.3 1.1-1.9 2.5-3.7 3.1-3 1.2-12.6 2.1-12.6 1.3 0-.9 4.5-4.2 5.8-4.3 2 0 1.3-3-.7-3-1.1 0-2.3-.5-2.6-1-.9-1.4-4.5-1.2-4.3.2.2.9-1 1.3-3.5 1.3-2.8 0-4.4.6-5.7 2.2-2.6 3.2-3.3 2.9-2.6-1.2.7-3.4.6-3.5-1.4-2.3-1.2.7-2.6 3.2-3.2 5.5-1.1 4.6-2.7 5.6-3.5 2.3-.6-2.3-.8-2.4-3.5-.9-1.5.8-1.7 1.3-.8 1.9 1.7 1.1.3 3.1-1.7 2.3-.9-.4-1.9.1-2.5 1.1-.9 1.6-1.1 1.6-2.4-.1-.7-1-1.4-2.6-1.4-3.6s-.8-1.7-2-1.7c-2.4 0-2.5.7-.4 4.8 1.7 3.5.9 6.6-1 4-.6-.8-1.9-1.7-2.8-2.1-1-.3-1.8-1.5-1.8-2.6s-.4-2.2-.9-2.6c-1.3-.8-1.8 8.6-.6 10.7 1.3 2.3-.1 3.4-2.1 1.7-1-.8-1.4-2.3-1.1-4.2.4-3.3-1-4.3-4.9-3.3-2.6.7-2.6.7-.7 2.1 1.1.8 2.3 2.4 2.6 3.6.5 1.8.3 2-2.1 1.4-1.5-.4-3-1.2-3.5-1.8-.5-.9-1.1-.8-2 .4-1.2 1.5-1.4 1.5-3.6-.2-2.8-2.3-4.5-1.5-3.8 1.7.3 1.8-.3 3.1-2.5 4.9-1.6 1.4-2.6 2.9-2.3 3.5 1.1 1.8-2.7 2.4-4 .6-1.1-1.5-1.3-1.2-2 2-.4 2.2-.2 4.1.4 4.7.6.6 1.1 2 1 3.1 0 2-.1 2-1.6-.2-.8-1.2-1.9-2.2-2.3-2.2-.4 0-1.1 1-1.4 2.2l-.7 2.3-1.1-2.3c-1.4-2.8-1.9-2.8-4.8.3l-2.3 2.4 3.7 4.1c2 2.2 3.6 4.2 3.6 4.5 0 .3-1.6.5-3.5.5-2 0-3.4-.5-3.2-1.1.1-.6-.6-1.6-1.6-2.2-1.4-1-2.1-.9-3 .3-2.3 2.9-6.4 4.3-11 3.7-2.5-.4-4.8-.2-5.4.4-.8.8-1.3.7-1.7 0-.4-.6-1.6-1.1-2.7-1.1s-3.3-.6-4.8-1.4c-2.6-1.4-3.2-1.3-9.7 2.1-7.5 4-13.9 5.6-22.2 5.7-4.7.1-5.8.5-8.6 3.4-3 3-3.5 3.2-5.9 2.1-2.5-1.1-6.8-.6-11.9 1.6-1.3.5-1.8.2-1.8-.9 0-2.5-3.8-1.9-6.6 1.1-1.3 1.4-2.7 2.3-3.1 2-1-1.1-3.3 1.4-3.3 3.5 0 1 .7 2.1 1.5 2.5 1.2.4.8 1.1-1.7 3-3.7 2.6-5.4 7.8-3.5 10.2 1 1.2.9 1.3-.8.7-1.1-.5-2.8-1.1-3.7-1.3-1-.3-1.8-.9-1.8-1.4 0-1.2-5.1-1.1-6.9 0-.9.6-1.2 2.1-.9 4.5.3 2.4 0 3.6-.9 3.6-.7 0-1.8 1.9-2.4 4.2-.7 2.4-1.7 4.7-2.2 5.3-.6.6-.7.2-.3-1.1 1.1-3.7-.3-5.4-4.5-5.4-3.1 0-4.5.7-7.4 3.5-1.9 2-3.5 4.2-3.5 5 0 .8-2.5 2.6-5.5 4-7.7 3.7-15.1 3.3-17.4-.9-1.9-3.4-3.2-3.6-4.6-.7-1.8 3.8-6.4 1.7-4.9-2.3.7-1.7-2.2-4.6-4.5-4.6-2.6 0-8.4 2.1-10 3.6-1.2 1.1-1.2 1.5.2 2.8.9.9 1.9 2.5 2.2 3.6.8 2.6 3.2 2.6 4 0 .4-1.1 1.5-2 2.7-2 1.5 0 1.8.3 1.1 1.2-.5.7-1.7 3.4-2.7 6-1.3 3.5-2.3 4.8-3.7 4.8-1.3 0-1.9.7-1.9 2.4 0 1.3-.7 2.7-1.6 3-2.5.9-2.7.7-1.3-1 1.1-1.4 1-1.8-.6-3-1.7-1.3-2.2-1.1-4.7 1.3-1.5 1.4-3 3.5-3.4 4.5-.3 1-.9 1.6-1.4 1.3-1.5-.9-1.9 4-.5 6.2.8 1.2 1.7 4 2.1 6.2.5 3.4 1.1 4.1 3.5 4.6 3.2.7 9.5-1 12-3.2 3-2.5 13.3-1.4 14.9 1.7.7 1.3.5 2.7-.7 4.8-1.6 2.8-1.6 3.2.1 7.1 1 2.2 2.7 4.8 3.7 5.6.9.9 3.8 6.9 6.3 13.3 2.6 6.4 5.9 13.3 7.5 15.1l2.9 3.5 7.8-1.2c4.3-.7 8.8-1.9 10.1-2.7 2.3-1.5 3.2-4.5 1.4-4.5-1.5 0-4.2-3.1-3.6-4.1.4-.5 1.5-.9 2.6-.9 2.3 0 3.9-3.5 3.2-7.2-.4-2.3-.1-2.7 2.6-3.3 1.7-.4 3.1-1.2 3.1-2 0-.7 1.1-1.6 2.5-1.9 1.4-.4 3-1.7 3.4-2.9 1.5-3.8 3.5-4.9 7.2-4 2.7.7 4.1 2 5.6 5.1 0 .2 1.1-.3 2.3-1 2.3-1.4 2.2-1.4 6.6 4.7 1 1.4 2.4 1.8 4.9 1.7 2.4-.2 4.1.4 5.5 1.8 2.5 2.5 4.5 2.5 9.3 0 2-1.1 4.8-2 6.1-2 2.6 0 3.9-2 3-4.5-.4-1-2-1.5-4.4-1.5-2.2 0-4.2-.5-4.5-1-1.2-1.9-2.4-1-3.1 2.5-.3 1.9-1 3.5-1.5 3.5-1.5 0-1.4-.3 6.5-17 1.7-3.6 7.4-7.1 11.1-6.8 2.7.3 3.3-.2 6-5.4 2.1-4 3.9-6.1 5.8-6.7 1.5-.6 3.6-2.6 4.8-4.5 2.7-4.7 7.2-7.3 13.9-8.1 4.7-.6 6.6-.3 12.1 2 3.7 1.4 7.9 3.9 9.4 5.6 1.8 1.8 3.9 2.9 5.6 2.9 3.1 0 4.8 1.8 2.9 3-.7.4-1 1.2-.7 1.7.3.5-1.8 2.1-4.7 3.6-2.9 1.5-6.8 4.3-8.6 6.2l-3.3 3.4 2.4 1c1.7.6 2.9.5 4-.5.8-.8 2.6-1.4 4-1.4 1.3 0 6.4-.8 11.3-1.7 8.8-1.7 8.9-1.7 12.7.5 4.4 2.5 7.6 2.7 10.3.7 1.2-.9 4.2-1.5 7.4-1.5 2.9 0 6.2-.4 7.2-1 2.5-1.3 5-.3 5 2.1 0 1 .3 1.9.7 1.9 1 0 13.6-7.1 15.8-9 3.2-2.7 9-5.7 12.5-6.5 2-.4 3.4-1.5 3.7-2.6.7-2.4 4.4-3.4 7.2-2 1.3.7 4 .9 7 .5 4.4-.6 5.4-.3 9.5 2.6 3.1 2.1 5.6 3 7.4 2.8 2.1-.2 2.8.2 3 1.9.4 2.4 4.7 5.7 6.3 4.8.5-.4 1.7-.1 2.6.6 1.4 1.2 1.5.9.8-2.9-.6-3.9-.5-4.2 1.5-4.2 1.4 0 2.4.8 2.7 2 .7 2.6 2.4 2.1 4-1.1 1.2-2.2 1-2.6-1.5-4.6-1.5-1.2-4.1-3.4-5.9-4.8-1.8-1.5-3-3.2-2.7-4 .3-.7.1-2.3-.6-3.4-.9-1.7-2-2.1-6-2.1-5.6 0-6.8-1.9-2.5-3.8 1.4-.6 2.5-2 2.5-3 0-1.1.9-2.7 2-3.7s2-2.4 2-3c0-.7 1.1-2 2.5-2.9 1.5-1 2.5-2.6 2.5-4 0-1.3.7-2.9 1.5-3.6.8-.7 1.5-2.7 1.5-4.6 0-2.3.7-3.8 2.2-4.8 2.6-1.8 5-9.8 4.2-13.8-.5-2.4-.9-2.7-3.2-2.2-1.5.4-4.5 2.6-6.7 4.9-3 3.1-5.7 4.8-10.5 6.4-7.9 2.6-10.5 4.2-18.4 11.8-3.3 3.2-7.3 6.6-8.7 7.5-1.4.9-4 4.6-5.7 8.2-1.7 3.6-3.6 6.6-4.2 6.6-.5 0-1 .6-1 1.2 0 .7-2.1 2.1-4.6 3.2-3.2 1.3-5.7 3.4-8.6 7.2-3 4-5 5.6-7.8 6.4-2.7.7-4.5 2.1-6 4.5-2.5 4-2.7 4.1-5 2-1.5-1.3-2.8-1.4-8.1-.6-3.4.6-6.5.9-6.7.6-.3-.2.2-1.5 1-2.7 1.5-2.4 1.3-9.4-.3-10.4-1.4-.8-1.1-2.4.5-2.4.7 0 3.4-3.2 5.9-7 3-4.8 6-8 9.1-10 4.3-2.7 5.9-5 3.6-5-.5 0 .2-1.2 1.5-2.6 1.7-1.9 2.3-3.3 1.9-5.2-.6-2.8 2.5-7.2 4.9-7.2.7 0 2-.9 3-2 .9-1.1 2.6-2 3.7-2 1 0 2.4-.9 3-2 1-1.8 10.7-7 13.1-7 2.7 0 10.4-7 12.6-11.5 1.3-2.8 3.3-6.4 4.3-8 1.1-1.7 2.4-4 3-5.3.5-1.2 2-2.7 3.4-3.3 1.5-.7 2.8-2.6 3.6-5.2.6-2.3 2.3-5.5 3.6-7.2 1.3-1.7 2.7-4.9 3.2-7.1.5-2.7 1.4-4 2.7-4.2 1.1-.2 4.6-3.1 7.8-6.3 6.2-6.3 8.5-7.9 11.4-7.9 1.1 0 3.2-1.4 4.9-3.1 1.6-1.8 6.1-4.7 9.9-6.5 3.9-1.9 7.7-3.8 8.5-4.3.8-.5 2.3-1.2 3.3-1.5.9-.3 1.7-1.2 1.7-2.1 0-2.5-6-1.8-11.7 1.5zm-213.6 15.8c-2 2.2-2.2 5.2-.3 5.2.7 0 2.5-.9 4-2.1 2.1-1.7 2.4-2.4 1.5-3.5-1.6-1.9-3.3-1.8-5.2.4zm221.5 60c-8 4.1-13.5 9.7-14.6 14.9-.8 3.7.5 4.3 3.7 1.8 2.1-1.6 4.7-1 4.7 1.1 0 1.7 2 1.8 7.2.2 5.2-1.5 6.3-3.7 4.3-8.5-1.6-3.8-1.6-3.9 2.6-6.3.9-.5 1.9-2.3 2.1-4 .6-4-.8-3.9-10 .8zm-336.6 24.7c-1.1.8-2.8 1.5-3.8 1.5s-1.8.7-1.8 1.5c0 2.5 7.6 1.9 13.7-1.1 2.9-1.5 5.3-2.8 5.3-3 0-1.2-11.8-.1-13.4 1.1z"/>
    <path d="M653.4 267.5c-.4 1-1.4 1.3-2.8.9-2.9-.7-5 1.8-4.1 4.7.6 1.9.4 2.1-1.3 1.6-2.3-.5-4.8 1.6-3.7 3.3.8 1.3 5.1 1.3 7.8-.1 4.3-2.2 7.7-6.2 7.7-9.1 0-3-2.6-4-3.6-1.3zm-544.2 11.2c.6 4.4 1.1 3.8-16.8 20.8-8 7.5-9.2 8.3-9.7 6.6-.6-2.6-2.7-2.8-2.7-.3 0 1-.6 2.4-1.2 3-2.1 2.1 1.1 3.4 7.1 2.7 6.1-.6 8.1-1.8 8.1-4.7 0-1 4.7-6.6 11-12.9 6.1-6.1 11-11.7 11-12.3 0-1.2-3.2-4.6-5.9-6.1-1.1-.7-1.3 0-.9 3.2zm583 8.7c-2.9 1.7-6.7 4.8-8.5 6.7-1.8 1.9-4.9 4.7-6.9 6.3-2 1.5-4.9 4.9-6.4 7.4-1.5 2.6-4.2 6.4-6 8.4-1.8 2-3.8 5.6-4.4 7.8-.8 3.1-3.3 6.5-9.6 13-4.6 4.8-8.4 9.4-8.4 10.2 0 .8.9 2.7 2.1 4.2 1.4 1.8 1.9 3.4 1.5 5.1-.5 1.8-.1 2.7 1.5 3.5 1.7 1 2.7.7 5.8-1.4 2-1.4 4.3-2.6 5-2.6 2.3 0 7.6-3.2 11.2-6.9 8.4-8.3 12.8-12.1 14.3-12.1.8 0 3-1.8 4.7-4 2.6-3.2 3.9-4 6.6-4 3.1 0 3.3-.2 3.3-3.4 0-4.1 3.3-10.2 5.9-10.9 1.4-.3 1.7-1.1 1.4-2.9-.4-2.2 0-2.6 2.8-3.2l3.3-.6-4.2-4.3c-3.5-3.6-4.2-4.9-4.2-8.2 0-4.1-2.7-10.7-4.5-11.1-.5-.1-3.4 1.2-6.3 3zm49.1 12.3c.3 5.8.6 6.8 2.3 7.1 1 .1 2.5-.2 3.3-.7 1.1-.7 1-1.3-.4-3.5-1-1.4-1.5-3.7-1.3-5 .4-2.1-1.6-4.6-3.7-4.6-.3 0-.4 3-.2 6.7zm-22.7-.5c-1.8 1-1.8 1.2-.2 2.3 1.5 1.1 1.4 1.4-.9 2.9-1.4.9-2.5 2.3-2.5 3.1 0 1.9 4.2 4.8 5.1 3.4.4-.6 2.1-.8 4.4-.3 3.7.7 3.8.6 3.2-1.9-.5-1.8-.2-2.7.9-3.1 2.4-.9 5.4-.7 5.4.4 0 .5.5 1 1 1 .6 0 1-.9 1-1.9 0-1.1.5-2.3 1-2.6 1.3-.8 1.3-4.5 0-4.5-.6 0-2.6.7-4.5 1.4-3 1.3-3.8 1.3-6.2.1-3.3-1.8-5.1-1.8-7.7-.3zM273 303.4c0 .7.6 1.9 1.4 2.6.8.6 1.3 1.7 1 2.3-.5 1.6 7.7 6 8.9 4.8.5-.5.6-2.8.2-5-.6-3.5-1-4.1-2.6-3.6-1.1.4-3.3-.1-5.1-.9-3.8-1.9-3.8-1.9-3.8-.2zM76.9 315.6c-.7.9-1.9 3.1-2.4 4.8-.8 2.4-1.5 3-3.2 2.8-1.8-.3-2.3.3-2.8 3.2-1 5 1.6 8.1 3 3.6.3-1.1 1.3-2 2.1-2 1.8 0 5.4-3.6 5.4-5.4 0-.8.5-1.8 1-2.1 1.4-.8 1.3-2.8-.3-4.9-1.2-1.7-1.4-1.7-2.8 0zM55 338.4c-1.6 2-.9 6 1.3 6.4 1.2.2 1.7-.3 1.7-1.8 0-1.3.8-2.4 2-2.7 1.1-.3 2-1.2 2-1.9 0-1.9-5.4-1.8-7 0zm-1.2 9.6c-2.3 1.4-6.1 7.7-5.3 9 1.2 1.9 3.5 1 5.1-2.3 1-1.7 2.4-3.7 3.2-4.3.8-.6 1.2-1.6.8-2.2-.9-1.4-1.6-1.5-3.8-.2zm-22.1 21.9c-1.9 2.2-4.4 5.9-5.5 8.4-1.1 2.4-2.5 4.8-3.1 5.1-.6.4-1.1 1.6-1.1 2.6s-1.1 3.1-2.4 4.7c-2.1 2.5-4.1 9.4-2.7 9.2 1 0 9.1-11.9 9.1-13.3 0-.7.7-2 1.6-2.7 1.4-1.1 1.8-1 3 .5 1.2 1.7 1.3 1.7 2-.9.4-1.8 2.3-3.7 5.6-5.7 5.2-3.2 9.8-10.1 7.6-11.4-1-.7-1.7 0-5.4 5.1-2 2.7-5 .8-4.6-2.9.2-1.4.1-2.6-.1-2.6-.3 0-2.1 1.8-4 3.9zM895 388.4c0 .7.7 1.9 1.5 2.6.8.7 1.5 2.3 1.5 3.6 0 2 .5 2.4 2.9 2.4 1.6 0 4.3.3 6 .6 4.5.9 4.2 4.5-.8 9.9-2.9 3.2-4.1 5.5-4.6 8.9-1 6.2 0 9.6 2.6 9.6 1.9 0 2.1-.4 1.5-4.4-.8-5 .2-6.4 6.4-9.6 11.3-5.8 8.7-17.1-4.3-18.6-4.9-.6-6.2-1.2-8-3.5-2.2-3.1-4.7-3.8-4.7-1.5zm-371.8 22.9c-3.8 1.2-4.9 4.2-3.3 8.9.8 2.2 1 7.1.5 15.2l-.7 11.9 3.9-2.2c6.2-3.5 8-5.4 10.9-11.1 2.5-5 2.7-6.1 2.2-13.6-.2-4.5-.8-8.7-1.1-9.3-.9-1.4-8-1.3-12.4.2zM.7 412.4c-.4 1-.7 4.4-.7 7.7 0 5.2.2 5.9 2 5.9 1 0 2.3-.7 2.8-1.7.9-1.5 1-1.4 1.6.4.4 1.1.2 3.2-.4 4.7-1.5 4.1-1.3 4.6 2.5 4.6 4 0 4.4-1.3 2.1-7.8-1.2-3.5-1.2-4.3 0-6.1.9-1.3 1.2-3 .8-4.8-1.1-4.5-1.5-4.6-4.5-1.7-1.6 1.5-2.9 2.3-2.9 1.8 0-.6-.6-1.8-1.3-2.8-1.3-1.8-1.4-1.8-2-.2zM248 428.1c0 1.2-2 4.2-4.6 6.8-4.2 4.2-4.7 4.4-5.9 2.8-1-1.5-1.4-1.5-2.4-.3-.9 1-3.7 1.4-11.4 1.2-5.6-.1-10.8-.5-11.4-.9-.9-.6-1.3-.1-1.3 1.4 0 3.4-4.9 9.8-8.7 11.4-1.8.8-3.3 1.9-3.3 2.4 0 1.5-6.6 1.4-10.8-.1-3.1-1.2-3.6-1.1-5.1.9-1.6 1.9-1.9 2-4.3.5-2.4-1.4-2.8-1.4-5.4.7-1.9 1.5-3.1 1.8-3.8 1.1-.5-.5-2.6-1-4.5-1l-3.6-.1 2.5-2.2c2-1.7 2.6-3.3 2.8-7.5.3-5.1.2-5.3-1.8-4.2-1.2.6-2.6 2.3-3.2 3.6-1 2.2-1.7 2.5-4.3 2-4.4-.9-7.3 2.2-5.7 6 1.9 4 1.5 5.4-1.5 5.4-1.6 0-3.5-.4-4.3-.9-2.5-1.7-3.1 0-.9 2.7 2 2.6 2 2.7.2 3-2.3.5-6.3 4.1-6.3 5.8 0 2.4-2.2 2.7-4.9.7-1.4-1.1-4.8-2.3-7.5-2.7-4.4-.7-5.1-.5-6.7 1.5-1.6 2.2-1.8 2.2-4.2.6-2.3-1.5-2.6-1.5-4.2.3-1 1.1-2.5 2.2-3.5 2.5-.9.3-2.2 1.7-2.8 3-1.4 3.1-4.4 3.2-5.7.3-.6-1.2-1.5-2.3-2.2-2.5-1.5-.5-3.3 5.9-3.3 11.9 0 2.7-.5 5-1.2 5.5-.7.4-1.8 1.7-2.4 2.7-.5 1.1-3 2.5-5.5 3.3-4.7 1.4-9.1 4.7-10.2 7.7-.6 1.5-1.4 1.7-4.7 1.2-4.2-.7-4.8 0-3 3.5.8 1.5.7 1.9-.5 1.9-1.9 0-2 2.4-.2 3.9.8.6 2.8 1.4 4.6 1.7 2.2.5 3.3 1.4 3.7 3 .4 1.5 1.3 2.4 2.6 2.4 1.8 0 2 .5 1.4 3.1-.3 1.7-.6 4.3-.6 5.8 0 2.2-1.1 3.3-5.7 6.1-7.5 4.6-9.4 6.8-9.1 10.5.3 2.7-.1 3.1-3.3 3.9-2.3.6-4.1 1.9-5.2 3.9-1.6 2.6-2.1 2.9-5.3 2.4-6.3-1-8.9.1-11.1 4.6-2.1 4.6-2 7.9.3 7 .8-.3 1.4.1 1.4 1.1 0 .9-.7 1.6-1.6 1.6-.8 0-1.2.5-.9 1 .4.6-.5 2.4-1.9 4.1-3 3.6-3.2 5.1-.9 7.4 1.2 1.3 1.3 1.9.4 2.4-.9.6-.1 2.2 2.8 5.5 2.3 2.6 4.1 5.6 4.1 6.7 0 1.4.9 2.1 3.1 2.6 5.1 1 6.8 8.3 1.9 8.3-2.5 0-2.8 3.8-.2 4.7.9.3 3.1 1.8 4.7 3.3 3.1 2.8 11.2 5 18.6 5 2.7 0 3.9.5 4.4 1.7 1 3.3 5.4 7.3 8.2 7.8 1.5.2 8.7 1.1 15.8 2 7.2.9 15.3 2.2 18 3 2.8.8 9.3 2.4 14.5 3.6 5.2 1.2 11.1 2.7 13 3.4 11.2 3.9 16.9 5.5 19.8 5.5 2.2 0 3.2.5 3.2 1.5 0 .8.5 1.5 1 1.5.6 0 1.6 1.2 2.2 2.6l1.2 2.5 1.8-2.3 1.8-2.3 1.9 2.3c1.3 1.5 3 2.2 5.5 2.2 2.9 0 3.8-.5 5.1-3 1.9-3.7 4.2-3.9 5.1-.5.7 2.9 1.6 3.1 3.4 1 1.6-1.9 4-2 4-.1 0 1.6 2.4 2.8 3.5 1.8.4-.4 3.9-.7 7.8-.8 4 0 8.2-.6 9.4-1.2 3.6-2 10.6-1.5 12 .8 1.1 1.6 1.7 1.8 4.2.9 4.3-1.5 12.1-8.7 13.8-12.6 1.2-3 1.7-3.3 5.8-3.3 5.2 0 9-2.9 8.2-6.1-.4-1.4.1-2.1 2-2.5 1.3-.4 3-.1 3.6.5 1.5 1.5 3.7 1.4 3.7-.2 0-1.7 7.3-9.7 8.8-9.7.6 0 1.7.9 2.5 2 2.5 3.6 9.4.2 8.5-4.2-.4-2 6.5-1.3 7.7.8.6.9 2.3 3.2 3.9 5.1l2.9 3.4 2.3-2.2c1.3-1.3 2.4-3 2.4-3.9 0-2.1 7.3-7.3 9.6-6.8.9.1 2.6 1.5 3.7 3 1.7 2.3 1.8 3 .7 4.3-.7.8-1 1.8-.7 2.1.6.6 13.2-2.3 15.8-3.6 1.5-.9 3.8-4.9 5.9-10.7 1.3-3.6 3.1-3.5 4.8.3.7 1.3 1.5 2.4 1.9 2.4.5 0 2.3-1.9 4.2-4.1 2.5-3 3.1-4.3 2.2-5.2-1.9-1.9-1.3-3.6 1.9-5.6 2.8-1.7 2.9-1.9 1.2-3.4-1.6-1.5-1.9-1.3-5 2.3-1.7 2.1-3.2 4.8-3.2 5.9 0 2.7-4 3-4 .3 0-.9-.7-2.6-1.5-3.6-.8-1.1-1.2-2.9-.9-4.3.5-1.7-.1-2.9-2.5-5-3.5-3.1-3.9-4.8-1.5-5.7 1.5-.6 1.5-.8-.2-2.7-1-1.1-3.7-2.8-6.1-3.9-4.7-2-4.8-2.2-3.4-4.8.6-.9 1.2-2.9 1.6-4.5.6-3 2.6-3.5 4.5-1.3.6.8 1.8 1.2 2.6.9 1.1-.4 1.2-.9.5-1.6-2-2-1.1-4.4 2.5-7.2 2.5-1.9 3.3-3 2.5-3.8-.7-.7-1.8-.7-3.6.1-2.9 1.3-3.2.6-.9-1.9 2.2-2.4 1-3.9-3.2-3.9-3.8 0-4-.4-1.9-5.3 1.3-3.1 1.3-3.6-.1-4.1-.9-.3-2.6-.3-4 0-1.8.5-2.4.2-2.4-1 0-1-.9-1.6-2.5-1.6-2.3 0-2.4-.2-1.3-2.5.6-1.4 2.2-3.2 3.5-4 1.4-1 2.3-2.5 2.3-4.2 0-1.4 1.3-5.4 2.9-8.8 2.6-5.4 2.8-6.5 1.8-9.7-.9-2.7-2.2-4.1-6.1-6.1-2.8-1.4-6.1-2.9-7.3-3.2-2.8-.8-7.3-6-7.3-8.6 0-2.5-6.8-5.9-11.8-5.9-2.5 0-5-.9-7.2-2.5-1.9-1.4-4.5-2.5-5.8-2.5-2.1 0-2.2-.2-1.2-1.5 1-1.2 1-1.5-.4-1.5-.9 0-1.6-.7-1.6-1.6 0-.9-.9-1.8-2-2.1-2-.5-2.8-2.3-1-2.3.6 0 1-.7 1-1.5 0-1.8-2.6-2-3.7-.3-.5.8-1-.4-1.3-3.2-.5-4.1-1-4.8-5.4-7.8-6.2-4.1-9.2-3.9-12.4.8-3 4.5-4 4.8-5.2 1.5-1.8-4.8-1.2-9.1 1.5-10.9 3.2-2.1 3.2-5.1-.2-12-2.3-4.7-3-5.5-4.8-5-1.8.4-2.2.1-2.1-1.8.1-1.5-.6-2.4-1.9-2.6-1.1-.2-2.4-1-2.8-1.8-1.2-2.2-3.7-1.7-3.7.7zm661.3 1.6c-.7.2-1.3 1.3-1.3 2.3 0 1.4 1 2.1 3.4 2.6 5 .9 6.2-.3 3.5-3.2-2.2-2.4-3.3-2.7-5.6-1.7zm-49.6 25.1c-1.6 1.7-1.5 2 1.3 4.7 2.9 2.8 3 2.8 5 1 1.1-1 2-3.1 2-4.7 0-2.5-.3-2.8-3.3-2.8-2 0-4.1.8-5 1.8zm-432.3 1c-1.5.9-3.4 4.7-3.4 6.5 0 2.3 3.1 2.9 5.2 1 3.2-2.9 1.5-9.8-1.8-7.5zm535.8 18.9c.2 1 1 1.8 1.8 1.8s1.6-.8 1.8-1.8c.2-1.2-.3-1.7-1.8-1.7s-2 .5-1.8 1.7zm-601.5 14c-.2.5-.1 1.9.2 3.2.6 2.1.8 2.2 2 .7.7-.8 1.1-2.3.7-3.1-.6-1.6-2.2-2-2.9-.8zm72.7 5.8c-.5 1.9.4 4.1 3.2 8.7 4.1 6.5 7.2 9 5.9 4.7-1.4-4.4-7-15.9-7.7-15.9-.4 0-1 1.1-1.4 2.5zm-50.9 8.2c-6.1 3-10 14-6 17.3.8.7 1.5 2 1.5 2.9 0 2.5 2.3 7 3.9 7.6.8.3 2.7-.3 4.2-1.4 1.5-1.1 3.5-1.8 4.6-1.5 1.4.4 2.7-.3 4.3-2.3 1.9-2.4 2.1-3.8 1.8-9.4-.3-5.6-.8-7.1-3.7-10.7-3.5-4.5-5.5-5-10.6-2.5zm554 3.6c-2.7 2.1-1.3 6.7 2 6.7 2.2 0 2.5-.4 2.5-4 0-4.3-1.2-5-4.5-2.7zm-566.9 17.4c-1.1 1.1-.6 4 .9 5.3.8.7 1.5 2.2 1.5 3.4 0 2.8 5.2 7.9 7.6 7.4 3.5-.6 2.6-3.5-2.5-8.3-2.8-2.6-5.1-5.4-5.1-6.1 0-1.5-1.5-2.6-2.4-1.7zm452.2.9c-3.3 1.7-4.5 5.6-2.9 9 .9 2 1.8 2.4 5.4 2.4 4.1 0 4.7-.3 7.1-4 3.1-4.7 3.1-5.2.8-7.3-2.3-2.1-6.8-2.1-10.4-.1zM469 536.1c-1.4 2.5-.4 7.5 1.6 8.3.8.3 1.4-.1 1.4-.8 0-.9.7-1.2 1.9-.9 3.1.8 3.8-3.3 1-6.3-2.8-2.9-4.5-3-5.9-.3zm57.9 1.6c-.2 3.1.2 4.7 2.7 10 2.1 4.6 2.8 5.3 5.4 5.3 3.4 0 4.5-2.4 3-6.6-.6-1.6-.9-4.3-.5-6 .5-2.9.3-3.2-2.6-3.8-5.5-1.1-7.9-.7-8 1.1zm-31 39.8c-4.8 2.6-7.9 10.3-6.5 16 .5 2 1.3 2.5 3.6 2.5 2.7 0 3-.3 3-3 0-3 0-3 2.5-1.4 3.3 2.1 7.4 9.1 10.1 16.8 1.6 4.9 2.5 6.2 4.4 6.4 5.6.9 7.3-6.8 4.5-19.5-2.9-12.8-3.1-13.1-9.6-16.3-6.5-3.3-8.2-3.6-12-1.5zm385.7 2.5-2.8 1.8 2 2c1.1 1.1 2.5 3 3.2 4.1 1.4 2.7 4.6 2.7 6 .1 1.2-2.2-.3-9-2-9-.5 0-1.4-.2-2.2-.4-.7-.3-2.6.4-4.2 1.4zm51.6 55.6c-2.8 1.9-2.8 2.5.3 5.8 1.4 1.5 2.5 3.1 2.5 3.6 0 .4 1.3 1.3 2.9 1.8 2.4.9 3.4.6 6.5-1.6 7.6-5.3 5.1-11.2-4.8-11.2-3 0-6.1.6-7.4 1.6zm26.9 29.8c-.7.8-.8 1.7-.4 1.9 1.3.8 7.4-.7 7.6-1.8.3-1.6-5.8-1.8-7.2-.1zm-726.7 11.8c-1.2.6-2.9 2.8-3.8 5.1-1.5 3.7-1.5 4.2.1 5.9 1.5 1.7 1.5 1.8-.6 1.8-1.4 0-2.1.5-1.9 1.2.6 1.9 8.5 2.2 11.1.5 1.2-.8 3.4-1.7 5-2.1 1.5-.3 2.7-1.2 2.7-2 0-2.2-2.1-7.6-3-7.6-1.1 0-2.1 3-1.4 4.1.3.5-.2.9-1 .9-1.1 0-1.3-.8-.9-3.3.4-2.8.1-3.5-1.9-4.4-1.5-.7-3-.7-4.4-.1zm779.3 16.2c-4.1 1.1-4.4 2.9-.6 3.4 1.5.2 3.2-.5 4.3-1.7 2.2-2.4 1.1-3-3.7-1.7zm-897 16.4c-2.6 2.9-2 5.7 2.3 10.7 2.6 3 4 5.6 4 7.4 0 2.8 2.6 6.1 4.8 6.1 1.6 0 1.5-1.5-.2-4.8-.7-1.5-1.6-5.9-2-9.7-.9-10.4-1.4-11.5-4.6-11.5-1.5 0-3.4.8-4.3 1.8zM639 721.5c-.7.8-2 1.5-2.9 1.5-2.1 0-4.1 1.9-4.1 3.8 0 2.2 8.1 20.2 9.1 20.2 1.7 0 8.9-11.3 8.9-14 0-.6-1.4-.8-4-.4-2.2.4-4 .3-4 0 0-.4 1.3-2.1 3-3.9 3.1-3.3 3.4-4.4 2.4-7.1-.8-2.1-6.7-2.1-8.4-.1zm362.6 22.2c-1.2 1.2-.6 3.3.9 3.3.8 0 1.5-.6 1.5-1.4 0-1.7-1.4-2.8-2.4-1.9zm-32.9 44c-.4.3-.7 1.2-.7 2 0 .9 1.8 1.3 6.5 1.3 6.5 0 7.5-.6 5.3-2.8-1.3-1.3-10-1.7-11.1-.5zm-56.6 4.6c-3 1.5-3.8 3.5-1.7 4.3 1.7.7 6.5-2.5 6.6-4.4 0-1.5-1.8-1.5-4.9.1zm-598.4 7.5c-3.7 3.9-3.7 8.5.1 9.8 2.4.8 3.1.5 6.4-2.6 2.1-1.9 3.8-4.4 3.8-5.6 0-5-6.1-6-10.3-1.6zm381.7 10.7c-1.4.9-2.5 3.4-3.3 7.5-1.4 7-.8 10 2 10 1.4 0 2.3-1.4 3.6-6 2.5-8.4 6.2-7.9 6.3.9 0 2.1 2.3 5 4.1 5.1 1.4 0 2.9-5.5 2.9-10.5 0-5.1-.2-5.5-2.4-5.5-1.3 0-3.7-.7-5.2-1.5-3.6-1.9-5.4-1.9-8 0zm206.1 1.2c-4.8.9-6.5 2.6-6.5 6.1 0 3.6 2.1 6.1 5.2 6.2 1.6 0 5.8-6 5.8-8.4 0-2.2-2.4-4.3-4.5-3.9zm-623.9 1.9c-1.3.9-2.5 1-4.3.3-3.9-1.5-4.3-1.1-4.3 3.6 0 3.3-.4 4.5-1.5 4.5-.8 0-1.5-.7-1.5-1.6 0-1.2-.7-1.5-2.7-1.1-17.4 3.2-18 3.5-18.9 11.3-1 9-1.1 9.3-5.2 10-2 .4-4.8 1.5-6.1 2.5-1.7 1.4-4 1.9-8.1 1.9-8.1 0-14.3 2.4-17.6 6.8-3.6 4.8-4.4 5.3-7.1 4.7-3.4-.8-3.5.9-.3 4 2.5 2.4 4.1 2.9 14 4.1 11.1 1.4 11.1 1.4 15.8-1.1 2.6-1.4 5.6-3.5 6.7-4.7l2-2.3.3 5.2c.2 4.3.6 5.3 2.1 5.3 2.8 0 8.6-8.5 7.1-10.5-.4-.6-1.5-3.4-2.6-6.3-1.8-5.2-1.8-5.4-.1-6.7 1-.7 3.7-1.6 6-2 3.6-.5 4.7-1.4 7.7-5.6 1.9-2.7 4.2-4.9 4.9-4.9.8 0 2.7-1.2 4.3-2.7 2-1.9 3.1-2.3 4-1.5.7.6 2.9 1.2 4.8 1.4 3 .2 3.5.7 3.3 2.5-.2 1.8.2 2.3 2.2 2.3 2.7 0 3.2 1.8 1.4 5.2-1.3 2.4-.5 3.5 1.5 1.9 1.1-.9 2.4-1 5.3-.2 3.1.9 4 .8 4.9-.4.8-1.1 2.1-1.3 4.3-.9 2.7.6 3.1.4 3.1-1.5 0-2.4.4-2.5 3-1.1 1.5.8 2.1.6 2.9-.9.6-1.1 2.5-2.2 4.2-2.6 1.9-.4 3.4-1.6 4-3.2 1.8-4.7 1.1-6.3-3.3-8.3-5.1-2.3-7.8-2.5-7.8-.6 0 .7-.7 1.9-1.5 2.6-1.3 1-1.9 1-3.5-.5-1.1-1-2-2.6-2-3.5 0-1.2-.9-1.6-3.6-1.6-2.4 0-4.1-.7-5.2-2.1-2.1-2.6-10-3.7-12.6-1.7zm701.5 38.3c-2.8 3.8-2.6 6.3.4 8.9 1.4 1.2 2.5 2.6 2.5 3.2 0 1.5 3.6 1.2 5-.5 1-1.2.7-1.7-1.4-2.6-2-1-2.6-1.9-2.6-4.5 0-1.8.5-3.6 1-3.9.6-.3 1-1.3 1-2.1 0-2.5-3.8-1.5-5.9 1.5zm-375.4 3.8c-2.7.4-2.7.6-2.1 5.2.5 3.6.2 5.5-1 7.3-1.6 2.5-1.6 2.5 2.7 4.2 5.3 2 7.1 2 9.1.1 1-1 1.3-2.6.9-4.9-.3-1.9-.1-3.6.6-4 2.1-1.4 1.1-4.5-2.3-6.5-1.8-1.2-3.7-2-4.2-2-.5.1-2.1.4-3.7.6zm415.9 3.5c-1.5 3.8-1.2 4.8 1.5 4.8 1.6 0 1.9-.7 1.9-4 0-4.8-1.5-5.2-3.4-.8zM231 868.5c-1.9 2.2-.7 4.1 1.3 2.1 1.8-1.9 2.2-3.6.8-3.6-.5 0-1.4.7-2.1 1.5zm787 4.9c0 1.7 1.8 2.5 4.2 1.8.9-.2 1.4-1 1.1-1.8-.7-1.8-5.3-1.8-5.3 0z"/>
</svg>
