<svg version="1.0" xmlns="http://www.w3.org/2000/svg" class="fill-current"  width="1365.333" height="1365.333" viewBox="0 0 1024 1024">
    <path d="M27.2 187.3c-1.6 4.6-1.8 4.3 3.6 6.3 2.8 1.1 6.2 3.5 8.4 6 4.1 4.6 7.7 6 10.8 4.4 1.9-1 1.9-1.3.5-4-1.3-2.4-2.2-3-4.9-3-2.4 0-3.8-.7-4.9-2.3-2.5-3.7-9.7-10.7-11-10.7-.7 0-1.8 1.5-2.5 3.3zm35.5 4.8c-.4 1.3.2 3.2 1.5 5 1.2 1.6 2 3 1.7 3.2-.2.2-1.8 1.3-3.6 2.6-3 2-3.1 2.4-2.1 4.9 1.8 4.2 2.4 4.5 5.9 3.3 2.6-.9 3.6-.8 4.8.3 1.8 1.6 9.8 4.2 10.6 3.4.9-.8-3.6-10-6.7-13.9-1.7-2.2-2.6-4.2-2.2-5.2.4-1.1-.6-2.1-3.5-3.6-5-2.6-5.7-2.6-6.4 0zm59.5 26.6c-2.1 1.8-2 1.9 4.1 8.5 5.5 5.8 6.5 6.5 8.5 5.7 2.3-.9 2.2-1-3.8-8.4-3.4-4.1-6.3-7.5-6.5-7.5-.1 0-1.2.8-2.3 1.7zm46.1 16c-.7.2-1.3 1.6-1.3 3 0 2.1.3 2.3 2.3 1.7 2.4-.7 3.7-2.2 3.7-4.2 0-1.2-2.4-1.5-4.7-.5zm91.2 12.2-4 .6 3 1.2c3.2 1.2 10.8 1.6 13.7.7 1-.3 1.8-1.2 1.8-2 0-1.5-6.4-1.7-14.5-.5zM138 248.6c0 .9-1.6 3.1-3.6 4.9l-3.5 3.3 4.7.7c4.4.6 4.8.5 8.5-3.1 3.6-3.5 3.8-3.9 2.2-5.6-2.1-2.3-8.3-2.5-8.3-.2zm167.1 0c-3.5 2.5-2.6 4.1 2.4 4.1 5.1 0 5.9-1.6 2.1-4-2.1-1.4-2.6-1.4-4.5-.1zM140.5 268c-.3.5-1.5 1-2.6 1s-5.6 1.2-10.1 2.7c-7.3 2.5-7.9 2.9-5.2 3.4 6.7 1.5 12.4.9 17.5-1.7 4.9-2.5 5-2.6 3.3-4.5-2-2.2-2.1-2.2-2.9-.9zm259.9 8.4c-2.1 1.6-2 1.7 5 3.5l3.9 1-2.8-2.9c-3.3-3.4-3.5-3.5-6.1-1.6zm271.1 13.4c-.6 2.9-.3 3.8 2.1 6.3 2.6 2.7 2.6 3 1.1 4.7-2.3 2.6-2.1 3.3 1.7 6.2 4.4 3.2 9.6 11.5 13.6 21.5 2.4 5.8 4.3 8.9 7.1 11.3 3.5 3 3.9 3.8 3.9 8.2 0 7.2-.6 7.4-18.8 7.1-8.6-.1-16.7-.5-17.9-.8-2.8-.6-3 1.4-.9 7.5l1.5 4.1-4 2.3c-2.1 1.2-3.9 2.9-3.9 3.8 0 .9-1.3 2.6-2.9 3.8l-3 2.2-3-2.6c-1.7-1.4-5.4-3.8-8.3-5.4-4.8-2.6-5.3-2.7-7.5-1.3-1.6 1.1-2.3 2.5-2.3 4.7 0 2.6-.7 3.6-4.4 5.9-4.1 2.6-4.3 2.9-4.2 7.3.1 4.4.3 4.6 5.6 8 4.8 3 5.6 3.3 6.6 1.9 1.3-1.8 4.4-1.9 7.9-.3 3 1.3 3.2 2.4.6 3.3-2.2.7-4.6 3.3-3.8 4.1.3.3 2.7-.4 5.3-1.5 5.3-2.4 4.9-2.5 12.9 5.1 4.9 4.6 5.4 4.8 12.4 5.6 5.3.5 7.7 1.2 8.5 2.4 1.6 2.6.3 3-4 1.2-2.5-1.1-5.3-1.4-8-1-3.6.5-4.4.2-6.9-2.4-3.9-4-7.9-4-12.1.1-2.8 2.7-3.1 3.4-2.4 6.6.5 1.9 1.9 4.7 3.3 6.2 2.8 3.1 5.2 8.6 4.2 10-.3.6-1.4 1.1-2.3 1.1-1.1 0-.5 1.1 2.2 3.9 3.4 3.4 3.6 4.1 2.5 5.9-1 1.7-1 2.3 0 3.6 1.1 1.3 1.1 1.6 0 1.6-4.1-.1-5.9-1.3-5.9-4.1 0-2.6-.3-2.9-3.2-2.9h-3.3l-.2-7.8c-.2-6.4-.8-9-3.7-15.2-1.8-4.1-3.9-8.7-4.5-10.2-1.1-3-5.5-6.3-7.1-5.3-.6.4.2 2.1 2.1 4.5 4.4 5.4 3.5 8-6.8 20.6l-8.5 10.4.9 5.2c.8 4.9 1 5.3 4.2 5.9 1.8.4 6.9 3.1 11.2 6 6.2 4.2 8.4 6.3 9.9 9.6 1.1 2.6 2.6 4.3 3.5 4.3 1 0 3.9 1.2 6.5 2.7 4.8 2.7 4.8 2.7 2.6 4.4l-2.1 1.8 3.3 1.1c3.2 1.2 4 2.4 2.2 3.5-.5.3-.7 1.8-.4 3.3.3 1.5-.4 5.2-1.5 8.4-1 3.1-1.7 5.9-1.4 6.2.4.3 2.1.6 4 .6 3.6 0 3.6-.2 3.7 9 .1 4.1 1.2 7.8 4.2 14.6l4.1 9.1-2.3 4.4c-2 4.1-2.6 4.5-7.5 5.4-4.8.9-5.4 1.3-5.7 3.8-.3 2.3-.8 2.7-3.4 2.7-2.9 0-3-.1-1.6-2.3 4.2-6.4 4.2-6.4 3-10.5-1.8-5.8-1.5-6.7 2.3-8.1 3.2-1.1 3.5-1.6 3.5-5.1 0-3.1-.4-4-2.1-4.5-1.7-.6-2-1.2-1.5-3.7.7-3.4-1.9-9.8-4-9.8-2.4 0-2.5-1.9-.4-5.9l2-4-5.4-4.1-5.5-4.2-4.6 3.2c-2.5 1.7-5 2.8-5.6 2.5-.5-.4-2.1 0-3.4.9-1.3.9-3.7 1.6-5.3 1.6-2.6 0-3 .5-4.6 5.5-1.6 5.2-3.6 6.9-5.1 4.5-1-1.6-2.5-1.1-2.5.8 0 1-.7 2.7-1.6 3.8-1.5 1.9-1.5 1.9-1.1-.3.3-1.4-.3-2.9-1.9-4.4-2.1-2-2.7-2.1-4.8-.9-1.4.7-4.1 3-6.2 5.1l-3.7 3.8 2.2 1.8c2 1.7 2.1 2.1 1 4.6l-1.3 2.8-1-3.2c-.6-1.7-2.1-3.9-3.3-4.7-2.3-1.4-2.3-1.4-2.3 2.6 0 3.8-.1 4-4 4.6-4 .6-4 .7-4 5.1 0 3.6.5 4.8 2.4 6 2.1 1.4 2.2 1.9 1.2 4-.7 1.6-1.4 2-2.2 1.4-.7-.6-1.6-.4-2.4.5-3.5 4.3-9.4 1.8-8.4-3.4.5-2.4.2-2.9-2.7-3.9-1.7-.6-3.4-1.1-3.7-1.1-.2 0-.2 3.3 0 7.2.4 6.6.1 7.8-2.4 12.1-1.8 3.2-2.8 6.2-2.8 8.9v4.2l-2.8-2.7c-1.5-1.5-3.3-2.7-4-2.7-1.5 0-1.5-.6-.1-7 .6-2.8.9-5.4.6-5.6-.8-.8-6.7 4.7-9.8 9.2-1.6 2.4-3.6 4.4-4.4 4.4-2 0-1.9-.7.6-3.8 1.9-2.4 1.9-2.7.4-3-.9-.2-2.7.6-3.9 1.7-1.4 1.3-3.6 2.1-5.9 2.1-3.4 0-3.9.4-6.2 4.9l-2.5 5 3.1 2.1c2.1 1.5 4 2.1 6.4 1.8l3.3-.4-1.7 2.6c-1 1.4-2.1 3.7-2.5 5.2-.5 2.4-.3 2.8 1.4 2.8 1.1 0 2 .4 2 1 0 1.3-4.3 1.3-7.4-.1-2-1-2.4-1.7-1.9-3.9.4-2.2 0-3.1-1.7-4-1.2-.6-2.3-1-2.5-.8-3 3.6-3.5 13.6-.7 16.1.9.8 3.9 2.4 6.7 3.4 3.1 1.2 5.1 2.5 5.3 3.7.3 1.6 0 1.8-2.3 1.2-2.2-.6-2.8-.3-3.2 1.4-.7 2.4-.6 2.4-7.3.1-3-1.1-7.2-2.2-9.3-2.6-3.4-.7-3.7-.9-2.3-2.4 1.3-1.5 1.1-1.9-2.6-4l-4.1-2.3-2.2 2.3c-1.6 1.7-2.7 4.9-3.8 10.9-1.4 7.7-1.4 8.5.1 9.6 2.1 1.5 8.9 1.6 12 .1 1.8-.9 2.6-.6 4.6 1.2 1.4 1.3 4 2.6 5.8 3 5.8 1.2 4 3.4-4.2 5.1-4.1.8-8.6 2.1-9.9 2.9-2.3 1.3-2.7 1.2-4.7-1.2-1.2-1.4-2.8-3.5-3.6-4.6-.7-1-3.1-2.3-5.3-2.7l-3.9-.7 6.4 7.3c3.6 4 8.8 8.5 11.7 10.2 9.9 5.6 9.3 8.8-.8 3.8-6-3.1-6.2-3.1-10-1.6-2.1.9-4.5 1.3-5.4 1-1.2-.5-1.5.2-1.5 3.5 0 2.3.1 4.1.3 4.1.1 0 2.7.8 5.6 1.9 4.4 1.5 5 2 3.3 2.5-1.8.6-2 1.2-1.5 3.9.7 4.1 2 5.7 4.5 5.7 1.1 0 3.5.7 5.4 1.6 3.1 1.5 3.4 2 3.4 6 0 3.7-.3 4.4-1.9 4.4-1 0-3.3 1.6-5.1 3.6-3.5 4-4.5 3.7-5.7-1.9-.6-2.9-2.2-3.4-5.4-1.7-1.8 1-1.8 1.2.7 6.2 1.4 2.8 3.2 6.8 3.9 8.9 1.3 3.5 1.2 3.8-.9 5.3-2.2 1.4-2.5 1.3-4.7-1l-2.3-2.4-2.2 2.1c-3.3 3.1-5.4 1.9-5.4-3.1 0-2.2-.5-4-1.1-4-.6 0-2.2-.9-3.6-2s-4.3-2.3-6.5-2.6c-2.9-.5-3.7-1-3.4-2.3 2-6.7 2.7-11.6 2.1-14.7l-.6-3.6-2.5 2.3c-1.6 1.5-2.4 3.3-2.4 5.7 0 1.9-.7 4.6-1.7 6.2-1.5 2.6-1.5 3 .7 6.5 1.3 2 3.6 4.2 5.2 4.7 2.7.9 2.8 1.2 1.5 3.2-4.5 6.9-4.5 6.2-.2 10.6 2.2 2.3 4.9 4 6.1 4 1.4 0 2.4.8 2.7 2.3.4 1.2 2.4 4 4.6 6.1 3.9 3.9 4.1 3.9 4.9 1.7l.8-2.2 1.8 2c1.3 1.4 1.7 2.9 1.3 4.8-.4 2 .1 3.5 1.6 5.1 1.9 2 2 2.6.9 5.5s-1 3.3 1 4.9c3 2.3 10.5 2.4 13 .1 1.3-1.1 2.3-1.3 3.7-.7 1.8.8 1.7 1.3-2.1 7.9-4.6 8.1-5.4 11.3-3.3 13.9 1.3 1.7 1.6 1.8 3.8.3 2.2-1.4 2.7-1.4 4.6-.1 2 1.4 2.3 1.4 4.1-.8 1.1-1.3 1.9-2.6 2-3.1 0-.4 1.1-.7 2.5-.7 2 0 2.5.5 2.5 2.4 0 1.3.7 2.9 1.5 3.6.9.7 1.3 2.1 1 3-.4 1.3.3 2.1 2.7 3 1.8.8 3.4 1.4 3.6 1.6.2.1-.6 2-1.7 4.3-1.2 2.2-2.1 5.6-2.1 7.5v3.5l5.3-.5c2.8-.3 6.1-.7 7.1-.9 1-.2 4.1.7 6.7 2.1l4.9 2.4-1.5 3.7c-.8 2-1.4 3.7-1.3 3.8.2.1 3.1.8 6.6 1.5 3.4.7 6.2 1.5 6.2 1.7 0 .2-.5 1.3-1.1 2.4-.8 1.6-.6 2.3 1.3 3.9 1.3 1.1 3.1 1.9 4 2 2.4 0 11.6-3.7 15-6.1 3-2.1 3.4-3.5 1.8-5.9-.8-1.2-1.2-1.1-3.2.6-3.9 3.6-4.8 3.7-6.8 1.1-1-1.3-4.4-3.9-7.5-5.8-4.5-2.7-5.5-3.8-5.1-5.4.3-1.1.6-3 .6-4.3 0-1.8.5-2.2 3.3-2.2s3.7-.6 5.5-3.9c1.5-2.7 2.1-4.8 1.6-6.5l-.6-2.5-4.1 1.6c-2.3.9-5.8 2.7-7.9 3.9-3 1.9-3.8 2.1-4.8.9-.9-1-.6-1.5 1.1-2 1.1-.4 5.4-3.5 9.5-6.9 5.9-4.9 7.4-6.7 7.4-8.8 0-2.5-.4-2.8-3.4-2.8-1.9 0-4.4-.8-5.7-1.9-1.9-1.6-2.1-2.1-1.1-3.4.7-.9 3-1.8 5-2.2 2-.3 4.8-1.5 6.2-2.5 2.3-1.8 2.4-2 .5-2-1.1 0-4.4-.6-7.3-1.4l-5.2-1.3-1.9 3.1c-1.1 1.7-4 5.1-6.5 7.6l-4.6 4.4v-3.3c0-2.1.9-4.4 2.5-6.3 3.5-4.2 3.1-5.4-1.1-2.9-1.9 1.2-4.4 2.1-5.5 2.1-2 0-2 0 0-2.9 2.3-3.1 2.8-8.6 1-9.7-2.1-1.2 1.4-2.4 5.4-1.8 3.6.6 3.7.5 3.7-2.5 0-2.1-.5-3.1-1.5-3.1-.9 0-2.9-.7-4.5-1.5-2.5-1.3-3-2.2-3-5.1 0-1.9-.9-5.3-2-7.4-1.1-2.2-1.8-4-1.5-4 2 0 7.5 4.9 8 7.2.9 3.9 2.9 5.1 7 4.4l3.5-.7-2.4-2.2c-1.8-1.6-2.5-3.6-3-7.7-.5-5-.4-5.3.9-3.6.8 1.1 1.5 2.4 1.5 2.8 0 1.6 5.2 2.9 6.7 1.7 2-1.7 3.2-.1 4.1 5.2.8 4.4.8 4.4 4.7 4.2 2.6-.2 5.2-1.3 7.8-3.4 2.3-1.9 4.4-2.8 5.4-2.4 1.3.4.4 1.9-4.6 6.9-5.4 5.4-6.1 6.6-5.6 8.9.4 1.5 1.1 2.7 1.6 2.7s2.7-1.8 4.9-4c3-3 4.6-3.9 7-3.7 1.9.1 3.2.9 3.6 2 .4 1.4.9 1.5 1.9.7 1.5-1.3 2.5.6 2.5 4.9 0 1.5.9 5.5 2.1 8.8 1.6 4.9 2.6 6.3 5 7.3 2.6 1.1 3.2 1 4.4-.6.8-1.1 1.5-2.9 1.5-4.2 0-2.7.6-2.7 4.8-.2 1.8 1.1 4.1 2 5.1 2s2.4.7 3.1 1.5c.7.8 3.8 2.4 7 3.6 3.2 1.2 6.9 3.2 8.1 4.5 1.9 2 2.4 2.1 3.3.9.9-1.3 1.6-1.3 4.3-.3 1.7.6 3.4 2 3.6 3 .4 1.2 1.5 1.8 3.5 1.8 1.8 0 4.4 1.2 6.7 3 3.5 2.8 4 2.9 5.4 1.5 1.5-1.5 1.3-1.9-2.3-4.9-2.9-2.5-3.7-3.8-3.2-5.3.6-1.7.3-2-1.9-1.5-2.1.3-2.5 0-2.5-1.8 0-1.2 1.2-3.7 2.7-5.6 2.2-3 2.4-3.7 1.2-4.5-1.6-1.1-12.5-.7-15.1.5-1.6.7-1.8.3-1.8-3.2 0-3.9 2.3-7.1 6.3-8.5.9-.3.9-.9 0-2.5-1.4-2.3-1.3-2.5 3.9-4.1 4.7-1.5 7-5 6.1-9.2-.6-3-.8-3.1-4.2-2.5-2 .3-4.3.6-5.2.6-.9 0-3.6 1.6-6 3.5-4.8 3.8-5.9 3.3-5.9-2.3v-3.4l-5.5 4.7c-3.5 3-5.5 4.2-5.5 3.2 0-.8-.7-2-1.5-2.7-2.3-1.9-1.8-2.7 1.9-4 2.6-.8 3.8-2 5-5 1.4-3.4 1.8-3.8 3.8-3.1 3.7 1.3 9.7-1.6 10.7-5.3.4-1.7.7-3.2.6-3.4-.1-.1-2.2.2-4.7.6-3.4.7-5.3.5-7.3-.6-1.9-.9-4.3-1.2-7.1-.8-3.8.5-4.4.3-5.9-2.1l-1.7-2.6 3.4.7c2.7.5 4.5 0 8.1-2 2.6-1.4 4.9-3 5.2-3.5.3-.5-1.3-3.6-3.6-7-3.7-5.4-4-6.4-2.9-8.4.7-1.3.9-2.8.5-3.5-.4-.7-2.5.8-5.8 4.4-6.3 6.6-10.7 8-12.6 4-1.5-3.4-1.4-4.2.9-7.1 1.6-2 1.7-2.8.7-4.5-1.5-2.5-11-7.3-16.2-8.1-3.6-.6-4.3-.3-7.7 3l-3.8 3.7V645c0-4.3 3.4-9.4 7.7-11.4 4.8-2.3 5.3-2.1 5.3 2.4v4h6.3c4 0 7 .6 8.5 1.5 1.9 1.4 2.4 1.4 4.6 0 3.8-2.5 5.7-6.1 5-9.1-.5-2-.3-2.5.7-2.2.8.3 2.2-.2 3.2-1 1.6-1.4 1.7-1.4 1.6.4-.6 5.6.1 6.1 5.2 4 1.4-.6 1.8.3 2.4 5 1.2 9.5 1.6 9.9 6.5 5.8 1.7-1.5 3.3-2.4 3.5-2.2.3.2 1.1 2.2 1.8 4.3 1.8 5.3 5.8 6.7 9.3 3.4l2.5-2.3 2.4 3.1c1.6 2 3.7 3.3 6 3.7l3.6.7-2.2 3-2.1 3 2.8 7.5c1.6 4.1 3.1 7.4 3.4 7.4.3 0 2.3-2.3 4.4-5 2.1-2.8 4-4.9 4.3-4.7.2.3 1.5 4.7 2.9 9.8 3.4 12.9 3.1 12.4 4.9 10.9.9-.7 3.4-4.1 5.6-7.6 4-6.1 6.2-8 8-6.8.5.3.9 1.2.9 2 0 1.8 1.4 1.8 3-.1.9-1 .9-2.3.2-4.7-.6-1.8-1.3-5-1.7-7-.3-2.1-1.3-4.1-2.1-4.6-.9-.5-1.4-1.8-1.2-2.8.4-1.7.8-1.5 3.5 1.3 2.8 2.9 3.7 3.3 8.5 3.3 6.5 0 9.7-2.4 7.9-5.9-1.5-2.7-1.4-3.1 1-3.1 1.1 0 4 1.6 6.3 3.5 3.5 2.8 5 3.4 8.1 3.2 3.4-.2 3.9.1 4.5 2.3.4 1.4.1 3.7-.7 5.3-2.5 4.9.7 6.4 4.7 2.2 3.3-3.5 4.7-3.1 5.3 1.6.4 3 1.6 5.2 4.2 7.9l3.6 3.7-1.3 4.7c-1.2 4.5-1.2 4.7 1.4 6.9 1.4 1.2 3.2 3.3 3.9 4.7 1.2 2.5 1.2 2.5 2.8-2.1.9-2.6 2.3-5.4 3.1-6.4 1.3-1.5 1.2-1.9-.5-3.2-1.1-.8-1.8-2-1.6-2.6.8-2.7.3-11.8-.9-16.5-1.3-4.9-1.2-5.2 1.3-9.1 1.5-2.2 2.7-4.4 2.7-4.9s-1.7-1.7-3.7-2.7l-3.8-1.8 3.5-.8c1.9-.4 7.1-1.4 11.4-2.3 4.3-.8 8-1.7 8.1-1.8.1-.2.6-1.3.9-2.5.7-2.1.5-2.2-2.4-1.7-2 .4-4.5 0-7-1.1-4-1.8-4.8-2.9-3-4 .6-.3 1-1.3 1-2.2 0-.9.7-2.5 1.6-3.4 1.6-1.7 1.5-1.9-.7-2.8-1.3-.5-3.3-1.8-4.3-3-1.2-1.3-3.1-2.1-5-2.1-4.9 0-9.7-1.7-13.8-5-3.6-2.9-3.9-3-6.6-1.6-1.6.8-4.8 3.1-7.1 5-2.4 2-4.7 3.6-5.1 3.6-1.3 0-2.3-2-2.4-4.9-.1-1.9-.6-2.6-1.9-2.5-1 .1-4.3-1.3-7.4-3.2-3.9-2.3-6.9-3.4-9.6-3.4-3.4 0-3.8-.2-2.7-1.5 1.6-2 1.6-1.9-5.5-3.7-4.3-1-6.1-1.9-6.3-3.2-.3-1.6 0-1.8 3-1.1 1.8.4 5.5.8 8.3.8 4.6.2 5.1.5 7.8 4.5 1.6 2.3 4.2 4.9 5.9 5.8 2.9 1.5 3.2 1.5 5.5-.8l2.4-2.5-8.8-5.5c-4.8-3.1-12-7.2-16-9.2-5.7-2.8-8.1-4.8-11.9-9.7l-4.7-6.1-4.4.7c-3.9.6-4.7.4-6-1.4-.8-1.2-2.5-2.1-3.7-2.1-1.3 0-3-.7-3.7-1.6-1.2-1.4-1-1.9 1.4-3.8 2.2-1.8 2.6-2.7 2.1-5.6-.5-2.9.2-5 3.4-11.2l4.1-7.6 2 8.6c1.9 8.1 2.3 9 6.7 12.9 3.1 2.7 6.3 4.6 9.5 5.3 2.6.6 11.3 5 19.4 9.7l14.7 8.5 2.3-2.2 2.4-2.2 2.9 2.1c1.8 1.3 4.5 2.1 6.9 2.1 2.5 0 4.8.8 6.8 2.4l3 2.4 3.9-2.1c2.9-1.6 4-1.9 4.3-1 .6 1.7 4.1 1.6 9.2-.2 3.6-1.2 4.5-1.2 7.6 0 4.4 1.9 4.2 2 6-1.5 1.1-2.2 2.3-3 4.2-3 2.3 0 2.5.3 1.9 3.1-.8 4.1 2.7 8.9 6.5 8.9 3.5 0 4.3-2.2 2.2-6.4-1.6-3.5-1.1-8.5.7-5.6.7 1.1 1.5 1.2 5 .1 5.6-1.7 7.4-.2 4 3.4-2.8 3-2.8 3 10.8 1.1 6.5-.9 9.2-1 9.2-.2-.1 3.4-5 6-9.9 5.2-2-.3-4.9-.2-6.6.2l-2.9.8 3.1 2.2c3.3 2.3 5.3 2.6 12.6 1.6 4.4-.6 4.7-.8 6.2-5.3.9-2.7 3.1-6.3 5.3-8.3 3.1-3 5-3.8 11.7-5.1 5.4-1.1 9.4-1.3 12.3-.8 3.1.6 4.2.5 4.2-.4 0-.7.7-1.6 1.6-1.9 1.2-.5 1.4-.9.5-2-.9-1.1-1.8-1.1-5.6.3-3.2 1.1-4.7 1.3-5.5.5-.8-.8.9-1.9 6.2-3.8 4-1.5 8.8-3.6 10.7-4.7 2.4-1.4 3.7-1.7 4.4-1 .8.8-.1 2.3-2.8 5.1l-3.9 4h3.1c2.3 0 3.8-.9 5.7-3.1 1.4-1.7 2.6-3.6 2.6-4.2 0-.7.3-2.1.6-3.3.4-1.6-.3-2.4-3-3.9-2.1-1.1-3.6-2.7-3.6-3.7 0-1.6 1-1.8 7.3-1.8 6.5 0 7.6-.3 9.7-2.5l2.3-2.5h-6.4c-3.9 0-8.7-.8-12.4-2.1-5.6-1.9-6.2-2-9.7-.5-3 1.3-3.8 2.3-4.4 5.1-.5 2.7-1.1 3.5-2.7 3.5-1.2 0-3.2 1.1-4.6 2.4l-2.6 2.4-5.8-3.3c-6.4-3.6-6-4.5 2.1-4.5 6.9 0 8.6-.8 10.7-4.6 1.4-2.7 2.4-3.4 4.8-3.4 1.7 0 4.2-1.1 5.9-2.5 2.8-2.3 3.2-2.4 4.7-1.1 1.3 1.1 2 1.3 2.8.5.6-.6 2.1-.8 3.4-.4 2.1.7 2.1.9.6 2-1.6 1.2-1.6 1.3.5 1.9 1.3.3 4.3.6 6.7.6 4.3 0 4.4 0 2.6-2-1-1.1-2.4-2-3.2-2-.7 0-1.3-.5-1.3-1.1 0-.7.9-.9 2.3-.5 6.2 1.8 14.4 1.8 17.6.2 1.8-1 3.1-1.9 2.9-2.1-.2-.3-4.9-1.1-10.3-2-13.9-2.2-15.6-2.5-15-3.5.7-1.1-7.5-6.2-15.4-9.6-3.5-1.6-5.9-3-5.3-3.2 1.9-.6 15.6 3.9 19.3 6.4 4.3 2.9 6.5 3.1 7.2.4.8-2.9 5.6-2.6 12.6 1 5.6 2.8 6.4 2.9 14 2.3 4.5-.3 8.1-.9 8.1-1.2 0-1.3-2.4-3.1-4.2-3.1-1 0-1.8-.5-1.8-1.1 0-.7 1.1-.9 2.9-.6 2 .4 3.3.1 4.2-.9 1-1.3 1.5-1.3 3.5.1 1.4.9 4.6 1.5 8.4 1.5 5 0 7.3-.7 13.8-3.9l7.7-3.9 9.5.8c9.9.9 11 .7 11-1.5 0-.9-2.2-1.4-7.7-1.7-9.1-.5-16.1-3.1-14.4-5.2 1-1.2 2.1-1.1 7 .2 5.3 1.4 6.6 1.4 15.7-.2 12.9-2.3 16-3.7 17.8-8 1.6-3.9 5.7-5.6 13.7-5.6 3.8 0 5-.5 7.8-3.3l3.2-3.4-7.7-.6c-4.2-.4-11.1-.7-15.3-.7l-7.6.1 2.9 2.3c6.1 5-1.4 7.9-9 3.4-3.1-1.8-3.4-2.3-1.9-2.8 1.4-.5.6-1.2-3.3-2.8-2.8-1.2-5.8-2.2-6.6-2.2-.9 0-1.6-.5-1.6-1.1 0-.8 1.4-.9 4.3-.5 5.6.9 20.2-3.1 18.6-5.1-.6-.7-.8-2-.5-3 .6-1.4 1.2-1 3.7 2 3.5 4.2 4 4.3 7.5 2 1.6-1 2.1-1.9 1.4-2.3-.7-.4.2-1.5 2.3-2.8 3.2-1.8 3.7-1.9 5.7-.5s2.3 1.4 3.8-.1c1.6-1.5 1.5-1.8-1.3-4.1-1.9-1.5-3.8-2.2-5.2-1.8-1.6.3-3.1-.5-5.6-3-2.2-2.2-4.9-3.7-7.4-4.1-2.1-.4-7.4-1.9-11.8-3.2-12.2-3.9-34.9-9.4-38.3-9.4-1.7 0-5.4.5-8.2 1.2-6.8 1.6-14.9-.9-18.1-5.7-1.5-2.2-5.4-4.7-13.3-8.6-6.1-3-11.2-5.9-11.4-6.6-.6-2.2 5.8-4.6 10.9-4 6.1.7 7.6-.7 5.3-5.2-2-4-1.1-5.1 1.9-2.4 1.8 1.8 15.4 6.3 18.7 6.3 1.7 0 1.1-2-1.5-5.4-1.4-1.8-3.2-5.5-3.9-8.1l-1.5-4.8 3.3 3.2c3.4 3.3 8.1 4.2 10.4 1.9 1.6-1.6 3.9.5 4.7 4.3.4 1.6 2.6 4.5 5.1 6.8 3.9 3.4 4.9 3.8 8.2 3.4 2.1-.3 10 .4 17.5 1.6 10.2 1.6 15.9 1.9 22.2 1.5 8.9-.7 9.6-1.3 7.9-5.8-.9-2.3-14.7-9.6-18.1-9.6-1.7 0-5.2-1.2-7.8-2.7-4.1-2.2-4.5-2.8-2.9-3.4 1-.3 3.5 0 5.4.8 7.1 3 8.2 3.3 11.8 3.3 2.1 0 4.8.9 6.2 2 1.4 1.1 3 2 3.5 2 2.1 0 8.5-2.1 8.5-2.9 0-.4-2.7-3.1-6.1-5.9-4.9-4.2-6.8-5.2-9.7-5.2-4.1 0-9.2-4.1-9.2-7.4 0-1.1-.7-3.9-1.6-6.3-1.3-3.2-2.3-4.3-4.5-4.8-3.5-.8-3.7-3-.9-7.8 2.4-4.1 1.9-8.3-1.2-9.3-1-.3-3.5-1.9-5.4-3.6-2.5-2.2-3.4-3.8-3.4-6.2 0-2.8-.6-3.5-6.2-6.5-7.3-4-13.9-4.7-17.7-1.9-1.3 1-3.1 1.8-4 1.8-.9 0-2.9.7-4.4 1.5-4.2 2.2-7.8 2.1-11.7-.3l-3.6-2.1-4.4 2.9c-4.2 2.8-5 3-11 2.4-5.8-.5-7.2-.2-12.8 2.3l-6.4 2.9-7.8-1.5c-7.5-1.4-8-1.4-12.6.7-4.4 1.8-4.9 2.4-5.2 5.5-.2 2-1 4.1-1.8 4.7-.8.7-1.4 2.8-1.4 4.7 0 2.9-1 4.7-6.1 10.1-4.5 4.8-6 7-5.7 8.7.4 1.9-.4 2.6-5.7 4.9-5.6 2.4-6.2 3-6.4 5.9-.5 6.7.7 13.7 2.3 13.8.6 0 3.2.2 5.7.4l4.7.2 5.3-7.5 5.4-7.5.8 4.2c.8 3.8.5 4.8-2.2 8.9l-3.1 4.7 3.9.3c2.2.2 4.5 1 5.1 1.8 1.7 1.9 10.3 1.9 12-.1 1.1-1.4 7-2.2 7-1 0 1.6-4.7 7.4-5.7 7.1-.6-.3-2.8 1-4.9 2.8l-3.9 3.3 4.5 2.3c3.6 1.9 4.1 2.4 2.7 3.2-2.8 1.5-2 2.4 3.9 4.4 4.5 1.5 6 2.6 7.2 5.1 1.1 2.3 2.3 3.3 3.9 3.3 3.3 0 2.8 2.6-.6 3.3-2.4.5-4.5-.3-10.5-4l-7.6-4.6-1.9 2.4c-2.7 3.2-2.6 4.7.2 5.1 1.7.2 2.1.9 1.9 2.7-.3 2.9 1.8 5.5 5.9 7.1 1.7.8 2.6 1.7 2.2 2.4-.4.6-1 2.9-1.3 5.1l-.6 4-2.7-5.3c-2.8-5.3-4.7-6.7-4.7-3.4 0 1-.7 2.7-1.5 3.8-1.3 1.7-1.4 1.4-1.2-4.1.3-7.9-2.6-12.5-7.9-12.5-1.9 0-3.4-.4-3.4-.9 0-1.1 2.5-2.1 5.1-2.1 2.3 0 4.2-4.1 3.3-7.5-.3-1.2-.1-2.6.5-2.9 1.6-1 1.4-2.6-.3-2.6-1.6 0-2.9-4.1-2-6.4.3-.9.1-2.3-.6-3.1-1-1.3-1.7-1-4.2 1.8l-3 3.2-3.4-3.9-3.3-3.9-1 2.5c-.5 1.4-1.9 2.8-3.1 3.1-1.9.5-2 .8-1 2.7 1.4 2.7.5 3.8-1.9 2.3-.9-.6-3.1-.8-4.7-.5-2.6.5-2.8.3-1.6-1.1 1.2-1.4 1.1-2-.1-3.7-.8-1.2-1.3-2.9-1-3.9.3-1.2-.8-2.6-3.7-4.5-2.3-1.5-4.4-2.6-4.6-2.3-.2.2-.9 3-1.5 6.3-1.8 10.2-1.6 10.1-5.5 6.3l-3.4-3.3 3.1-2.5c2.6-2.2 2.9-3 2.1-5-.6-1.8-.2-4.5 1.4-9.9l2.3-7.5-2.1-3c-1.2-1.7-2.1-4.1-2-5.4.2-2.9-.5-2.9-5.1.3-4.4 3-6.3 2.6-8.1-1.6l-1.2-3-2.3 4c-1.2 2.1-3.6 4.9-5.2 6.1-2.3 1.6-2.9 2.7-2.5 4.4.6 2.5-1.6 5.1-3.4 4-1.3-.8-1.3-7.2 0-8 .5-.3 1.5-1.5 2.1-2.6.9-1.8.8-1.9-.8-1.1-1.4.8-2.5.5-4.7-1.3l-2.8-2.2 3.1-1.1c1.8-.6 4.5-2.4 6.1-4 2.7-2.7 2.8-3.1 1.4-5.1-.8-1.1-2.1-2.1-2.8-2.1-.9 0-1.2-.9-.9-2.4.4-1.8 0-2.6-1.7-3.1-2-.6-2.1-1.1-1.5-5.3.6-4.1 7.1-17.1 8.6-17.2.3 0 1.3.6 2.3 1.3 1.6 1.1 1.4 1.6-2 5.5-3.4 4-3.5 4.5-2.4 7.3 1.5 3.4 2.3 3 3.9-2.3 1.7-5.3 3.7-5.6 4.5-.5 1.1 6.9 4.5 17.4 6.1 18.7 1.2 1 2.5 1 6.2 0 2.7-.6 7.1-1.6 9.8-2 2.8-.5 6-1.1 7.2-1.5 1.9-.6 2.3-.2 3.6 4.1 1.1 3.9 1.8 4.8 3.3 4.6 2.5-.5 3-1 4.9-5.5 1.5-3.7 1.5-3.9-.5-4.4-3.5-.9-2.3-2.6 1.5-2 3.4.6 3.5.5 3.5-2.7 0-1.9.7-3.9 1.5-4.6 1.2-1 1.1-1.8-1-6.1-2.2-4.3-2.9-4.9-5.6-4.9-3.3 0-6.9-1.5-6.9-3 0-.5 1.5-.4 3.5.1 1.9.6 4 .7 4.5.4 1.5-.9 1.1-7.7-.5-9.9-.9-1.2-1.2-2.9-.8-4.4.5-2.2.3-2.4-2-2-3.5.7-9.4-5.1-8.9-8.8.3-2.1-.1-2.4-2.5-2.4-1.9 0-3.9-1-5.8-3-1.8-1.9-3.5-2.8-4.6-2.5-2.5.8-10.8-3.5-10.2-5.3 1.1-2.7-2-3.1-6.6-.7l-4.6 2.3-4.4-3.1c-4.2-2.9-4.6-3-7.1-1.5-1.7.9-3.4 1.2-4.7.7-3.6-1.3-7.2.3-9.1 4.1-1.5 3.2-2.1 3.5-6.4 3.8-2.7.2-4.8.6-4.8 1 .1 2.3 3.8 12.6 4.7 12.9.6.2 2.4-.8 4.1-2.2 3.5-2.9 4.7-3.1 5.6-.9.9 2.2 1 2.1-3.1 3.4-2.1.7-4.5 1.9-5.4 2.7-1.5 1.3-2 1-4.4-2.1-1.5-2-2.5-4.2-2.2-5 1-2.6-2.8-4.6-10.6-5.6-4.2-.5-9.5-1.9-11.8-3.1-2.6-1.3-5-1.8-6.6-1.4-3.5.8-19.5-4.5-20.1-6.7-.6-2.4-14.4-9.8-18.2-9.8-4.3 0-8-2.7-18.1-13.4l-8.6-9.1-.8 3.3zM983 491.5c0 .2-2.5 1.2-5.5 2.1-4.4 1.2-5.9 1.3-7 .4-.8-.7-1.2-1.6-.9-2.1.5-.9 13.4-1.3 13.4-.4zm-575.3-200c.9 1.9 2.3 3.5 3 3.5.8 0 2.6 1.3 4.1 2.9 2.6 2.7 2.9 2.8 6 1.5 1.7-.8 3.2-1.7 3.1-2.2 0-.4-2.3-2.6-5.2-5-4-3.3-5.9-4.2-8.9-4.2H406l1.7 3.5zm-196 5c.4 5.3 1.3 8.3 3.7 12.3 3 5.2 3.2 5.3 6.7 4.8 2.9-.5 4-.1 5.7 1.7 1.1 1.2 2.2 3.3 2.4 4.7.2 1.7 1 2.6 2.4 2.8 3.1.4 4-5.1 1.9-12.3-1.5-5.2-1.8-5.5-4.8-5.5-2.6 0-4.5-1.4-10.9-7.7l-7.8-7.7.7 6.9zm230.1-2c-4.4 1.2-13.8 6.3-13.8 7.5 0 .5 6.7 4.2 21.2 11.9 5.9 3.1 6.8 4 6.8 6.3 0 1.6.3 2.8.6 2.8s2.2-1.3 4.2-2.9c4.9-3.8 8.3-4.5 12.8-2.6 2 .8 6.1 1.8 9.1 2.2 4.8.5 5.8 1 7.4 3.7 1 1.7 1.9 3.9 1.9 4.9 0 .9 1.9 3.8 4.1 6.2l4.2 4.5 6.6-.5c3.6-.4 9.5-1.1 13-1.6 5.2-.8 6.7-.7 8.7.6 2.9 1.9 3 1.1.4-3.7-1.5-2.9-1.8-4.6-1.2-7.5l.8-3.7 1.2 3c1.2 2.9 8.3 8.4 10.9 8.4 2 0 1.5-4.8-.6-5.9-2-1.1-9.7-10.7-14.4-17.9-1.5-2.3-3.4-4.2-4.1-4.2-.8 0-2.1-.3-2.9-.6-1-.3-1.8.2-2.2 1.6-.5 1.6-1.2 2-2.6 1.6-1-.3-2.8-.9-3.8-1.2-1.5-.4-2.3.2-3.6 2.5-1.4 2.8-1.4 3.4-.1 5.3 1.4 1.9 1.3 2.2-.9 3.9-2.9 2.4-3.7 2.4-8.4-.1l-3.9-1.9 1.4-7.3c.8-4 1.4-7.8 1.4-8.3 0-.7-4.8-.6-14.5.4-18.9 1.8-24.9.8-29.1-5-3.2-4.2-3.7-4.3-10.6-2.4zm-143.7 5.9c-.7.8-2.6 1.8-4.2 2.1-3.9.9-4.6 3-2.4 7.1 2.1 3.9 13.7 11.4 17.7 11.4 1.9 0 4 1.7 8.7 7.4 6.8 8.3 15.9 14.6 21 14.6 2.1 0 3.5.7 4.6 2.4 1.5 2.2 1.5 2.7 0 5.5-1.9 3.8-9.3 8-10.6 5.9-.5-.7-.9-2.2-.9-3.4 0-2.3-3.6-8-9-14.1-2.5-2.9-4.6-4.2-7.3-4.7l-3.9-.7.7 3c.4 1.7.4 4.4 0 6.1-.6 2.7-1 3-4.5 3s-3.9.3-5.4 4c-1 2.4-1.4 5.1-1 6.7.7 2.5.6 2.6-3.5 2-2.2-.3-4.1-.2-4.1.1 0 .4 1.7 2.6 3.8 4.9 3.4 3.8 4.2 4.3 9.8 4.9 6 .6 6.1.6 10.8-3.5 5.3-4.6 5.2-4.6 7.1-2.7.8.8 4.5 1.9 8.2 2.6 6.3 1.1 7.1 1 11.6-1.1 4.4-2.1 4.7-2.5 4.2-5.1-.6-2.6-.5-2.8 2.8-2.8 3.5 0 4.7-1.2 4.7-4.8 0-2.4 5.4-13.1 8.6-17l2.7-3.3-3.9.7c-3 .4-4.3.2-5.3-.9-1-1.3-.9-1.7.8-2.7 1.3-.6 2.1-2.1 2.1-3.5 0-2.2-.4-2.5-3.5-2.5s-3.5-.3-3.5-2.5c0-2.4-.2-2.5-4.2-1.9-2.4.4-6.2 1.7-8.5 3-6.6 3.8-12.8 3.3-22.2-1.7-10.9-5.8-11.1-6-11.8-11.7-.5-4.8-.8-5.2-4.5-6.6-4.7-1.9-4.3-1.9-5.7-.2zm83.6 12.9c-1.3 1.9-2.8 2.5-7.8 3.1-3.4.3-6.4.8-6.7 1.1-1.1 1 2.5 7.3 6.5 11.5 2.4 2.5 5.5 5.7 6.9 7.2 3 3.2 12 6.8 16.8 6.8 3.1 0 3.4-.3 3.9-3.7.5-2.9.2-4.2-1.4-5.9l-2.1-2.3 4.1-1.1c2.3-.6 4.5-1.8 4.8-2.6.3-.9-2.1-4.2-6.3-8.8-6.8-7.3-7-7.4-12-7.5-4.4-.1-5.4.3-6.7 2.2zm61.3 16c0 3.9 1.8 7.7 3.6 7.7.8 0 1.4.6 1.1 1.2-.2.8-1.6 1.2-3.5 1-1.8-.2-5.6.2-8.6.9-4.4.9-6.1.9-8.6-.1-1.7-.7-3.3-1-3.6-.7-1.3 1.3 1.8 4.4 5.6 5.6 2.8.8 4.7 2.2 6 4.4l2 3.2V345h4.4c3.9 0 4.8.5 8.4 4.4l4.1 4.4 1.1-3.4c.7-1.9 2.2-4.7 3.6-6.3l2.3-2.8-3.8-3.1c-2.2-1.8-4.4-4.7-5.1-6.7-.9-2.8-1.5-3.4-2.5-2.5-1 .9-2 .7-3.9-.5-2.6-1.7-2.6-1.7-2.6.8zm-269.4.3c-1.3 3.4-.5 5.8 3.3 9 3.5 3 3.8 3.7 3.1 6.6-.9 4.5 1.3 9.3 3.8 7.8 3.7-2.2 6.2-4.9 6.2-7 0-1.2.5-3 1-4.1.9-1.5.7-2.1-.5-2.5-1-.4-1.3-1.3-1-2.5.5-1.5-.7-2.5-6.4-5.4-8-4-8.7-4.1-9.5-1.9zm287.1 4.6c-.5 1.6.3 3 3 5.6 3 2.8 4.1 3.3 6.7 2.8 1.7-.4 4-1.5 5.1-2.6 1.9-2 1.9-1.9 3 .8l1.2 2.7 1.2-3.8c.7-2.1 1.1-4 .9-4.2-.2-.2-2.5-1-5.2-1.7-4.4-1.2-4.9-1.1-6.2.6-.7 1-1.5 2.4-1.7 3-.6 1.7-3.7-1.3-3.7-3.5 0-2.7-3.6-2.5-4.3.3z"/>
    <path d="M550 334c0 .5-1.1 1-2.5 1-2.8 0-2.9.1-1.4 5.3.6 2.2.8 4.1.6 4.4-.3.2-2.8-.7-5.6-2.1-2.8-1.4-5.2-2.6-5.4-2.6-.2 0 .2 3 .9 6.7 1.9 9.7 1.8 10.5-2.6 13.8-2.1 1.6-3.9 3.3-4 3.7 0 .5 1.7.8 3.9.8s4.4.6 5.1 1.5c.7.8 3.5 2.7 6.2 4.2 5.9 3.2 10.6 10.3 5.8 8.8-1.4-.4-3.6.3-6.7 2.4-2.6 1.7-5.3 3.1-6.2 3.1-.8 0-2.7 1.2-4.2 2.6-2.6 2.4-2.8 2.5-5.6 1-1.7-.8-3.9-1.3-5-1-1.2.3-4.3-.6-7.1-2s-5.4-2.6-5.8-2.6c-.4 0-.4 2.9-.1 6.5l.6 6.5-8.3-5.7c-4.6-3.2-8.1-6.1-7.8-6.4.4-.3 4.2-1.6 8.4-2.9 5.2-1.6 9.3-3.6 12.4-6.2 2.9-2.4 5.3-3.6 6.4-3.3 1 .3 2.5-.4 3.9-1.9l2.2-2.3-2.3-.6c-1.8-.5-2-.9-1-1.9 1.7-1.7 1.5-2.6-.9-3.8-3-1.6-9.9-.3-9.9 1.9 0 2.7-17.2 14.9-22.2 15.7-4.8.8-5.8 1.7-5.8 5.6 0 1.4-.3 3.3-.6 4.2-1 2.7-2.4.7-2.4-3.5v-4l-6.2.7c-4.5.5-8 1.7-12.1 4-5.6 3.3-6.2 3.4-16 3.3-11.5-.1-15.2-.8-15.2-2.9 0-.8-1.3-2-3-2.6l-3-1.1 2.5-1.3c1.4-.7 4.8-1.4 7.7-1.6 3-.1 7.6-1.3 11.2-3l6.1-2.8-2.2-2.3c-1.7-1.8-2.8-2.2-5.7-1.7-2 .3-5.4-.1-7.6-.9-3.3-1.2-4.6-1.2-7.5-.1-4 1.4-9.9 1.7-11.8.6-.8-.6.8-1.5 4.8-2.7 4.4-1.3 6-2.3 6-3.6 0-1.7-.3-1.7-4.7-.3-2.7.8-6.4 1.9-8.4 2.4-2 .6-4.2 1.7-4.9 2.5-2.1 2.5-3 1.7-3-2.4 0-3.6.3-4 3.6-5.1l3.6-1.2-3.1-3.2c-1.7-1.8-3.1-4-3.1-4.9 0-1.5-.5-1.4-4.6.6-4.3 2-4.5 2.4-4.1 5.4.4 2.2.2 3.1-.6 2.8-5.4-1.6-7.5-1.3-8.5 1.1-.7 1.3-3.2 3.4-5.6 4.6-4.5 2.1-4.5 2.1-3 5 .8 1.5 1.2 2.8 1 2.8-1.2 0-6.2-2.6-6.8-3.5-1.7-2.3-.8-6.6 1.9-8.9l2.7-2.4-5.9-1.2c-3.3-.6-6.8-1.4-7.8-1.7-1.6-.4-1.7.1-1.1 4.9.3 2.9 1.3 6.3 2.1 7.6 1.4 2.3 1.4 2.3-1.4.9-1.6-.8-5-1.8-7.6-2.2l-4.7-.7v4.7c0 3.8-.5 5.1-2.5 6.7-3.2 2.5-3.1 3 .6 7.3l3.1 3.5h8.7c8.1 0 8.9.2 10.9 2.5 1.2 1.4 2.6 2.5 3.1 2.5s2.2.5 3.6 1c4.7 1.8 1.4 3.7-7.8 4.5-4.9.4-8.9 1.3-9.8 2.1-1.5 1.4-1.9 1.3-3.2-.7l-1.6-2.1-3 2.1c-1.6 1.2-3.9 3.7-5.1 5.6-2.5 4-3.1 4.2-6.7 1.8-1.9-1.3-2.8-1.4-3.1-.5-.5 1.5-5.6 1.6-8.4.1-2-1.1-2-1.1.3-3.5 2.1-2.3 2.2-2.5.6-4.1-1.6-1.6-1.9-1.5-4.6 1.7l-2.9 3.5h-17.7l-16.6-10.2c-13.2-8.2-16.9-11-18.5-13.9-1-2-3.5-4.4-5.4-5.4-1.9-1-6.5-4.5-10.2-7.8-4.4-4-7.8-6.2-10.2-6.6-2.6-.5-4-1.4-4.6-3.1-.6-1.5-3.9-4-9.2-6.9-6.8-3.7-9-4.4-11.8-4-3.1.5-3.7.2-5.5-2.5-2.2-3.3-12.3-8.4-19-9.6-4.6-.8-4.3-.3 3.2 4.7 2.9 1.9 5 3.8 4.6 4.1-1.3 1.4-4.7.7-6.9-1.4-2.1-2-2.3-2-5.4-.4l-3.2 1.7 2.3 2.5c1.3 1.4 3.9 3.2 5.7 3.9 3 1.4 3.2 1.7 3.2 6.7 0 4.4-.4 5.8-2.5 7.7-2.9 2.8-3.4 6.3-.8 5.9 2.8-.5 5.9 1.7 7.3 5.1.8 2 2.1 3.2 3.9 3.5 1.4.3 6.9 1.8 12.1 3.4 12.8 3.9 18.3 4.6 20 2.6.7-.9 2.6-2.5 4.2-3.6 3.6-2.6 5.8-1.2 5.8 3.7 0 2.9.4 3.4 2.3 3.4 4.5 0 6.7 1.2 6.7 3.5 0 1.6.7 2.5 2.4 2.9 3.2.8 6.6 6.8 6.6 11.6v3.8l-4.2-.5c-2.4-.3-6.8-1.6-9.8-3-6.4-2.8-11.9-2.5-18.3 1-3.8 2.2-3.8 2.2-3.2 7.1.8 6.8 5.6 12.7 9.5 11.9 4.7-.9 12.7 3.6 22.2 12.5 8.7 8.1 8.8 8.2 14.1 8.2 3.1 0 6.1-.6 7.5-1.6 2.1-1.5 2.2-1.4 2.8 1.4.4 2.2 2.3 4.2 6.9 7.6 5.7 4.1 6.8 4.6 11.8 4.6 4.5 0 5.6.3 6 1.9.5 2.1-1.6 3.1-6.5 3.1-4.2 0-3.4 1.3 2.1 3.5 4 1.5 5.9 3.2 9.8 8.4 4.4 5.8 6 7.1 13.9 11 4.9 2.4 9.6 5 10.5 5.8 1.5 1.2 1.7.9 2.3-2.7.5-3.1 1.1-4 2.6-4 2.2 0 2.6 1.3 3.4 10.5.4 5.4.9 6.3 4.2 9.2 2 1.8 5.3 3.5 7.3 3.8 7.8 1.3 8.1 1.4 8.1 4 0 2.9-.8 3-7 1.1-6.4-1.9-11.2-5-14.8-9.5-2.5-3.2-4.4-4.3-10.2-6-6.7-2.1-7.6-2.7-16.2-11.7-10.8-11.2-12.1-11.5-15.7-3.7-1.5 3.2-3.2 5.4-4.5 5.7-3.9 1.1-11.1.6-20.5-1.4-5.2-1.1-10.4-1.7-11.5-1.4-1.2.4-7.6 3.8-14.3 7.6-6.7 3.8-14.5 7.6-17.4 8.4-4.7 1.4-5.8 1.4-11.7-.1-5.2-1.3-7.9-2.8-13.9-7.6-6.5-5.3-7.3-5.8-6.8-3.6 1.4 5.3-.7 5-6-.9l-5.3-5.9-2.2 4.6-2.3 4.6 2.7 6.6c1.4 3.6 2.6 7.2 2.6 8 0 .7.9 2.2 1.9 3.1 1.1 1 2.2 2.9 2.6 4.3.3 1.4 3.3 5.9 6.7 10 5.6 6.9 6.2 7.4 9 6.7 3-.6 3.1-.6 2.4 2.9-.4 1.9-.4 5.3 0 7.6.6 3.8 1 4.1 5.6 5.7 4.4 1.4 5.2 1.5 6.5.2 1.9-2 .3-8-3.1-12.2l-2.4-2.9 3.4-2.4 3.5-2.3 3.9 2c5.9 3 16 1.7 22.9-3.1 3.5-2.3 4.9-3.9 4.6-5-.7-2.2 2.6-3.5 4-1.5.5.8 1.5 2.1 2 3 .6.9 2.9 1.8 5.2 2.2l4.2.6-3.6-6.7c-1.9-3.6-4.4-7-5.4-7.3-1.8-.7-1.7-.9.8-3.9 2.3-2.6 3.7-3.2 8.2-3.6 4.1-.3 5.9-1 7.3-2.7 2.1-2.6 2-2.6 3.7 1.7.8 1.9 2.5 3.6 4.3 4.4 3 1.2 3.2 1.1 8.6-4.5l5.6-5.8 4.3 2.1c4 1.9 4.6 2 7.2.6 3.9-2 4.1-1.2 4.1 13.1 0 10.3-.3 12-2.5 16.2-1.4 2.6-2.5 5.5-2.5 6.5 0 1.1-.6 1.7-1.2 1.4-.9-.2-1.3-2.6-1.3-6.9 0-3.7-.2-6.9-.5-7.2-.3-.3-1.6-.3-2.9.1-1.8.5-2.1 1-1.6 3.1.4 1.8 0 3.1-1.6 4.8-3 3.2-3.6 3-4.3-1.1-.4-2-1.3-3.5-2.1-3.5-.9 0-1.5-1.3-1.7-3.5l-.3-3.5-7.2 3.4c-7.1 3.4-8.5 4.8-6.2 6.2.6.3.9 1.9.5 3.5-.5 2.4-.2 2.9 1.4 2.9 1.9 0 1.8.3-.7 4.9l-2.7 4.8 3.7 3.5c2 2 3.7 4 3.7 4.6 0 .6.3 1.7.6 2.6 1 2.7-3 1.9-7.2-1.5l-3.9-3.1-.5 10.6c-.3 5.8-.8 10.8-1.1 11-.3.3-2.7-1.7-5.4-4.4l-4.8-4.9-3.9 4.2-3.8 4.2.6-3c1.1-5.4 1.4-6 5.9-9.5 2.5-1.9 4.5-4.3 4.5-5.3 0-.9.5-2.6 1.2-3.7 1-1.5.9-2.3-.6-3.9-2.3-2.6-3-2.6-6.4-.1-1.5 1-3.9 2.2-5.4 2.6-2.7.6-2.8.4-2.8-3 0-3.2.3-3.7 2.9-4.2 1.6-.3 4.5-1.9 6.5-3.6 3.5-2.8 4.2-4.9 3-8.2-.8-2-4.3-.6-10 4.1-3.4 2.7-4.8 3.3-5.6 2.5-.9-.9-.9-1.5 0-2.4 2.2-2.2 1.2-2.7-2.5-1.1-5.9 2.4-6.9 3.8-8.3 11.9-1 5.9-1.8 7.9-3.6 9-1.7 1.2-2.8 1.3-4.3.5-2.9-1.6-2.9-1.5-2 3.5 1.3 6.8 3.1 12.4 4 12.4.5 0 2.1-1.8 3.6-4.1 2.6-4 2.6-4 4.6-2 2 1.9 2 1.9-.2 6.3-2.5 5.2-2.6 5.8-.7 5.8 2.9 0 2.4 1.8-2.4 9.4-2.7 4.2-6 10-7.2 12.9-1.2 2.9-2.2 5.3-2.3 5.5-.1.1-2.2.6-4.6 1.1-3.8.7-5.2.3-10.9-2.4-3.6-1.8-8-3.5-9.9-3.9-1.9-.3-4.2-1.3-5.2-2.2-1.6-1.4-2-1.4-4.9.1l-3.2 1.7 2.3 2.4c1.9 2.1 3.2 2.4 8.6 2.4 6 0 6.8.3 11.1 3.9 5.1 4.2 10.4 5.6 17.3 4.5 3.4-.6 4.1-1.1 4.6-3.7l.6-3 1.6 2.2 1.6 2.1 4-4c3.5-3.6 4.4-4 8.7-4 2.6 0 4.8-.5 4.8-1 0-.6.7-1 1.5-1 3.7 0 .7 6.6-6.2 13.1-7.7 7.5-13.6 9.9-23.8 9.9H230l-2.4 3.7c-1.4 2.2-3 6.7-3.6 10.6-.7 3.7-1.6 6.9-2 7.2-.4.3-1.5-.7-2.5-2.1l-1.7-2.6-2.4 2.3-2.4 2.2v-2.7c0-1.6 1.6-4.9 4-8.1l4-5.4-3.6-2.2c-3.1-1.8-4-2-5.6-1-1.7 1-2.6.7-6.5-2.5l-4.5-3.7-2.6 2c-2 1.5-2.7 2.9-2.7 5.5 0 1.9-.7 4.3-1.5 5.3-1.3 1.5-1.2 1.9.9 3.6 1.9 1.6 2.1 2.2 1.1 3.4-1 1.2-1 2.1-.1 4.2 1.2 2.6.3 4.2-2.3 4.3-.4 0-.5 1.2-.2 2.7l.6 2.8-2.5-2.8c-3.1-3.5-3.3-8.1-.4-16.6l2.1-6.2-2.3-2.5-2.4-2.6-.6 2.4c-.4 1.3-.7 4.4-.8 6.9-.1 3.8-.6 4.9-3 6.7l-3 2.2-.6-2.1c-.4-1.3-.1-2.7.9-3.8.9-1 1.6-3.5 1.6-5.6 0-2.1.7-4.6 1.5-5.5 1.3-1.4 1.3-1.9 0-3.7-1.3-1.8-1.9-2-6.7-1.1-4.4.8-5.4.7-6.4-.7s-1.6-1.4-3.4-.5c-1.6.9-2.4.9-2.9.1-.7-1.1-3.5-1.5-15.9-2.6l-6.2-.5v4.3c0 3.8.6 4.8 4.5 8.7 3.6 3.5 4.3 4.8 3.8 6.8-.6 2.4-.5 2.4 2.5.8 4.5-2.3 10.2-2.1 10.9.4.6 2.2 1.8 2.6 2.8 1 .8-1.3 4.5-1.3 4.5-.1 0 .6-.5 1.3-1 1.6-.7.4-.7 1.2 0 2.5 1.3 2.4-1.1 4.4-4.6 3.7-2-.3-3.8.6-8.3 4.3-5 4.2-6.4 4.8-11.6 5.2-5.9.6-6.1.5-10-3.3-3-2.9-4.6-3.7-6.3-3.3-2.9.8-2.8 1.5.7 3.9 2.3 1.5 3.1 2.9 3.6 6.5.4 2.5 1.3 5.6 2.2 6.8 1.5 2.4 2.8 2.5 8 .5 2.2-.8-4.3 4.9-7.4 6.6-1.2.6-4.1 1.1-6.5 1-2.4 0-3.6-.3-2.8-.6.8-.3 2.5-1 3.8-1.4 2.2-.8 2.2-1 .6-3.4-1-1.6-2.6-2.5-4.2-2.5h-2.6l2.8-2.9c2.1-2.2 2.6-3.4 2-5.5-1-4.1-4-5-10.7-3.3-4.9 1.3-6.5 1.3-12.3.1-3.7-.8-7-1.6-7.2-1.9-.2-.2.5-1.6 1.6-3.2 2.9-4.1 1.4-7.5-2.8-6.6-2.3.4-3.6.1-5.4-1.6-2.2-2-2.4-2.1-6-.6-2.5 1.1-4.9 1.4-6.9.9-2.8-.6-3-.5-1.9.9.8.9 3 2.1 5 2.8 5.2 1.7 5.5 1.9 3.9 3.7-2.3 2.7-3 9.8-1.2 13.2 1.4 2.7 1.4 3.3-.1 6.1l-1.6 3.2 3.4-.7c2.3-.4 4.1-.1 5.6 1 2.2 1.5 2.2 1.5 2.2-2.6 0-2.6-.8-5.1-2.1-6.9-1.2-1.6-1.8-3.4-1.5-4 1-1.6 2.6-1.4 2.6.3 0 .8 1.5 2.6 3.3 4.1 1.9 1.7 3.4 4 3.7 5.9.4 2.3 1.1 3.2 2.8 3.4 1.8.3 2.3.9 1.9 2.2-.5 1.9 2.5 3 8 3 2.3 0 2.3.1.8 3.1-1.6 3-1.6 3.1 2 7.5l3.7 4.4 6.3-.6c5.7-.6 6.4-.5 7.4 1.5.7 1.1 2.1 2.1 3.1 2.1 1.9 0 2.1.5 2.4 6.4.1 1.5 1.4 2.2 5.4 3.1 2.9.7 5.5 1.4 5.7 1.7.2.2.1 2.7-.4 5.6-.7 4.8-.6 5.3 1.9 7.7 2.4 2.3 3.2 2.5 12.8 2.5 6.4 0 11.5.5 13.5 1.4 2.2.9 4 1 5.7.4l2.5-.9-3-1.6c-1.6-.9-3.5-2.4-4.2-3.3-.7-.9-3.8-2.7-7.1-3.8-5-1.9-6.4-3-9.6-7.6-2.7-3.9-4.5-5.5-6.7-6-4-.8-11.8-6.2-12.9-8.9-.6-1.7-.2-2.8 1.8-4.9 2.2-2.4 2.8-2.6 4.1-1.4.9.7 6.1 2.4 11.6 3.6 5.5 1.2 10.9 2.4 12.1 2.7 1.5.3 2.3-.2 3.2-2.2 1.3-2.9 1-3 9.5 2.9l5.9 4.1-7.4.3c-5.8.2-7.7.7-9.6 2.4l-2.2 2.2 3.1 3.2c3.1 3.2 3.3 3.3 6.2 1.7 2.8-1.4 3-1.4 2.2.3-2.7 6.6-1.2 8.1 6 6 2.5-.8 4.5-1.2 4.5-.9 0 .3-1.3 2.1-3 4-1.6 1.8-3 3.7-3 4.1 0 .4 1.2 1.5 2.7 2.5 5 3.1 11.4 9.5 10.3 10.2-.6.4-1.9 0-2.8-.8-3.2-2.8-6-3-9.9-.6l-3.7 2.3 3 1.3c1.6.6 3.5 1.2 4.2 1.3 1.8 0 1.5 1.4-.8 3.5-2 1.8-2 1.9-.1 3.9 1 1.2 2.8 4 4 6.3 2 4 2.4 4.3 6.3 4.3 4.8 0 9.4-3.1 12.8-8.6 1.8-2.8 2.8-3.5 4.6-3.1 1.6.3 2.4 0 2.4-.9 0-.8 1.5-2.2 3.4-3.1 1.9-1 6-4.2 9.1-7.2 4.2-4 5.3-5.6 4.3-6.2-.7-.5-1.6-.9-2-.9-1.5 0-.8-2 .7-2 .9 0 1.8-.7 2.2-1.6.4-1.1 1.3-1.4 2.9-1 2 .5 2.4.3 2.4-1.7 0-2.9-5.8-8.7-8.7-8.7-1.3 0-2.5-1-3.2-2.8-.6-1.5-2-3.8-3-5.2-1.6-2-2.1-2.2-3.5-1.1s-1.6 1.1-1.6-.2c0-.9-1.2-2.3-2.6-3l-2.6-1.4 4-3.1c4-3.2 5.2-3.2 5.2-.2 0 1.9 8.8 12 13.1 15.1 2.9 2.1 3.1 2.1 4.4.3 1.3-1.7 1.4-1.4 1.5 3.2 0 4.5.3 5.2 2.5 6.2 3.6 1.7 4 1.5 5.4-1.4 1.3-3 1.3-3-1.8-4.2-2.2-.8-2-1 3.4-5.1 3.1-2.3 6.1-4.1 6.8-3.8.7.2 1.2 2.6 1.2 6.2v5.8l4.4 1.3c3.8 1.1 4.7 1.1 6.7-.3 2.2-1.4 2.3-1.7 1-4.6-.7-1.8-2.3-4.8-3.4-6.7-2.4-3.8-2.7-5-1.3-5 .6 0 2.6 2.7 4.7 6 2 3.3 3.9 6 4.1 6 .3 0 1.8-.8 3.5-1.8 2.1-1.2 5.1-5.7 10.4-15.4 4.1-7.5 8.1-13.8 8.8-14.1.8-.3 2.5-3.6 3.9-7.4 2-5.3 2.7-9 2.9-17.1.3-9.8.2-10.2-1.8-10.2s-2.2.8-3.3 11.2c-1.6 15-2 17.3-3.4 15.9-.7-.7-.6-3.3.3-8.4 1.4-8.5.1-16.8-3-19-.9-.6-2-2.1-2.3-3.2-.5-1.7.9-2.7 10.4-7.3 10.5-5.1 19.9-7.6 19.9-5.5 0 1.2-6.9 7.6-9.9 9.3-1.3.6-2.1 2.1-2.1 3.5s.1 2.5.3 2.5c.2 0 3.5-1.1 7.3-2.3 7.6-2.6 28.4-4.6 28.4-2.7 0 2 1.9.9 4.6-2.5l2.7-3.6-2.1-2.2c-1.9-2.1-2-2.7-1.1-10.2 1.1-8.6 1.7-9.9 4.5-9.3 1.9.4 2.1 1.5.9 5.4-.5 1.6.1 2.4 2.9 3.9 3.1 1.7 4 1.8 6.8.7 1.7-.6 3.2-1.1 3.3-.9.1.1 1.3 2.9 2.8 6.2 2.7 6 2.7 6 .7 7.7-1.1.9-2 1.8-2 2.1 0 .2 1.8 1 3.9 1.7 3.3 1.1 4.6 1.1 7.3 0 4.7-1.9 9.8-5.8 9.8-7.6 0-.8 1.4-3.2 3.1-5.3 3.3-4.2 6.1-4.5 8-1 .9 1.8 1.2 1.8 7.2-.5l6.2-2.3 1.6-12.4c2.2-16.3 4.2-20.7 13-28.8 5.3-4.8 6.8-6.8 6.4-8.2-.4-1.3.8-3.7 3.8-7.6 5.9-7.7 6.6-10 3.3-10.9-4.5-1.1-3.1-3.1 3.1-4.4 2.6-.6 3.6-.5 4 .6.8 2.2 1.6 1.7 4.3-2.7 2-3.3 8.8-9.7 26.4-25 .6-.5.2-1.6-.8-2.8-1.6-1.8-1.6-2 1.8-4 4.4-2.8 9.6-11.7 8.9-15.4-.4-2.2-.1-2.8 2.1-3.7 1.4-.5 2.6-1.5 2.6-2.1 0-.6 1.4-2.4 3.1-4 2.7-2.5 3-3.4 2.7-7.5l-.3-4.7-7.1 7-7 7 .6-4.4c.4-2.4.9-4.4 1.1-4.6 4-2.8 12.1-9.9 14.6-12.6l3.2-3.6.1 5v4.9l5.1-4.9c2.8-2.8 6.9-7.6 9.1-10.8 6.6-9.7 9.8-12.9 11.4-11.6 1.2 1 1.2 1.4-.4 2.5-2.8 1.9-8.9 12.4-9.7 16.7l-.7 3.7h5.5c5.6 0 5.6 0 8.3-4.5 1.4-2.5 2.9-4.5 3.2-4.5.4 0 2.6-1.8 5-4 3.4-3.2 4.1-4.4 3.6-6.4-.4-1.7 1.1-6.1 5.5-15.4 3.4-7.2 6.1-13.5 6.1-14.1 0-1.9-3.8-1.2-4.5.8-.5 1.8-4.1 3.8-5 2.9-.3-.2.7-2.6 2-5.3 3.7-7.1 3.4-8.1-2.9-9.5l-3.1-.6 3-1.6c2-1 3.7-1.3 5.2-.7 1.5.5 2.3.4 2.7-.7.3-.8 1.9-1.4 3.5-1.4 2.7 0 3 .2 2.2 2.2-2.1 5.8-2.2 7.8-.3 7.8 2.2 0 7.4-5.4 13.5-14.2 3.5-5 6.3-7.6 10.9-10.4 3.5-2 7.1-4.4 8.1-5.3 2-1.7 4.5-5.7 3-4.8-.4.2-3.8 2.3-7.6 4.6-4.6 2.8-7.9 4.1-10.4 4.1-3.4 0-3.5-.1-2-1.8 2.3-2.5 2.1-6.5-.3-8.7-1.1-1-2-2.1-2-2.5 0-1 4.8-3 7.1-3s12.3-6.6 15.4-10l2-2.3-2.9.5c-2.2.5-7.7-1.8-25.1-10.2-21.8-10.6-22.2-10.8-23.8-14.9-1.5-3.7-3.7-5.6-3.7-3.1zm-32 126.9c-1.2 2.3-2.9 3.5-3.7 2.7-.7-.7 2.6-4.6 3.9-4.6.5 0 .4.9-.2 1.9z"/>
    <path d="M265 340.5c0 .3 1.4 2.6 3 5.1 2.5 3.5 3.7 4.4 6 4.4 1.7 0 3-.3 3-.8 0-1.5-5.1-8.2-6.3-8.2-.7 0-2.2-.3-3.4-.6-1.3-.4-2.3-.3-2.3.1zm204.3 7.2c2 1.6 3.6 3.5 3.7 4.4 0 1.2.8 1.4 3 1.1 1.8-.2 3 0 3 .7 0 .6-1.3 1.7-3 2.6-2.4 1.2-3 2.2-3 4.7v3.1l2.5-2.7c1.3-1.4 3-2.6 3.8-2.6.8 0 2.2-.8 3.1-1.9.9-1 3.5-2.1 5.7-2.4 5-.7 5.2-.8 4.3-4.1-.6-2.4-1-2.6-6.8-2.6-3.3 0-8.6-.7-11.6-1.5-7.9-2.1-8.8-1.9-4.7 1.2zm-50 1c-2.4.5-2.9 1.9-1.5 4 .6 1 1.2 1 2.8-.1 1-.8 2.8-1.3 3.9-1 1.3.3 2.4-.2 3.3-1.6 1.1-1.9 1-2-2.5-1.9-2.1.1-4.8.4-6 .6z"/>
    <path d="M458.9 354.7c-2.4.4-2.7.9-3.2 6.9-.7 7 .4 11.4 2.7 11.4.8 0 2.1.3 2.9.6 2.3.9 7.5-8.4 6.9-12.4-.3-2.3.1-3.9 1.3-5.2 1.8-2 1.7-2-3.1-1.9-2.7.1-6.1.4-7.5.6zm-14.3 3.8c-1.9 1.4-1.8 1.5 1.2 1.5 2.4 0 3-.4 2.6-1.5-.7-1.8-1.4-1.8-3.8 0zm44.9 5.5c-.3.5-2.5 1.4-4.8 2-6.6 1.7-8.7 2.8-8.1 4.3.4 1 1.8 1.3 5.3.9 3.2-.3 5.8.1 7.9 1.2 2.9 1.5 6.2 1.3 6.2-.4 0-.4-.9-1.9-2-3.3s-2-3.2-2-4.1c0-1.8-1.5-2.2-2.5-.6zm-152 5c-1.7 1.9-2 1.7 8.3 5.7 1 .4 1.1-.2.6-2.3-.9-3.6-.6-3.3-4.2-4.3-2.4-.7-3.4-.5-4.7.9zM175 392.6c0 1.7 1 3 3.3 4.4 4.4 2.8 6.4 2.5 7-.8.3-1.5.5-2.8.4-2.8-.1-.1-2.6-.9-5.4-1.7l-5.3-1.6v2.5zm58.4 6.9c-.4.8-1.7 1.5-3.1 1.5-1.9 0-2.4.4-1.9 1.6.3.9.6 2.2.6 3 0 .9 1.1 1.4 3 1.4 1.7 0 3-.5 3-1 0-.6 1.5-2 3.4-3.1 2.2-1.3 3.3-2.6 2.9-3.5-.7-1.9-7.2-1.9-7.9.1zm6 34c-.4 2.2-.2 4.1.6 5 1.5 1.8 3 1 3-1.6 0-1.1.7-2.2 1.5-2.5 2.2-.9 1.8-1.9-1-3.2-3.5-1.6-3.3-1.7-4.1 2.3zM130 437.4c.8.8 3.4 1.9 5.8 2.4 3.7.9 4.2.8 4.2-.8 0-1.8-3.5-3-8.8-3-2.3 0-2.4.2-1.2 1.4zm13 4.6c0 3.2.1 3.3 1.7 1.7 1.6-1.6 1.6-1.8 0-3.4-1.6-1.6-1.7-1.5-1.7 1.7zm7.8-2.3c-4.1 1.1-1.5 3.6 6.7 6.5 8.7 3.1 16.5 4.3 16.5 2.5 0-.6.3-2.1.6-3.3.5-1.8-.2-2.2-4.9-3.5-3.3-1-6.3-1.2-7.6-.7-1.5.5-3.2.3-5.1-.7-3-1.5-3.3-1.6-6.2-.8zm450.4 7.8c-1.7 3.6-1.6 3.7 2.4 1.3 3.2-1.9 3.5-2.3 1.8-2.9-2.9-1.1-3-1.1-4.2 1.6zm-416.6 11.1c-.5 1.9-.1 3.3 1.3 4.8 1.9 2 2.1 3.5 2.1 14.4 0 6.7.4 12.2.8 12.2.5 0 2.3-1.8 4.2-4.1l3.3-4.1-2.7-8.6c-1.4-4.8-2.6-9.4-2.6-10.3 0-1.8-3.7-6.9-5-6.9-.4 0-1.1 1.2-1.4 2.6zm67.4-.8c0 2.3 7.5 9.6 8.9 8.8.8-.5.8-1.3.1-2.6-.5-1-1-3.3-1-5.1 0-2.6-.2-2.9-1.4-2-1.1.9-2 .9-3.5.2-2.7-1.5-3.1-1.4-3.1.7zm28.5 11.2c-2 2.2-2 2.2 1.4 4 3.2 1.7 4.9 0 3.3-3.5-1.4-3-2.3-3.1-4.7-.5zM23 492c0 3.4-1.5 4.4-7.8 5.5-3.3.5-4.7.3-6-.9-1.2-1-2.2-1.2-3.2-.6-1.2.8-1 1.8 1.3 6.6 2.5 5 2.8 6.7 2.6 13.4-.3 6.9 0 8 2.2 10.8 2.8 3.7 3.6 3.8 6.8 1.1 2.2-1.8 2.3-2.2 1.1-4.5-.8-1.3-2.4-2.7-3.7-3-3.7-1-2.7-8 1.3-9l2.4-.6-2.2-3c-2.1-3-2.1-3.1-.3-4.4 2.7-2 3.2-1.8 7.4 2.6 2.1 2.2 4.5 4 5.5 4 1.5 0 1.5-.3.2-3.5-1.5-3.4-1.4-3.5 1-4.1 1.4-.4 3.8-.4 5.4 0 2.9.5 3 .5 3-3.5v-4l-4.3.6c-4.8.7-7.7-1-7.7-4.6 0-1.4-.7-1.9-2.5-1.9-2.1 0-2.5.5-2.5 3zm491.8 26c-2 3.3-3.5 6-3.3 6 1.3 0 10.5-7.4 10.5-8.4 0-1.2-2-3.6-2.9-3.6-.4 0-2.3 2.7-4.3 6zm-13.3 12.5c-2.1 3.1-3.7 4.5-5.3 4.5-1.3 0-4.3 1.3-6.7 3l-4.3 3 1.4 4.7c.8 2.5 1.6 4.9 1.9 5.1.3.3 1.5-.4 2.8-1.6 1.8-1.7 3.6-2.2 8-2.2h5.7v-6.7c0-5.5.4-7.2 2.5-9.9s2.2-3.3.9-3.8c-2.9-1.1-3.9-.6-6.9 3.9zm-371.7 1.1c.4 2.5.3 2.6-2.3 2.2-2.7-.6-2.7-.5-2.1 3.6.4 2.2 2 6.5 3.6 9.3l3 5.3-2.1 5.2c-2.5 6.5-2.3 6.2-4.7 4.7-1.8-1.2-2.3-1-4.2 1.4-1.5 1.8-2.8 2.6-4 2.2-2.7-.9-4.5 2-3.2 5 1.1 2.5 1.1 2.5-3.3 2.5-3.5 0-4.5.4-5 2-.6 1.9-1.4 2.3-8.4 3.4-1.9.4-5 1.8-6.9 3.3l-3.5 2.6 2.8-5.4c1.6-3 3.1-6.1 3.5-6.9.4-.8 2.2-1.9 4-2.5 2.1-.6 4.2-2.4 5.8-4.8 1.6-2.4 4.1-4.5 6.4-5.4 3.6-1.4 3.8-1.7 2.3-3.3-1.5-1.6-1.4-1.8.5-2.3 1.2-.3 2.4.1 2.9 1.1.8 1.4 1.3 1 2.6-2.2 1.6-3.8 1.6-3.9-.9-6.4-2.1-2.2-2.7-2.3-4.1-1.2-.8.7-1.7 1.1-1.8.9-2.6-3.7-3.7-6.3-3.2-8 1-2.9-2.1-3.6-4.9-1l-2.3 2.1-2.7-2.1c-2.3-1.8-3.1-2-5.3-1-2 .9-2.8.9-3.4 0-.5-.8-2.2-1-5.5-.5-2.6.3-4.9.8-5.2 1-.5.5 1.7 7.6 2.4 7.6.3 0 1.7-.9 3.2-2 1.6-1.2 3.5-1.8 4.4-1.5 2.1.8 3.1 4.5 1.2 4.5-1 0-1.2.8-.7 3 .5 2.7.3 3-2 3-4.1 0-5.3 2.4-3.4 6.6 2.3 4.6 2.1 5.2-.5 2.6-3-2.7-7.6-4.4-10-3.7-1.7.6-1.8.3-1.2-3.6.7-3.9.6-4.2-1.2-3.4-1 .5-3.6 1-5.6 1.3-3.4.4-3.8.7-3.8 3.3 0 3.4-2.6 5.1-6.8 4.3-3.7-.8-4.8 1.5-2.6 5.8 1.4 2.8 1.9 3 5.4 2.4 2.3-.4 4-.2 4.2.5.2.7 1.2.7 3.3-.1 3.5-1.3 7.5-.5 7.5 1.5 0 2.2-2 2.9-3.8 1.2-1.3-1.4-1.8-1.4-4.4-.1-2.5 1.3-2.8 2-2.8 6.4s.3 5 2 5c1.9 0 2 .2.5 3-.8 1.6-1.5 3.8-1.5 4.8 0 2.4 3.5 5.6 5.1 4.6.9-.5 1.1.5.7 4-.5 3.9-.2 4.9 1.5 6.1 1.9 1.3 2.2 1.3 3 0 1-1.9 4.7-1.9 7.2-.1 1.6 1.1 1.7 1.7.7 2.9s-.6 2 2.3 4.6c3 2.6 3.4 3.4 2.5 5-1.4 2.7-1.4 2.7 3 4.5 2.1.8 6 3.5 8.5 5.9 4.2 4.1 4.6 4.3 6.1 2.6.8-.9 2.9-2.3 4.5-2.9 2-.9 2.9-1.9 2.9-3.5 0-1.8 1.1-2.9 4.5-4.5 2.6-1.3 5.3-1.9 6.5-1.5 1.3.4 3.1-.1 5.1-1.6l3-2.1-2.8-1.8c-1.5-.9-3.4-2.4-4.1-3.2-1.9-2.3.4-3.4 2.7-1.4 3.9 3.6 7 1.3 7.1-5.2 0-1.5.9-2.6 2.5-3.2 1.6-.6 2.5-1.7 2.5-3.1 0-1.8-.4-2.1-2.9-1.6-3.9.8-7.1-.2-7.1-2.3 0-1.3 1.5-2.2 5.3-3.2l5.2-1.5-3.7-1.2c-4.2-1.4-4.9-3-1.8-3.8 1.8-.5 2-1.1 1.4-5.4-.4-3.1-.2-5.4.5-6.3.9-1.1.7-1.5-1.1-1.9-2.2-.6-2.2-.7 1-4 2.7-2.8 3.1-3.8 2.6-6.5-.5-2.3-.1-3.8 1.5-5.8 1.1-1.5 2.1-3.8 2.1-5.3 0-1.4.4-3.2.9-4 .5-.8.5-2.7 0-4.4-.5-1.7-.5-3.7.1-4.6.5-1 .5-2.3 0-3.1-.7-1.2-1.3-1.2-3.4 0-2 1-3.1 1.1-5.1.2-3.4-1.6-3.3-1.6-2.7 1.4zm350.3 2.3c-3.6 1.9-4.9 4-5 7.9-.1 2.2 0 2.2 2.8.7 3.6-1.8 7.1-6.1 7.1-8.6 0-2.3-.6-2.3-4.9 0zM53 538.6c-.7 1.9-1 3.7-.8 3.8.1.2 2 .6 4.1.9 3.5.6 3.7.5 3.7-2.3 0-1.8-.8-3.4-2.2-4.4-3.1-2.2-3.5-2.1-4.8 2z"/>
    <path d="M68 537.8c0 1.6.8 3.7 1.9 4.6 1.7 1.5 1.9 1.6 2.5.1.5-1.5-2.7-7.5-4-7.5-.2 0-.4 1.3-.4 2.8zm-3.8 5.7c-1.7 3.7-1.5 5.5.8 5.5 3 0 4.2-3.1 2.1-5.9l-1.7-2.2-1.2 2.6zm-33.5 1.9c-1 .8-1.5 2-1.1 2.9.5 1.3 0 1.4-3 .7-4.1-.9-4.1-.9-2.2 5.3 2 6.6.1 6.2-6.8-1.6l-5.6-6.2 1.5 4.4c1.9 5.4 1.9 5.2-.7 4.2-2.6-.9-9.4 1.5-11.6 4.2-1.1 1.3-.8 1.9 2 4 1.8 1.4 4.3 2.8 5.4 3.1 1.2.4 2.7 1.9 3.3 3.5.7 1.5 2.7 3.5 4.4 4.3 3 1.4 3.4 1.4 5.7-.4 1.4-1 4.1-2.9 6-4.1 3.9-2.5 5-5.5 2.6-6.9-.9-.5-1.6-1.8-1.6-2.9 0-2.9 3.7-3.9 8.2-2.1 3.5 1.4 4 1.4 5.5-.1 1.4-1.3 1.4-1.9.3-3.2-.7-.9-2.1-1.3-3.1-1-1.5.5-1.9.1-1.9-1.5 0-2.2-3.5-8-4.8-8-.4 0-1.5.7-2.5 1.4zm12.6 21.7c-1.7 1.7-2.4 1.9-4.1 1-3.1-1.7-5.1-1.3-7.5 1.2-1.2 1.2-3.5 3.1-5.1 4.1l-2.8 1.8 3.1 1.9c1.8 1.1 3.4 2.6 3.7 3.4.9 2.3 1.7 1.8 4.7-2.9l2.8-4.5 3.6 1.6c3.2 1.3 3.8 1.3 4.7.1.6-.8 2.1-2 3.4-2.7 2.2-1.1 2.2-1.3.5-4.4-.9-1.8-1.8-2.7-2.1-1.9-.3.9-.8 1-1.6.3-.9-.7-1.8-.4-3.3 1zm444.8 5c-1.2 2.1-.4 4.6 2.3 6.8 1.2 1 2 .6 4.5-3 1.7-2.3 2.9-4.5 2.6-4.8-.3-.2-2.3-.6-4.4-.7-2.8-.1-4.1.3-5 1.7zm-443.7 8.1c-.8 1.5-1.9 2.8-2.5 2.8-.6 0-.8.9-.4 2 .4 1.4-.2 3-1.9 5.1-1.4 1.7-2.6 3.4-2.6 3.9 0 1.3 5.4 1.9 6.3.7.6-.9 1-.9 1.4 0 .7 2 5.2 1.5 8.4-.8 3-2.1 3.9-4.9 1.7-4.9-2.1 0-3.9-4.9-2.7-7.1 1.3-2.6.5-3.6-3.1-4.1-2.6-.4-3.4 0-4.6 2.4zm427.2 4.7c-2.1 3.9-.9 6.1 1.7 3.3 1.3-1.4 1.5-2.5.9-4.3-.9-2.3-.9-2.3-2.6 1zm5 12.9c-.3.5 1 2.3 2.8 4.1 2.9 2.8 3.4 3 4 1.5.5-1.2-.2-2.5-2.1-4-3.1-2.6-3.9-2.8-4.7-1.6zm-14.5 12c-3.5 5.5-3.7 6.5-1.6 8.2 1.4 1.2 1.3 1.5-.5 3.2-2.8 2.6-2.5 3.5 1.5 4.2 2.7.5 3.8 1.4 4.8 3.8l1.3 3.1 3.1-2.9c1.7-1.6 3.4-4.3 3.7-6.1.5-3 .2-3.3-4-5.3l-4.5-2.2 2.3-2.5c2.1-2.2 2.1-2.6.8-5-2.3-4-3.5-3.8-6.9 1.5zm350.2 2.9c-1.3.2-2.3.8-2.3 1.3 0 1.2 3.8 3.2 4.3 2.3 1-2 1.6-4.3.9-4.2-.4.1-1.7.4-2.9.6zM133 623c-1.4 1.9-3 3-4.6 3-1.7 0-2.4.5-2.4 2s-.7 2-2.7 2.1c-1.6 0-4.6.9-6.8 1.9l-4 1.9h3.7c4.9.1 6.8 1 6.8 3 0 1 1.1 2.4 2.5 3.1 2 1.1 2.7 1.1 4 0 1.3-1.1 1.9-.9 3.8.9 3.1 2.8 6.8 2.7 9.7-.4l2.3-2.5h-2.2c-1.8 0-2.1-.4-1.6-2 1-3-1.3-13.1-3.2-14.6-2.5-1.9-2.9-1.8-5.3 1.6zm673.1.4c-1 1.2-.7 1.8 1.8 3 1.6.9 4.4 1.6 6.2 1.6 3.9 0 10.7 3.7 11.5 6.3.7 2.2.6 2.2-2.3 3.1-1.8.6-2.5.2-3.4-1.8-.6-1.3-1.9-2.6-2.8-2.9-.9-.3-3.3-1.2-5.4-2.1-4-1.8-3.9-1.8-5.1 3.6-.5 2.1-1.5 3-4.7 4-2.6.7-4.5 2-5.2 3.6-.6 1.3-2.3 2.6-3.9 2.9-3.9.8-3.5 2.8 1.3 5.8 3.5 2.3 4 3 3.8 5.9-.4 3.9 2.4 8.6 4.9 8.6 1 0 3.8 2 6.2 4.5 2.4 2.5 4.8 4.5 5.2 4.5.4 0 1.4-1.2 2.2-2.8l1.5-2.7.1 4.6c0 2.5-.5 5-1.1 5.6-.7.7-.2 1.7 2 3.2l3.1 2.2 3.1-2.2 3.1-2.2-2.7-2.2c-2.8-2.1-2.8-2.2-1.7-8.4 1.1-5.8 1-6.6-1.2-10.9-1.3-2.6-3.4-5.2-4.7-5.7-3.3-1.5-3.6-3.5-.4-3.5 2.4 0 2.5-.2 1.9-3.5-.7-4.2 0-4.3 5.7-1.4 3.9 2 4.1 2 5.5.2 2.7-3.6 1.7-7.1-3.7-12.8-3.9-4.2-6.4-5.8-11.2-7.4-7.2-2.5-8.1-2.5-9.6-.7zM474 630.5c0 2 4.7 4.2 6.1 2.8.5-.5.7-1.7.3-2.6-.8-2.2-6.4-2.3-6.4-.2zm364.3 6.2c1 1.8 1.2 3.4.7 4.3-1.1 1.7.5 3 3.7 3 1.5 0 2.8-1 3.7-2.9 1.4-2.6 1.4-3-.3-4.5-1-.9-3.5-2-5.6-2.3l-3.7-.6 1.5 3zM468 645c0 2.6 4.9 4.8 6.2 2.8.5-.8 0-1.9-1.3-3.1-2.8-2.3-4.9-2.2-4.9.3zm-48.3 3.8c-1.9 2.1-.6 4.2 2.5 4.2 2.1 0 2.3-1.8.4-4.2-1.2-1.7-1.4-1.7-2.9 0zm56-.2c-1 1.1-.8 4.4.2 4.4.6 0 1.3-.4 1.6-1 .8-1.2-.9-4.3-1.8-3.4zM635 669.8c0 .5.9 1.2 2.1 1.5 1.3.3 1.9.1 1.6-.6-.5-1.5-3.7-2.2-3.7-.9zm133.7 20.1c-.8 3.2.5 7.3 2.4 7.8 1.3.4 1.9 1.4 1.9 3.4 0 1.9.5 2.9 1.5 2.9 2.4 0 1.8-6.2-1.1-11.4-2.8-5-3.9-5.6-4.7-2.7zM421 694.5c-1 1.2-1 1.8 0 3 2.6 3.2 6 1 3.8-2.5-1.5-2.4-2.2-2.5-3.8-.5zm319 .3c0 1.2 3 5.2 3.9 5.2.7 0 3.1-4.3 3.1-5.5 0-.3-1.6-.5-3.5-.5s-3.5.3-3.5.8zm-576.3 3.8c-1.3 1.3-.7 2.4 1.4 2.4 1.1 0 1.9-.5 1.7-1.2-.5-1.4-2.2-2.1-3.1-1.2zm496.6.1c-.7.2-1.3 1.6-1.3 2.9 0 3.5 4.7 3.4 6-.2.6-1.4 1-2.7 1-3 0-.5-4.2-.4-5.7.3zm-222.3 7c-2.7 6-2.9 6.9-1.6 7.9.9.6 1.6 2.1 1.6 3.2 0 2.4 2.4 3.3 7.9 2.9 3.3-.2 3.6.1 6.2 5.2l2.7 5.3-2.5 4.8c-2.4 4.6-2.4 4.9-.9 7.9 1.3 2.4 1.4 3.6.6 5.1-1.2 2.3-2.5 2.6-3.6.8-1-1.5-2.2 2.1-2.3 7-.1 3.4 3.7 11.9 6.3 14.1 1.6 1.3 1.4 1.9 3.1-9.4.4-2.3 1.1-3.5 2.2-3.5 1.6 0 8.8-5.1 11.1-7.9.6-.8 1.2-2.7 1.2-4.2 0-1.4.7-3.2 1.5-3.9 2.2-1.8 1.9-3.6-1.2-6.4-2.6-2.5-2.7-2.6-1.4-7.6 1.1-4.1 1.1-6 .1-9.4l-1.2-4.3h-10.5c-12.1 0-12.3 0-12.3-8.6 0-4.9-.3-5.7-1.9-5.7-1.4 0-2.8 1.9-5.1 6.7zm269.3 1.7c-3.7 6.9-4 7.9-3.9 14.8l.1 7.4-4 1.9c-2.2 1-5.2 1.8-6.7 1.6-2-.2-3.4.7-5.9 3.9-3 3.7-3.7 4.1-6.9 3.6-1.9-.3-5.8-.8-8.7-1.1l-5.2-.7-2.1 4.2c-1.2 2.3-2 4.4-1.8 4.5.2.2 2.1 0 4.3-.5 2.2-.5 6.4-1 9.3-1 2.9 0 6.5-.6 8-1.4 1.5-.7 4.2-1.6 6.1-2 5.4-1 18.9-9.4 20.7-12.8 1.4-2.7 1.4-3.3-.7-8.4l-2.3-5.4 3.1-3.8c2.7-3.4 3.1-4.5 2.6-8-.3-2.3-.9-4.2-1.3-4.2s-2.5 3.3-4.7 7.4zM122 712.1c-3.2 2-3.3 2.2-1.5 3.5 3.8 2.8 7.6 1.3 6.8-2.9-.6-3.2-.8-3.3-5.3-.6zm47.6 13.2c-.7 2.7-.6 2.8 2.8 1.9l2.9-.8-2.6-1.6c-2.4-1.6-2.5-1.6-3.1.5zm84.4 7.3v3.4l4.5-2.2c2.4-1.2 4.3-2.4 4-2.6-.2-.3-2.2-.8-4.5-1.2l-4-.7v3.3zm-9.2 6.2c-3.7 2.2-4.5 3.1-3.7 4.2.8 1.1 1.2 1.2 1.6.2.2-.6 2-1.2 3.8-1.2 2.5 0 3.4-.5 3.9-2.3 1.2-4.6.8-4.7-5.6-.9zm220 36.7c-1.1 1.2-11.1 2.4-12.6 1.6-2.5-1.4-7.2 2.4-7.2 5.8 0 1.5.5 3.2 1.2 3.9.9.9.8 1.7-.2 3.7-1.1 2-2.1 2.5-5.4 2.6-3.3 0-4.6.6-6.3 2.9-3.4 4.2-3.6 5.4-1.1 6.9 1.6 1 2.3 1 2.6.2.2-.6 1-1.1 1.9-1.1 1 0 1.2.6.8 1.9-.5 1.5.2 2.2 3.8 3.4l4.3 1.4 4.3-3.9 4.2-4-1.9-2.2c-1.8-1.9-1.9-2.4-.8-5.1.8-1.7 2.4-3.8 3.8-4.7 1.4-.9 3.1-3 3.8-4.7 1-2.5 1.8-3.1 4.1-3.1 2.6 0 2.9-.4 2.9-3 0-2.7-.9-3.8-2.2-2.5zm8.3 23.3c-.9 1.7-12.9 6.2-16.4 6.2-1 0-1.9 1-2.2 2.5-.3 1.4-.7 3.6-1 4.9-.4 1.9.2 2.6 3.5 3.9 3.6 1.4 4.4 1.4 7.9 0 3-1.2 4.2-2.3 4.6-4.5.5-2 1.8-3.4 4.8-4.9 2.3-1.2 4.4-2.3 4.6-2.5.6-.5-3.2-7.4-4.1-7.4-.4 0-1.2.8-1.7 1.8zm157.4 32.6c-1.1.8-3.9 1.9-6.3 2.6-2.3.7-4.2 1.6-4.2 2 0 .3 1.9 1.5 4.3 2.7l4.2 2 7.6-3.7c4.1-2.1 9.3-4.2 11.5-4.6 3.2-.6 3.5-.8 1.9-1.5-3.5-1.4-16.9-1-19 .5zm58.7 6.8c-1.7 1.7-1.5 2.8.6 2.8 1.9 0 4.2-1.8 4.2-3.2 0-1.2-3.5-.9-4.8.4z"/>
</svg>
