<svg version="1.0" xmlns="http://www.w3.org/2000/svg" class="fill-current"  width="1365.333" height="1365.333" viewBox="0 0 1024 1024">
    <path d="M283 4.8c-17.7 13.1-25.9 28.6-26 49.2-.1 11.9-1.9 16.4-9.8 24-3.1 3-8.9 9.8-12.8 15-6 8-7.4 10.6-8.9 16.7-1.5 6.3-2 7.3-3.9 7.3-5.5 0-27 19-33.3 29.4-2 3.4-7.2 9.9-11.5 14.5-6.6 6.9-8.8 10.2-13.4 19.8-3 6.3-8.1 15.4-11.3 20.1-8 12.1-8 11.9-9.6 23.9-.8 6-2.2 12.8-3.1 15.3-1.9 5.1-3.2 36.5-2 46.4.7 5.5.9 5.8 5.1 7.8 3.9 1.9 4.5 2.7 5.4 6.8 1 4.6.9 5.8-1 13.5-.9 3.5-.7 4.8 1.5 9.5 4.9 10.5 4.3 16.4-2.3 24.7-4.6 6-4.7 10.1-.6 22.2 1.9 5.8 3.5 12.1 3.5 14.1 0 4.8 1.7 9.5 5.2 14.7l2.8 4.2v37.6l3 5.2c2.5 4.4 3.7 5.4 8.2 7.1 4.6 1.7 5.4 2.4 5.9 5.3.6 2.7-.1 4.9-4.1 12.9-4.6 9.2-4.8 9.8-3.8 14.3.9 4.2 1.5 5.1 6.8 8.4 5.4 3.5 5.9 4.1 7.9 10.6 3 9.7 8.4 20.2 13.6 26.8 3.6 4.6 5.6 6.1 10.4 7.9 6.3 2.3 7.1 3.6 7.1 11.5 0 3.2.1 3.3 5.3 3.9 13.1 1.6 12.4 1.3 16.1 7.5 5.1 8.3 7.6 14.7 7.6 19.2 0 4.4 2.3 9.7 5 11.6 1 .7 2.3 2.6 3 4.2.7 1.8 2.4 3.4 4.3 4 2.6 1 3.4.8 5.5-1.1l2.4-2.3 2.3 2.9c3.5 4.4 4 9.1 1.6 14.5-1.4 3.2-2.8 10.8-4.5 24.8l-2.4 20.3-4.9 5.6-4.8 5.7-.3 9.1c-.4 10.6-2 13.2-8.5 14.3-2.4.4-5.5 2-8.1 4.2-2.3 2-5.4 4.5-7 5.6-1.9 1.4-3.1 3.5-3.7 6.5-1.1 4.9-4.4 9.4-7.8 10.5-1.8.5-2.1 1.4-2.1 5.7 0 3.9-.6 5.7-2.5 8-1.7 2-2.5 4.2-2.5 6.7 0 3.6.3 3.9 4.5 5.5 5.5 2.1 6.4 4.6 4.1 11.3-2.2 6.3-2 14.9.5 24.5l2 8.1-2.5 10.6c-2.2 9.7-3.9 20.5-5 33.5-.4 4.6-.8 5.3-11 15.5-10.3 10.3-10.6 10.8-10.6 15 0 3.9-1.1 6.2-8.4 17.5-4.6 7.2-10.7 17.4-13.6 22.6-6.2 11.3-12.1 19.8-19 27.3l-5 5.5v11.3c0 10-.2 11.6-2.2 14.5-1.3 1.8-4.1 4.1-6.3 5.1s-5.4 3.1-7.2 4.7c-2.9 2.4-3.3 3.4-3.3 7.6 0 4.6.2 4.9 7.7 12l7.6 7.3 12.4-.6 12.3-.7 2.4 4.8c3.7 7.3 8.2 9.8 18.8 10.6 7.3.5 10.3.2 19-1.9 5.7-1.4 10.9-2.5 11.5-2.5.7 0 1.5 1.2 1.9 2.7 1.5 7.3 4.9 9.3 15.6 9.3h5.6l1.1-4.4c.6-2.5 1.1-6.1 1.1-8 0-3.1.4-3.6 3.6-4.6 1.9-.7 5.1-.9 7-.5 2.9.5 4.2.1 7.6-2.4 2.3-1.7 4.6-3.1 5.1-3.1s3.5-1.2 6.7-2.6c6-2.7 6.1-2.9 10.3-13.5 1.4-3.5 1.7-3.7 10.8-5.8 19.8-4.6 19.4-4.4 21.9-10.6l2.2-5.5h4.5c5 0 5.6.5 12.3 10.6 3.2 4.8 5 6.5 8.3 7.8 7.7 2.9 21.2 1.5 36.6-3.8 4.1-1.4 8.8-2.6 10.5-2.6 1.7 0 6.1-1.1 9.7-2.3 5.8-2 7-2.1 9.8-1 2.1.9 3.7 2.6 4.7 4.8.7 1.8 2.9 4.5 4.7 5.9 4.2 3.2 8.6 3.3 24.7.6 11.4-2 12.1-2 15.2-.4 1.8 1 6 2.3 9.3 2.9l6 1 2.9 6.3c2.9 6.1 3 6.2 7 6.2 2.3 0 6.3.7 9 1.5 2.8.9 8.9 1.5 14 1.5h9.1l6.2 6.9c5.4 5.9 6.9 7.1 11.4 8.1 5 1.2 5.2 1.2 14.2-3 5.1-2.3 9.9-4.5 10.7-4.9.8-.4 4.1-5.9 7.2-12.3 5.3-10.8 6.1-11.8 11-14.8 2.9-1.8 7.4-5 9.9-7.1 3.3-2.7 6.5-4.3 11.5-5.5 7-1.7 24.4-10.9 24.4-12.9 0-.5 2.4-6 5.4-12 4.5-9.3 6.2-11.7 11.1-15.9 6.8-5.9 10.9-11.9 12.5-18.7.7-2.9 2-5.4 3.1-6 1.7-.9 1.9-2.2 1.9-12.7v-11.7l7.9-13.2c5.9-9.9 8.1-14.8 9-19.4.7-3.4 2.3-7.8 3.5-9.8 1.2-2 4.6-7.9 7.4-13.2 4.7-8.7 5.7-9.9 9.4-11.3l4.1-1.7-.7-7.1c-.8-9.3 1.8-17.5 8.9-27.8 6.1-8.8 6.6-10.8 7.4-29.9l.6-14.4 4.3-1.5c2.6-.8 4.2-2 4.2-3 0-.8 1.4-4.5 3.1-8.1 2.9-6.3 3.3-6.7 9.3-9.4l6.2-2.8 13.6-22.2c7.5-12.2 17.3-28.7 21.8-36.7 4.6-8 11-18.6 14.4-23.5 5.1-7.6 7-11.8 12.2-27l6.1-18 7-2.3 6.9-2.2 1.2-5.9c1.2-5.6 1.6-6.2 8-11.4 8.2-6.8 15.2-14.1 21.9-22.8 4.5-5.8 5.2-7.5 6.2-13.7.6-3.9 1.1-8.8 1.1-10.9 0-3.6.6-4.3 7.3-10 4.7-3.9 9.6-7 13.3-8.4 8.5-3.1 12-6 12.8-10.6.4-2.1 2.2-8.3 4.1-13.8 5.2-15.5 5.2-15.6.8-18.5-5.6-3.8-6.3-4.8-6.3-9.3 0-6.1-3.9-13.4-10.9-20.2-7-6.8-7.2-7.8-4.5-21.1l1.6-7.8-5.3-4.7c-5.2-4.5-5.3-4.8-4-7.3 1.3-2.3 1.2-2.9-1.3-6.6-2.7-4.1-5.6-13.4-5.6-18 0-5.1-4-16.4-8-22.4-3.9-6-13.5-14.8-19.7-17.9-3.8-2-9-2.2-14.4-.5l-3.9 1.1.6 20.9c.4 11.4.4 20.8 0 20.8s-2-.7-3.6-1.5c-2.6-1.3-3-2.1-3-5.8-.1-6.8-2.4-15.3-8.2-30-5.1-13-5.9-14.3-13.8-23.2-6.7-7.6-10.8-11.1-20.9-17.9-16.9-11.3-31.1-23.2-34.5-28.9-1.4-2.6-5.5-7.6-8.9-11.2-7.4-7.7-9.4-8.1-14.9-2.8l-3.8 3.7-1.4-3.5c-3.7-8.7-7.7-12.6-23.6-22.5-16.3-10.1-24-16.2-35.4-28.2-6.3-6.6-26.6-22.6-37.6-29.7-8.2-5.2-21.2-19.3-25.4-27.5-2.2-4.1-5.6-9.8-7.6-12.5-2-2.8-4.5-6.6-5.5-8.5-3.8-7.5-8.6-12.2-16-15.5-7.9-3.6-15-4.8-31-4.9-10.5-.1-9.3.2-32.8-8.4-6.1-2.2-7.6-2.3-12.8-1.5-5.8.9-6 .9-11.6-2.9-7.5-5-9.9-5.5-27.8-6.3-14.6-.7-15.1-.8-20.5-4-3.1-1.9-7.7-3.6-10.5-4-3.7-.5-5.9-1.6-8.5-4-1.9-1.8-6-4.5-9-6s-9.1-6-13.6-10l-8.2-7.3-8.7-1.3c-8.3-1.2-9.3-1.6-16.4-6.9-4.2-3.1-11.3-8.8-15.8-12.6-7.4-6.3-9-7.2-15.5-8.7-4-1-10-1.7-13.3-1.7-5.6 0-6.5.4-12.5 4.8z"/>
</svg>
