<svg version="1.0" xmlns="http://www.w3.org/2000/svg" class="fill-current"  width="1365.333" height="1365.333" viewBox="0 0 1024 1024">
    <path d="M572.5 1.5c-1.6.7-6.4 1.8-10.6 2.4-13.6 2.1-17.4 3.3-17.7 5.9-.3 1.8-.6 2.1-1.7 1.2-1.7-1.4-3.5-.5-3.5 1.7 0 1.2-.7 1.4-3 .9-2.4-.4-3-.2-3 1.2s-.2 1.5-.9.3c-.8-1.2-1.1-.9-1.7 1.3-.5 1.9-1 2.4-1.7 1.7-1.6-1.6-3-1.3-2.3.4.3.8 0 2.7-.6 4.1-1.7 3.6-6.2 3-6.6-.9-.3-2.1-.8-2.7-2.9-2.7-1.6 0-2.7.7-3 2-.3 1.1-1.4 2-2.4 2-2.3 0-2.3.4-.2 3.7l1.7 2.6-3-1.5c-3.7-1.8-10-1.7-9.6.1.2 1-.5 1.2-2.3.8-1.8-.3-3.5.2-5.2 1.7l-2.4 2.1 2.3 3.5 2.4 3.5 12.8.5 12.9.5 3 3.7c3.6 4.4 3.1 6.1-.6 2.4-2.8-2.8-2.9-2.8-13.2-3-3.8-.1-7.8-.5-8.7-1-3.4-1.6-2.9 2.1 1.1 8.5 2.2 3.5 4.3 7.6 4.6 9.1.6 2.4.4 2.8-1.3 2.8-1.5 0-2.7-1.6-4.8-6.6-3.2-7.6-5.3-9.4-11.1-9.4h-4.2l1.8 6.2c1 3.5 3.7 9.2 6 12.7 3.6 5.7 4.1 7.1 4.1 12.4 0 5.9 0 6-2 4.2-1.1-1-2-2.5-2-3.4 0-.9-3.1-5.2-6.8-9.7-3.7-4.4-7.8-10.3-9.1-13.2-2.3-5-5.4-7.2-9.9-7.2-1.6 0-1.6-.5.4 28.7.5 6.9.3 9.7-.6 10.8-1.2 1.4-1.5 1.4-3.1-.1-1.1-1-2.4-3.5-3-5.7-1-3.7-7.5-13.7-9.8-15.2-.6-.3-1.9 1.2-3.1 3.5-1.1 2.2-3.1 4.7-4.5 5.6-1.9 1.2-2.5 2.5-2.5 5.3-.1 3.1-.2 3.3-1.2 1.7-1.4-2.4.4-8.6 3.2-11.1 1.2-1.1 2-3.1 2-5 0-1.8.7-4.6 1.5-6.1 1.8-3.5 1.9-7.4.3-10.9-1.1-2.4-1.6-2.6-4.7-2-2 .3-9.1 1-15.8 1.4-6.8.4-12.7 1.1-13.3 1.7-.7.7-.2 1.8 1.5 3.4 1.9 1.8 2.5 3.3 2.4 6.4 0 2.3-.4 4.9-.8 5.9-.6 1.7-.8 1.7-2 .3-.8-.9-1-2.6-.7-4.3.5-2.2 0-3.6-2.2-6.2-2.4-2.9-3.2-3.3-5.9-2.7-4.4 1-6.2 3.5-7.3 10-.5 3.1-1.6 6.6-2.4 7.8-.9 1.2-1.6 3.5-1.6 5 0 2.1-.7 3.1-2.6 3.8-2.2.9-3.1.6-6.2-2-2-1.6-4.4-3-5.2-3-.9 0-4.7 2.2-8.6 4.8-3.8 2.7-10 6.1-13.8 7.6-3.8 1.5-8.3 3.8-10 5.1-1.7 1.3-4.2 2.5-5.6 2.7-2.2.3-2.6 1-3.4 5.5-.7 4.3-.6 5.7.8 7.8.9 1.4 2.3 2.5 3 2.5.8 0 1.6.9 1.9 2.1.4 1.5 1.2 1.9 3.4 1.7 2.4-.3 2.8 0 2.8 2.4.1 1.4.6 3.2 1.3 4 1 1.2.3 1.9-3.9 3.7-4.6 2.1-4.9 2.4-3.5 4 .9 1 1.6 2.2 1.6 2.7 0 1.3-9.3 9.2-14.1 12.2-4.7 2.8-5.3 2.8-14.5-.9-7-2.8-8.1-3-11.7-1.9-2.2.6-5 2.3-6.2 3.6-2 2.2-2.7 2.4-4.6 1.4-3.4-1.9-10.9-.7-13 2.1l-1.7 2.3-1.9-3.1c-3.7-6.5-11.8-5.7-19.3 1.9l-3.3 3.2.7 10.9c.8 12.9 2.1 15.7 7.2 15.7 4.3 0 4.4 1.7.2 3.5l-3.3 1.3 3 1.2c6.6 2.6 7.1 3.1 2.8 2.5-2.4-.3-4.3-.2-4.3.3 0 1.4 2.3 3.2 4.2 3.2 1 0 2.5 1.1 3.4 2.5 2 3 7.4 5.6 12.4 5.9 2.4.1 5.2 1.5 8.8 4.4l5.3 4.1-2.8.7c-1.5.4-3.5 1.5-4.4 2.6-1.5 1.9-1.6 1.9-6.9-1.6-5.2-3.5-12.7-5.5-15-4.1-.8.5-.3 1.7 1.6 3.6 1.5 1.6 2.4 2.9 2 2.9-1.9 0-5.5-2.7-10.1-7.6l-5-5.2-5.4.8c-8.4 1.4-10.1 3-10.1 9.5v5.4l4 1.1c2.8.7 3.8 1.5 3.4 2.5-.4.8.5 3.4 1.9 5.8 2 3.4 3.7 4.8 7.2 6.1 2.5 1 4.5 2.2 4.5 2.6 0 1.6-1.9 2.1-3.8 1.1-2.7-1.4-14-.2-14.7 1.7-.3.8.2 5.1 1.2 9.6 1.7 8 1.8 8.2 8.6 14.7l6.9 6.6-.7-4.4c-.7-5.1 1.3-9.3 4.5-9.3 1.7 0 2 .7 2 4.2.1 3.4.3 3.9 1.1 2.5.5-.9 2.2-1.7 3.6-1.7 2 0 2.4.4 1.8 1.7-1.1 2.8-1.8 9.3-1.1 9.3.4 0 1.6-.5 2.7-1 1.7-1 1.9-.7 1.9 1.9 0 1.6.5 3.3 1 3.6.6.3 1 .2 1-.3 0-.6 1.2-1.3 2.6-1.6 1.4-.4 3.7-1.9 5.1-3.4l2.6-2.7-.7 4.7c-.4 2.7-.3 4.8.1 4.8 1.8 0 4.2-2.6 4.5-4.9.2-1.8 1.2-2.7 3.3-3.3 3.9-1 5.5-.4 5.5 2.3 0 1.2.8 2.3 1.8 2.6.9.2 2.6 2.1 3.7 4.1 1.6 3 2.8 3.9 6.5 4.8 3.8.9 4.5 1.5 5.1 4.1.7 3.6 4 9.1 6.9 11.8 1.2 1.1 2 3.1 2 5.2 0 2.2 1.2 5.2 3.5 8.6 4.4 6.4 4.9 13.6 1.3 16.1-1.9 1.4-2 1.8-.8 4.3.7 1.5 1.4 4.2 1.5 5.9.2 1.8 2.1 5.4 4.4 8.5 4.7 6.2 5.2 9.6 2 14.1-1.9 2.6-2.1 3.8-1.5 10.3.7 7.2.6 7.5-1.9 9.1l-2.6 1.7 2.1 2.2c2.6 2.7 2.6 6.2 0 7-3.9 1.2-4.2 3.9-1 8.1 3.5 4.7 3.6 5.1 1 5.9-1.8.6-1.9 1.2-1.4 6.1.6 5 .5 5.5-2 7.5-1.5 1.2-2.6 3-2.6 4.5 0 2.3.3 2.4 3.5 1.8 4-.7 4.6.6 1.3 2.9-1.9 1.3-2.1 1.8-1.2 3.4.8 1.3.9 2.5.2 3.6-.8 1.5-1.2 1.6-3.8.2-3.4-1.7-3.5-1.6-4.6 7.8-.6 5.1-.4 6.1 1.5 8.1l2.2 2.3-2.5 4.9c-1.3 2.7-2.7 5.9-3.1 7.1-.6 2-.3 2.3 2.5 2.3 1.7 0 4.1-.5 5.3-1.1 1.5-.7 1.2-.2-.8 1.5-7.4 6.2-7.6 6.4-6.4 8.5 1.7 2.6.6 4.6-3.8 7.4-3.8 2.4-3.9 2.6-3.8 8.3 0 7 .8 8.6 3.9 7.8 1.7-.4 3 .1 4.4 1.6 1.3 1.4 3.7 2.4 6.6 2.7 5.2.6 7.9-.9 7.4-4.2-.5-4.1 6.2-9.6 11.5-9.4 1.2 0 1.6.3 1 .6-.7.2-1.3 1.3-1.3 2.2 0 1-1.1 2.3-2.5 2.9-2.6 1.2-3.4 3.7-1.2 4.5.6.2 2.5 0 4-.6 2-.7 4.1-.6 6.9.2 4.7 1.4 4.6 3.5-.3 3.9-3.4.4-5.9 1.7-5.9 3.3 0 .4 3 1 6.8 1.2l6.7.3-7.2.2c-4.4.1-7.4-.2-7.9-.9-1.1-1.9-2.4 1.2-2.4 5.8 0 3.7.3 4.3 2.1 4.3 1.2 0 3-1.1 4.1-2.5 1.1-1.4 2.7-2.5 3.5-2.5 1.3 0 1.2.5-.6 2.4-4.6 4.9.5 5.7 6.2 1 3.1-2.6 5.7-2.2 5.7.8 0 1-.4 1.7-.9 1.3-.5-.3-2.6.4-4.6 1.6l-3.7 2.2 3.7 1.3c3.7 1.2 7.5 4 7.5 5.5 0 .4-1.4.3-3.1-.3-4.7-1.6-4.4-.4 1.1 4.5 3.2 2.9 5 5.3 5 6.8 0 2.3 0 2.2-2.9-.5-1.6-1.6-3.4-2.5-4-2.2-1.9 1.2-1.3 7.1.9 9.1 2.1 1.9 2.6 5.1 1.1 7.4-1.6 2.6-6.2-.5-15.3-10.3-8-8.6-9.1-9.4-14.7-11-3.3-.9-6.3-2.1-6.6-2.6-1.1-1.8-8.1-1.1-9.9.9-1.6 1.7-1.5 2.3 1.8 9.5 3.5 7.5 3.6 7.7 9.9 10.5 7.1 3.2 8.9 5.2 11.2 12.2 1.2 3.6 2.4 5.1 5 6.3 1.8.9 3.7 1.6 4.2 1.6s2.3 1.3 4.1 3c1.8 1.6 3.9 3 4.5 3 .6 0-.3 1-2.1 2.2-3 2.2-3.2 2.6-3 7.7.3 5.3.4 5.5 3.7 6.3 3.1.9 3.2 1 1.7 2.7-.9 1-1.6 2.3-1.6 2.9 0 .6-.6 1.5-1.3 1.9-3.3 2-5.7 6.7-5.7 10.9 0 2.5-.5 5.3-1.2 6.3-.9 1.5-.7 2.9 1 7.2 2 4.7 2.1 5.4.7 6.9-1.2 1.3-2.8 1.6-7.3 1.3-8.6-.6-10.2-1.1-10.2-3.2 0-2.9-3.2-7.9-5.3-8.5-1.1-.2-2.9-.1-4 .4-1.2.5-1.7.9-1 .9.6.1 1.9.8 2.8 1.7 2 2 .5 3.4-3.7 3.4-1.5 0-3 .4-3.3 1-.3.5-1.8.7-3.3.4-1.5-.2-3.3 0-4.1.5-1.2.7-.9 1.4 1.2 3.3 2.1 1.8 2.5 2.9 2 5.1-.5 2.4-.9 2.8-2.9 2.3s-2.4-.2-2.4 1.4c0 1.7-.4 2-2.1 1.5-2.1-.7-2.2-.5-1.7 3.3.6 4.4-1.2 7.4-5.2 8.7-1.3.4-2 1.5-2 3.1 0 1.3-.4 3.2-.9 4.2-.5.9-2.1 5.5-3.6 10.2-1.5 4.7-3.6 9.2-4.6 10-1.9 1.5-1.9 1.6 0 5.3 1.1 2.1 3.2 4.7 4.8 5.9 1.5 1.2 3 2.3 3.2 2.5.3.2-.5 1.3-1.7 2.6-3 3.2-2.7 4 .8 2.2 3.9-2 5-1.9 5 .5 0 1.8-.3 1.9-2 1-4.1-2.2-9.3 3.6-13.4 15-2.4 6.6-2.6 8.4-2.1 14.7.5 4.5 1.2 7.4 2 7.7 1.4.5 1.4 7.3 0 9.5-.7 1.3.8 3.6 4.3 6.4 1.2 1 2.2 2.7 2.2 3.7s.5 2.2 1 2.5c.6.3 1 1.5 1 2.6 0 1.3.7 1.9 2.1 1.9 2 0 2 .1.6 2.3-2.6 4-2.5 6 .3 6.7 2.8.7 4 4.7 1.8 6.1-.7.5-1.2 2.1-1 3.9.3 2.2-.2 3.6-1.5 4.5-1.5 1.1-1.6 1.8-.7 4.4 1 2.4.9 3.3-.2 4.1-2.1 1.8-4.5 11.4-3.8 15.1.4 1.9 1.8 4.6 3.2 6.1 2.2 2.4 3.9 5 5.8 8.7.4.7 0 3.6-.9 6.5-1.6 5.4-1.3 11.4.8 13.1.6.5 1.5 3.2 1.9 6 1.5 10.7 1.8 11.6 4.2 12.7 1.5.7 2.4 2 2.4 3.3 0 1.2.9 3 2 4 1.4 1.3 1.7 2.2 1 3-.8.9-.5 2.4.7 5 1.8 3.7 1.8 3.8-.4 5.2l-2.2 1.5 2.5 4c1.4 2.2 3.5 6.1 4.6 8.7 1 2.5 2.9 5.6 4 6.8 1.7 1.8 2 3 1.5 6.8-.6 3.8-.2 5.5 1.9 9.5 1.6 3.1 2.3 5.7 1.9 7-.4 1.4.3 3.4 2.4 6.6 1.7 2.5 3.1 5.8 3.1 7.4 0 2.4.8 3.5 4 5.5 4 2.5 5.7 5.8 4.7 9.5-.4 1.6 0 2 1.9 2 2.9 0 5.3 3.7 2.9 4.6-1.9.8-1.9 3.3.1 6.2 1.7 2.5 5.1 2.9 7.9.8 1.4-1 2.5-1.1 3.8-.4 1 .5 4.1 1.1 6.9 1.3 3.8.3 5.8 1 7.8 3 1.7 1.6 4.4 2.9 6.9 3.2 3.5.5 4.2 1 5.1 3.9.9 2.8 1.8 3.4 4.8 4 11.2 1.9 17.2 5.3 12.2 6.9-1.1.3-2 .9-2 1.3.1 1.5 2.6 3.9 4.8 4.6 1.8.6 2.2 1.5 2.2 4.7 0 3.4.5 4.2 3.9 6.4 2.1 1.4 5.4 2.7 7.4 2.9 4.3.4 6.5 1.9 6.9 4.9.4 3 5.9 3.5 9.6 1 1.5-1 4.2-2 6.1-2.3 4.6-.7 7.3-4.5 8.6-12.8 1-5.4.9-7.1-.2-8.7-2.1-3.1-1.6-4 2.4-4.2 4.3-.2 5.5-1.7 4.9-6.1-.3-1.9.1-5 .9-7 1.4-4 2.6-10.6 2.9-16.2.1-2.6.6-3.6 2.1-4 1.4-.4 2.2-1.8 2.6-4.4.3-2 1.6-4.9 2.8-6.4 1.2-1.5 3.4-5.4 4.9-8.7l2.8-5.9-1.7-7.6c-2.3-9.3-2.3-10.4-.4-9.6 1.2.4 1.5-.5 1.5-4.9s-.4-5.7-2.2-6.9c-2-1.4-2-1.6-.4-1.6 3 0 7.4-3.2 9.3-6.7 1.8-3.4 3.2-4.3 3.4-2.1 0 .7.7-.1 1.4-1.8.8-1.7 2.1-3.6 2.9-4.3.9-.8 1.6-1.8 1.6-2.3 0-.6 1.1-2.3 2.5-4 1.4-1.6 2.5-3.6 2.5-4.3 0-.7 1.6-3.2 3.6-5.6 6.4-7.7 7-9.8 7-25.2l-.1-13.8 3.6-.9c5.3-1.4 5.9-5.3 1.9-12.4-1.7-2.9-3-6.4-3-7.7 0-4-1.6-5.6-4-4.1-1.1.6-2.6 1.2-3.4 1.2-1.3 0-1.3-.4-.1-3.4.8-1.9 1.2-4.2.9-5-.8-2 1.1-2 6.6-.1 4.6 1.6 4.4 1.7 11-3.3 7-5.4 7.8-9 2.5-12.4-3.8-2.5-4.8-5.4-1.5-4.3 1 .3 3.2-.1 4.9-.9 2.9-1.5 3-1.5 5.5 1.4 2.8 3.4 4.6 2.2 2.2-1.5-.9-1.3-1.3-3.1-.9-4 .5-1.4.9-1.2 2.8 1.1 2.6 3.3 6.2 3.5 12 .8 3.8-1.9 4-2.1 3.9-6.6 0-2.6.3-4.5.7-4.2 1.5.9 3.9-5.5 3.9-10.4 0-2.6.5-5.3 1.2-6 1.4-1.4.3-2.8-2.6-3.4-2.7-.4-2-2.4.7-2.1 1.2.2 4.8.6 7.9.9l5.8.7-3.4 3.7c-4.5 5-5.4 6.8-6.7 13.2-.5 2.9-1.5 6.5-2.1 8.1-.9 2.2-.7 3.1.6 4.5 1.4 1.6 2.5 1.7 8.1 1.1 3.6-.5 7-1.1 7.6-1.4.5-.4.8-2.3.7-4.2-.2-2.2.2-3.8 1-4 .7-.3 1.2.4 1.2 1.7 0 1.5.5 2 1.8 1.8 1.3-.2 1.8-1.7 2.3-6.6.6-6.3 1.9-9.6 1.9-5.1.1 1.3.9 4 2 5.9 1.7 3.2 1.9 3.3 2.6 1.5.4-1.1 1.6-2.6 2.6-3.3 1-.7 1.8-2.4 1.8-3.8 0-1.6 1.1-3.5 3.1-5.1 2.2-1.9 3-3.3 2.6-5-.2-1.2-.3-2.3-.2-2.3.1 0 1.8.7 3.7 1.5 3.4 1.4 3.6 1.3 6.9-1.8 7.2-7 15.9-21.8 15.9-27.2 0-3.5 2-7.2 4.7-9 1.2-.9 2.3-2.4 2.3-3.5 0-1 .5-2.2 1-2.5.6-.3 1-4.2 1-8.6 0-7.6.2-8.2 3-11.1 1.7-1.6 3-3.3 3-3.8 0-2.1 4.9-6 7.5-6h2.8l-.5-6.3c-.8-9.5-2.7-14.7-5.3-14.7-2.5 0-4.5-2-6.9-6.7-1.5-3-1.5-3.2 0-2.6.9.3 2 0 2.4-.7.5-.8 1.2-.1 2.1 2.4.8 2.3 1.8 3.5 2.6 3.2.7-.3 1.3.1 1.3 1 0 2.4 9.2 10.8 13.4 12.3 3.3 1.1 4.1 1.1 5 0 .7-.8 2.5-1.3 4.5-1.1 4.9.5 6-1.1 3.3-4.8l-2.3-3h2.4c1.4 0 3.1.9 3.9 2.1l1.3 2.1 3.8-2.2c4.2-2.5 4.7-3.7 1.5-4.2-3.1-.4-3.4-2.6-.3-3.4 2-.5 3.3-.1 5.4 2 3.3 3.1 4.1 3.3 4.1.6 0-1.2.7-2 1.6-2 1.1 0 1.4-.5 1-1.6-.5-1.3.1-1.5 2.9-1.3 2.3.3 4.1-.3 5.7-1.7 1.3-1.2 3.8-2.9 5.6-4 1.7-1 3.2-2.4 3.2-3.2 0-1 .5-1 2.1-.1 1.7.9 2.3.7 3.6-1 .8-1.2 1.8-2.1 2.3-2.1 1.4 0 6-4.6 6-5.9 0-.7.4-1 .8-.7.5.3 2.8-1.3 5.2-3.4 2.5-2.2 4.9-4 5.6-4 1.3 0 4.8-3.7 4.9-5.3.2-2.8 2.6-6.7 4.1-6.7 1.1 0 1.5-.6 1.1-2-.4-1.5 0-2 1.3-2 1.6 0 3-1.8 3-4.1 0-.5-1.3-.9-3-.9-4.5 0-3.6-1.8 1.5-3.2 3.7-1 4.5-1.6 4.5-3.5 0-1.3.4-2.3 1-2.3 1.8 0 5.5-4.4 5.2-6.2-.2-1.2.6-2.1 2.1-2.7 3.4-1.3 4.2-2.9 2.5-4.9-.8-.9-1.9-2.4-2.3-3.2-.6-1.2-.5-1.3.6-.3 1.6 1.6 7.5 1.7 8.4.3.4-.6 0-2.2-.9-3.5-1.3-1.9-1.3-2.4-.1-2.8.8-.4 1.1-1.4.8-2.6-.4-1.4.1-2.3 1.3-2.8 1.1-.4 2.5-1.5 3.2-2.5.7-1 1.9-1.8 2.6-1.8 1 0 3.6-5.2 3.6-7.3 0-.3-2.6.6-5.7 2.1-5.1 2.4-7 2.7-15.3 2.6-5.2 0-12.6-.8-16.5-1.7-6.8-1.5-7-1.5-8.7.5l-1.8 2v-2.1c0-1.2-.4-2.1-1-2.1-.5 0-1 .4-1 1 0 .5-2.3 2.7-5 4.7-3.7 2.7-5.9 3.7-8 3.5-1.5-.2-4.2.4-5.9 1.2-2.4 1.3-3.1 2.4-3.7 6.1-.5 4-2.4 7.4-2.4 4.6 0-1.8-3.6-1.2-6.4 1-1.8 1.4-3 1.8-3.9 1.1-.7-.5-2-1.1-3-1.3-1.6-.4-1.6-.6-.2-2.7 1.2-1.6 2.6-2.2 5.4-2.2 4.1 0 5.8-1 8.9-5.6 1.2-1.8 3.9-3.9 6-4.7 4.9-2 7.2-4.5 5.1-5.8-2.1-1.3-2.9-1.2-13.6 2.6-5.4 1.9-10.2 3.6-10.7 3.8-.5.1-1.4-.7-2-1.8-1-1.8-1.5-1.9-4.3-1-1.7.6-4.1 1.9-5.2 2.9-1.8 1.7-2.1 1.7-2.1.3 0-2 1.4-3.3 6-5.5 2.2-1.1 3.4-2.4 3.4-3.5-.1-.9.4-1.7 1.1-1.7.7 0 1.6-1.9 2-4.6.6-3.9.3-5-1.5-7l-2.3-2.3 2.7-.7c1.4-.3 2.6-1.1 2.6-1.6 0-.6 1.1-.3 2.4.5 2 1.4 2.6 1.4 4.2.2 1.1-.8 3.5-1.5 5.5-1.5 2.7 0 4.3-.8 6.9-3.5 4.4-4.6 5.1-3.7 1.1 1.4-2.1 2.6-4.6 4.5-7.1 5.2-3 .9-4.2 2-5.5 5-1 2.1-2.9 4.8-4.2 6.1-1.4 1.3-3.2 3.6-4 5.2-1.2 2.4-1.3 3-.1 3.7 2.1 1.4 2.9 1.1 11.2-3.1 5.4-2.8 9.1-4 12-4 3.7 0 4.7-.6 9-4.9l4.9-4.9-2.3-4.6c-1.7-3.6-2.7-4.6-4.7-4.6-4 0-2.5-3.2 2.2-4.5 3.3-1 3.6-1.2 1.7-1.7-1.6-.5-2.2-1.4-2.2-3.5v-2.8l-2.6 3-2.5 3 1.6-3.2c2-4.3 1.9-6.6-.6-8.9-2.2-2-5-2.1-17.1-.9-5.1.6-6.8.4-6.8-.5s-1.4-1.1-5-.8c-5.5.6-6.8-.6-1.9-1.7 2.1-.5 2.9-1.1 2.5-2.2-.3-.8-.6-1.6-.6-1.9 0-.2-1.5-1-3.4-1.8s-3.7-2.3-4.1-3.5c-.5-1.8-1.2-2-5-1.5l-4.3.6v-3.6c0-2 .5-3.6 1.2-3.6 2.7 0 10.5 3.5 11.3 5.1.4.9 3.4 4 6.5 6.9l5.8 5.2 7.6-1c8.4-1.1 9-1 15.2 3.2 4.2 2.8 4.3 2.9 6.4 1 1.6-1.5 2.2-1.6 2.6-.6.2.8 2.7 4.3 5.4 7.8 2.7 3.6 5.4 8 6 9.7 2.3 6.6 5 9.5 11.6 12.1 5.7 2.2 6.7 2.3 10 1.2 4-1.4 4.1-1.8 2.8-9.6l-.8-4.5 2.6 3.4c1.4 1.9 2.6 4 2.6 4.6 0 .7.9 2 2 3 1.8 1.7 2.1 1.6 5.6-.5l3.6-2.3-.5-6.1c-.3-3.3-1-6.2-1.6-6.4-1.6-.5-4.1-5.6-4.1-8.2 0-1.1-.7-2.3-1.5-2.6-1.3-.6-2.5-3.8-5.5-15.2-1.2-4.8-1.8-5.1-4.7-2-2.5 2.7-2.9 4.4-1.8 8.1 1.3 4.8-.3 4.1-3-1.3l-2.6-5.2 2.5-3.7c1.4-2 2.6-4.2 2.6-4.9 0-1.9-1.8-1.4-3 .8-1.5 2.8-3 2.5-3-.8v-2.7l-3.3 3.9c-4.2 5-5.6 3.4-2.2-2.6 1.4-2.3 2.5-5.5 2.5-7 0-2.8-.5-3.1-7-4.3-6.3-1.2-10-2.6-10-4 0-.7-1.5-1.6-3.2-2-1.8-.3-5.4-1.3-7.9-2.2-4.5-1.6-4.8-1.5-8.3.6-3.3 2.1-3.7 2.1-5.2.7-1.4-1.5-1.4-1.6.1-1.6.8 0 2.7-.7 4-1.6 5.5-3.6 1.5-12.1-6.1-13.1-3.7-.5-4.4-.2-7.7 3.2-2.1 2.1-3.7 4.3-3.8 4.9 0 .6-.5-.2-.9-1.7-.8-2.5-.4-3.3 2.7-6 2-1.8 4.3-3.6 5.2-4.1.9-.5 2.5-1.7 3.6-2.6 2.3-2 7.3-3.1 8.1-1.9.3.5 1.4.5 2.4-.1 1-.5 3.8-1 6.1-1 3.6 0 4 .2 2.9 1.5-.7.9-2.9 1.5-5.1 1.5-4.2 0-4.7.6-2.4 3.6.8 1 1.5 3.3 1.5 5.1 0 4 4.3 6.9 12.6 8.4 3.3.6 7.6 2.2 9.7 3.5 2.5 1.7 4.9 2.4 7 2.2 2.8-.3 3.2-.7 3.2-3.3 0-2.8-.3-3-5.2-3.9-8.1-1.4-6.8-4.6 1.9-4.6 4.1 0 4.1 0 2.2-2.1-1-1.1-5-3.5-8.9-5.4-3.8-1.8-7.9-4-9-4.8-1.9-1.6-1.9-1.6 1.1-1.7 1.9 0 3.8.8 4.9 2 1.5 1.6 2.6 1.9 5.4 1.4 2-.4 3.8-.8 4-1 .2-.2-.6-1.8-1.7-3.7-1.4-2.4-1.7-3.9-1-5.1.7-1.3.3-1.8-1.9-2.7-4-1.6-14.2.3-21.8 4-3.4 1.7-6.9 3.1-7.6 3.1-2.5-.1 3.1-3.6 8.6-5.5 3.4-1.1 5.5-2.5 5.8-3.6.5-1.7-.2-1.9-7.6-2l-8.2-.2 5.8-.7c7.1-.9 7.7-1.4 4-3.3-6.1-3.1-12.8-2.9-21.7.8-1.8.8-1.8.7-.2-1.7.9-1.4 2.6-2.8 3.8-3.1 1.7-.5 1.9-.9.9-2.1-1-1.2-.8-1.5.7-2 1.7-.6 1.9-1.3 1.4-5.1-.3-2.9 0-5 .8-6 1.7-2.1 3-.3 3 4.1 0 3.7 1.6 5.2 9.7 9.3 4.6 2.3 7.6 3.1 11.5 3.1 5 0 5.5-.2 7.8-3.7 1.4-2 2.7-4.5 3-5.7.4-1.5 2.1-2.4 7-3.6 7.4-1.7 8.3-3.2 5.2-8.4-1.1-1.8-2.3-4.7-2.7-6.4-.5-2.7-1.1-3.1-4.8-3.5-2.3-.2-6.3-1.3-8.9-2.3-4.4-1.7-4.8-1.7-6.6-.1-2.2 2-5.3 2.3-4.8.4.3-.6.7-2.4 1-4 .5-2.3 1.1-2.7 4.1-2.7 1.8 0 4.4.4 5.7.9 1.9.7 3.1.1 7.3-3.5 3.4-3 4.4-4.4 3.2-4.4-1 0-2.9-1.2-4.2-2.6-1.8-2-3.1-2.5-4.8-2-1.3.3-2.7.3-3-.1-1.2-1.1 2.7-3.2 6.1-3.3 2.5 0 3.2.4 3.2 2 0 1.7.7 2 4.4 2 3.6 0 4.8-.5 6.5-2.6 2.2-2.7 2.9-9.4 1.1-9.4-.5 0-1-.5-1-1 0-.6.7-1 1.5-1 2 0 1.9-2.9 0-3.7-.9-.3-2.4.2-3.4 1.1-1.6 1.5-1.9 1.5-3.1.1-1.8-2.2-2.9-1.9-3.6 1-.5 2.1-1.1 2.4-4.3 2.3-2-.1-4.8.2-6.2.6-2.4.7-2.6.6-2.2-1.8.4-1.7 1.2-2.6 2.4-2.6 6.2 0 9.6-6 4.4-8-1.4-.5-2.5-1.4-2.5-2 0-1.7-10.1-1.2-12.2.7-2.2 2-2.4.6-.2-2.5.8-1.2 2.4-2.2 3.5-2.2 2.7 0 2.4-1.2-1.1-3.5-4.2-2.8-4.5-4.4-1-5.2 1.7-.3 3.3-1 3.6-1.4 1-1.7 2.9-.8 4.6 2.2 1.3 2.2 2.4 3 4 2.7 3.7-.5 3.6-6.4-.2-13.9-1.7-3.4-2.9-6.8-2.6-7.5.3-.9-.1-1.4-1.2-1.4-2.5 0-9.5-9.8-8.8-12.4.4-1.6-.4-2.9-3.2-5.1-2-1.7-4.2-2.9-4.7-2.7-.6.1-1.6-1.8-2.3-4.2-1.3-5.1-4.4-8.5-8.5-9.3-3.9-.8-4.2-2.3-1.6-7.4 3.3-6.5 4.1-6.9 14.7-6.2l9.2.6v-3c0-4.7-3.1-12.5-5.9-15-3.4-2.9-8.1-3.1-8.1-.3 0 2.6-.8 2.5-7.5-.4-4.8-2.2-5.5-2.8-5.5-5.3v-2.8l2 2.5c1.6 2.1 2 2.2 2 .7 0-1-.5-2.8-1.1-3.9-1.1-2-.9-2.1 2.5-1.5 1.9.3 3.8.1 4.2-.4 1.1-1.9-.7-6-3.1-7.1-1.4-.6-2.5-1.6-2.5-2.2-.1-2-7.7-4.7-12.2-4.4l-4.3.3-.3 8.2c-.2 6.5-.6 8.3-1.7 8.3-1.2 0-1.5-1.6-1.6-6.8-.2-10.4.1-11.5 3.4-15l3.1-3.2h-2.8c-1.5 0-3.5.4-4.5 1-1.7.9-1.9.2-2.4-8.8-.4-5.3-.9-10.8-1.2-12.2-.3-1.4-.1-3.2.4-4 .8-1.2 1.5-1.2 4.4-.2 7 2.5 10.9-2.3 7.2-8.8-.8-1.4-1.4-3.9-1.5-5.7 0-1.7-.3-3.9-.6-4.7-.6-1.5-.8-1.5-2 .1s-1.3 1.4-1.4-1.9c0-3.1-.7-4.2-3.8-6.8-3.6-2.8-3.9-3.5-4-8.5-.1-5.3-.1-5.4 3.6-7.2 3.7-1.8 3.7-1.9 4.6-9.6 1-9.5.3-10.7-4.5-7.2-1.9 1.3-4.4 2.9-5.5 3.4-4.2 1.9-6.4 6-6.4 11.7 0 3-.4 5.4-.9 5.4-1.2 0-2.3-9.1-1.9-15.9l.3-5.5 4.5-.1c5.5-.1 14.7-4.6 16-7.8.9-2.3 2.4-7.6 2.4-9.1.1-.5-1.9-1.5-4.3-2.2-3.7-1.1-4.9-1.1-7.2.2-1.5.7-3.1 1.8-3.4 2.4-.3.5-2.1 1-3.8.9-2.7 0-2.9-.2-1.2-.9 1.2-.4 3.3-2.6 4.8-4.9 2.4-3.6 3.2-4.1 6.6-4.1 3.7 0 7.1-2.3 7.1-4.8 0-.6.8-1.3 1.8-1.6.9-.3 2.3-1.5 2.9-2.5 1.1-1.7.8-2.4-1.7-5.1-2.5-2.7-2.8-3.5-1.8-5.3.6-1.2 1.9-2.8 2.9-3.7 1-.8 3-5.5 4.5-10.5l2.5-9-2.6-2.2c-1.4-1.3-3.8-2.5-5.3-2.8-1.5-.3-4.6-1-7-1.5-8-1.9-10.7-.8-14.2 5.8-1 2.1-1.4 2.2-2.8.9-3.7-3.1-4.8-3.3-2.9-.4 2.1 3.2 2.1 3.7.2 3.7-1.1 0-1.4 1.2-1.2 5.2.2 5.8.7 5.3-6.9 5.7-1.3.1-2.6 1.3-3.6 3.3l-1.5 3.3-1.7-5.7c-1.4-5-3.6-7.8-6-7.8-.3 0-.5 3.9-.4 8.7.1 9.1-2.8 23.4-5.8 28-.8 1.2-1.4 4.6-1.4 7.6 0 3.7-.5 5.9-1.6 6.8-1.3 1.1-1.4.9-.9-1.7.4-1.6.8-3.5 1.1-4.2.2-.7 0-2.2-.5-3.5-.5-1.4-.5-3 .1-4 1.6-3 4-22 3.4-27.2-.7-5.4-5.3-20.2-6.5-21-.4-.2-3 .4-5.7 1.4-5.3 2.1-5.3 2.1-4.3 11.6.4 3.9.1 4.2-6.6 10.5-6.1 5.7-7 6.2-7.3 4.4-.2-1.2 1.1-4.2 2.7-6.7 2.4-3.4 3.1-5.6 3.1-9.1V65l-8.7.6c-7.6.5-9.8 1.1-15.5 4.3-9.8 5.2-17.8 11.3-18.4 13.8-.8 3-4.4 3.1-4.4.2 0-3.7 3.9-8.7 11.1-14.5 8.7-6.9 14-9.4 20.5-9.4 7.6 0 13.9-2.3 18.8-6.8 2.4-2.2 5.8-4.3 7.5-4.7 2.9-.6 3.2-1 3-3.8-.2-2.2.6-4.5 2.4-7.2 1.5-2.2 2.7-4.3 2.7-4.6 0-.9-10.7-8.9-11.9-8.9-.5 0-1.1.4-1.3.9-.4 1.3-9-1-10.4-2.8-.9-1.1-1.6-.6-3.8 3l-2.8 4.4.7-4.7c.5-4.1-.7-9-3.1-11.7-.1-.2-1.7 1.3-3.4 3.3l-3.2 3.6h-8.7c-9.8 0-15.7 2.1-18 6.2-1.2 2.4-4.2 3.8-11.6 5.3l-3 .7 2.3-2.4c1.2-1.4 2.2-3 2.2-3.6 0-.9.4-.9 1.9 0 1.6 1 2.5.6 5.8-2 5-3.9 8.3-5.2 13.3-5.2 3.1 0 5-.9 9.2-4.3 6.3-5.2 7.6-9.1 3.3-10.7-1.4-.5-6.8-1-11.9-1-7.1 0-9.7-.4-10.6-1.5-1.5-1.8-1.6-1.8-5.5 0z"/>
    <path d="M450.6 54.2c-2.2 3-2 5.1.5 7.4 1.2 1 2.7 3.1 3.5 4.6.8 1.6 1.9 2.8 2.4 2.8 1.4 0 1.2-4.7-.2-7.3-.6-1.2-1.4-3.7-1.7-5.6-.7-4.2-2.4-4.9-4.5-1.9zM312.7 548.3l-3.8.9.7 4.7c.4 2.6 1.7 5.9 3.1 7.5 3 3.6 2.4 4.2-1.7 2.1-1.7-.9-3.8-1.4-4.5-1.1-1.9.7-2.3 4.7-.7 7.9 1.3 2.7 1.2 2.8-.7 1.7-1.8-.9-2.1-.8-2.1 1.2 0 3.3 2.4 6.3 6 7.8 1.7.7 3.8 2.7 4.7 4.4 1.5 2.9 1.5 3-.1 1.7-1.3-1.1-2-1.1-2.9-.2-2 2 1.6 6.4 6.5 7.9 6.9 2.1 20.3-.5 25.4-5 5.1-4.5 4.6-11.3-1.2-14.8-3.7-2.4-7.4-7.7-7.4-10.8 0-2.5-5.6-9.2-7.6-9.2-.7 0-1.8-.8-2.3-1.9-.6-1-2.5-2.7-4.3-3.8-2.7-1.5-4-1.7-7.1-1z"/>
</svg>
