<svg version="1.0" xmlns="http://www.w3.org/2000/svg" class="fill-current"  width="1365.333" height="1365.333" viewBox="0 0 1024 1024">
    <path d="M434 77c-.8.6-2.5 1-3.8 1-2.7 0-7.5 4.8-10.5 10.7-3.5 6.5-11.8 14.7-16.5 16.1-2.3.7-5.4 2.3-6.9 3.6-1.6 1.3-4.4 3-6.4 3.9-2.8 1.1-3.8 2.2-4.3 4.8-1.1 5.4-3.2 7.6-9.8 10-4.7 1.8-8.1 4.1-14.3 9.9-4.4 4.1-9.3 8.4-10.9 9.5-2.1 1.5-2.9 3.1-3.3 6.5-.3 2.5-1.9 7.4-3.4 10.9-1.6 3.5-2.9 6.5-2.9 6.6 0 .2.8.5 1.9.8 1.3.3 1.9 1.7 2.3 5.1.4 3 1.4 5.6 2.8 7.1 2 2.1 2.1 3 1.5 7.2-1.1 6.3-.8 7.7 2.6 14.5 1.6 3.2 2.9 7.4 2.9 9.4 0 4.1 2.9 9.4 6.4 11.7 1.2.8 6.7 3.6 12.1 6.1 7 3.3 9.3 4 8 2.6-1-1.1-1.5-2.3-1.2-2.6 1-1 5.4 2.2 12 8.6l5.9 5.8-.7 6.4c-.8 6.7-2.8 11.8-4.7 11.8-.7 0 .3 1.3 2.2 2.8 2.2 1.9 3 3.1 2.2 3.6-2.4 1.4-1.3 4.6 2.1 5.9l3.2 1.4-8 2.5c-4.4 1.5-9.3 2.9-11 3.3l-3 .7 2.9 1.5c2.4 1.3 2.7 1.7 1.4 2.4-.9.5-1.9 2-2.2 3.5-.5 1.7-1.2 2.4-2.1 2-4.5-1.7-16.8-3.5-18.3-2.7-.9.5-4.8 4.1-8.6 8-4.6 4.8-6.6 7.6-6.2 8.7 1.4 3.7 1.8 9.5.7 12.5-.8 2.4-.8 3.5 0 4.6.9 1 .9 2.3.1 5.1-2.4 7.8-11.8 19.8-13 16.4-.2-.7-.7-1.2-1.1-1.2-.4 0-.3 2.3.3 5 1 5 1 5-2.9 9-3 3.1-4.2 3.7-5.6 2.9-2.4-1.3-3.1.2-1.7 3.9 1.7 4.4.4 5-3.9 1.9-3.1-2.2-3.9-2.4-4.6-1.2-1.2 2.1-3.6 1.8-4.5-.5-.8-2.1-.8-2-4.2.4-6.7 4.9-7.8 5.2-10.4 2.7-2.7-2.6-6-1.9-5.1 1 .4 1.1-.2 3.1-1.3 4.7-1.1 1.5-2.9 4.6-4.1 7-1.8 3.6-3.3 4.9-8.4 7.3-7.1 3.3-8.4 3.5-11.5 1.3-2.5-1.7-2.9-5.6-.7-7.4 1.9-1.6 2-6 0-6-.7 0-3.1 2.1-5.2 4.6-5.7 6.9-11.5 9.3-14.3 5.9-1.3-1.6-1.4-1.4 2.6-8.8.8-1.5 1.3-3.1 1-3.6-.4-.5-3.6.3-7.2 1.7-7.3 2.9-8.9 2.6-11.3-2.3-1.3-2.6-1.2-2.9 2-5.4 6.2-4.8 7-6 5.9-8.1-.5-1-1-2.6-1-3.6 0-1.6.2-1.5 2.1.2 3.8 3.4 4.2 5.2 1.9 8.4l-2.1 3h3c3.3 0 4.5-1.4 5.5-7 1.3-6.6 2.8-9.1 7.3-11.6 4.5-2.7 6.9-5.7 5.8-7.4-1.2-2-13-1.1-20 1.5l-6.8 2.6-3.1-3.1c-1.8-1.6-4.2-3-5.3-3-1.2 0-3.5-1.1-5.1-2.5-2.1-1.8-4.2-2.5-7-2.5-3.1 0-4.5-.5-5.6-2.2-1.5-2.1-1.4-2.4 1-4.9l2.6-2.7-6.3-3.1c-3.4-1.7-7-3.1-8-3.1-1.6 0-11.2 2.8-15.1 4.5-1.3.5-2 0-2.8-1.9-.6-1.7-1.7-2.6-3-2.6-1.2 0-1.8.4-1.5 1 .3.5 0 .7-.7.4-.7-.3-2.2-1.9-3.3-3.7-1.1-1.7-3.5-4-5.3-5l-3.2-1.9-2.2 2.7-2.2 2.8-3-3.5c-5.6-6.3-12.1-9.5-22.9-11.3-13.1-2.1-17.7-4.6-17.7-9.9 0-.8-3.5-5.1-7.8-9.6-5.5-5.7-8.5-8-10.2-8-1.4 0-5.2-1.2-8.5-2.5-7.4-3.1-9.5-3.2-9.5-.4 0 2.7-5.2 7.9-8 7.9-1.1 0-3.6-.7-5.6-1.5-3.2-1.3-4-1.3-9.9.9-3.6 1.3-9 3.8-12 5.7-4.8 2.9-5.5 3.7-5.5 6.5 0 3.5-1.7 5.3-7.4 8-5.3 2.6-6.3 4.4-4.8 8.7 2.9 7.9.7 12.2-7.8 15.2-10 3.5-11.3 6.3-5 11.4 2.2 1.7 4 3.8 4 4.6 0 .8-1.7 2.3-3.8 3.4-6 3.1-6.9 5.7-4.8 14.6 1.8 7.5 1.8 7.5-.4 11.1-1.7 2.6-2 3.8-1.1 4.7 2 2 1.2 3.7-2.4 5.4-3.8 1.8-5.5 5.5-3.8 8.2.6.9 1.4 5 1.8 9 .4 4.3 1.7 9.6 3.1 12.5 1.3 2.8 2.4 6.5 2.4 8.1 0 2.3 1.2 4.2 4.8 7.8 2.6 2.6 5.5 4.7 6.5 4.7s1.7.8 1.7 1.8 1.6 3.7 3.6 6.1c4.4 5 7 11.7 7.9 19.8.6 4.9.3 7.5-1.9 14.5-3.1 10.3-3.2 12.9-.6 15.3 1.7 1.6 2 3.1 2 11.6v9.9l2.8.6c1.5.3 3.4.8 4.3 1 2.5.7 4 13.4 2 17.2-.5 1-.4 4.2.2 7.7.9 5.6.8 6.4-1.7 11.2-1.4 2.9-2.6 5.6-2.6 6.1s1.8 1.7 4.1 2.7c4.4 2 8.9 6.7 8.9 9.2 0 .9-1.2 3.2-2.7 5.1-3.7 4.9-4.7 12.6-2.7 21.1 1.1 4.8 1.3 7.1.5 8.8-1.4 3.1-1.4 3.3.4 3.3 2.1 0 3 2.7 1.6 4.4-1 1.1-.8 1.7.6 2.5 1.7 1.1 1.7 1.2 0 2.5-2.9 2.2-1.8 5.1 2 5.1 4.3 0 5.1 1.2 2.6 3.7-1.8 1.7-2 2.5-1 4.5.8 1.8.8 2.9-.1 4.4-.8 1.2-1 3.3-.6 5.5.5 2.6.2 4-1.1 5.4-1.5 1.6-1.5 2.7-.5 9.7 1.8 12.5 2.7 14.3 11.1 23.8 15.3 17 16.1 18.7 17.9 36.5.6 5.7 1.6 11.3 2.3 12.4 2.1 3.7 29 29.1 34.3 32.4 4.2 2.7 5.6 4.3 7.8 9.2 3.9 8.6 5.2 15.8 3.9 21.3-.8 3.9-.7 5.1 1 8 1 1.8 3.9 4.4 6.3 5.8l4.4 2.4 11.7-2.9c6.5-1.6 12.7-3.4 13.7-3.9s4.9-3.9 8.6-7.6c3.6-3.6 7.8-7.2 9.3-8 2.5-1.3 2.9-1.3 5.1.8l2.5 2.3 6.3-5.1c5.4-4.4 6.7-5.1 9.3-4.6 1.7.3 6.8 1.1 11.4 1.6l8.5 1.1 2.7-3.4c2.6-3.1 3.1-3.3 8.4-3.1 5.1.3 5.6.1 5-1.5-2.1-4.9-1.8-7 1.4-8.6 2.5-1.3 3.1-2.3 3.1-4.8 0-4.1 3.1-8.9 8.1-12.4 2.3-1.5 5.1-4.3 6.3-6.1 1.3-1.8 5.2-5.5 8.7-8.1 3.5-2.7 7-5.6 7.7-6.5.8-.9 2.8-2.1 4.7-2.7 1.8-.6 5-3.2 7.4-6 2.4-2.8 5.5-5.3 7.5-6 2.8-.9 4.3-2.6 8-8.8 2.8-4.8 4.7-9.6 5.2-12.7.7-5.5 2.7-8.9 8.8-15.2l4-4.3-3.7-7.2c-4.3-8.3-4.5-10.7-2.5-30.6 1-11 1-12.9-.6-18-1-3.1-2.4-6.7-3.2-8-.8-1.3-1.2-3.1-.9-4.2.4-1.3 0-2-1.4-2.5-1.1-.3-3.1-1.5-4.5-2.6-2.3-1.8-2.6-2.7-2.6-8.8 0-7.6.5-8.4 7.8-12 3.1-1.6 4.2-2.7 4.2-4.5 0-2.6-2.8-5.6-5.4-5.6-3.1 0-7.3-2.9-11.9-8.1l-4.5-5.2 1.9-3.6c1-2 1.9-4 1.9-4.6 0-.5-2.2-2.4-4.8-4-3.2-2.1-4.8-3.8-5-5.5-.2-1.4-1.3-4.8-2.4-7.7-2.4-5.9-2-7.7 2.1-10.1 3.4-1.9 4.2-3.8 3-7-.6-1.7-1.6-2.2-4.2-2.2h-3.4l-2.2-8.3c-2.9-11.2-2.8-12.6 1.9-18.5 2.2-2.7 4-5.2 4-5.5 0-.2-1.3-2.1-3-4.2-2.9-3.7-2.9-3.8-1.3-6.6 1.6-2.7 1.6-2.9-.5-5.1-2.1-2.3-2.1-2.6-.7-8.6 2.8-12 9-20.6 11.9-16.6 1 1.3 2.1 1.5 5.2 1 11.3-1.9 10.9-2 12.2.9l1.2 2.7 1.8-2.3c1.7-2 2.1-2.1 4.7-.8 1.6.8 3.9 3 5.2 4.9 4.3 6.8 6.4 9 8.8 9 1.9 0 2.2-.4 1.8-2.1-.4-1.5.2-2.7 2.2-4.3l2.8-2.3-4-.6c-2.2-.4-4.5-1.3-5.1-2-1.4-1.6-1.6-5.9-.7-10.8.6-2.9.3-4-1.9-6.6-3.3-3.9-3.3-5.8-.1-7.9 2.8-1.8 5.5-1.3 5.5 1.2 0 .9 1.7 3.7 3.9 6.3 2.1 2.5 4.8 6.5 6 8.9 1.4 2.8 3.4 4.8 5.7 5.9 2.9 1.4 3.4 2.1 2.9 4-.3 1.4.1 3.4 1.1 4.8 1.3 2 1.4 2.8.5 3.9-1 1.2-.7 1.8 1.3 3.1 3.3 2.2 3.6 4.9.5 4l-2.2-.7 2.1 2.8c1.1 1.6 4 4 6.5 5.3l4.5 2.5 6.1-2.8c5.1-2.3 6.4-2.5 8.3-1.5 3.1 1.6 3.8 2.8 3.8 7v3.7l6.3 1.1c3.5.6 9.3 1.1 12.8 1.1 6.7 0 25.2 5.4 31.4 9.2 4.1 2.4 7.1 2.3 9-.5.8-1.3 2.6-2.9 3.9-3.6 2-1.1 2.8-1 4.8.3 2.2 1.5 2.8 1.5 6.1.1 2-.8 5.3-3.2 7.5-5.4 3.1-3.2 5.1-4.1 10.9-5.5 8.9-2 10.9-2 11.7-.1.8 2.1 3.6 1.9 6.3-.7 2-1.8 2.6-2 4.6-.9 3.3 1.8 9.9-.9 15.8-6.4 4.8-4.5 7.5-5.5 9.6-3.4 1.3 1.3 3.3.4 3.3-1.6 0-2.9 4.2-4.5 11.9-4.5h7.4l6.3-6c7.6-7.3 12.4-9.6 22.4-10.5 5.4-.5 9.7-1.7 15.4-4.2 7.3-3.3 8.4-3.5 14.4-2.9 5 .5 7 .3 8.9-.9 2.2-1.5 2.6-1.5 5.9.6 3.5 2.1 3.5 2.1 15.2.5 16.2-2.4 27.9-5.4 32.6-8.5 3.3-2.2 5.5-2.7 13.5-3.2 7.8-.5 10.6-1.1 15.1-3.4 5.4-2.8 5.5-2.8 20-2.2 8 .3 21.6 1.7 30.3 3.1 10 1.7 19.9 2.6 26.8 2.6H783l10.7 5.5c7.8 4 10.9 5.1 11.5 4.2 1.2-1.9.9-2.2-8.1-8.1-7.6-5.1-8.9-5.6-13.8-5.6-3.9 0-5.5-.4-6-1.6-.5-1.3-.8-1.2-2.5.5-2.3 2.5-2.2 2.5-9 .2-7.3-2.5-11.1-4.5-15.1-8-1.8-1.6-5.3-3.4-7.7-4.1-13.5-3.6-27.9-14.9-33.2-25.9-1.7-3.6-4.4-8.2-6-10.1-1.5-1.9-2.8-4.3-2.8-5.3 0-5.4-7.7-14.4-10.3-11.8-2.1 2.1-3.9 1.3-3.3-1.7.6-2.5.2-2.9-4.9-5.6-3.1-1.6-6-3.7-6.6-4.7-.5-1.1-2-1.9-3.3-1.9-1.3 0-3.6-1.4-5.5-3.5-2.9-3.2-3.6-3.5-8.6-3.5-2.9 0-5.6-.4-6-1-.3-.5-1.2-.7-2-.3-1.1.4-1.5-.3-1.5-2.6 0-3.4-.6-3.7-3.4-1.6-3.5 2.7-6.6 1.8-11-2.9l-4.1-4.5-2.6 2-2.7 1.9-12.2-3.5c-6.7-2-13-3.3-14.1-3-1 .3-2.8 1.8-3.9 3.2l-2 2.6-3.7-4.2-3.8-4.2-4.7 1.7c-4.7 1.8-4.9 1.8-12-.5-19.1-6.1-25.5-11-37.3-28.5-4.2-6.1-9.8-14.3-12.6-18.1-3.1-4.4-5.2-8.5-5.6-11-.3-2.2-1.2-4.8-2-5.7-1.4-1.5-1.3-2.9.2-11.7 1.5-8.4 1.6-10.5.5-13.1-1.3-3-1.2-3.3 1.8-6.1 3.3-3.1 3.9-5.3 2.3-7.9-.7-1-.4-1.8 1-2.8 3-2.1 4-5.5 2.6-9.1-.9-2.4-.9-3.6 0-5s.8-2.4-.7-4.5c-1-1.6-2.1-5.5-2.5-8.9-.8-7.4-1.8-9.5-4.7-9.9-1.6-.2-2.4-1.1-2.6-2.8-.4-4-3.3-17.1-4.9-22.2-1.7-5.6-9.1-12.8-13-12.8-1.4 0-3.4-1.1-4.6-2.6-3.1-3.7-4.8-5.2-8.4-7.7-1.8-1.2-4.8-3.5-6.7-5.1-3-2.3-3.9-2.6-5.1-1.6-1.8 1.5-2.1.7-2.9-7.4-.2-3.2-.7-6-.9-6.3-.3-.2-2.4.1-4.7.8-3.3 1-4.6 1-6.1.1-1.1-.7-2.9-1-4.2-.7-3.4.9-9.7-2.1-9.7-4.6 0-1.1-.9-2.8-2.1-3.8-1.7-1.4-1.9-2-.9-4.5 1.2-3.3 1-3.9-1-2.6z"/>
    <path d="m275.7 283.7-1.5 3.8 4.5 1.3c5.8 1.7 11.3.2 11.3-3.1 0-1.8-1.1-2.6-4.9-4-6.8-2.4-7.7-2.2-9.4 2zm735.8 1.4c-2.9.7-4.5 1.8-5.7 4-1.6 2.6-2.2 3-4.7 2.4-3.4-.7-5.2.1-11 5-2.4 1.9-5.2 3.5-6.2 3.5-2.7 0-19.7 9.2-27 14.5-3.3 2.4-8.5 5.8-11.5 7.6-4.8 2.7-6.1 3-10 2.4-3.9-.6-4.4-.4-4.4 1.4 0 3.9-10.2 9-15.5 7.7-1.6-.4-3.1.4-5.8 3.2-4.5 4.6-5.3 6.9-5.6 15.7l-.3 7 2.4-2.2c2.9-2.7 7-4.3 11.2-4.3 2.2 0 5.3-1.5 10.3-5 5.6-4 7.9-5 11.1-5 5.1 0 21.8-4.2 26.8-6.8 2.1-1.1 7.1-4.6 10.9-7.6 8.8-7.1 23.5-14.7 36.7-19 6.9-2.3 10.4-3.9 10.6-5 .4-1.8-6.8-20.7-7.7-20.5-.3.1-2.4.5-4.6 1zm-336 441.7c-.3.4-4.2.9-8.5 1.3-9.5.7-10.3 1.2-16.5 12-2.9 5.1-5.6 8.4-7.5 9.4-2.1 1.1-3 2.3-3 4.1 0 5.4-2.5 8-9.5 9.9l-6.5 1.8v24.1l-5.7 5.6c-3.2 3-8.6 7-12 8.8-3.4 1.8-6.4 3.6-6.7 4.1-.3.4.6 6 1.9 12.3 1.3 6.4 2.8 15.9 3.4 21.1.6 6 1.6 10.5 2.7 12.2 1.4 2.2 1.5 3.1.6 4.6-1.7 2.7-1.5 3.6 1.4 7.4 1.4 1.8 3 5 3.5 7 .9 3.1 2.4 4.5 9.5 9.1 11.4 7.5 19.3 10.9 31.9 13.9 6.7 1.6 11.8 3.4 13.8 4.9 1.8 1.4 4.4 2.7 5.8 3.1 3.7.9 14.4-1.2 19.8-3.9 2.5-1.3 7.4-2.6 10.8-3 8-.9 10.9-1.9 20.3-7.2 10-5.7 18.3-12.2 22-17.3 1.7-2.2 3.7-4.1 4.6-4.1.9 0 3-1.5 4.6-3.2 1.7-1.8 4.5-3.7 6.2-4.3 2.6-.8 3.8-2.5 7.3-9.5 7.7-15.4 9.1-28.9 4.3-41.2-3-7.7-7.5-12.7-16.1-17.8-5-2.9-7.5-5.1-8.3-7.1-.5-1.6-1.6-2.9-2.2-2.9-2 0-6.3-4-5.8-5.4.3-.7-.6-2-2-2.9-1.3-.9-3.8-4.2-5.5-7.2-2.4-4.6-2.8-6-1.9-7.5 1.5-2.3-.2-4.5-4.7-6.4-1.8-.8-4.2-2.7-5.4-4.4-1.7-2.4-3.1-3.2-6.9-3.7-5.1-.7-11.8-4.2-18.9-9.9-2.8-2.3-6.2-3.9-10-4.7-3.2-.6-6.8-1.8-7.9-2.5-1.2-.7-2.5-1-2.9-.6zM298 887.3c0 4.3-1.8 8.7-3.6 8.7-.7 0-2.2-1.6-3.4-3.5l-2.2-3.5-2.4 2.2c-2.8 2.7-3 4.1-.9 5.8 2.1 1.7 1.9 4.9-.6 8.9-2 3.3-2 3.3-7.7 2.7-3.1-.4-6.9-.9-8.3-1.2-2-.4-2.8 0-3.2 1.5-.3 1.1-2 2.9-3.8 4-1.9 1.2-2.7 2.1-1.9 2.1.8 0 3.3 1.4 5.4 3 5.5 4.2 9.8 4.1 12.4-.3 1.9-3.3 2-3.4 6.8-2.6 2.7.4 6 1 7.3 1.5 2.3.7 2.3.7.6-1.9-1.4-2.2-1.5-3.2-.5-6.2 1-2.9 2.3-4.1 7-6.5 3.2-1.6 6.2-3.5 6.6-4.2.5-.9.2-.9-1 .1-2.6 2.2-4.2 0-2.7-3.7 1.7-4 1.1-7.2-1.6-9-2.2-1.4-2.3-1.4-2.3 2.1zm-30.7 6.1c4.5 3.1 6.7 3.3 6.7.6 0-1.5-.7-2-2.7-2-1.6 0-3.9-.3-5.3-.7-2-.5-1.8-.1 1.3 2.1zm-49.7 8.9c-.3 1.4-3 4.1-6.6 6.6-5.6 3.9-8 7.6-6.6 9.9.3.5-.1 2.9-.9 5.4l-1.3 4.6 8.8 4.1c4.9 2.3 9.7 4.1 10.7 4.1 3.2 0 6-2.7 10.8-10.5 4.6-7.4 6.7-9 7.9-6 .3.8 1.5 1.5 2.6 1.5 1.5 0 2-.7 2-2.5 0-1.9-.7-2.6-3.7-3.4-2.1-.6-4.2-1.1-4.7-1.1s-1.7-.7-2.7-1.6c-1.7-1.5-1.7-1.8-.2-4 .9-1.4 1.4-2.6 1.2-2.9-.2-.2-3.3-1.5-6.9-2.8-3.6-1.3-7.2-2.7-8.1-3.1-1.2-.5-1.8-.1-2.3 1.7zm54.5 38.7-3.2 4h3.8c2.1.1 5.5.7 7.6 1.4 3.4 1.2 3.7 1.2 3.7-.4 0-1.7-6.4-9-7.9-9-.4 0-2.2 1.8-4 4z"/>
</svg>
