<svg version="1.0" xmlns="http://www.w3.org/2000/svg" class="fill-current"  width="1365.333" height="1365.333" viewBox="0 0 1024 1024">
    <path d="M132.6 159.6c-.5 1.3-1.4 1.5-4.1 1.1-2.8-.5-3.3-.3-2.8 1 .4 1-.3 2.3-1.8 3.4-2 1.5-2.1 1.9-.6 1.9 1.1 0 1.7.8 1.7 2.4 0 1.5.7 2.6 1.7 2.8.9.2 1.8 1.4 1.9 2.8.2 1.4.6 4 1 5.9.7 3.3.6 3.4-2.2 2.6-9-2.2-16.4-1.4-16.4 2 0 .7-.7 2.1-1.6 3-1.5 1.5-1.8 1.4-4.2-.1-2.4-1.6-2.8-1.5-8.1 1.1-11.6 5.8-11.2 5.6-12.8 4.3-.8-.6-2.1-2.4-2.9-4-.8-1.5-1.9-2.8-2.5-2.8-.6 0-3.7-1.5-6.8-3.4-7.2-4.3-21.5-6.5-26.4-4.1-1.7.8-4 1.5-5.2 1.5-3.1 0-11.7 3-13.8 4.8-1.9 1.7-1.5 4.1 1.4 8.4 2.3 3.2 2.4 5.1.4 6.8-1.3 1.1-2 .9-4.2-1.1-1.4-1.3-3.2-3.9-4-5.8-1.8-4.1-5-7-8-7.1-1.2 0-2.9-1-3.8-2.3l-1.6-2.2-3.4 4c-3.3 3.8-3.4 4-1.3 4.3 1.2.2 3.6 2 5.4 3.9 3.4 3.7 3.5 5.3.2 11.9-1.9 3.6-3 10.4-1.8 10.4.6 0 .5 1.1 0 2.6-1.3 3.3-1.4 3.2 1.4 2.7 3.6-.7 3.9 1.1.6 5.2-4.4 5.5-2 7.8 3 3 2.3-2.2 2.9-2.4 5.8-1.3 1.7.7 3.5.9 3.9.5 1.4-1.4.2-8.1-1.7-10-3.3-3-2.6-5.5 1.8-5.9l3.7-.3-.3-4.8c-.4-5.2.4-5.7 4.8-3.2 1.4.8 3.7 1.4 5.3 1.5 2.2 0 2.7.4 2.7 2.5 0 2.8.3 2.9 3 1.5 2.9-1.5 4.9-.2 6.2 4.2 1.5 4.9 5.1 7.7 7.9 6 1-.7 2.6-1.2 3.4-1.2.8 0 1.5-.7 1.5-1.5 0-1.9 2.7-1.9 6 0 3.8 2.1 8.7 1.9 10-.5.6-1.1 2-2 3-2 1.5 0 2-.7 2-2.5 0-2.2.3-2.4 3-1.9 2.5.6 3 .3 3-1.3 0-4.3 6.4-7 9-3.8 1.1 1.3.8 2-1.5 4.5-2.7 2.9-2.9 6.5-.2 5.5.7-.3 2.3.8 3.5 2.5 2.9 3.9 5.2 3.9 5.2 0 0-2.1.5-3 1.7-3 .9 0 2.5-.8 3.5-1.7 1.8-1.6 2.2-1.6 4.6-.2 2 1.1 2.7 2.3 2.8 4.5.2 6.8 2.7 7 9.7.9 5.4-4.7 8.6-5.6 10.7-3 1.8 2.1 7.7 1.9 8.9-.3.5-1 .7-3.7.4-6-.5-3.9-.4-4.2 1.8-4.2 1.3 0 3 .4 3.8.9.9.6 2.8.4 5.3-.6 2.1-.8 4.5-1.3 5.3-.9 1.7.6 2.1 6.1.5 7.1-.5.3-1 1.3-1 2.1 0 1 1.2 1.4 4.1 1.4 2.2 0 4.8.4 5.8.9 1.2.7 3.5.1 8.1-2 8.6-3.8 11-3.8 11 0 0 3.6-3.5 8.1-6.3 8.1-1.2 0-4 1.5-6.2 3.3-3.1 2.4-4 3.9-4 6.2 0 3-.1 3-7 3.8-13.8 1.6-13.6 1.5-20.2 8.2-3.4 3.4-7.1 6.9-8.3 7.8-1.8 1.2-2 1.9-1.1 3.5.8 1.5.7 2.3-.5 3.3-2.3 1.9-.5 2.8 7.2 3.2 3.9.3 8 1 9.3 1.6 2.3 1.3 4.1.7 4.1-1.3 0-.7.8-2.1 1.9-3 2.5-2.3 6.5-1.2 9.2 2.5 1.1 1.6 3.1 3.2 4.4 3.5 3.8.9 5.2 3.2 3.2 5.1-1.3 1.3-2.1 1.4-4.1.5-2-.9-3.3-.6-7.8 1.8-2.9 1.6-8.2 4.3-11.8 6-7.7 3.6-15.8 9-16.5 10.8-.9 2.3.4 3.2 3.1 2.2 4.7-1.8 9.6-.2 12.9 4.2 2.8 3.7 3.3 3.9 6.5 3.3 5.7-1.1 7.3-1.1 7.7.2.2.7-1.1 1.8-2.9 2.6-1.8.8-4.1 2.4-5.2 3.5-1.6 1.9-1.7 2.5-.6 5.2 1.8 4.4 4.3 5.5 7.6 3.3 2.5-1.6 2.8-1.6 6.9.6 3.1 1.6 5.5 2.1 9.1 1.9l4.9-.3-.2 4c-.2 3.7-.1 3.9 1.2 2.1.8-1.1 1.5-2.9 1.5-3.9 0-1.7.5-1.9 3.1-1.3 1.8.3 3.8.1 4.5-.5.8-.6 2.1-.9 2.9-.5 1 .4 1.5-.1 1.5-1.4 0-2.3.1-2.4 5.1-.8 3.5 1 4.2.9 6.2-.9 1.2-1.2 4-2.9 6.2-4 3.6-1.6 4-2.2 4.3-5.9.3-4.7-1.6-7.4-5.2-7.4-1.2 0-3.1-.6-4.1-1.4-1.8-1.3-1.8-1.5-.1-4.1 1.3-2 1.5-3 .7-3.8-1.6-1.6-1.3-4.4.5-5.1 3.6-1.4 6-.6 7.1 2.3 1.1 2.9 1.1 2.9 9.1 2.8 7.4 0 8.1-.2 8.4-2.1.2-1.5 1-2.1 2.8-2.1 2.2 0 2.5-.5 2.8-3.8.3-2.9.7-3.7 2.3-3.7 4.7 0 8 4.6 4.8 6.6-2.3 1.4 3.4 4.4 8.3 4.4 5.9 0 7.8.7 7.8 3 0 1 .7 2.3 1.5 3 2 1.6 14.4 4.2 15.8 3.3.7-.4 5.2-.8 10.2-.8 11-.2 30.7-2.2 35.6-3.7 2.2-.6 4.3-.7 5-.2.8.5 2.3 1 3.4 1.1 1.1.1 3.8.4 6 .7 2.2.3 5.6.6 7.6.5 2.6 0 5 1.1 9.2 4.2 5.9 4.4 6.7 5.8 4.3 7.8-1 .8-3 .6-8.1-1-5.7-1.7-7.2-1.9-9.4-.9-1.4.7-5.1 1.5-8.1 1.9-4.7.5-5.5.9-6 3.1-.5 1.9-1.2 2.4-3.1 2.2-5.4-.7-11.7-.2-16.4 1.2-2.7.9-7.2 1.6-10 1.6-5.3 0-13.9 3.4-16.4 6.3-.9 1.1-2.9 1.7-5.7 1.7-2.4 0-4.4.2-4.4.5s1.5 2 3.4 3.8c3.9 3.7 5.6 6.7 5.6 9.7 0 1.4.8 2.4 2.1 2.7 1.4.4 1.9 1.2 1.6 2.4-.6 2.3 1.1 2.9 4.1 1.6 1.8-.8 3.1-.7 5.5.5 1.8.9 4.4 1.9 5.9 2.2 3.6.8 11 6.6 12.6 9.9 1.6 3.2 3.1 3.4 6.5.7 3.5-2.8 4.9-2.5 4.5.7-.2 2.1-1.4 3.3-4.6 5-2.4 1.3-5 3-5.8 3.8-.9.8-3 1.5-4.7 1.4-5.6 0-10.1.7-12.5 1.9-1.3.8-3.6 1-5.6.7-2-.4-3.6-.2-4 .4-.4.6-2.2 1.1-3.9 1.1-4.4 0-9.1 4.3-7.7 7 .6 1.1.8 4.3.4 7.5-.7 5.6.2 6.9 2.6 4 .7-.8 2.1-1.5 3.1-1.5s2.1-.5 2.4-1c1-1.7 3.9-1.1 5.3 1 1.2 2 1.2 2 4.4 0 3.9-2.4 10.8-2.7 10.8-.6 0 .8-1.6 2.4-3.5 3.6-1.9 1.2-3.5 2.4-3.5 2.6 0 .2 2.3.2 5.2 0 4.1-.3 5.3-.8 5.9-2.4.4-1.1 1.5-2.5 2.5-3 2.3-1.3 10.5-.3 12.6 1.5 2.3 2 4.8 1 4.8-1.9 0-3.8 1.4-5.1 4.8-4.3 4.3.9 7.2-.9 7.2-4.5 0-2.3.5-3 2-3 1.6 0 1.9-.5 1.4-2.9-.7-3.1 1-7.1 2.9-7.1.7 0 1.8.9 2.5 2 1.8 2.9 4.1 2.5 5.3-.9.8-2.3 1.7-3 4.7-3.3 5.1-.7 5.9-.2 6.7 3.8.4 2.6 1.6 4.1 4.7 6l4 2.6-3.1 3.2c-1.7 1.7-3.1 3.5-3.1 3.8 0 .9 9.3 3.3 11.6 3 1.1-.2 3.3.2 4.8.8 2.3.8 3.2.7 5.3-1 1.4-1.1 3-2 3.5-2 1.8 0 7.8 6.8 7.8 8.8 0 3.6 3.6 4.7 8.2 2.6 3.7-1.7 4.2-1.7 7.1-.1 1.8.9 4.3 1.7 5.7 1.9 3.2.4 3.9 4.9 1.5 9.4-1.6 3-1.6 3.4 0 6.4l1.7 3.3-3.8 3.4c-2.2 1.9-5.4 4.1-7.1 4.9-4.1 1.8-4.1 2.9-.3 4.9 1.7.9 3 2 3 2.5 0 .6 2.8 1 6.3 1 5.7 0 6.6.3 9.2 3 1.6 1.6 3.7 3 4.7 3s2.2.8 2.5 1.7c1.1 2.8 5.5 6.2 9 6.9 1.9.3 3.3 1.3 3.6 2.5.3 1.1 1.4 1.9 2.6 1.9 1.1 0 2.6.9 3.3 2 .8 1.2 2.4 2 4.1 2 3.6 0 6.7 1.6 6.7 3.5 0 2.5 4.5 1.7 6.9-1.1 2.1-2.4 2.8-2.6 7.1-2 6.1.8 7.5-.6 6.6-6.7-.6-4.2-.5-4.4 2.8-6 4-1.9 12.4-1.1 15.4 1.5.9.9 3.9 1.8 6.6 2.1 3.4.3 5.4 1.1 6.5 2.5 1.2 1.5 3 2.2 6.5 2.4 2.7.2 5.1.8 5.3 1.4.7 2.1-2.7 4.3-7.5 4.9-2.6.3-5.5 1-6.5 1.6-1 .5-2.2.7-2.8.3-.6-.3-2.9.7-5.2 2.3-2.3 1.5-4.8 2.8-5.6 2.8-.8 0-1.6.6-1.9 1.4-.4 1.1.2 1.2 2.4.7 1.6-.4 4.3-1 6-1.3l3-.5-.1 6.4c-.1 3.4-.4 6.9-.6 7.6-.2.8.6 2.1 1.8 2.9 1.9 1.3 2.3 1.3 2.7.2 1.3-4.3 1.7-5 3.1-5.6.9-.3 2.8 0 4.3.8 1.5.7 3 1.5 3.5 1.7.4.2.7-.8.7-2.2 0-3.1 1.3-4 4.7-3.1 2.2.5 2.4 1 1.8 3.3-2 7.3.5 15 4.5 13.7.9-.3 3.6.2 6 1 3.9 1.4 4.5 1.4 6 0 2.4-2.2 3.8-1.9 5.5 1.5.9 1.7 2 2.8 2.5 2.5.5-.3 1.8 0 3 .7 2.5 1.6 2.7 6.6.3 7.5-1 .3-2.5 1.2-3.3 1.9-.8.7-2.8 1.4-4.5 1.6-2.7.3-3 .6-2.8 3.4.2 1.9-.4 3.7-1.2 4.4-.8.7-1.5 2.7-1.5 4.5 0 4.3-.9 6.5-2.6 6.5-1.5 0-1.8 1.2-.7 2.4.4.4.8 1.5.8 2.4 0 1.3.7 1.6 2.7 1.4 1.7-.2 4 .6 5.9 2 2.3 1.7 4.2 2.2 7.7 2.1 3.6-.1 5.4.4 8 2.3 2.9 2.3 3.5 2.4 6.6 1.3 4.1-1.5 6.6-.1 6.6 3.6 0 2.8 1.7 4.2 5.5 4.7 2.3.2 3 .8 3.1 2.6.1 1.2.4 2.5.7 2.8.8.8 4 .8 6.3 0 1.4-.4 2.9 0 4.4 1.2 2.3 1.8 2.4 1.8 4.2 0 2.7-2.7 11.7-2.5 14.7.3 1.3 1.2 2.1 3 1.9 4.2-.3 1.9-.9 2.2-3.8 1.9-3.5-.3-3.5-.3-3.7 4-.1 3.8.4 4.8 4.5 9l4.5 4.7 2.8-1.9c3.4-2.5 4.6-2.5 5.4 0 1.2 3.9 3.5 1.5 3.5-3.7 0-2.5.1-2.6 5-2 4 .5 5 .3 5-.9 0-2.1 2.4-2.7 6.2-1.6 8.3 2.5 8.6 2.5 9-1 .2-2.5.8-3.3 2.3-3.3 1.2 0 2.1.8 2.3 2 .7 4.6 1.3 5.1 2.8 3 1.3-1.8 1.7-1.8 4.7-.5 1.7.7 6.7 1.5 11 1.8 6.6.3 7.7.6 7.7 2.2 0 2.7-2.3 4-6.4 3.7-2.7-.1-4.1.3-5 1.5-2 3.2.4 5.2 7 5.9 3.2.3 8.3 1.4 11.2 2.5l5.2 1.9-.4 9-.4 9-5.4.1c-6.8.1-7.4.5-8.1 5.1-.3 2.1-.8 4.6-1.2 5.5-.5 1.4.6 2.3 5.8 4.8 3.5 1.6 6.9 3 7.6 3 .6 0 1.7 1.1 2.3 2.5.9 2 1.9 2.5 4.6 2.5 2.4 0 4.2.8 5.9 2.6 1.8 1.9 3.1 2.5 5.6 2.2 3.1-.3 3.2-.2 3.4 3.7.3 7.2 1.4 11.5 3 11.5 1.1 0 1.3.7.9 2.7-.5 2.4.3 3.7 4.9 8.7 3 3.2 5.5 6.7 5.5 7.7 0 2.4 3.8 8.7 6 9.9 1 .6 2.9 1 4.3 1 3 0 6.3 3.5 7.2 7.8.5 2.6.3 3.3-1.2 3.9-3.9 1.4-4.3 2.3-2.6 5.7.8 1.7 3.1 4.4 4.9 5.9 2.1 1.8 3.4 3.7 3.4 5.2 0 2.6 1.5 4.1 2.5 2.5 1-1.7 2.5-1.1 2.5.9 0 1.1.5 2.3 1.1 2.7.6.3.8 2 .5 3.8-.5 2.7-.1 3.8 2.5 6.7 2.8 3.1 3 3.8 2.4 8.4-.3 2.7-1.3 5.8-2.2 6.7-2 2.2-.9 3.8 2.7 3.8 3.7 0 4.5 2.5 2.1 6.3l-2 3.1 4.5 5.2c2.4 2.9 4.4 5.7 4.4 6.3 0 .6 1.3 1.7 3 2.6 1.7.9 3 2 3 2.5 0 .6.9 1 1.9 1 2.9 0 7.1 5.6 7.1 9.4 0 2.7-.6 3.5-3.2 4.7-4.8 2.1-4.7 3.8.1 3.2 3.5-.5 4.1-.3 4.1 1.2 0 1-.7 2.7-1.7 3.7-2.4 2.7-.8 3.4 3.4 1.4s5.7-.9 4.9 3.6c-.5 2.5-.3 2.8 2.4 2.8 2.8 0 3 .3 3 3.5 0 4 .5 4.2 3.3 1.8 1.8-1.7 1.9-1.7 3.3.2.8 1 1.4 3.1 1.4 4.5s.6 3.4 1.3 4.4c1.2 1.7 1.4 1.6 2.5-.8 1.4-3 5.2-3.6 5.2-.8 0 2.9 5.4 7.3 10.1 8.3 5.8 1.3 10.9 6.8 10.9 11.6 0 3.4.1 3.5 3.5 3.1 2.5-.3 4 .1 5.1 1.3 1.5 1.7 1.4 2-.5 4.5-1.6 2.1-1.8 3-1 4 1.6 2 3.9 1.7 3.9-.4 0-2.6 4.6-5 6.8-3.5.9.6 1.6 1.9 1.4 2.9-.2 1.1-.4 3-.5 4.4-.2 2-.8 2.6-3.5 2.8-2.4.2-3.6 1.1-4.7 3.2-1.9 3.7-1.9 5 0 5 .9 0 1.5.9 1.5 2.4 0 2.9 3.5 4.1 7.4 2.6 1.7-.6 3.5-.6 5.3.1 4.3 1.6 5.6.5 4.8-4.1-.6-3.5-.5-4 1.3-4 2.1 0 3.2 1.8 3.2 5.1 0 2.9 5.1 2.5 8.9-.7 3.6-3 3.7-3.7 1.1-8.6-1.6-3.1-1.7-3.8-.5-4.8 1-.9 2-.8 4.3.4 4.6 2.4 5.7 4.2 4.3 7.2-.6 1.4-1.1 3.4-1.1 4.4 0 2.1 2.4 2.7 3.5.9.5-.7 1.4-.4 2.7.7 1.6 1.6 2.1 1.6 2.8.4 1.2-1.9 1-14.9-.2-15.6-.4-.3-.8-1.2-.8-2 0-1.1.8-1.4 2.8-1.2 2.4.3 2.7.7 3 4.7.2 2.5 1 5 1.8 5.5.8.6 2.2 2.6 3.2 4.5 2.3 4.7 3.8 4.9 5.6.6.9-2 2-3.4 2.5-3.1 1.2.8 2.1-4.5 1.1-6.5-.5-.9-2.5-2.8-4.5-4.3-3.3-2.5-5.1-7.5-2.2-6.3 8.6 3.8 13.6 5.7 15.2 5.7 2.9 0 6.7-2.9 5.8-4.3-.5-.7-.8-2.3-.8-3.7 0-2.2-.5-2.6-4-3-3.2-.4-4.1-1-4.3-2.7-.4-3-6-7.6-8.1-6.7-.9.4-2.5.6-3.6.6-1.1-.1-2.9-.2-3.9-.2-1.1-.1-3.8 1.7-6 3.9-4.5 4.5-8.6 5.3-12.2 2.6-1-.8-3.2-1.5-4.7-1.5-3.4 0-4.8-2.8-2.3-4.6 1.5-1.1 2.6-1 6.5.5 5.1 2.1 8.6 1.3 9.7-2.1.3-1.1 1.9-2.4 3.5-3 4-1.4 3.7-3.2-.3-2.4-2.3.4-4.2 0-6.5-1.4-2.7-1.6-4.6-1.9-12.2-1.5l-8.9.3-2.6-3.6c-1.4-2-2.2-4-1.7-4.5.5-.5 4 .1 8 1.3 5.4 1.6 7.6 1.8 9.1 1 2.9-1.6 2.5-2.7-1.9-5-2.2-1.1-4.4-2.6-4.8-3.2-1.5-2.4-7.2-5.8-9.6-5.8-1.2 0-2.7-.4-3.3-.9-.5-.6-3.5-2.4-6.7-4.1-4.4-2.3-6.6-3-8.8-2.5-2.2.5-3.1.2-3.5-1-.6-1.6.4-2.8 3.1-3.9.6-.2.5-.9-.2-1.7-2-2.1-1.5-4.8 1-5.4 2.4-.6 12 3.8 19.7 9.1 7.6 5.3 10.8 6.6 12.9 5.4 4.5-2.3 9.6-.5 7.1 2.5-1.8 2.1.1 4 7.9 8 3.6 1.9 8 4.3 9.6 5.4 3.5 2.4 11 2.8 13.8.6 2-1.4 4.1-1.1 6.7 1.1.8.7 2.6 1.2 4 1.1 1.4 0 3.4.2 4.5.6 1.4.5 3-.1 5-1.7 2.6-2.1 2.8-2.7 1.7-4.3-2.4-3.5-2.4-4.3-.2-7.8 3-4.8 5.6-4.6 7.1.5 1.4 4.5 3.4 5.2 4.3 1.5.9-3.6 2.8-4 7.5-1.6 3.1 1.6 4.6 1.9 6.5 1.1 1.4-.5 3.1-.7 3.8-.5.7.3 3.8-.1 6.8-.8l5.5-1.3-.3-5.3-.3-5.3 4 .7c3.7.6 4.2.4 5.2-1.9 1-2 .9-2.9-.2-4.2-1.2-1.5-1.1-1.9.9-3.2 1.2-.8 2.2-2.5 2.2-3.8 0-2.4-.8-2.8-4.4-2.4-1 .1-2.7-.8-3.7-1.9-2.3-2.5-3.7-2.7-4.5-.6-.8 2-4.2 2.9-5.9 1.5-.8-.7-1.5-2.8-1.5-4.7 0-4.1-2.2-5.3-5-2.8-1.7 1.5-2.4 1.6-4.6.7-2.4-1.2-2.5-1.5-1.8-7.2.5-5 .4-6-.9-6-.8 0-1.8-.7-2.1-1.6-.4-1.1-1.4-1.4-3.4-.9-1.9.4-3.3.1-4.1-.9-.7-.9-4.1-1.7-8.6-2.1-8.8-.9-11.6-2.9-9.7-7 1-2.1.7-2.8-2.1-5.7-2.8-2.9-4-3.4-9.7-3.8-6.4-.5-6.5-.5-6.5-3.5 0-2.1.7-3.3 2.5-4.2 3-1.5 12.8-1.7 16.6-.3 1.5.6 3.1.7 3.5.3 1.3-1.3-.7-12.9-3-17.7-2.5-5-2.5-6.4-.6-9 1-1.3 1.1-2.4.5-3.7-.6-1-1-3-1-4.6 0-1.7-1.4-4.6-3.6-7.3-1.9-2.4-3.8-5.7-4.1-7.2-.3-1.5-1.2-2.9-2-3.2-1.1-.5-1.3-1.4-.8-3.4 1-4 2.4-5.2 6.2-5.2h3.4l-.7-5c-.6-4.7-.5-5 2.1-6.2 2.8-1.3 2.9-2.7.9-9.6-.5-1.8-.3-2.2 1.8-2.2 1.3 0 2.9.5 3.6 1.2 1.9 1.9 2.2.4 1.1-5.6-.7-4-.7-6.7 0-8.5.5-1.4 1.1-3.7 1.3-5.1.2-1.7 1.3-3 3.6-4 2.5-1.2 3.1-1.9 2.6-3.5-.3-1.1-.7-3.5-.8-5.3-.2-1.9-.9-3.8-1.7-4.3-1.8-1.1-2.9-1.1-2.9 0 0 .5-.9 1.3-2.1 1.6-1.6.5-1.9 1.4-1.7 3.8.3 2.7-.1 3.3-2.2 3.5-1.3.2-3.9 1.7-5.8 3.3-1.8 1.6-4.2 2.9-5.3 2.9-1.1 0-3.6 1.7-5.7 3.8-2 2.1-5.8 4.6-8.5 5.6-5 1.9-5.1 2-6.2 10.8-.8 6-2.2 6.9-5.2 3.4-2.7-3.1-3.1-8.7-.8-10.6 1.9-1.6 1.9-3 .1-3-.8 0-2.9-1.8-4.6-4l-3.2-4.1-3.5 2.1c-4.9 2.9-10 2.6-13.5-.7-2.1-2-2.8-2.3-2.8-1.1 0 2.5-8.1 4.4-11.7 2.7-3.9-1.9-6.6-7.9-6.7-15.1-.1-6.6 1.5-8.8 6.5-8.8 3.4 0 4.3-2.2 2.8-6.7-.6-1.9-.8-4.6-.4-6l.6-2.6 8.6.7 8.6.6 3.1-3.6c2.8-3.2 3.8-3.7 9.6-4.3 3.6-.4 7.1-1 7.8-1.4 2.2-1.5.2-2.7-4.3-2.7-3.4 0-5.2-.7-7.7-2.8-1.8-1.5-4.5-3.3-5.9-3.9-3.1-1.4-4.9-7.1-3.8-12.3 1.3-5.8-.9-8-8.1-8-5.1 0-6.1-.3-7.8-2.5-1.2-1.5-2.6-2.3-3.5-1.9-.9.3-2.7-.2-4.1-1.1-2.4-1.6-2.7-1.6-5.2.4-2 1.6-3 1.8-4.6 1-1-.6-2.2-1.7-2.5-2.5-.6-1.7-3.3-1.8-6.8-.2-2.2 1-2.8.9-4.1-1-.9-1.3-2.6-2.2-4.1-2.2-1.5 0-4.5-1.6-7.4-4.1-6.1-5.1-7.1-8.8-4-15.9 1.2-2.8 1.9-5.5 1.6-6-.3-.5.4-2.7 1.7-4.8 2.2-3.9 2.2-4 .2-6.7-4.1-5.8-4.5-7-4-11.3.3-2.3 1.3-5.6 2.1-7.2 1.8-3.4.4-4.1-3.1-1.5-2.6 1.9-6.3 1.9-8.6-.2-1.7-1.5-2-1.5-4.8.5-1.6 1.2-4.3 2.2-6 2.2-1.7 0-3.8.4-4.8.8-.9.5-3.2 1.6-4.9 2.5-2.9 1.4-3.4 1.4-4.8.1-1.9-1.9-1.9-2.5 0-5 .8-1 1.5-3.3 1.5-4.9 0-2.4 1-3.8 5-7 2.8-2.2 5.3-4.8 5.6-5.8.3-1.1 2.2-3.7 4.1-5.8 3.4-3.8 3.5-4 1.8-5.3-1.9-1.4-6.8-.5-8.1 1.5-.3.5-1.4.9-2.5.9-1.9 0-2-.4-1.4-3.9.8-4.8-.4-5.7-4.6-3.5-2.6 1.3-3.3 1.4-4 .2-1.7-2.6-.8-3.9 4.9-6.6 4.7-2.2 5.8-3.2 6-5.5.3-2.1-.1-2.7-1.6-2.7-1.1 0-2.5.7-3.2 1.5-2.9 3.5-5.6-.4-3.1-4.4.6-1 .5-2.7-.4-4.8-1-2.4-1.1-4.1-.5-5.8.6-1.6.6-3.4 0-5.1-1.2-3-.6-4.4 1.9-4.4 2.7 0 3.3-1.2 1.4-3.2-2.1-2.4-3.1-2.3-3.5.4-.3 2.4-1.5 2.6-6.8 1.3-2-.5-2.7-.1-3.5 1.7-1.3 3-4.6 3.4-6.9.9-2.4-2.6-1.4-5.5 3-8 3.4-2 3.8-4.1.9-4.1-1.3 0-2.7-2.8-2.4-4.6.4-2.4-.3-3.5-2.8-4.5-2.3-.9-2.9-.6-4.9 1.8-2 2.5-2.4 2.6-4.9 1.5-2.2-1-2.6-1.8-2.2-3.8.4-2.2-.1-2.8-3-4.1-3.2-1.3-3.7-1.3-5.5.4-1.9 1.7-2.2 1.6-8.2-1.5-3.5-1.8-8.2-4.8-10.4-6.7-2.2-1.9-4.3-3.5-4.6-3.5-1.4 0-.4 5.3 1.7 9.6l2.2 4.6-2.2 1.5c-3.6 2.4-3 6.2 1.7 10.6 2.9 2.7 4 4.5 4 6.6 0 1.6.7 3.4 1.5 4.1 1.1.9 1.5 2.7 1.3 5.4-.3 3.9-.2 4.1 2.9 4.4 4.2.4 6.1 2.7 4.5 5.3-1.7 2.7-1.5 4.7.8 7.1 1.1 1.2 2 3.1 2 4.3 0 1.2.9 3 2 4s2 3.1 2 4.7c0 1.8.5 2.8 1.4 2.8 2.1 0 5.7 5 5.4 7.4-.2 1.4-1.3 2.3-3.3 2.6-2.7.5-3 .8-2.7 3.8.4 3.7-1.4 9.2-3 9.2-.6 0-2.4-1-4.1-2.3-2.3-1.6-4.6-2.2-8.4-2.2-6 0-6.9-.6-5.4-3.4 1-1.7.5-3.3-2.9-9.7-2.2-4.1-5.6-9.4-7.6-11.7-2-2.3-4.4-6.5-5.3-9.2-1.5-4.6-1.9-5-4.9-5.1-1.8-.1-3.8-.6-4.5-1.3-1.9-1.9-2.9-1.2-2.5 1.9.2 1.8-.3 3.4-1.4 4.2-1.7 1.4-5.8 11.7-5.8 14.8 0 1.1-.4 2-.9 2-1.2 0-7.2 9.7-7 11.3.6 4.5-2.5 5.5-8.1 2.7-4.2-2.1-4.9-4.5-1.4-4.5 2.1 0 4.9-6.4 6.4-14.7.5-2.7 1.2-5.3 1.5-5.9.8-1.2-1.4-6.9-2.6-6.9-.5 0-.9-1.1-.9-2.5 0-3 4-7.5 6.7-7.5 1.3-.1.8-.9-2.1-3.5-3.1-2.8-3.7-3.9-3.2-5.9.5-2.1-.1-3.1-3.4-5.7-4.3-3.5-4.8-5-2.5-6.9 1.3-1 2.3-1 5.5.5 3.1 1.4 4.3 1.5 5.4.6 2.4-2 4.7-10.6 5.1-18.7.3-6.9.2-7.6-1.8-8.3-1.2-.5-3.1-1.8-4.1-3-1.1-1.1-2.2-2.1-2.6-2.1-.3 0-1.7 2-2.9 4.5-1.5 3-2.9 4.5-4.1 4.5-2.6 0-4.3-3.5-3.6-7.1.5-2.7.3-2.9-2.3-2.9-1.6 0-3.4.7-4.1 1.5-.7.9-2 1.4-2.9 1.2-2.9-.6-7.1 2.3-8.6 5.9-.9 2.2-2 3.4-2.8 3.1-.7-.2-3.1.3-5.5 1.2-3.2 1.2-5.1 2.9-7.5 6.6-2.6 4-3.8 5.1-6.4 5.3-2.7.3-3.4.9-4.5 4.4-1.8 5.3-6 8.7-8.3 6.8-1.6-1.3-1.6-2.5-.1-6.1.5-1.1.1-1.8-1.3-2.2-1.4-.3-3.1.8-6 4-2.5 2.8-4.6 4.3-5.5 4-.9-.4-1.6.3-2 1.9-.8 2.9-5.1 5.3-6.7 3.7-.6-.6-.7-2.8-.2-5.9.8-4.6 1.1-4.9 5.3-6.5 6.2-2.3 6-4.7-.6-7.8-3.7-1.7-6-3.6-7.9-6.7-1.6-2.6-3.7-4.5-5.3-4.9-3.8-.9-5.2-2.4-5.2-5.2 0-3.7 2.9-8.6 4.6-7.9.9.3 3.1.6 4.9.6 2.1 0 5.1 1.2 8.5 3.6 3.8 2.6 5.8 3.4 7.6 3 1.6-.4 2.4-1.3 2.2-2.4-.2-1.3.5-1.7 3.2-1.7 2.1-.1 5-1 6.8-2.4 2.8-1.9 3.2-2.8 3.2-6.7 0-2.5.5-5.4 1-6.4.9-1.7 1.4-1.8 3.6-.8 1.6.8 2.8.8 3.2.2.4-.5 1.9-1.7 3.4-2.6 3.4-2.2 4.3-5 2.5-8.3-1-2.1-1.1-3.5-.3-6.1 1.6-5 4.4-5.4 8.8-1 6 6 12.2 6.2 11.6.4-.4-4.7 2-4.7 12.5.2 4.8 2.2 9.4 4 10.2 4 1.9 0 1.9-2 0-4.7-1.1-1.6-1.4-3.4-.9-6.4.7-4 .6-4.2-1.7-3.6-1.3.3-3.8 1.1-5.6 1.8-3 1.2-3.5 1.1-9.4-2.9-3.4-2.3-6.6-4.2-7.1-4.2s-.6-1.5-.2-3.4c.6-3.3.4-3.5-3.2-4.5-3.2-.9-4.4-.7-8.3 1.2-3.8 1.9-5.3 2.2-8.4 1.4-3.5-.9-3.9-.7-7.6 3-3.8 3.9-8.5 5.8-11.7 4.6-.9-.3-2.1.3-3 1.6-.8 1.1-2.1 2.1-2.8 2.1-.7 0-2.1.9-3.2 2.1-2.4 2.6-6.7 4.9-9.2 4.9-1.1 0-3-.8-4.2-1.8-1.8-1.4-3.5-1.8-6.9-1.4-4.3.4-4.8.2-5.9-2.2-.7-1.5-1.2-3.1-1.2-3.6 0-2.1 3.4-4 7.3-4 2.3 0 5.1-.7 6.1-1.5 1.1-.8 3.1-1.5 4.5-1.5 2.8-.1 6.8-2.5 5.4-3.3-.4-.2-5.1-.8-10.3-1.2-5.2-.4-10.1-1.1-10.7-1.7-.7-.6-1.3-2.3-1.3-3.9 0-3.2 2.7-4.5 8-3.7 2.6.4 3 .1 3-1.9 0-1.3-.7-3.7-1.5-5.4-.9-1.6-1.3-3.4-1-3.9 1.1-1.9 5.2-1 7.6 1.6 3.4 3.7 7 5.3 10.3 4.7 2.6-.5 2.8-.9 2.3-3.9-.6-3.7 1.1-5.8 5.6-6.9l2.8-.7-1.8-3.1c-1.6-2.6-2.5-3.1-6.3-3.3-3.1-.2-5.3.4-7.2 1.8-2.4 1.7-2.9 1.7-3.4.4-.3-.9.4-3.2 1.6-5.1 3.1-5 1.6-6.3-3.8-3.6-4.5 2.3-7.5 1.8-10.9-1.8-1.6-1.7-2.3-1.8-6-.8-4.6 1.2-7.3 0-7.3-3.4 0-3.2-1.9-3-4.2.5l-2.3 3.5-3.3-2.5c-2.8-2.2-3.7-2.4-6.5-1.5-1.7.5-4.5 1.3-6.2 1.8-2.5.7-3.1 1.5-3.7 5.3-.6 3-.4 5.3.4 6.7.8 1.8.9 2.9 0 4.8-.7 1.4-1.2 5.5-1.2 9 0 5.5-.3 6.6-2.2 7.9-3.2 2.3-7.4 2-9.8-.6-2.1-2.3-2.3-3.3-2-8.1.1-1.9-.5-3.4-1.9-4.4-1.2-.8-2.1-2.4-2.1-3.6 0-2.8 2.6-6.7 4.5-6.7.9 0 1.6-1.5 2-3.8.3-2 .8-4.7 1.1-5.9.2-1.2 0-2.5-.6-2.8-.5-.3-1-2.6-1-5 0-4.7-.3-5-7.5-6.1-2.6-.3-5.6-1.5-6.6-2.5-2.7-2.7-8.6-3.5-10.8-1.5-2.5 2.3-3 2.1-8.5-2.4-5.4-4.5-5.1-4.4-7.6-3-1.4.8-2.5.7-4-.2-1.7-1.1-2.3-.9-4.5 1.5-1.7 1.7-3.6 2.7-5.5 2.7-3.5 0-6.6 3.6-4.8 5.7.6.7 1.9 1.3 2.9 1.3 2.2 0 2.3.4.9 3.1-.6 1.1-2.1 1.9-3.5 1.9s-3.4.9-4.4 1.9c-1 1-3.7 2.2-5.9 2.6-2.2.3-4.8 1.5-5.8 2.6-.9 1-2.3 1.9-3.1 1.9-4.7 0-9.9 5.8-7.4 8.3 2.2 2.2 1.2 3.8-2.1 3.5-2.5-.2-3.6.2-4.3 1.7-1.6 3.2-8.2 6-11.4 4.9-3-1.1-3.1-2.7-.7-9.4 2.4-6.5 3.8-9 5.1-9 1.6 0 5.2-4.1 5.7-6.5.2-1.4 1.5-2.1 4.7-2.7 2.6-.4 5.5-1.8 7.1-3.3 1.4-1.4 3.1-2.5 3.8-2.5.7 0 1.2-.9 1.2-1.9 0-1.1.5-2.3 1-2.6 1.5-1 1.2-7.1-.5-8.5-1.9-1.6-1.9-4 0-4 2.5 0 3.8-4.1 2.5-7.5l-1.2-3-1.8 2.3c-2.4 2.9-4 2.1-4-1.8 0-2.8-.2-2.9-2.4-1.9-2.9 1.4-6 8.6-5.1 12.2.9 3.5-1.1 6.9-3.8 6.5-1.9-.3-2.2-.9-2.2-4.8v-4.5l-5.5.4c-6.9.4-9 1.5-9 4.7 0 2.4-.3 2.6-3.2 2.2-1.8-.3-4-.8-4.8-1.2-1.2-.5-1.8.2-2.5 2.6-.6 1.9-2.2 3.8-4 4.8-2 1.1-3.2 2.7-3.6 5-.4 1.9-1.6 4.2-2.7 5.1-1.1.9-2.7 3.2-3.5 5.2-.9 2.1-2.8 4.2-4.6 5.2-3.8 1.9-4.1 5.1-.7 6.7 3 1.3 4.2 3.8 2.4 5-1.9 1.2-7.5 1-9.7-.3-1.4-1-2.6-.7-5.9 1.1-5.2 2.9-7.5 1.6-7-3.9.3-3.4.5-3.6 4.1-3.9 3.1-.3 3.7-.7 3.7-2.7 0-1.3-.4-2.7-1-3-.5-.3-1-2.1-1-3.9 0-1.8-.9-4.5-2-5.9-2.3-2.9-2.5-3.8-.8-5.5.6-.6 1.2-2.6 1.2-4.4.1-2.9.5-3.3 5.7-5 3.6-1.2 6-2.6 6.6-4 .5-1.1 2.5-2.6 4.3-3.2 1.9-.6 3.3-1.6 3-2.1-.7-1.4-9.7-1-11.5.5-.9.7-2.2.9-3.2.5-1-.5-2.2-.7-2.6-.6-2 .4-4.8-2.2-4.5-4.2.2-1.6 1.1-2.3 3.3-2.5 3.7-.4 5.9-2.2 2.6-2.2-3.3 0-2.5-4.4.9-4.8 4.8-.6 5.1-.9 3.8-3.7-1-2.2-1.6-2.5-3.7-1.9-1.5.4-5.5.6-9 .6-7.8-.2-9.4.8-7.9 4.9.8 2.4.7 3.3-.6 4.7-1.1 1.3-1.4 2.9-1 5.4.5 3 .3 3.7-1.4 4.2-3 1-12.2-4.5-12.2-7.3 0-.4-1.5-1.2-3.2-1.8-3.2-.9-3.3-.9-3.5 2.1-.1 1.7.3 4.7.9 6.8.9 3.2.8 4-1.1 6.7-1.2 1.6-3 3.3-4.1 3.6-1.5.5-2 1.5-2 4.1 0 2.8-.4 3.5-1.7 3.2-1.3-.2-2-1.7-2.5-5.3-.6-4-1.4-5.6-4.2-8-3-2.6-3.5-3.7-3.8-8-.3-4.6-.5-5-3-5.3-2-.2-2.8.1-2.8 1.2 0 2.2-3.9 2.9-12.5 2.4-6-.4-8.1-1-10.9-3.1-1.9-1.5-4.8-2.7-6.4-2.7-1.6 0-3.5-.7-4.2-1.5-1.5-1.7-2.5-1.1-4.4 2.7-1.4 2.7-6.2 4-15.4 4.2-5.5.1-6.5.4-8.5 2.8-2.2 2.7-2.2 2.7-6.2 1.1-3.5-1.4-9.2-2.2-16-2.3-1.1 0-3.6.2-5.6.6-4.7.8-8.6-1.1-6.8-3.2.6-.8 1.8-1.4 2.5-1.4.9 0 1.4-1.2 1.4-3.4 0-4 1.7-5 6-3.5 2.3.9 3.9.7 7.4-.6 2.7-1 5.3-1.4 6.7-1l2.3.7-2.2-3.3c-1.2-2-3.4-3.8-5.2-4.3-5.4-1.6-2.9-6.4 3.8-7.3 4-.5 4.2-.7 2.6-2.4-.9-1-3.1-2.5-5-3.4-4-1.9-4.3-3.4-.9-6.5 1.8-1.7 3.1-2.1 5.3-1.7 1.9.4 4.3-.1 6.5-1.2 2.6-1.3 5-1.7 8.6-1.3 4.1.4 5.2.1 5.7-1.2.4-1 1.8-1.6 3.5-1.6 3.4 0 5.2-2.8 4.3-6.5-.8-3.1-3.7-4-11-3.2-4.1.4-5.4.2-5.4-.7 0-.8-.6-1.9-1.4-2.5-1-.8-1.9-.6-3.9.9-1.4 1.1-3 2-3.6 2-.6 0-1.1 1.3-1.1 2.8 0 5.6-4.3 6.8-9.2 2.7-1.6-1.4-3.4-2.5-3.9-2.5-1.3 0-5.3 8.9-5.3 12-.1 2.6-.3 2.6-6.6 1.3-3.3-.6-5.7 2.1-6.2 6.7-.3 3.1-.6 3.5-3.5 3.8-2.2.2-3.7-.3-5.2-1.9-1.5-1.6-3.4-2.3-6.5-2.5-5.3-.2-6.3.3-6.7 3.6-.5 3.1-4 3.4-5.3.4-.5-1.1-2.2-2.6-3.7-3.1-2.1-.8-2.6-1.6-2.2-3.1.3-1.4-.2-2.4-1.5-3.1-2.9-1.6-13.2-1.7-18.3-.1-5.5 1.6-9.8.3-11.9-3.6-1.8-3.3-3.3-3-5.3 1.2-1.5 3-2.1 3.4-4 2.8-1.2-.5-3.1-.7-4.2-.6-1.1.1-3.3.3-5 .4-4 .4-4.4-2-1-6 2-2.4 2.4-3.5 1.6-5-.7-1.4-.5-2.6 1-4.8l1.9-2.9-4.8-.5c-2.6-.3-6.4 0-8.7.8-3.5 1.1-7.6.9-6.3-.4.8-.8-2.6-9.7-3.8-10.1-.7-.2-1.4.4-1.8 1.3z"/>
    <path d="M424.5 545.2c-1.7 1-3.8 1.8-4.8 1.8-1.4 0-1.6.5-1 2.7.4 1.6.7 4 .7 5.5-.1 2.2.3 2.8 2 2.8 2.3 0 7.9 1.9 11.3 3.8 1.2.7 2.9 1.2 3.7 1.2 2.2 0 2 3.7-.2 4.4-1 .4-3.1 2-4.7 3.6l-2.9 3h3.2c1.7 0 3.4-.5 3.8-1.1.3-.6 1.7-.8 3.1-.4 3.8.9 9-.4 9.6-2.5.4-1.5 1.4-1.8 5.1-1.7 3.1.1 5.1-.3 6.2-1.5 1.5-1.5 1.5-1.7-.7-2.8-1.3-.7-4.4-3.2-6.9-5.7s-8.9-6.7-14.5-9.7l-10.1-5.2-2.9 1.8zm583.9 256.9-2.8 1.8 3.7 1.6c3.6 1.5 4.8 3.7 2.7 5-.5.3-1 1.6-1 2.8 0 1.7.9 2.5 4.1 3.5 5.2 1.6 6.1.9 7-6 .4-2.9 1.1-6.5 1.4-7.9l.7-2.7h-6.5c-4.7 0-7.3.6-9.3 1.9z"/>
</svg>
