<svg version="1.0" xmlns="http://www.w3.org/2000/svg" class="fill-current"  width="1365.333" height="1365.333" viewBox="0 0 1024 1024">
    <path d="M85.1 189.9c-3 5.9-8.5 9.5-26.9 18-33.9 15.8-43.9 21.7-51.7 30.3-7.5 8.3-8.1 14.6-3 30.5 1.4 4.7 3 12.7 3.5 18.5 1.3 13.8 2.4 17.3 7.3 22.4 7 7.2 47.6 30.2 61.5 34.8l5.3 1.8 15.8-7.6c8.6-4.2 16.9-7.6 18.3-7.6 1.4 0 16.7 2.7 33.9 6.1 17.3 3.3 34.3 6.5 37.9 7.1 5.3.9 7.2 1.7 10.3 4.6 4.8 4.6 4.8 7.7.2 13.2-4.5 5.4-5 7.7-3.6 16 .6 3.8 1.1 10.8 1.1 15.7v8.8l6.8.1c7.4 0 14.4 2.6 18 6.5 2.1 2.2 2.2 3.1 2.2 24.9v22.6l-3.5 5.8c-4.1 6.8-10.4 15.6-17 23.8l-4.6 5.8 3.3 1.5c1.8.8 6.9 2.8 11.3 4.5 11 4.1 14 6.2 17.9 12.2 7.9 12.4 13.3 29.2 20.1 62.1 3.8 18.2 4.8 25.4 5.6 39.7 2.1 37.9 4.4 43.7 33.7 86 14.8 21.4 23 36.8 27.1 51.3 4 14 6.5 18.7 15.5 29.4 10.2 12.2 33.4 34.7 43.6 42.3 20.6 15.3 30.7 15.9 49.6 3.3 8.2-5.5 13.3-7.3 21.1-7.3 4.3 0 24.4 3.6 59.5 10.5 50.7 10.1 53.3 10.5 58.7 9.4 13.8-2.8 39.8-15.2 60.1-28.7 9.4-6.2 14.4-10.5 27.5-24 8.8-9 22.5-21.7 30.5-28.2 18.9-15.4 24-20.5 24-24 0-4.5-4-9.1-11.5-13.1-12-6.5-14.3-11.7-8.6-19.6 3.8-5.3 10.7-11.1 14.1-11.8 5.7-1.2 13.3 5.5 21.5 19 2.3 3.8 5.4 7.8 6.8 8.9l2.6 1.9 11.9-11.5c6.6-6.3 15.7-13.9 20.3-17 4.6-3.1 14.9-10.4 22.9-16.2 16.5-12.1 33.1-20.9 43.7-23.1 3.7-.8 14.8-1.9 24.6-2.4 21.7-1.3 27.3-2.6 41.9-9.2 6.2-2.8 13.6-5.9 16.4-6.9 7.9-2.8 31.4-6.7 59.8-10 41.1-4.8 44.8-5.5 48.9-9.8 2.6-2.7 2.8-3.5 2.5-9.2-.3-6.3-.4-6.4-3.6-7.2-2.7-.7-3.8-.5-6.5 1.5-4.9 3.8-8.6 5.3-15.7 6.6-3.6.7-19.3 4.4-35 8.1-63.9 15.4-77.5 16.8-97.5 9.9-5.5-1.8-17.6-7.2-27-11.9-13.2-6.6-17.4-9.2-19.2-11.8-1.3-2-7.4-6.7-15.5-11.9-36.1-23.2-65.1-47.1-78.6-64.6-6.5-8.4-19-32.7-20.8-40.4-.8-3.7-2.6-8.7-4-11-1.3-2.3-6.9-12.6-12.5-23-12.4-23.1-20.4-35.3-30.4-46.1-11.7-12.5-13.6-13.4-31.9-14.2-17.2-.8-25-2.6-34.9-7.7-8.1-4.3-16.5-12.9-20.8-21.4-4-8.1-9.1-13.4-14.7-15.6-3.8-1.5-6.8-1.7-16.2-1.4-27.4 1-26.4 1.1-37.8-4.3-5.7-2.6-11.8-4.8-13.5-4.8-1.8 0-7.9 1.4-13.7 3.2-16.4 4.9-23.4 3.2-36.1-8.7-8.7-8.3-10.5-9.3-15.7-9.3-8 0-12.9 7.2-11.8 17.6.6 6.1.6 6.4-2.7 9.6-14.4 14.4-78.1 27.1-106.4 21.2-8.7-1.8-19.4-6.8-23.7-11-6.5-6.5-7-12.6-2.5-29.3 3.4-12.9 3.3-15.6-1-24.8-3-6.3-8-11.3-11.2-11.3-9.8 0-21.4 18.9-25 40.7-1 6.4-1 7.4 1 11.8 4 9.1 2.5 13.8-5.6 17.9-6.3 3.1-9.2 1.8-14.1-6.5-1.2-2-5.4-6-9.2-8.8-8.8-6.6-16.6-15.9-25-29.6-8.9-14.7-16.8-25.3-26.4-35.5-9.4-10-18.3-25.2-19.5-33.5-1.6-10.9-6.8-17.3-21.6-27-16.3-10.6-20-15.2-24.1-30.3-.2-.6-1.7-1.2-3.3-1.2-2.5 0-3.4.7-5 3.9z"/>
</svg>
