<svg version="1.0" xmlns="http://www.w3.org/2000/svg" class="fill-current"  width="1365.333" height="1365.333" viewBox="0 0 1024 1024">
    <path d="M89 296.6c-1.9.8-5.5 1.9-8 2.5-2.5.5-7.4 2.8-11 4.9-3.6 2.2-9.3 4.8-12.7 5.8-3.3 1.1-7.4 2.8-9 3.9-1.5 1.1-4.3 2.4-6.2 2.8-1.9.4-5.7 2.5-8.4 4.6-2.7 2.2-6.1 4.2-7.5 4.5-10 2.4-14 7-20.7 23.7-6.6 16.4-7 20.2-2.2 23.4 7.1 4.9 9.9 5.4 23.6 4.7 11.5-.6 13.6-.5 20.2 1.5 4.1 1.2 9.3 3.6 11.6 5.2 2.3 1.6 6.1 3.6 8.3 4.4 6.9 2.4 17.1 11 24.4 20.5 4.2 5.4 9.1 17.9 12.9 33.2.8 3.2 2.8 7.9 4.5 10.6 4.1 6.8 5.7 20.9 4.2 38.7-.5 7-1.2 13-1.4 13.3-1.5 2.6-4.9 24.1-5.6 35.7-.5 7.7-1.5 16.6-2.2 19.9-1.5 6.4-.5 20.8 1.5 21.5 1.6.6 5.1 4.6 6.4 7.3.6 1.2 1.6 6.3 2.2 11.1.7 4.9 1.4 10.2 1.8 11.8.4 2.2.2 2.9-1 2.9-.9 0-2.1.9-2.7 1.9-1.3 2.5-1.3 6.1 0 6.1 2.3 0 .7 2.1-4.6 6.2-6.3 4.9-14 16.4-20 29.6l-3.7 8.3 1.3 6.7c.7 3.7 1.9 8.1 2.6 9.8.9 2.2 1.2 5.8.8 11.5l-.6 8.4 3.6 3.7C94 710 95.7 711 98 711c1.8 0 4.3.9 5.7 2 1.4 1.1 3.8 2 5.3 2s3.6 1 5 2.5c3.1 3.3 7.1 3.2 12.3-.3 6.3-4.3 20.3-11.7 28.2-15 3.9-1.5 10.2-4.9 14.2-7.5 4.4-2.8 10.5-5.6 16-7.3 4.8-1.4 13.6-5.1 19.5-8.2l10.7-5.5 12-.1c14-.1 14.7.3 15.8 7.9.5 3.9 3.9 11.3 6.9 15.4.2.2 2.6-.6 5.3-1.8 6.9-2.9 14-2.8 18.7.4 4.3 2.9 7.8 3.1 15.1.8 4.2-1.3 6-1.5 8.6-.6 1.7.6 10.2 1.1 18.7 1.2 14.5.1 16.1.3 24.4 3.1 8 2.7 9.5 3.6 16.6 10.4 4.3 4 8.7 7.7 9.8 8 1.4.5 3.5-.2 6.1-1.9 3.2-1.9 5.4-2.5 10-2.5 5.5 0 6 .2 8.5 3.5 1.5 2 5.5 5 8.9 6.8 5.6 2.9 7 3.2 14.2 3.1 4.4-.1 11.2-.9 15.1-1.7 5.6-1.3 7.9-1.4 10.7-.5 3 .9 4 .9 5.4-.4 1.2-1.1 5-1.8 11.7-2.3 8.7-.7 11.2-1.3 20-5.2 5.5-2.5 11.8-5.9 14.1-7.6 2.2-1.6 15-14.1 28.5-27.7 22.6-22.8 25.1-25 32.5-28.7 4.4-2.2 10.2-4.8 12.8-5.8 2.6-1 5.3-2.6 6-3.5.7-.9 4.1-3.8 7.6-6.3 5.6-4.2 6.9-4.7 11.5-4.7 2.8 0 6.1-.6 7.2-1.4 1.1-.8 8.8-3.7 17.2-6.5l15.3-5.1h13.6c13.3 0 13.7.1 17.2 2.7 4.8 3.7 11.5 4.4 21.1 2.3 4.1-.9 9.4-2.7 11.7-3.8 2.3-1.2 5-2.2 6.1-2.2 1 0 4.2-1.6 7.2-3.5s6.2-3.5 7-3.5c.9 0 2.5-.6 3.6-1.4 1.1-.8 4.9-2.6 8.4-4.2 5.9-2.4 8-2.7 21.5-3.2 8.3-.2 15.5-.8 16.1-1.3.6-.5 4-.6 7.5-.3 6.1.7 6.8 1 15.8 8.3 21 17.1 22.4 17.7 29.3 14.1 3.2-1.7 4.6-1.9 6.7-1.1 1.4.5 6.9 1.1 12.2 1.3 8.5.3 10.2.7 13.8 3.1 3.9 2.6 4.5 2.7 9.9 1.8 13.5-2.3 26.1-3.3 32.2-2.6 3.6.4 12.7.6 20.3.5 13.3-.1 14.3-.3 25.5-4.1 6.4-2.2 17.1-6.6 23.7-9.8 6.6-3.3 13.7-6.4 15.7-7.1 2.7-.8 5.2-3 9.4-8.3 3.2-4 9.5-11 14-15.7 7-7.3 8.2-9.1 8.8-13 .4-2.4 1.9-6.5 3.5-9 5.5-9 10.6-27 11.7-41 .8-10.1-1.2-41.5-3.1-47.5-1.6-5.3-10-17.4-13-18.5-1.2-.4-3.5-2.5-5.1-4.6-1.6-2-5.5-6.3-8.6-9.4-6.9-6.9-6.7-6.9-30.8-6-12.9.6-20.4.4-28.5-.7-6-.8-18-1.9-26.5-2.4s-18.6-1.2-22.3-1.5c-5.3-.5-7.3-.2-9.3 1.1-6.4 4.1-10 4.6-35 4.6-17.8-.1-25.2.3-28 1.3-2.2.7-6.8 1.6-10.3 2-3.6.4-9.3 2-12.9 3.7-16.9 7.6-41.4 12.1-67.2 12.3-19.4.1-27.4-1.6-60.3-12.6l-17.8-5.9-14.7.7c-9.8.4-15.4 1.1-16.9 2-1.2.8-5.5 2.5-9.5 3.8-4 1.4-10.6 3.6-14.6 5-8.5 2.9-13.1 2.5-27.4-2.3-8.3-2.8-28.2-13.1-34.4-17.8-1.7-1.2-3.8-2.3-4.6-2.3-2.1 0-19.9-14.1-33-26.2-6.2-5.7-16-14.1-21.8-18.7-5.8-4.6-11-9-11.5-9.6-1.3-1.6-14.5 19-14.5 22.6 0 3 1.5 5.5 2.4 4.1.3-.6 1.4-.8 2.5-.5 1.5.4 1.9-.3 2.4-4.6.3-2.7 1.4-6.5 2.4-8.3l1.8-3.3.3 6.2c.2 4.7-.3 7.5-1.9 11.3-1.2 2.7-2.6 5-3.1 5s-2.7-.9-5-2.1c-5.9-3-7.1-.9-1.4 2.5 3 1.7 4.6 3.4 4.6 4.6 0 1.1-.4 2-1 2-.5 0-1.8 1.9-2.8 4.2-3.1 7-3.9 7.3-18.3 7.2-10.3-.1-12.6.1-12.2 1.2.5 1.5 9.2 4.4 13 4.4 1.3 0 2.3.3 2.3.7 0 .5.4 1.4.9 2.2.8 1.2 1.5.9 4.1-1.2 3.8-3.2 6.6-3.5 7.3-.7.9 3.3 2.5 2.3 3.8-2.3.6-2.3 1.5-4.9 1.9-5.7.5-.8 2.4-4.6 4.1-8.3 2.3-4.7 3.7-6.6 4.6-6.2.8.3 1.9.5 2.4.5s1.8 2 2.9 4.5c2.1 5 4.1 5.7 5.8 2.1.6-1.4 2.2-2.6 4-2.9 2.6-.5 3.6 0 7.6 4 5.1 5 5.6 7.3 2.5 10.4-2.3 2.3-4.3 2.1-4.7-.7-.6-4.2-11.4-8.6-12.8-5.1-.2.7.2 3 1.1 5 .9 2.3 1.5 6.8 1.5 12.3v8.7l-4.2 4.7c-6.3 7-10 12.4-8.9 12.8.6.2 3.5-.2 6.5-.8 5.3-1.1 7.7-2.8 8.9-6.3.9-2.6 2.6-2.1 3.2 1 2 9.1 4.1 13.8 6.3 14.1 1.9.3 2.2-.1 2.2-3.1 0-2.1.7-4.1 2-5.2 1.1-1 2-2.8 2-4 0-2.4 2.5-4.1 3.5-2.5.4.6 1.9 1 3.4 1 1.6 0 3.7 1 5.1 2.5l2.3 2.5-2.6 4.7c-1.4 2.7-3.3 4.7-4.1 4.7-2.2-.2-3.1 6.2-1.2 9 2 3.1 2.5 21.8.7 24-2 2.4-.6 6.6 2.3 6.6 2.5 0 4 2.9 2.9 5.6-1.2 3.3-6.9.4-8.9-4.6-.9-2.2-1.8-4-2.1-4-2.3 0-6.1 3.4-6.6 5.9-.9 4.5-7.4 10.5-14.2 13.2-4.7 1.9-8.1 2.4-15.5 2.5-5.2.1-10.3.2-11.2.3-1 .1-3.5 1.7-5.7 3.6-4.4 4-5 4.1-9.3 1.9-2.2-1.1-3.3-1.3-4.1-.5-.6.6-3.9 1.1-7.3 1.1-5.8 0-6.4-.2-8.3-2.9-1.2-1.6-2.1-3.3-2.1-3.9 0-1.8-2.6-3.1-8.3-4-6.1-1-7-.6-8 3.6-.4 1.5.1 2.5 1.4 3.2 1.8 1 2.8 6 1.1 6-.4 0-1.6 4.5-2.6 10-1.3 7.5-2.4 10.8-4.3 13-2 2.4-2.3 3.6-1.8 6.1.8 3.5-.4 4.9-4.2 4.9-1.9 0-2.3.6-2.3 3 0 6 5.2 12.4 7.8 9.8.7-.7 1.2-1.8 1.2-2.6 0-.7 1-3.6 2.1-6.3 2-4.7 2.3-4.9 6-4.9 2.6 0 4.6.7 5.9 2 2.5 2.5 2.5 3.2 0 4.8-1.4.9-2 2.3-2 5 0 2.9-.9 5-3.6 8.4-3.9 5.1-6.1 6-11.6 5.2-3.1-.5-4.2-.1-7.6 2.5-2.1 1.8-5.6 3.6-7.7 4.2-3.6 1-3.9.9-7.9-2.9-5.1-5.1-8.3-4.8-12 .8-2.9 4.4-20.3 17.1-27.5 20.1-2.9 1.2-5.4 3.2-6.5 5-2 3.4-5.2 3.8-8.7 1.1-3.7-2.8-9-4.7-13.4-4.8-2.2 0-9.1-.1-15.3-.2l-11.3-.2-2-3.5c-1.2-1.9-2.7-3.5-3.5-3.5-.7 0-2.8 2.7-4.6 5.9-2.7 4.8-4 6.2-7 7.2l-3.8 1.2v9.4c0 5.5-.4 9.3-1 9.3s-1-3.7-1-9c0-10.3-.7-10.9-7.3-6.5l-3.7 2.6v-2.8c0-5.2-4.1-12.6-9.8-17.3-2.9-2.5-8.1-7.1-11.6-10.3-3.4-3.1-7.2-5.7-8.3-5.7-6.8 0-11.4-4.8-7.4-7.7 1.6-1 2-2.1 1.5-3.6-1.3-4-9.8-16.9-12.5-18.8-3.3-2.3-5.9-2.5-5.9-.3 0 1 .6 1.4 1.4 1.1.8-.3 1.8.5 2.5 1.9 1.7 3.9 1.3 5-.9 2.6-1.2-1.2-3.1-2.2-4.4-2.2-1.3 0-3.1-.9-4.1-2-1-1.1-2.8-2.1-3.9-2.1-1.9-.1-1.9-.2-.2-.6 1-.3 2.9.1 4.2.8 1.3.7 2.6 1 2.9.7.8-.8-3.5-5.8-5.1-5.8-2.6 0-1.6-4.8 1.2-6.3 4.7-2.5 6.5-13.3 2.9-17.7-.7-.8-1.5-2.3-1.8-3.3-.8-2.1-3.6-2.2-5.1-.1-.8 1.1-2 1.3-3.9.9-2.5-.7-2.7-1.1-2.7-5.4 0-4.1.5-5.1 3.9-8.5 3.9-3.8 4-4 2.5-6.8-1.9-3.6-1.5-6.3 1-6.3 1.4 0 2.3-1.3 3.3-4.7 1.9-6.7 3.3-6.9 2.6-.3-.5 4.8-.4 5.5 1 4.9.9-.3 2.1-2.2 2.8-4.2.6-1.9 2-5 3.1-6.8 1.2-2.1 1.5-3.5.9-3.9-.7-.4-.5-1.5.5-3 2.6-4 1.2-5.5-5.1-5.5-3.2 0-5.5-.4-5.5-1.1 0-.6.8-.8 1.9-.4 1.3.4 2.4-.1 3.4-1.5 1.2-1.8 1.6-1.9 2.7-.5.7.8 2 1.5 3 1.5 1.4 0 1.8-1.1 2.2-6.3.3-3.5 0-6.9-.6-7.9-.8-1.3-.7-2.1.2-3 1.7-1.7 1.5-6.3-.4-7.9-3.5-2.9-20.4-29.9-22.3-35.7-1.5-4.6-9.1-17.7-12.8-22.1-.1-.3-1.3.5-2.6 1.6-3.2 2.9-6.1 4.3-9.4 4.3-1.5.1-5 .7-7.8 1.4-4.1 1.1-5 1.7-4.8 3.5.2 1.5-.4 2.2-2.3 2.7-3.4.9-4 0-2-3.1 2.1-3.2 4.8-4.3 13.1-5.1 6.4-.7 6.7-.8 9.6-5 3.4-5 3.6-7 .9-9.9-3.2-3.4-15.4-24.6-16.7-29-1.2-4.1-.8-10.5.9-13.8.7-1.4.4-1.7-2.2-1.7-1.6 0-3-.5-3-1.1 0-.6.7-.9 1.5-.5 2.1.7 4.5-.3 4.5-2 0-.8-1.7-1.7-4.2-2.1l-4.3-.8 4-.5c2.7-.3 4.1-1 4.3-2.3.3-1.4-.4-1.7-3.2-1.7-2 0-3.6-.4-3.6-.9s2-.6 4.5-.3c4.5.5 5.5-.3 3.3-2.7-.8-.7.3-.5 2.4.5 4.8 2.2 5.7 4.4 1.9 4.4-2.3 0-3 .5-3.4 2.6-.5 2.6-.4 2.6 3.7 2.1 15.6-2.2 16.4-2.1 31.5 2.3 7.9 2.2 15.5 4 17 3.8 4-.5 3.9-4.2-.6-11.5-6.4-10.4-9.2-12.7-23.4-19.9-7.3-3.6-16.5-8.8-20.6-11.6-4-2.7-9.7-5.6-12.6-6.4-7.1-1.9-25.1-1.8-29.7.2zm29.8 29.4c1.3 1.6 2 3 1.8 3-2.1 0-10.6-2.3-10.6-2.9 0-1.4 2.4-3.1 4.5-3.1 1.2 0 3.1 1.3 4.3 3z"/>
    <path d="M406.6 496.5c-1.3 1.4-2.7 2.5-3.2 2.5-.4 0-1.8 1-3.1 2.2-2.3 2.2-2.4 2.2-5.7.4-2.5-1.3-4.4-1.6-8-1.1-2.5.4-4.9 1.1-5.2 1.7-.3.5.6 2.4 2 4.3l2.7 3.5-2.1 3.9c-3.1 6.2-2.8 6.6 4 6.6 3.3-.1 6 .3 6 .7 0 1.7 5.6.7 8.3-1.5 2.3-1.8 2.9-3.2 3.4-8.2.4-3.9 1.6-7.8 3.5-11.1 2.5-4.4 2.6-5.2 1.3-5.8-1-.3-2.5.4-3.9 1.9z"/>
</svg>
