<svg version="1.0" xmlns="http://www.w3.org/2000/svg" class="fill-current"  width="1365.333" height="1365.333" viewBox="0 0 1024 1024">
    <path d="M905.5 59c-10.2.8-15.2 2.8-22 9.1-4 3.7-4.6 3.9-10.6 3.9-9.1 0-20-1.8-21.9-3.5-1.4-1.3-3.3-1.3-13.1-.3-16.4 1.6-26.1 6.8-27.5 14.7-.3 2-1.9 5.3-3.5 7.3-4.2 5.3-3.8 8.4 3.1 24.1 3.3 7.6 6 13.9 6 14.1 0 .2-2.3 1.8-5 3.6-4.2 2.7-5.6 3.1-8.8 2.6-2-.3-5.8-.9-8.4-1.2-4.3-.6-4.8-1-6.2-4.5-2.2-5.6-7.2-8.2-19-10.4-9.3-1.6-10.8-2.2-22-9.1-11.4-7-12.3-7.4-18-7.4-7.3 0-14.3 2.5-15.2 5.3-.9 3-.8 7.8.6 19 1 8.4.9 10.7-.6 17.3-1.3 6.2-1.4 8.6-.5 13.1.8 4 .8 6-.1 7.6-1.9 3.7-3.8 12-3.8 17.2 0 7-3.4 18.2-6.8 22.4-1.6 2-3.4 5.2-4.1 7.3-3.2 9.8-17.5 25.4-28.3 30.9-5.5 2.8-6.3 2.9-19.5 2.9-13.7 0-13.9 0-26-4.3-11.4-4.1-12.6-4.8-19.9-11.5-10.1-9.3-12.1-9.5-19.2-1.7-3.5 3.8-5.8 5.5-7.5 5.5-2.8 0-3.7 1.6-3.7 6.5 0 6.1-1.5 8.4-6.4 9.7-5.1 1.4-4.6-.3-6.6 20.3-.6 6-1.6 11.6-2.3 12.3-1.7 2.1-9.9 6-14.3 6.7-3.8.7-11.4 6.6-11.4 9 0 1.6-6.7 6.5-9 6.5-1.2 0-3.4.7-5 1.5-2.4 1.2-3.3 2.9-5.5 9.7-2.2 7.2-3.1 8.7-6.8 11.6-2.3 1.8-7.5 6.5-11.4 10.5l-7.3 7.1v5.6c0 4.8.7 6.7 5.1 14.5 2.8 4.9 5.3 10.3 5.6 11.8.3 1.5 3.2 6.3 6.4 10.5 5.9 7.6 5.9 7.7 5.9 14.4 0 8-2 14-7.6 22.4-2.2 3.2-5.7 8.8-7.7 12.4-2 3.6-6.3 9.6-9.6 13.5-7.1 8.2-8.9 13.2-7.2 19.9 1.7 6.7.1 9.8-7 14.2-3.3 1.9-8.5 6.5-11.7 10.1-3.1 3.5-9.5 9.1-14.2 12.2-8.3 5.6-8.7 5.8-16.7 6.3-7.2.5-9.1 1.1-15.6 4.7-4.5 2.5-9.5 6.3-12.8 9.9-4.6 5-6.7 6.3-14.5 9.4-13.2 5.3-20.8 5.8-31.5 2.3-11.3-3.8-20.7-8.6-24.7-12.8-3.5-3.6-11.5-7.4-21.3-10.2-4.2-1.2-9.1-4.2-19.5-11.8-13.6-10.1-14-10.5-19.5-19.7-7.9-13.3-8.1-14.5-2.4-20.8 2.6-2.9 5.8-5.3 7.4-5.7 2.9-.6 8-5.3 10-9.1.9-1.9.6-2.5-2.4-4.8-4-3.1-6.5-7.3-6.5-11 0-1.8 1-3.2 3.4-4.8 4.6-3 12.6-17.5 10.5-18.9-4.3-2.9-7.3-3.9-11.6-3.9-5.5.1-5.9.5-12.9 12.7-5.9 10.4-12.1 15.6-20.9 17.6-7.7 1.8-9.1 2.9-19.9 17.2-8.3 11-12.2 14-22 17l-8.5 2.6-8.8-2.5c-4.8-1.4-11.7-3-15.3-3.7-7-1.3-11.5-4-37.5-22.5-17.8-12.6-29-17.4-43.5-18.6-15.7-1.2-33.8 2.5-46 9.4-4 2.3-4 2.3-4 8.4 0 3.4.6 7.7 1.4 9.5 1.3 3.1 1.2 3.6-1.2 7.3-4.6 7.3-14.5 18-20.5 22.2-9 6.3-14.2 12.8-16.7 21.1-1.2 4-2 8.1-1.8 9.3.2 1.8 3.5 3.5 18.3 9.5C58.4 537.6 76 546.8 88 557.6c6.2 5.6 7.7 7.6 8.9 11.6 1.2 4.1 1.2 5.8.1 10.4-1.8 7.4-.7 10 5.4 13.6 2.7 1.6 5.8 4.1 6.9 5.6 1.2 1.5 5.2 5.9 9.1 9.8l7.1 7.2 6.8.7c5.1.5 9.5 1.9 17.3 5.5 18 8.4 28.6 15.4 35.8 23.4l6.5 7.3-2.1 2.1c-2.2 2.1-2.2 2.2-.4 7.7 3.4 10.9 7.2 17.9 12.8 23.2 4.9 4.8 5.8 5.3 11.7 6.1 6.9 1 7.3 1.3 16.1 12 3.4 4 3.8 4.2 11.3 5.2 9.4 1.2 10.3 1.6 13.1 6.6 1.8 3.2 2.7 4 5.7 4.2 3.3.3 3.8-.1 7.1-5 1.9-2.9 4.5-8.2 5.7-11.8 3.9-11.5 10.6-14.3 37.8-15.5 14.5-.7 15.7-.6 26.5 2 15.9 4 38.1 14 54.4 24.7 12.8 8.3 13.1 8.6 18.6 17.4 4.9 7.8 5.7 9.9 6.7 16.9.9 6.2.8 9-.1 12.4-1.2 4-1.7 4.5-7.6 6.8-5.2 2.1-6.6 3.2-8.3 6.5-1.7 3.3-1.8 4.5-.9 7.2 1.6 4.9 9.6 12.1 15.2 13.6 6.6 1.7 10.4 4.4 12.7 8.7 1 2.1 3.6 5.7 5.6 8.1 3.2 3.6 4.2 4.2 7.6 4.2 2.2 0 5.4-.8 7.2-1.7 5.8-3 12.6-4 21-3.1 9.6 1 23.5 4.9 33.2 9.3 6.9 3.2 7.4 3.6 10.4 9.6 1.7 3.4 3.1 7.7 3.1 9.4 0 7.3 8.1 8.7 17 3 12.4-7.9 18.4-5.6 33.8 12.8 5.1 6.2 7.8 8.5 11.9 10.3 6.5 2.9 6.9 2.9 12.4.5 4.4-2 11.1-8.2 14.2-13.4 1.7-2.7 1.9-2.7 11.7-2.7 12.1 0 19.9 2 26.2 6.5 3.6 2.6 5 4.6 7.2 9.9 2.2 5.7 2.6 8.1 2.6 17.4v10.8l3.4 3.3 3.4 3.3 3.3-1.7c1.9-1 3.6-1.9 3.8-2.1.2-.2.7-3.6 1.1-7.6.5-5.8.1-10.7-2.2-23.8-1.5-9.1-2.8-17-2.8-17.7 0-.6 3.5-3 7.7-5.3 8.1-4.4 9.2-5.3 12.3-11.2 5-9.3 22.4-12.9 43.5-9 17.1 3.2 28.7 7.8 39.4 15.9l9.1 6.8v7c0 3.9-.7 9.5-1.5 12.3-1.5 5-1.5 5.4 1.1 11.9 1.5 3.8 5 11.9 8 18.1l5.3 11.2-6 11.8c-6.9 13.6-8.2 19.3-6.9 31.5 1.5 14.4 5 18.8 11.9 15.3 1.6-.9 4.7-1.6 6.8-1.6 4.9 0 9.3-2.7 13.5-8.3 1.8-2.5 4.5-5.3 5.9-6.3 3.1-2.1 8.9-12.4 12.4-22.1 1.4-3.7 3.3-7.4 4.2-8.1 1-.7 5.6-2.5 10.3-3.9 10.4-3.1 11.6-3.9 16-10.5 3.4-5.1 4.3-5.6 12.6-7.7 3.5-1 4.2-1.6 5.2-5 .7-2.1 1.2-5.1 1.2-6.6s.9-4.3 2-6.1c2.6-4.1 13.6-12.9 18.9-15 2.8-1.1 4.3-2.5 5.6-5.4 1.7-3.8 1.7-4-1-12.2-1.5-4.5-3.9-10.5-5.2-13.2-3.2-6.3-2.6-10.9 1.7-13.1 1.7-.9 5.2-3.5 7.9-5.9 2.7-2.4 6.5-5 8.5-5.7 2.2-.8 4.1-2.5 5.3-4.7 1.2-2.3 3.6-4.3 7.3-6.2l5.5-2.8 1.2-7.3c1-6.7 1.5-7.7 5.1-10.9 5-4.5 4.6-7.7-1.4-10-7.2-2.7-11.1-5.8-11.8-9.1-1.2-6.2-.6-11.5 2.3-18.4 1.6-3.9 3.4-10.4 4.1-14.5 1-6.2 2-8.7 5.7-14.2 2.5-3.7 5.3-7 6.2-7.2.9-.3 4.3-1 7.6-1.6 7.1-1.4 9.5-3.4 13.7-11.3 2.1-3.8 4.6-6.9 7.4-8.8 2.4-1.6 5.5-4.4 6.8-6.2l2.5-3.3-2.4-4.9c-1.4-2.8-3.6-9.3-5-14.5-2-7.7-2.4-10.9-2-17 1-13.1 1.9-15 8.6-19.5 7.1-4.7 9.1-7.5 9.1-12.2 0-6-4.3-6.9-13-2.8-3 1.4-6 2.5-6.8 2.5-1.8 0-6.7-6.8-10.9-15.1l-3.4-6.6 3.4-3.3 3.4-3.3 5.8 1.2c5 1 6.5 1.9 11.3 6.6 4.1 4 6.3 5.5 8.3 5.5 6.3 0 10.7 4.4 10.7 10.7 0 2.6.1 2.6 6.2 2 5.7-.5 6.6-.9 10-4.6l3.8-4v-9.3c0-8.5-.3-9.8-3.1-14.8-1.7-3-4.2-8.3-5.6-11.8-3.3-8.3-2.8-15 2.2-29.5 3.2-9.2 3.6-11.5 3.1-16.1-.8-5.8-6.5-16.3-8.6-15.8-.7.2-4.2.7-7.9 1.1-8.9 1.2-11.1 2.4-15 8.1-2.7 3.9-4.1 5-7.7 5.9-4.1 1-4.7.9-11-2.4-4.2-2.2-7.9-3.5-10.4-3.5-5.1 0-11-2.6-13.8-6.1-1.6-2-4.3-3.4-9.1-4.9-3.8-1.1-8.9-3.1-11.3-4.5-4.8-2.7-27.5-9.5-31.7-9.5-1.9 0-4.2 1.5-8.1 5.5-4.9 4.9-5.9 5.5-9.7 5.5-2.3 0-5.4-.5-6.9-1-2.4-1-2.6-1.4-2.1-5 .8-6.3 4.5-12.8 8.8-15.7 3.2-2.1 3.9-3.1 3.9-5.8 0-4.9 6.1-10 13-11 3.7-.5 7-2 11.6-5 4.2-2.8 8.5-4.8 12.2-5.5 6.8-1.4 7.8-2.1 8.6-6.2 1-4.8 6-12.9 11.3-17.9 3.7-3.5 6.2-5 11-6.2 3.5-1 6.8-1.7 7.4-1.7 2 0 .3 12-3.5 23.5l-3.5 10.7 2.3 11.7c1.3 6.4 3.8 16.1 5.6 21.6l3.3 10 7.6 5.2c5.8 4 8.5 5.3 11.3 5.3 3.1 0 3.8-.4 4.5-2.7.9-2.6.4-3.3-7.1-10.4l-8.1-7.7-2.9-11.3c-1.6-6.3-3.3-14.3-3.7-17.9-.7-6.3-.6-6.8 3.2-14 5.1-9.7 5.8-10.5 10.3-12.4 4.9-2.1 10.9-2 16.3 0 4 1.6 4.5 1.6 6.1.1 1-.9 2.6-4.3 3.6-7.4 3.2-10 8.3-19 15.1-26.2 5.8-6.1 6.4-7.2 5.9-9.8-.5-2.4-1.4-3.3-4.3-4.2-5.8-1.7-31.1-14-36-17.5-2.4-1.7-6.9-6.3-10-10.2-3.1-3.9-8.4-9.4-11.8-12.2-7.8-6.5-16-18.4-20.1-29-3.1-7.9-3.3-9.3-4.2-29.4-.9-18.5-1.3-21.5-3.1-24.4-1.2-2-2.2-5.8-2.5-9.1-.9-10-2.4-14.5-6.4-18.8-2.1-2.2-5.7-6.9-8-10.5-3.7-5.8-4.1-7-3.7-11 .3-2.5 1.5-7.1 2.7-10.2l2.1-5.6 7.1-1.6c3.9-.9 9-1.6 11.4-1.6 4.7 0 14 3.6 16.3 6.3 2.3 2.9 10.4 2.2 16.6-1.3 4.7-2.7 5.5-3.7 7.3-8.8 1.1-3.1 2.3-7.5 2.6-9.6.6-4.4-.8-6.7-9.5-16.1-4.4-4.7-4.7-5.5-5.9-13.5-.6-4.7-2-11.7-3.1-15.6-1.5-5.5-1.9-10.4-1.9-23 0-15.4-.1-16.1-2.2-18.1-6.3-5.8-31.3-24.3-32.7-24.1-.9 0-5.6.4-10.6.8z"/>
    <path d="M994.1 186.6c-11.7 2.6-14.1 5.3-14.1 15.9 0 7.7.9 9.9 5.3 12.7 4.7 3 7.3 2.6 11.1-1.9 2.4-2.7 2.2-2.7 24.1-4.3 3.4-.2 3.5-1.7.6-8.5-2.7-6.4-3.4-7.2-9.7-11.1-7.6-4.7-8.1-4.8-17.3-2.8zm22.3 141c-.9 2.1-1.8 6.1-2.1 9-.5 5.1-.5 5.3 2.2 6 4.5 1.1 6.9-2.2 7.3-10.6.4-5.8.2-7-1.1-7-.8 0-2.3-.3-3.1-.6-1.2-.5-2 .4-3.2 3.2z"/>
</svg>
