<svg version="1.0" xmlns="http://www.w3.org/2000/svg" class="fill-current"  width="1365.333" height="1365.333" viewBox="0 0 1024 1024">
    <path d="M564 .7c-4.5.7-15 4.4-15.6 5.5-1 1.7-21.2 10.8-23.8 10.8-1.3 0-4.1.6-6.2 1.4-2.4.8-11.4 1.6-23.5 2-10.8.4-21.4 1.2-23.5 1.8-2.1.5-7.3 1.5-11.4 2.2-4.1.7-8.6 1.7-10 2.3-1.4.7-4.6 1.5-7.3 1.8-3.4.5-5.2 1.3-6.3 2.9-.8 1.4-4 3.3-7.4 4.5-3.3 1.2-7.2 3.2-8.7 4.5-1.6 1.3-4.2 3.1-6 3.9-1.7.9-3.4 2.6-3.8 3.7-.3 1.1-2.6 3.2-5.1 4.6-2.8 1.7-5.2 4.1-6.5 6.6-1.1 2.2-3.4 4.7-5.2 5.6-1.8.9-6.3 4.9-10.2 8.8-3.8 3.9-10.4 9.2-14.6 11.7-6.2 3.9-9.1 6.6-15.5 14.7-4.3 5.5-9.2 12.6-10.9 15.8-1.6 3.2-5.2 8.8-7.8 12.5-2.7 3.7-5.5 8.8-6.2 11.5-1.7 6.2-6.6 16.9-11.3 24.5-11.8 19.3-35 48.6-43.9 55.4-1.8 1.4-4.3 4.2-5.5 6.2-3.4 5.7-11 14.3-27.6 31.4-18 18.7-24.7 27.9-24.4 33.7.2 2.3-.5 5.5-1.6 7.7-3.3 6.5-3.5 10.9-.7 21.8 1.6 6.5 2.5 12.8 2.5 18.1 0 8.5 1.6 14.1 5 17.9 2.9 3.1 6.2 13.3 6.9 21.1.3 3.9 1.1 7.7 1.7 8.5.7.8 1.5 3 1.8 4.9.8 3.9 3.3 14.3 6.7 26.8 2 7.7 2.1 9.7 1.6 29.5-.7 24.2-2.1 32.5-6.8 39.9-4.3 6.6-8.8 15.9-8.9 18 0 3.1-23.8 20.8-33.5 24.9-3.7 1.6-8 3.9-9.5 5.2-1.6 1.2-5.2 3.5-8 5.2-2.9 1.6-8.1 4.9-11.6 7.2-3.5 2.4-6.7 4.3-7.1 4.3-.3 0-2.4 1.5-4.7 3.3-2.3 1.9-7 4.7-10.6 6.2-3.6 1.6-7.4 3.7-8.5 4.7-1.2 1-3.6 2.1-5.4 2.4-2.1.5-4.8 2.3-7.3 5-2.2 2.4-5.8 5.4-8.1 6.8-5.7 3.3-10.5 8.6-16.1 17.7-5.5 9-5.8 12.8-2.1 23.4 1.4 3.8 2.5 7.7 2.5 8.6 0 1.9 9.2 15 16.1 22.9 2.7 3.1 6.1 8.3 7.6 11.7 2.2 4.7 5.5 8.9 14.7 18.2 6.5 6.7 13.2 12.9 14.9 13.7 9.9 5.2 28.1 19.2 42.9 33.1 3.6 3.5 7.2 6.3 7.8 6.3 3.7 0 34 33.5 34 37.5 0 .8 1.4 2.3 3 3.5 1.7 1.2 3.9 3.8 4.9 5.8 1.1 2.1 4 5.7 6.6 8.2 5.5 5.3 13.5 19.4 13.5 23.7 0 1.7.9 5 2 7.4 2.8 6.3 2.8 20.6 0 24.2-1.1 1.4-2 3.9-2 5.5 0 1.7-1 5.6-2.2 8.7-1.7 4.4-2.9 6-5.7 7.5-5.4 2.8-8.9 6.1-10.9 10-.9 1.9-3.3 4.4-5.2 5.6-1.9 1.2-4.4 3.2-5.5 4.3-1.1 1.2-4.4 4.6-7.3 7.6-6.6 6.8-7.3 8.8-6.3 17 1.1 9.5 3.1 11.3 20.1 18.7l7.5 3.2 22 .1c18.8 0 22.6-.3 26.4-1.8 4.2-1.7 4.5-1.7 9.7.3 3 1.1 7.3 2 9.4 2 2.2 0 4 .4 4 1 0 2.3 6.2 7.7 10.2 8.9 2.4.8 6.9 3.6 10.3 6.5 6.3 5.5 16 12.9 20.8 15.9 1.5 1 3.9 3.9 5.4 6.5 2.1 3.9 3.9 5.5 9.2 8.3 5.6 3 7.3 4.5 11.3 10.6 2.6 3.9 6.6 8.4 8.9 10 2.2 1.5 6.8 5.2 10.1 8 4.1 3.6 6.9 5.3 8.8 5.3 1.5 0 3.6 1 5 2.5 1.3 1.4 3.3 2.5 4.6 2.5 1.2 0 3.5.7 5 1.5 3.4 1.9 15.2 1.2 19.6-1.1 1.5-.8 3.8-1.4 5.2-1.4 1.4 0 11.3-4.5 22-10 10.9-5.6 20.7-10 22.3-10 4.5 0 10.6-2 13.5-4.5 1.5-1.3 4.7-2.6 7-3 2.4-.4 5.9-1.4 7.8-2.2 1.9-.9 7.6-1.9 12.7-2.4 5.1-.4 11.2-1.4 13.5-2.2 2.4-.8 8.4-1.8 13.3-2.2 5-.4 10.1-1.3 11.5-2 1.5-.7 7.9-1.4 15.5-1.7 12.2-.4 13.3-.6 17.9-3.3 3.7-2.1 5.4-4 6.9-7.4 1.9-4.4 3.1-6.4 10.5-17.9 1.8-2.9 5.3-9.4 7.8-14.5 6-12.5 8.6-17.2 11-19.9 1.2-1.3 3-4.1 4.1-6.3 1.1-2.2 2.8-5.5 3.9-7.4 2.6-4.4 26.6-28.4 31.4-31.3 4.1-2.5 14.1-10.3 20.5-15.9 2.2-2 6.9-5.5 10.5-7.9 3.6-2.4 9-6.9 12-10.1 3-3.1 7.4-6.6 9.8-7.8 2.3-1.2 5.3-3.8 6.6-5.9 3.5-5.4 11-13.2 12.8-13.2 2.5 0 5.5-4.3 6.1-8.9.4-3.1 1.5-5.4 4-8 1.8-2 6.2-7.7 9.7-12.6 3.5-5 8.8-11.6 11.9-14.8 5.3-5.6 18.9-15.7 21-15.7.6 0 3.4-2 6.4-4.4 2.9-2.4 6.3-4.9 7.5-5.5 1.2-.6 3.1-2.8 4.2-4.9 1.1-2 4.9-7.6 8.3-12.4 3.4-4.7 7.6-10.5 9.2-12.9 1.7-2.3 4.4-5.7 6.1-7.4 1.8-1.7 4.2-5.2 5.4-7.6 1.2-2.4 4.3-6.7 6.9-9.4 2.7-2.8 6-7.2 7.5-9.8 1.5-2.6 4.7-7 7.2-9.8 2.4-2.7 4.4-5.4 4.4-5.9 0-.4 2-3.2 4.4-6 2.8-3.2 4.8-6.9 5.6-9.8.8-3.4 2.5-6.1 6-9.7 2.7-2.8 6.4-7.4 8.2-10.2 1.8-2.8 5.1-7.8 7.4-11 2.2-3.2 4.4-7.5 4.7-9.7.3-2.1 2.3-7 4.3-11 2-3.9 4.7-9.1 6-11.6 6.9-13.3 9.8-41.2 5.3-51-1.1-2.5-2.9-6.8-4-9.7-1.1-2.8-3.5-7.1-5.4-9.5-1.9-2.3-3.5-4.8-3.5-5.4 0-.6-1.4-2.3-3-3.7-1.6-1.5-3-3.4-3-4.2 0-.9-1.7-3.4-3.9-5.8-2.1-2.3-5.7-7.8-8-12.2-2.3-4.4-5.1-9.6-6.2-11.5-1.1-1.9-3.8-7.3-6-12s-4.6-9.6-5.4-11c-.8-1.4-1.7-3.7-2-5.2-.3-1.6-1.9-3.5-4-4.8-1.9-1.2-3.5-2.8-3.5-3.6 0-.8-1.6-3.1-3.5-5.3-1.9-2.1-3.5-4.4-3.5-5 0-.7-.9-3-2-5.1-1.1-2.2-2.7-6.8-3.6-10.3-.8-3.4-2.1-7.6-2.9-9.2-.8-1.7-1.7-5.1-2-7.7-.4-3-1.6-5.9-3.1-7.7-1.5-1.8-2.9-5.1-3.4-8.3-.5-2.9-1.8-7.9-2.9-11-1.2-3.2-2.1-8-2.1-10.7 0-3.4-.8-6.2-2.5-9.2-3.1-5.5-3.1-9.4-.1-15.6 1.3-2.6 3.2-7.1 4.2-9.9 1.8-5.1 1.7-5.5-.3-18.2-1.8-10.4-2.8-14.2-5.4-18.8-1.8-3.2-3.6-7.8-4-10.3-1.4-8.4-3.6-14.4-6.6-18-1.6-2-4.8-7.5-7.1-12.3-2.3-4.7-4.6-8.9-5.2-9.3-.5-.3-1-1.8-1-3.3 0-1.5-1.1-5.9-2.5-9.7-1.3-3.9-2.5-8.4-2.5-10.1 0-1.6-.5-3.5-1.2-4.2-.6-.6-1.3-4.9-1.6-9.4-.3-6-1-8.9-2.3-10.7-1.4-1.7-1.9-4-1.9-8.6 0-4.1-.7-7.8-2-10.6-2.6-5.7-2.7-17.1-.2-23.1 2.4-6.1 2.5-37.5.1-42.8-.9-1.9-2.4-6.1-3.3-9.2-1.9-6.5-7-14.6-11.6-18.4-1.7-1.5-3.8-4-4.7-5.8-2.3-4.6-5.2-7.4-8.4-8.1-1.6-.4-4.1-2.1-5.4-4-2.1-2.7-4.4-3.9-12.3-6.5-5.3-1.7-11.4-4.3-13.4-5.7-6.1-4.1-14.4-6.5-26-7.3-10.4-.8-10.9-.9-15-4.4-3.7-3.2-4.8-3.6-9.7-3.6-9.7 0-17-1.7-19.1-4.3-1-1.3-3.8-2.9-6.2-3.6-2.4-.7-6.3-2-8.8-2.9-2.5-.8-8.1-1.9-12.5-2.3-18.9-1.9-30.4-4.4-32.1-7-.3-.5-4-.9-8.2-.9-5.5 0-8.9-.6-12.1-2-5.3-2.4-8.9-2.5-15.2-.3-4.5 1.6-5 1.6-8.4 0-2-.9-3.9-1.6-4.3-1.6-.4.1-1.8.4-3.2.6z"/>
</svg>
