<svg version="1.0" xmlns="http://www.w3.org/2000/svg" class="fill-current"  width="1365.333" height="1365.333" viewBox="0 0 1024 1024">
    <path d="M470.5 2.9c-2.7 1.6-6.1 4.1-7.4 5.5-2.4 2.6-2.4 2.6-.5 4.1 3.1 2.4 5.9 1.5 5.9-2 0-3.8 2-3.6 7.9.6 3 2.3 4.8 2.9 6.8 2.5 1.5-.3 3 0 3.4.6.5.7 3.7.9 10 .5 8.3-.5 9.5-.3 11.6 1.5 1.8 1.6 3.2 1.9 6.7 1.4 4.7-.6 8.3.9 14.9 6.6 5.8 5 11.3 8 13.5 7.4 1.2-.3 2.5.1 3.2 1.1 1.1 1.4 1.4 1.4 3.9-.2l2.7-1.8-2.7-2.8c-1.5-1.5-4.1-3.1-5.8-3.5-1.7-.4-5.6-3.1-9.1-6.4-10.4-9.8-18-14-25.4-14-2.1 0-4.1-.4-4.6-.9-.8-.7-23.3-3.2-28.5-3.1-.8 0-3.7 1.3-6.5 2.9zm-13.9 12.2c-3.9 3.1-3.3 6.4 1 5.3 1.5-.4 2-1.4 2.1-4 .1-1.9 0-3.4-.2-3.4-.1 0-1.4.9-2.9 2.1zM443.5 32c-.3.6.6 1.5 2 2 4.8 1.8 7 .9 4.3-1.8-1.5-1.5-5.4-1.6-6.3-.2zm131 5.8c-1.2 1.2-.3 4 1.9 6.1 1.8 1.7 2.5 1.9 2.9.9.4-.9.6-.8.6.4.1 2.5 2.1 3.2 3.5 1.3 1.2-1.6 1.6-1.6 6.8 0 5.5 1.8 12.1 1.4 10.2-.5-1.3-1.3-25.2-8.9-25.9-8.2zM620 53.9c-1.7 3.4-1.2 6.1 1.1 6.1 3.1 0 10.9 4.1 12.1 6.4.6 1 .8 4 .5 6.5-.6 5.3.6 8.1 3.4 8.1 4.3 0 5.4-12.7 1.6-19.5-4.4-7.8-16-12.6-18.7-7.6zm25.1 42c-3.7 1-3.8 3.1-.2 3.1 2.9 0 3.1.2 2.5 2.7-.4 1.6-1.4 3.4-2.3 4.1-1.4 1.2-1.4 1.3.2.8 1-.3 2.7-.6 3.8-.6 1.1 0 1.9-.7 1.9-1.8 0-2.7-2-9.2-2.8-9.1-.4.1-1.8.4-3.1.8zm2.1 15c-1.1.6-1 1.1.3 2.5.9.9 2.4 1.6 3.3 1.7 1.1 0 1.2.2.5.6-2 .8-1.5 2.3.7 2.3 2.6 0 3.4-1.9 2.1-5.3-1.1-2.8-4.2-3.6-6.9-1.8zM654 134c0 .5 1.4 1 3 1 1.7 0 3-.5 3-1 0-.6-1.3-1-3-1-1.6 0-3 .4-3 1zm3.9 9.9-2.4 1.9 2.8 1.1c3.5 1.4 4.7.7 4.7-2.5 0-2.9-1.9-3.1-5.1-.5zm.1 7.1c-.9 1.6-.8 2.1.4 2.6 2.6 1 5.1 0 5.1-2.1 0-2.8-4-3.2-5.5-.5zm2.6 15.1c-3.1 2.5-3 4.1.5 4.9 2.8.7 4.8-1.3 4.9-4.8 0-2.8-1.9-2.8-5.4-.1zm3.2 13.6c-2.7.7-2.2 2.3.7 2.3 1.6 0 2.5-.6 2.5-1.5 0-1.5-.2-1.6-3.2-.8zm.2 6.8-3.5 1.3 2.8.7c3.5.9 3.4 3-.4 6.6l-3.1 2.9h4.2c3.6 0 4.1.2 3 1.5-1.5 1.8-.5 3.5 2.1 3.5 1.8 0 1.9-.5 1.4-6.8-.8-8.4-1.3-11.2-2.3-11.1-.4 0-2.3.6-4.2 1.4zm.5 20.6c-.4.5 0 1.8.9 2.8 1.2 1.3 1.3 2 .4 2.9-.9.9-.8 1.2.4 1.2.8 0 2.1.7 2.8 1.5 1 1.2.8 1.6-1.1 2.4-2.4.8-2.4.8 1.1 3 1.9 1.1 3.9 2.1 4.4 2.1 1 0 .3-5.5-1.5-12.3-1.1-4.2-1.5-4.7-4-4.7-1.5 0-3.1.5-3.4 1.1zm4 17.8c-.8 1.4 7.2 27.1 9.2 29.2.8.9 2.9 4.8 4.7 8.7 2.6 5.3 4 7.1 6 7.6 1.4.3 2.6 1.1 2.6 1.7 0 .6 2.4 3.9 5.4 7.3 3 3.4 5.8 7.4 6.1 8.9.4 1.6 2.5 4.2 4.5 5.9 2.1 1.6 4.4 4.3 5 5.9.7 1.6 1.8 2.9 2.4 2.9 1.8 0 10.9 10 13.1 14.4 1.1 2.1 2.9 4.2 4.1 4.6 1.2.5 3.1 2.1 4.3 3.7 2.4 3.2 2.4 3.2 7.4 7.4 2.8 2.3 3.7 3.8 3.5 5.8-.3 3.5.9 5.3 3 4.7 1.1-.4 2.6.7 4.2 3 1.4 1.9 3.7 4.1 5.3 5 1.5.8 2.7 1.9 2.7 2.4s3.4 4.8 7.4 9.5c4.1 4.7 8.3 9.9 9.3 11.5.9 1.7 2 3 2.4 3 1.8 0 13 8.7 22.7 17.5 8.7 8 11.2 10.8 12.2 14.1.8 2.7 2.2 4.7 4.1 5.8 2.9 1.7 2.9 1.7 2.9-.6 0-1.3.3-3.2.6-4.4.4-1.4-.5-3.3-3-6.2-1.9-2.4-3.7-5-4-6-.3-1-2-2.6-3.7-3.6-6.1-3.6-30.3-26.7-33-31.4-1.4-2.6-6-8.3-10.2-12.7-4.2-4.4-8.6-9.6-9.9-11.6-1.3-2-3.7-4.6-5.5-5.8-3.9-2.5-42.3-44.6-50.3-55.1-3.1-4.1-6.5-8.2-7.5-9-.9-.7-3-4.1-4.7-7.4-1.7-3.4-4.1-7.5-5.3-9.1-1.3-1.7-2.6-4.1-3-5.5-.4-1.4-1.8-5.1-3.1-8.2-1.3-3.2-2.4-6.8-2.4-8.1 0-1.3-.6-3-1.2-3.9-1.6-2-7.4-3.3-8.3-1.9zm-106 75.2c-.7 3.2-5.2 8.1-12.6 13.8-4.7 3.5-6.3 3.7-20.2 1.5-3.7-.6-3.7-.6-2.7 2.1 1.5 4.1 1.2 6.1-1.5 9.4-1.4 1.6-3.3 5-4.1 7.4-1.8 5.3-8.2 10.7-12.9 10.7-5 0-6.2 1.7-6.8 9.3-.4 5.7-1.1 7.7-4.2 12.4-2 3-4.5 5.8-5.6 6-1 .3-1.9 1.1-1.9 1.8s-1 2-2.2 2.8c-1.8 1.3-2 1.8-1 2.5 2.3 1.6-1.3 8.6-5.4 10.5-4.3 2.1-13.3 2.2-17.9.3-3.1-1.3-3.5-1.9-3.5-5.1 0-2.5-.5-3.7-1.7-4.1-1-.3-4.4-1.7-7.5-3.2-5.6-2.5-5.8-2.7-5.8-6.4 0-2.8-.5-4-1.7-4.5-1-.3-3.8-1.4-6.2-2.6-3.6-1.6-4.5-1.8-5.2-.6-.5.8-.6 2.3-.3 3.4 1.5 4.9 1.5 9.7 0 12.9-.9 1.9-1.6 4-1.6 4.7 0 .7-.8 2.1-1.7 3.1-1.3 1.5-1.5 2.3-.6 3.6 2.1 3.4 2.4 7.7.8 11.5-1.2 2.8-1.3 4.2-.5 5.7.9 1.6.7 2.7-1.1 5.1-4.3 6.1-12.9 7.5-23.7 3.8-5.6-1.9-6.2-2.3-5.5-4.3 1.9-5.7-.6-11.3-6.7-14.4-2.4-1.2-5.7-2.2-7.3-2.2-2 0-3.9-1-5.8-3.1-1.6-1.8-3.2-2.9-3.5-2.6-1.3 1.3 2 9.5 5.2 12.7 1.8 2 3.7 5 4 6.9.5 2.3 1.7 3.9 4 5.3 3.8 2.2 4.2 3.1 5.9 12.4 1.4 8 3.6 12.1 6.7 12.6 1.4.2 2.5 1.8 3.8 5.8 2.8 8.8 3.2 11.2 1.9 12-.9.6-.7 1.4.5 3.1 2 2.9 2.1 10.7.2 15.3-1.9 4.5-8.4 11.6-10.6 11.6-1 0-3.9.9-6.5 2-4.6 2-12.1 2.6-14 1.2-.6-.4-1.8-1.9-2.8-3.4-1-1.6-3.3-3.2-5.7-3.9-2.2-.7-4.7-2.3-5.5-3.6-1.9-2.8-3.1-2.9-3.8-.4-.5 2.2-8.3 5.1-13.6 5.1-2 0-6.4-1-9.8-2.2-4.8-1.7-7.5-3.5-12.4-8.4l-6.1-6.2-.2-6.5c-.1-6.1-.3-6.6-2.6-7.2-2.8-.7-3.9-2.1-4-5-.1-1.1-.7-3.4-1.4-5l-1.4-3-1.1 2.7c-.6 1.6-1.6 2.8-2.2 2.8-.6 0-.9.7-.5 1.5.3.9 0 1.5-.9 1.5-1.8 0-1.9 1.2-.2 2.9 1 1 .6 1.7-1.8 3.7-1.6 1.3-4 2.4-5.3 2.4-3.1 0-8.2-2.7-8.2-4.5 0-2.2-2.8-4.4-4.9-3.8-1 .3-2.2 0-2.5-.6-1.3-2.1-4.1-1-5.7 2.2-.8 1.7-2.5 3.6-3.7 4.2-1.9.8-2.1 1.5-1.6 4.5.7 3.7 2.9 7.3 6.2 10.3 1.8 1.6 1.9 2.3.9 4.4-1 2.2-.8 2.8.8 4.2 1.1.9 2.5 2.9 3 4.6.9 2.4 1.6 3 4 3 1.7 0 3.5.3 4.2.8.6.4 1.7.5 2.5.2.7-.3 2 .8 3 2.5 1.5 2.5 2.3 3 5.7 3 2.8 0 4.4.6 5.4 2 .7 1 3.5 2.8 6.1 4 4.5 1.9 15.6 11.8 15.6 13.9 0 .5.7 1.4 1.5 2.1.8.7 1.5 2.2 1.5 3.3 0 3.2 3.2 13.7 4.1 13.7.5 0 2.9 1.6 5.5 3.5 2.5 1.9 5.4 3.5 6.4 3.5s3.2 1.1 4.8 2.5c1.7 1.4 3.4 2.5 4 2.5.6 0 3.9 1.3 7.4 3 3.4 1.6 7.1 3 8.2 3 1 0 3.5 1 5.5 2.2 2.8 1.8 4.7 2.2 9.1 1.9 3-.1 6-.7 6.7-1.3.6-.5 2.8-.6 4.7-.2 2.3.4 4.2.2 5-.5 1-.8 5.9-1.1 15.3-1 21.2.3 22 .3 23.3-2.1.6-1.1 1.9-2 2.9-2s2.4-.6 3-1.4c.6-.8 2.4-1.6 3.9-1.9 10.5-2 16.3-7.8 16.6-16.8.1-4.6-.1-5.1-4.4-8.9-2.8-2.4-5.5-3.9-7.2-4-1.7 0-2.9-.7-3.3-1.9-.3-1-1.4-2.6-2.5-3.6s-2-2.9-2-4.3c0-1.3-1-3.2-2.2-4.2-1.3-1-3.4-4.9-4.7-8.8-2.1-6-2.3-7.5-1.3-9.7 1.1-2.4 1-2.7-.8-3.2-2.4-.7-2.4-.5 0-5.3 1.1-2.2 2-5.4 2-7.2 0-2 .9-4.1 2.5-5.8 1.4-1.5 3.5-4.6 4.8-7.1 1.7-3.4 2.7-4.3 4.4-4.2 1.5.2 3.1-.9 4.9-3.3 1.5-1.9 4.1-4.2 5.8-5.1 1.7-.9 3.4-2.1 3.8-2.7.4-.6 3.5-4.6 6.9-8.8 6.1-7.6 10.9-10.8 14.3-9.5 1.8.7 3.1-.3 5-4 .9-1.8 2.9-4.1 4.4-5 1.5-1 3.1-2.4 3.5-3.1.5-.7 2.3-2.6 4-4 1.7-1.5 5.4-4.8 8.2-7.3 2.7-2.6 6.5-5 8.2-5.4 2.4-.5 5.1-2.8 10.2-8.5 3.8-4.3 7-8.2 7.2-8.7.2-.6 1.6-1.6 3-2.4 1.5-.8 5-2.7 7.9-4.2 3.7-2.1 5.6-2.5 6.3-1.8.6.6 3 1.1 5.4 1.1 3.5 0 5.6.9 11.5 5 6.4 4.3 7.5 4.7 8.7 3.5 1.3-1.3 1.2-1.8-.7-3.8-2.6-2.7-2.9-7.7-.8-15.2 1.7-6.3 6.7-16.4 9.5-18.9 1.2-1.1 2.1-2.5 2.1-3.3 0-1.6-.2-1.6-3.3-.2-1.9.9-3.1.7-5.5-.5-1.7-.9-4.4-1.6-6-1.6-3.9 0-5.8-1.7-8.2-7.3-2.1-5-2.6-9.6-1.2-11.3 1-1.2.3-17.4-.8-17.4-.5 0-1.1 1.4-1.5 3.1zm264.9 120.3c-2.7 2.3-2.7 2.4-1.2 4.8 1.5 2.3 2.4 2.6 10.5 3 7.8.4 9.3.8 13.3 3.5 5.7 3.9 10 7.9 10 9.3 0 .5.6 1 1.4 1 .8 0 2.3 1.1 3.3 2.5 2 2.7 30.2 19.2 34.3 20.1 1.4.3 4.5 1 6.8 1.6 3.6.9 4.6.8 5.3-.3 1.5-2.4 1-3.7-1.8-4.2-7.4-1.4-12.3-3.1-17.8-6.1-12.6-6.9-16-9.1-17.5-11-.8-1.2-2.5-3-3.9-4.1-1.3-1.1-4.7-4.1-7.5-6.6-9.3-8.3-23.5-15.9-29.8-15.9-1.5 0-3.9 1.1-5.4 2.4zm90.9 43.3c-2 .3-3.7 1.2-4.4 2.4-.6 1.2-.9 2.2-.7 2.3.2.1 1.9 1 3.8 1.9 3.2 1.5 3.5 1.5 3.8 0 .3-1.2 1.2-1.4 4.5-.9 4.9.8 6.1 1.7 7.7 5.6.7 1.7 1.8 3 2.5 3s1.8.7 2.5 1.5c2.9 3.5 5.3-3.1 3.1-8.8-.7-1.9-2.7-3-9-5-4.4-1.5-8.6-2.6-9.3-2.5-.7 0-2.8.3-4.5.5zm-194.6 29c-.3.4-.8 3-1.2 5.8-.9 6-4.5 13.5-7.4 15.2-1.1.7-2.9 3-4 5-1 2.1-3.6 4.8-5.8 6.1-17.3 10.4-16.9 10.3-26.1 10.9-4.8.3-10 1.2-11.7 2.1-4.9 2.4-17.5 10.5-17.5 11.2 0 1.1-11.4 9.7-15.3 11.6-3.7 1.8-5 4.4-2.2 4.4.9 0 2.8.8 4.2 1.7 2 1.3 5.7 2 13.7 2.4 6.1.4 13.5 1.3 16.4 2 6.7 1.7 7.9 1 11.5-6.4 1.8-3.6 4.6-7.1 7.9-9.9 2.9-2.4 8.6-7.5 12.7-11.4 5.1-4.7 9.7-8.1 13.8-9.9 6-2.7 6.5-2.7 13.9-1.6 4.1.6 8.4 1.6 9.4 2.1 1 .6 2.1 1 2.4 1 .2 0 .3-3.4.1-7.6-.2-6.2-.9-8.7-3.7-14.1-1.8-3.6-4.2-7.2-5.3-7.9-1.4-1-2.1-3-2.5-7.1-.4-5.1-2-7.7-3.3-5.6zm-533.3 43.9c.3.9.6 2.9.6 4.5 0 1.8.5 2.9 1.3 2.9s1.9 1.1 2.5 2.5c.7 1.4 1.9 2.8 2.7 3.1.9.4 1.5 1.9 1.5 3.9 0 2.6-1 4.4-4.7 8.2-2.7 2.6-5.2 5.7-5.8 6.7-1.1 2.1-2.3 2.8-7.6 4.5-6.7 2.1-8.4 1.5-12.4-3.9-2-2.8-4.1-5-4.5-5-.5 0-1.8-1-2.9-2.1-1.5-1.6-2.7-2-4.5-1.5-3.4.8-3.8 4.4-1 10 .8 1.6 1.4 3.5 1.4 4.2 0 2.3-3.7 2.5-7.4.4-4-2.4-7.6-1.9-7.6 1 0 2.4 4.4 5.8 8.6 6.6 4.2.8 8.4 4.6 8.4 7.6-.1 3.3-2.5 9.6-4.6 12-1 1.1-3.9 3.3-6.4 5l-4.5 3-7.8-1.1c-9.4-1.3-11.7-2.4-11.7-5.6 0-2.1-.5-2.5-2.9-2.5-1.6 0-3.4-.7-4.1-1.5-1.8-2.2-3.9-1.8-5 1-.5 1.3-2.7 3.6-5 5.1-3.2 2.1-3.8 3-2.9 4 .6.8 1.6 1.4 2.1 1.4.6 0 2.2 1.3 3.8 3 2 2.1 2.6 3.6 2.2 5.5-.5 2.7-4.6 5.5-8 5.5-5.2 0-16.1 7.7-14.5 10.3.3.4-.1 1.4-.7 2.2-.9 1.1-.9 2.3 0 4.9 1.5 4.8.5 7.3-3.6 9.1-3.5 1.5-4.4 4.1-2.2 6.3 1.7 1.7 3.8 1.5 3.8-.4 0-1.1.6-1.5 2-1.1 1 .3 2.7-.1 3.7-.8 1-.8 2.7-1.2 3.8-.9 1.3.3 2.8-.3 3.9-1.5s2.9-2.1 4.1-2.1c1.3 0 3-1.1 3.8-2.4 1.8-2.7 6.6-4.3 7.7-2.5.9 1.4 7 .8 13.6-1.4 2.9-1 7.1.7 7.9 3.2.8 2.7 2.5 2.7 3.2.1.3-1.1 1.2-2 1.9-2 .8 0 1.4-1 1.4-2.5 0-2.9 0-2.9 3.5-1.3 2 .9 3.1.8 5-.2 2.3-1.2 8-1.1 18.9.6 2.7.5 4.1.2 4.7-.7 1.2-2 7.1-1.2 12.4 1.7 7.1 3.7 9 3.3 12-2.5 2.6-5.2 5.7-8.1 8.7-8.1.9 0 2-.9 2.3-2.1.4-1.1 1.8-2.5 3.1-3.1 2.7-1.3 3.2-3.3.9-4.2-.8-.3-1.5-1.3-1.5-2.2 0-.9-1.3-3.1-2.8-4.9-2.8-3.1-2.9-3.4-2.6-14.2.1-6.3.7-12.1 1.4-13.4 2.1-4.1 6.3-7.9 8.6-7.9 1.2 0 2.7-.6 3.3-1.4 1.4-1.6.4-4.6-1.4-4.6-2.2 0-4.5-2.9-4.5-5.6 0-1.3 1.1-4.2 2.5-6.3 1.3-2.2 2.7-5.1 3.1-6.5.3-1.4 1.2-3 2-3.7 2.2-1.8 1.7-3.7-1.5-5.4-1.7-.8-3.6-2.3-4.3-3.3-1.5-1.9-11.8-9.2-13.2-9.2-.5 0-1.4.6-2 1.4-.6.8-2.1 1.7-3.2 2-1.6.5-2.3.2-2.7-1.4-.4-1.5-1.3-2-3.7-2-2.5 0-3.1.3-2.6 1.6zm693.7 65c-1 2.2-.8 3.1.8 5.7 1.3 2.1 1.8 4.2 1.4 6.2-.4 2.4-.3 2.8.7 1.8 1.2-1.1 1.4-3.1 1-9.7-.2-1.7.4-3.4 1.4-4.1 1.9-1.4 1.1-2.5-1.9-2.5-1.4 0-2.6 1-3.4 2.6zm-700.6 56.2c-.3.3-.5 1.2-.5 2 0 2.4-4 7.2-6 7.2-1 0-2.7 1.3-3.6 2.9-1 1.6-2.7 3.4-3.8 3.9-1.9.8-2 1.6-1.7 9 .3 8 .2 8.2-2.3 9.2-3.6 1.3-4.3 3.7-1.8 6.1 2.5 2.3 4.1 2.4 6.9.4 2.1-1.5 2.4-1.3 5.7 2.2 2.1 2.3 3.6 4.8 3.6 6.4 0 1.4.6 3.4 1.4 4.5 1.5 1.9 1.5 1.9 3-.1 1-1.3 1.3-3.1 1-5.2-.5-2.8-.3-3.2 2.6-3.8 2.7-.6 3.1-1.1 2.7-3.1-.2-1.4 0-2.7.5-3 .5-.3 2-2.4 3.5-4.7 2.4-3.8 2.5-4.5 1.7-11.6-.4-4.2-.8-9-.9-10.6-.2-4.7-2.5-11.5-3.8-11.6-.7 0-2.6-.2-4.4-.3-1.8-.2-3.5-.1-3.8.2zm696.1 12.1c-.3.4-.8 3.3-1.2 6.4-.6 4.8-.3 6 1.6 8.9 1.3 1.8 2.4 3.4 2.4 3.4.1.1 1.1.5 2.4.8 2.1.7 2.2.5 2.2-5.2 0-9.2-4.8-18.5-7.4-14.3zm-258.3 43.8c-2 1.3-2.3 2.4-2.3 8 0 6 .1 6.4 2.2 6.1 1.6-.2 2.6-1.6 3.9-5.3 3.3-9.5 1.9-12.8-3.8-8.8zm7.1 27.1c-1.5 4.8-2.4 6-5.1 6.5-4.1.8-6.7 9.1-5.8 18.2.9 7.7 3.7 11 11.1 12.9 4.1 1 5.3 1.9 7.6 5.7 6.4 10.4 7.4 16.9 3.7 24.5-1.6 3.4-3.2 4.9-7.5 7-3 1.4-5.4 3-5.4 3.5s2.2.9 4.9.9c4.1 0 5.1-.4 5.6-2 .3-1.1 1.7-2.3 3.1-2.6 1.3-.3 2.4-1.2 2.4-2 0-1.8 4-4.4 7-4.4 4.2 0 9.8-2 10.4-3.7.4-.9-.1-2.4-.9-3.3-1.4-1.6-1.5-2.2-.1-5.3.8-2 2.6-4.6 4-5.8 1.7-1.5 2.6-3.3 2.6-5.3 0-1.7 1.7-6.4 3.7-10.4 3.3-6.3 4.1-7.2 6.5-7.2 3.2 0 3.8-2.2 1.3-4.6-3.8-3.9.4-11.5 8.6-15.7 3-1.5 6.6-2.7 8.1-2.7 3.3 0 5.8-.9 5.8-2.1 0-.5-.6-.9-1.3-.9-.8 0-2.7-.6-4.3-1.4-3.6-1.8-7.8-1-21.4 3.9-7.9 2.8-10.6 2.8-14.2-.3-4.6-4-5.9-4.3-18.6-4.7-9.9-.3-11.4-.1-11.8 1.3zm-24.6 82.3c-2.3 1.3-2.3 2.9 0 2.9 1 0 2.7.7 3.8 1.5 1 .8 2.5 1.5 3.2 1.5 1.5 0 8.2-5.1 8.2-6.3 0-1.1-13.2-.8-15.2.4zM865.5 859c-3.8 2.1-8 3.9-9.3 4-1.2 0-3.8 1.5-5.7 3.4-1.8 1.9-5.2 4.4-7.4 5.7-3.3 1.8-3.8 2.5-3 4 .9 1.7 1.3 1.6 5.8-1.6 2.7-1.9 5.5-3.5 6.3-3.5.8 0 2.3-.9 3.3-2s2.7-2 3.7-2c4.2 0 14.8-7.6 14.8-10.7 0-1.9-.8-1.7-8.5 2.7zM409 871.8c0 1.6 2.5 3.2 5 3.2 2.4 0 2.4-.1-.8-2-3.6-2.2-4.2-2.4-4.2-1.2zm9.4 19.6c.4 2.1.2 3.7-.4 4.1-.6.4-1 1.5-.8 2.4.2 1-.3 2.5-1.1 3.4-1.2 1.5-.9 1.7 3.2 1.7 3.7 0 5.3.6 8 3 1.9 1.6 3.9 3 4.4 3 1.5 0 9 8.3 9.8 10.9 1.1 3.7 4.6 9.1 5.5 8.6.5-.3-.3-3.3-1.7-6.7-1.6-4-2.3-7.2-1.9-9 .5-2.6.4-2.8-3-2.8-5 0-8.8-2.5-11.2-7.6-1.2-2.4-3.7-6.1-5.7-8.2-1.9-2.2-3.5-4.5-3.5-5.1 0-.6-.5-1.1-1.1-1.1-.7 0-.9 1.2-.5 3.4zm108.3 61.4c-.9 1-1.7 2.3-1.7 2.9 0 .6-.6 1.6-1.4 2.2-1.8 1.5-2.5 5.5-1.4 7.5 1.6 2.9 4.8 1.9 6.4-2 .9-2.1 2.2-4.3 3-5.1 1.9-1.9 1.8-2.6-.9-5.1-2.3-2.2-2.4-2.2-4-.4zM480 991.7c-8.3 4.4-8.6 4.4-13.3 3.3-5.6-1.4-6.5-1-4.9 2.5.8 1.7 2 2.5 3.6 2.5 3.7 0 6.9 5 5.6 8.5-.5 1.4-1 5-1 7.9 0 4.5.3 5.4 2.3 6.5 1.8 1 2.8.9 5.2-.3 1.7-.9 3.5-1.6 4-1.6.6 0 2.1-1.2 3.4-2.5 1.2-1.4 2.7-2.2 3.2-1.9.6.3 1.7 0 2.5-.7 2.1-1.8 1.7-24-.6-26.7-1.4-1.8-1.8-1.7-10 2.5z"/>
</svg>
