<svg version="1.0" xmlns="http://www.w3.org/2000/svg" class="fill-current"  width="1365.333" height="1365.333" viewBox="0 0 1024 1024">
    <path d="M304 225.3c-4.1 1.3-10.6 4.2-14.5 6.5-8.2 5-7.2 4.7-24.4 6.2l-13.4 1.1-5.6 4.8c-3.1 2.7-8.5 6.3-12.1 8.1-3.6 1.8-9.1 5.1-12.3 7.4l-5.8 4.1.4 6c.4 5.8.3 6.1-3.2 9.5-2.8 2.7-3.9 4.8-4.8 9.3-1.5 7.4-6.9 14.8-14 19.4-6 3.8-8.3 7.9-8.3 14.9v4.4l-7 3.5c-3.9 2-9.1 5.1-11.6 7-2.9 2.2-5.7 3.5-7.5 3.5-3.5 0-12.5 3.5-15.4 6-1.1 1-3.3 2.2-5 2.7-1.6.5-3.4 1.8-4 2.9-.9 1.7-1.8 1.8-7.1 1.3-3.3-.3-6.6-.9-7.3-1.3-3.1-2-15.2-2.5-22.2-1.1-5 1.1-8.2 1.2-11.1.6-5.3-1.2-7.8-.2-11 4.6-2.2 3.3-3.4 4.1-7.4 4.9-4.6.9-4.9 1.1-5.6 4.9-1 4.5-1.7 5.2-14.5 13.7-6.2 4.1-9.3 6.9-9.8 8.5-1 4.3-4.8 7.1-11.3 8.3-4 .8-6.8 2-8.3 3.6-1.2 1.3-3.2 2.4-4.3 2.4-4 0-4.9 1.4-2.9 4.7 1.6 2.9 1.6 3.4.1 8.5-1.3 4-1.5 7.4-1.1 14 .5 7.8.4 8.9-1.7 12-1.2 1.8-3.4 4.3-4.9 5.6l-2.6 2.3 4.8 4.3c4.3 3.9 4.7 4.6 4.7 8.9 0 4-.8 5.8-5.4 12.5-3 4.4-5.7 9.4-6.1 11.2-.6 2.9-.2 3.7 3.5 7.5l4.3 4.4 4.8-2.5c6.3-3.2 14.9-3.2 14.9 0 0 .6 1.2 4.4 2.7 8.3l2.8 7.3h5.3c3.3 0 6.7-.7 9.1-1.9 3.6-1.9 3.8-2.3 5-9.2 1-6.1 1.8-8 5.2-12 3.9-4.7 4.2-4.8 6.6-3.5 1.5.7 3.8 3.1 5.2 5.2 2.4 3.4 3.4 4.1 8.6 5.1 3.3.7 12.8 1.6 21 1.9 9.1.3 16.8 1.2 19.5 2.1 10.8 3.6 21.8 6.3 25.7 6.3 3.7 0 4.6.5 8.1 4.6 2.9 3.5 4.7 6.9 6.6 13.4l2.6 8.7 22.7 13.6 22.8 13.6 15.5.3 15.5.4 10.3 6.9c9.1 6.1 10.7 7.6 13.8 13 3.5 6.5 4.3 11.7 2.1 14.6-.7.9-4.7 3.2-9 5.2l-7.7 3.6v6.8c.1 6.9 1.5 12.3 4.3 16.7 1.6 2.4 1.7 2.4 6.9 1 5.1-1.3 5.4-1.3 10.2 1.4 4.1 2.4 5.2 3.6 6.8 8l1.9 5.2-5.4 6.1c-5 5.6-5.5 6.7-6.1 12.1-.4 3.3-.6 6.1-.4 6.3.2.2 8.3 3.3 18 6.9 14.2 5.3 18.9 6.6 23.4 6.6 4 0 6.7.6 9 2.1l3.4 2.1 4.1-3.2c2.5-2.1 5.3-5.8 7.5-10.1 1.9-3.8 3.7-6.9 4-6.9.3 0 3.2.6 6.3 1.4 3.1.8 6.8 1.7 8.2 2 2.2.5 2.9 1.5 4.4 7.2 1.7 6.2 1.7 6.8.1 10-2.2 4.7-2 6 1.7 12.7 3 5.5 3.7 6.1 10.7 9.2 7.3 3.3 8.1 3.4 28 4.5 20.2 1.2 20.7 1.2 34.1 5.7 7.4 2.4 14 4.8 14.5 5.1.5.4 2.4 3.8 4.1 7.7l3.2 7 12.2 7.5 12.2 7.5-.7 9.2c-.6 9.2-.6 9.4 2.9 16.2 1.9 3.8 4.3 7.2 5.3 7.5 1.1.4 2.7 2.5 3.7 4.7 1.7 3.6 7.2 7.9 10.2 7.9.5 0 1.7-3.8 2.7-8.5l1.9-8.5 6.4-2c3.6-1.1 6.6-2 6.7-2 .1 0 2.7 1.8 5.7 4l5.4 4.1 14.5-.7c17.5-.7 25.2-2.7 36.8-9.5l8.3-4.8 10.7 1.4c9.1 1.2 10.9 1.7 12.2 3.6.8 1.3 5.1 7 9.5 12.8 8.5 11.2 8.8 11.4 19.2 12.5l5.8.6 5.8-5.2 5.8-5.3-2.6-7.5c-2.6-7.6-2.6-10-.2-10 .7 0 5.2 1.6 10 3.5 6 2.4 10.3 3.5 13.9 3.5 2.9 0 9.5 1.1 14.7 2.5l9.4 2.4 4.2-4.7c4.1-4.6 4.6-4.8 15.6-7.4 6.3-1.5 15.1-2.9 19.7-3.2 8.2-.5 8.3-.6 15-6 6.1-5 6.9-5.4 8.7-4.1 1.7 1.1 2.6 1 6.8-1.4 3.8-2.1 4.7-3 4.2-4.6-.3-1.1-.8-3.8-1.1-6-.5-3.6-.2-4.4 3.6-8.2 2.2-2.3 6.5-5.6 9.6-7.3 3-1.8 5.9-4.2 6.3-5.4.4-1.1 1.8-7.1 3-13.1l2.3-11 7.5-5.5c4.1-3 7.7-5.8 7.9-6.2.3-.5-.6-2.3-2-4.1-4.3-5.6-4.4-10.2-.3-18.3 2.2-4.4 5.1-8.2 7.9-10.5l4.4-3.7 17.5-.7c13.7-.6 18.3-1.1 21.8-2.6 2.4-1 4.9-1.9 5.5-1.9 2.9.1 26.2 9.3 32.7 13l7.4 4.2 7.5-2c7.5-2 7.5-2 12-.1 4 1.8 5.1 1.9 11.1.8l6.5-1.2 9.9 6.2c7.6 4.9 10.9 6.4 14.9 6.8 2.8.3 6.5 1.4 8.2 2.4 2.6 1.6 5.2 1.9 14.1 1.9 6.1 0 13.1-.3 15.6-.6 4.5-.6 4.8-.9 7.2-6.1 2.4-5.4 9.9-29.2 9.3-29.8-.2-.1-3.6-3-7.5-6.4l-7.3-6.2v-20.2l-5.1-5.2c-3.8-3.9-6.4-5.6-9.5-6.4-2.4-.6-4.4-1.5-4.4-1.9 0-.4-3-3-6.6-5.7-8.4-6.3-20.4-19.1-20.4-21.7 0-1-2.2-4.3-4.9-7.1-5.7-6.2-13.1-18.5-13.1-22 0-2.4-.3-2.5-8.8-3-15-1-19.8-2.2-22.7-5.4-2.7-3-2.7-2.8-.9-15.7l.6-4.3-8.8-5.8c-4.9-3.2-11.1-6.7-13.7-7.8-4.3-1.8-5.5-1.9-11-.9-3.4.6-7.3 2-8.7 3-1.4 1-6.2 2.4-11.2 3.2l-8.6 1.3-9.1-5.8c-5-3.1-14.9-8.1-21.9-11.1-10.2-4.3-13.5-6.2-16.7-9.7-2.2-2.3-5.5-4.9-7.3-5.6-3.2-1.3-3.4-1.3-6.6 1.8-3.5 3.4-4.7 3.7-9.4 2-4.1-1.4-5.1-5.1-6.1-21.3-1.3-19.5-1.7-20.1-34.3-52.4-14.8-14.7-28.6-27.7-30.6-28.9-2-1.3-5.9-3-8.7-3.8-3.8-1.1-5.6-2.3-7.5-5.2-1.4-2-3.1-4.2-3.7-4.9-1.9-1.8-24.5-9-34.3-10.9-6.4-1.2-10.5-2.8-16.5-6.2-6.4-3.7-9.1-4.7-13.5-4.9-9.3-.4-27.2-3-33.5-4.9-3.3-.9-9.8-3.5-14.5-5.6-4.7-2.2-9.1-3.9-9.7-3.9-.6 0-3.3-1-6-2.1-6.4-2.9-15.5-4.8-22.5-4.9-7.3 0-8.8-.7-8.8-3.8 0-3.7-5.5-11.8-9.1-13.2-1.6-.7-3.5-2-4.2-2.9-2-2.8-13-9.1-15.9-9.1-1.8 0-4.6-1.7-8.5-5.1-6-5.3-13.2-9.1-19.6-10.3-2-.4-4.2-1.5-4.9-2.4-3.9-5.2-21.5-15.2-26.9-15.2-2.7 0-6.4-4.1-9.2-10.4-2.9-6.3-5.1-8.6-8.2-8.6-2.3 0-5-1.2-9.5-4.2-1.7-1.2-5.2-1.9-10.5-2.1-5.7-.3-9.9-1.2-14.4-3.1-6.6-2.7-11.5-3.3-12.6-1.6-.3.5-3.8 1.9-7.7 3.1l-7.1 2.1-2.7-2c-2.3-1.7-3.7-1.9-9.1-1.5-3.5.4-9.4 1.9-13.1 3.4l-6.8 2.8-4.2-5.5c-4.2-5.3-4.4-5.4-9.3-5.3-2.7 0-8.4 1-12.5 2.2z"/>
</svg>
