<svg version="1.0" xmlns="http://www.w3.org/2000/svg" class="fill-current"  width="1365.333" height="1365.333" viewBox="0 0 1024 1024">
    <path d="M329 60.9c-3 1-7.3 2.7-9.6 3.9-2.2 1.1-9 2.8-15.2 3.8l-11.3 1.7-12.5 11.3c-9.2 8.3-15.3 12.9-22.7 17.1-6.4 3.5-12.8 8.1-17.2 12.3-3.8 3.7-9.7 8.3-13 10.3-7.7 4.6-10.4 7.5-15 16.5-2.1 4-4.7 7.8-5.8 8.4-1.1.6-7.2 2.9-13.6 5.1l-11.6 4-19.2.5c-19.2.4-19.3.4-26.5-2.4-4-1.5-8.2-3.4-9.3-4.1-1.1-.7-3.4-1.3-5.2-1.3-2.6 0-3.9.9-7 4.5-2.2 2.6-4.1 6.1-4.5 8.3-.3 2-.9 5.4-1.3 7.4-1 4.8.6 5 4.6.7l2.9-3.1v4.3c0 4.9-3.1 10.9-5.5 10.9-.9 0-1.5-.9-1.5-2.5 0-1.4-.7-2.8-1.5-3.1-2.9-1.2-4.2 1.4-4.8 9.4-.2 4.3-1.3 10.4-2.3 13.5l-1.8 5.7 2.7 5.2c3.6 7.4 7.9 29.9 7.1 37.5-.6 6.1-5.2 21.4-9 29.8-3.6 8.2-9.3 13.7-21.2 20.4-5.9 3.3-14.2 7.6-18.4 9.5-7.5 3.5-7.8 3.6-16.9 2.9l-9.2-.6-2.6 3.1c-1.4 1.7-4.6 4.2-7.1 5.5-3.4 1.8-5.1 3.6-7.2 7.5-1.5 3.1-5.5 7.9-9.4 11.6-6.5 6-6.8 6.5-6.8 10.7.1 4.5 2.2 11.1 4.2 13.1.7.7 1.2 2.2 1.2 3.5 0 1.3 1.1 4.1 2.5 6.3 2.2 3.5 2.4 4.3 1.3 6.3-.7 1.2-1.6 5.6-1.9 9.7-.4 4.1-1.1 10.7-1.4 14.6-.5 4.3-.3 9.8.4 13.9 1.1 6.3 1.7 7.3 6.4 11.9 2.9 2.9 7 8.2 9.1 11.9 2.2 3.7 4.2 6.7 4.6 6.7.3 0 4.6 3.6 9.5 8 5.7 5.1 10.4 8.4 12.7 9 6.8 1.9 11.8 7.5 13.1 14.7.6 3.1 4.9 9 21.3 29.4l6.1 7.6.6 10.8c.5 8.8 1 11.2 2.6 12.9 1 1.1 2.1 3.2 2.3 4.5.2 1.6 2.4 4.1 5.8 6.9 3 2.4 7.4 6.1 9.7 8.3 2.4 2.1 4.7 3.9 5.2 3.9 2 0 2 3.3 0 7.1-1.7 3.4-2 5.9-2 15.7 0 6.4.4 13.3.9 15.2.5 1.9.5 4.6.1 6-.4 1.4-.7 4.5-.8 6.9-.1 2.5-1 7.8-2.2 11.8-1.2 4.4-1.9 9.4-1.7 12.6.3 4.6.6 5.2 2.6 5.5 2.8.4 4.2 3.7 4.2 9.6 0 3.3.7 5.2 3 8.1 1.9 2.4 4.2 7.9 6.5 15.4 3.9 12.6 5.8 15.2 12.8 17.3 2.6.8 3.9 1.9 4.3 3.5.5 1.7 1.3 2.3 3.5 2.3 4.3 0 9.6 2.5 10.9 5.2 1.9 3.5 6.2 7.8 7.9 7.8 4.3.1 6.6 2.8 7.6 8.7.9 5 1.4 5.8 3.5 6.1 1.3.2 4.8 2.4 7.6 4.9 4.8 4 5.6 5.3 8.3 13.6 2.4 7.2 3 10.3 2.6 14.2-.6 5.5 1.1 8.6 5.3 9.9 1.1.4 3.1 2.3 4.2 4.2 2.1 3.3 5.4 4.6 6.2 2.3.3-.9 1.3-.9 3.8-.1 1.9.6 9.4 2 16.6 3.1 18.5 2.8 36.2 7.3 47.8 12 5.5 2.3 10.1 4.1 10.3 4.1.1 0 .3-.6.3-1.3 0-1.4-4.4-5.8-7.4-7.4-1-.6-2.4-2.6-3.1-4.6-1.2-3.4-1.1-3.6.6-2.7 1 .6 2.7 2.3 3.8 3.9 1.1 1.5 3.5 3.4 5.2 4.1 2.7 1.1 3.5 1.1 6-.4 3.4-2 3.5-1.7 1.2 4.2l-1.7 4.5 4 3.6c2.2 2 6.2 5.2 8.9 7.1 8.1 5.8 14.8 14.5 17.4 22.7 2.2 6.7 2.6 7.4 8 10.9 3.1 2 7.7 5.5 10.4 7.7 4.1 3.4 6.1 4.2 15.5 6.2 24.4 5.3 29.4 6.8 30.3 9.3.8 2 1.2 2.2 2.3 1.2 1.8-1.4 3.6 1.2 6.1 8.7 1.4 4.6 2 5.3 4.3 5.3 1.4 0 3.3.6 4.1 1.4 1.9 1.6 23 7.6 27 7.6 2.8 0 7.1 4.2 10.1 10 .7 1.4 1.9 3.3 2.8 4.3 1.4 1.5 1.7 1.6 3.2.2 1.1-1 4.6-1.8 9.6-2.1 7.7-.6 8.2-.5 17.4 3.6 6.3 2.8 10.8 4.2 13.4 4.1 3.3-.1 4.8.6 8.8 4 5.5 4.6 17.2 9.3 26 10.4 4 .5 6.9 1.6 9.9 3.8 2.3 1.7 6.8 4.3 10.1 5.9 3.2 1.5 7.8 4.1 10.2 5.7l4.3 3 3.3-2.3 3.4-2.3 4 2.3c3 1.6 6.6 2.4 13.6 2.8 10 .7 15.4 0 23.4-3l4.8-1.9 1.7 2.5c2.8 4.3 6.4 7.1 13.1 10.1 3.6 1.7 11 5.7 16.6 8.9 12 7.2 13.7 7.3 30.3 3 6.2-1.7 13.8-3 16.7-3 7.6 0 15.4 1.9 16.1 3.8 1.1 3.1 3.6 5.2 6.2 5.2 3 0 13.3-2.9 20.6-5.7 2.8-1.1 10.5-3 17.2-4.2l12.2-2.3 6.3-6.3 6.3-6.3 22.5 1 22.5 1 14.8-4.6c9.3-2.9 21.4-5.8 32.4-7.6 9.6-1.7 17.9-3 18.5-3 .5 0 2.1-1.2 3.5-2.6 2.5-2.5 2.8-2.6 7.2-1.4 2.5.7 6 1.2 7.6 1.2 4.1-.1 37.7-10.8 44.7-14.3 7.8-4 17-12.7 19.9-19 3.5-7.5 5.8-11.9 10.7-19.8l4.3-6.9-2.7-5.4c-2.4-4.8-2.7-6.4-2.8-17.3-.1-9.5-.7-13.6-2.6-19.9-2.2-7.4-2.3-8.2-1-15 2.3-12.1 2.4-19.5.2-25.1-1.7-4.4-1.9-7.7-2-28.5 0-16.4.4-25.8 1.4-31 .8-4.1 1.4-9.6 1.4-12.1 0-2.6.9-6.6 2-9 1.1-2.4 2-5.3 2-6.5 0-1.1.9-2.9 1.9-3.8 1.6-1.5 1.8-2.2.9-4.8-.7-1.8-.8-6.2-.4-11.1.7-8.4 2.3-12.2 7-16.6 1.4-1.3 2.8-3.7 3.2-5.4 1-4.6 4.9-10 9.8-13.5 5-3.6 5.6-5.6 5.6-19.7 0-5 .3-9.9.6-11 .4-1.2 3.7-3.5 8.5-5.9l7.9-4v-5.4c0-3-.8-7.4-1.9-10-1.4-3.5-2.1-8.2-2.5-18.2l-.5-13.5-7.6-7.2c-5.3-5.1-7.5-7.9-7.5-9.7 0-4.9-6.9-8.8-21.2-12-1.5-.4-3.3-1.6-3.9-2.9-2.9-5.2-10.9-13.1-17.1-16.8-5.9-3.5-7.4-3.9-13.4-3.9-6.6 0-6.7 0-10.3-4.2-1.9-2.2-4.5-6.2-5.7-8.9-5.7-12.2-17-26-24.5-29.9-2.6-1.4-4.7-3.8-7.3-8.3-1.9-3.6-4.6-7.4-5.8-8.5-11.4-10.1-20.6-19.1-22.3-21.7-1.1-1.7-2.9-4.6-4-6.4-1.1-1.7-3.9-5.8-6.2-8.9-2.4-3.1-4.3-6.6-4.3-7.7 0-1-1.2-2.9-2.7-4.1-2.8-2.2-2.8-2.3-2.5-12.7l.3-10.5-6.1-4.2c-6.3-4.3-7-5.4-11-16.7-2.5-7.1-2.8-7.4-9.4-9.9-6.9-2.5-12.1-7.8-12.9-13-.4-2.2-1.7-5.6-3-7.5-1.3-1.9-2.6-4.9-3-6.6-.3-1.7-1.8-4.8-3.2-6.8-2.8-4.3-2.9-5.3-1.3-14.1.9-5.2.8-10-.8-27.1-1.6-18.4-2.1-21.1-4.2-24.2-1.3-1.9-4-7.6-5.9-12.6-1.9-4.9-6.2-14.9-9.7-22-5.6-11.5-7.2-13.8-13.3-19.6-3.8-3.6-9-7.5-11.5-8.7-3.8-1.7-4.9-2.9-6.3-6.6-1.9-5.1-4.7-7.9-16.5-17-10.6-8.2-26.5-16.5-35-18.3-3.5-.7-8.5-2.6-11-4-4.1-2.5-5.6-2.7-17-3.1l-12.5-.3-9.4-4.7c-5.2-2.5-10.8-5.8-12.5-7.2-4.3-3.7-8.4-5.7-19.9-9.6-8-2.7-10.3-3.1-12.5-2.3-3.8 1.5-9.3.4-16.5-3.3-4.1-2.1-7.4-3.1-9.8-2.9-2 .1-5.8-.3-8.4-.9-4.2-.9-5.3-.8-8.9 1-2.3 1.1-8.7 3-14.4 4.1l-10.3 2.1-7-3.1c-3.8-1.7-8.3-3.1-9.9-3.1-1.7 0-6.2-1.8-10.3-4.1-4-2.3-8.9-4.4-10.9-4.6-2.1-.3-4.7-1.6-5.9-2.9-1.3-1.4-3.4-2.4-4.9-2.4-1.5 0-4-.5-5.7-1-1.6-.6-15.1-1.2-31.4-1.3-31.9-.3-34.6-.8-42.8-7.6-2.4-2-6.2-5.1-8.5-6.9l-4.1-3.3-22.6.7c-16 .5-23.2.3-24.7-.5-3.9-2.1-13.3-2.2-19.2-.2z"/>
</svg>
