<svg version="1.0" xmlns="http://www.w3.org/2000/svg" class="fill-current"  width="1365.333" height="1365.333" viewBox="0 0 1024 1024">
    <path d="M586.5 90.5c-3.8.7-12.1 3.2-18.3 5.5-10 3.7-11.7 4-14.5 3-2.9-1-3.4-.8-5.8 1.8-2.1 2.3-2.8 4.3-3.3 10.3-.6 6-4.8 23.7-5.8 24.4-.2.1-2.8 1.6-5.8 3.5-9.9 6-25.9 21.1-26 24.6 0 .5 1.4 2.8 3 5.1 3 4.1 3 4.1 1.8 10.4l-1.3 6.4-6 2.1-6 2.2-2.8-2.4c-4.1-3.4-8.7-3.1-16.2 1.1-5.6 3.1-6.5 3.3-9.9 2.4-2.1-.6-3.9-.9-4.1-.7-.2.2.9 5.5 2.5 11.8 1.6 6.3 3 12.2 3 13 0 .9-3.3 4.4-7.4 7.8-6.6 5.6-7.8 6.2-11.8 6.2-4.3 0-4.7.3-9.4 6.1-5.5 6.9-6.4 7.4-15.1 8.4-5.7.6-6.4 1-8.3 4-1.7 2.7-3.9 4.1-12.9 7.7-10.8 4.3-10.9 4.4-18.8 13.3-4.4 5-10.2 10.8-12.9 13-5.9 4.8-6.1 5-6.9 9.4-.4 1.9-2.6 6-5.1 9.1-4.3 5.5-4.4 5.5-11.6 6.5l-7.3 1-.7 5.5c-.3 3-1.5 8.4-2.6 12l-1.9 6.5-6.6.3c-6.3.3-6.6.4-10 4.6-1.9 2.3-5.4 5.1-7.6 6.1l-4.2 1.8-3.2-3.1c-2.9-2.8-4-3.2-8.8-3.2h-5.5l-2 6.2-2 6.3-6.8.5-6.7.5-3.3 7.5-3.2 7.5-4.9.3c-2.8.1-9.1 1.6-14.2 3.3l-9.2 3-5.4 9.7-5.4 9.7-5.9 1.2c-3.2.6-9.2 1.6-13.1 2.3l-7.3 1.2-5.5 6.6-5.5 6.6v7.6c0 12.4-5.7 24.7-20.8 44.7l-9.9 13.3-3.3 16.4-3.2 16.5 4.1 7.1c2.2 4 4.1 7.3 4.1 7.5 0 .2-1.9.6-4.2 1-11.5 1.7-10.6 1.3-11.4 6.3-.4 2.8-1.6 5.4-3 6.7l-2.3 2.2 3 4.1c2.8 3.8 3 4.5 1.9 7.6-1.4 4.5-5.7 7.1-13.9 8.5-3.5.6-6.5 1.2-6.6 1.3-.1.2-1.7 4.7-3.4 10l-3.3 9.8h-17.5l-1.8 4.8c-1 2.6-3.5 6.5-5.6 8.7-4.3 4.5-4.9 7.6-2.7 14.8 1.2 3.9 1.2 4-3 7.6-4.1 3.4-4.2 3.8-4.2 9.3 0 3.1.5 6.9 1 8.4 1 2.6.7 3.2-4.3 8.2-4.8 4.8-5.7 5.3-7.5 4.3-1.8-1-3.2-.4-9.6 4.1l-7.5 5.3-.1 6.7v6.6l-16.1 19.4c-8.9 10.6-16.6 19.6-17.2 19.9-.5.4-4.4 1-8.6 1.4-4.2.4-7.9.9-8.2 1-.3.2-.1 3.4.5 7l.9 6.6-4.2 4.3c-3.9 4-4.2 4.7-3.4 7.3.9 2.7 1.1 2.8 9.1 3.1 9.1.3 13.9-1.4 20-7.1l3.2-3.1v6c0 4.7 3 19 4.2 19.9.2.1 4.2-.3 9-.8 11-1.3 14.8.1 20.2 7.4L70 767h6.5c6.4 0 6.5.1 8.9 3.7 1.3 2.1 3.2 6.8 4.1 10.5l1.8 6.8h11.6c11.5 0 11.7 0 20.9-4.1 5.1-2.3 9.4-4 9.6-3.8.2.2 3.1 4.6 6.5 9.6 3.4 5.1 6.4 9.3 6.6 9.3.3 0 2.8-1.4 5.6-3.1l5.1-3.2 4.7 4.7c4.6 4.5 4.8 4.6 11.2 4.6h6.5l3.8 5c3.8 4.9 3.9 5 9.5 5.1 5.6 0 5.6 0 9.9 5.4 6 7.7 6.6 9.7 5.2 17.5-1.2 6.6-1.2 6.6 2.2 13.5 2 3.9 5 11.5 6.8 17.1 2.8 8.5 3.8 10.4 6.6 12.2 2 1.3 5.7 6.2 9.8 13.1 6.4 10.5 6.9 11.1 13.9 15.1 3.9 2.4 11.7 5.8 17.1 7.6l10 3.4h24.8c23.9 0 24.9-.1 30-2.4 2.9-1.3 6.4-3.6 7.8-5.1 1.4-1.5 6.6-5.2 11.5-8.2 5-3.1 9.3-6.1 9.7-6.6.3-.6.9-3.6 1.3-6.8l.7-5.7 7.8-2.2c7-2 8.2-2.7 10.6-6.2 1.5-2.1 5.5-6.1 8.9-8.8 3.8-3 6.8-6.4 7.9-8.9l1.8-4 8.2-.4c6.3-.3 10.6-1.3 19.3-4.5 6.1-2.2 13.9-4.6 17.2-5.3l6.1-1.2V837c0-2.1 1.4-6.9 3.1-10.9l3.2-7.1h5.2c2.8 0 7.7-.5 10.8-1.1 4.1-.9 6.4-.9 8.8 0 2.5.8 4.7.8 9.1 0 4.9-1 6.4-1.9 9.8-5.5 2.2-2.4 4-5 4-5.7 0-.8-1.8-3.7-4-6.5-3.9-4.9-4-5.2-4-13v-8l3.5-.6c4.5-.9 5.1-.4 5.9 3.9.9 4.9 4.3 4.7 10.5-.4 3.9-3.2 5.6-4 9.6-4.3 4.6-.3 5-.5 5.9-3.6l.9-3.2h14.4c12.7 0 14.9.2 18.5 2.1l4.2 2.1 5.6-6.2 5.6-6.3 4.5 6.4c4.4 6.4 4.5 6.4 11.4 7.8 3.9.8 9.8 1.4 13.2 1.3l6.1-.1.7 3.9c.7 4.2 1.2 4.5 7.6 5.5 3.1.5 6.6 0 11.9-1.4 4.1-1.2 7.5-2.1 7.7-2.1.1 0 2.5 3.8 5.4 8.5 4.6 7.6 6.8 10.1 6.9 7.7 0-.4 1.3-2.2 2.8-4 2.7-3.2 2.8-3.3 6.2-1.9 1.9.8 5.4 1.8 7.6 2.2l4.2.6 3.1-8.1c2.7-7.1 3.1-9.5 3.1-17.6 0-9.1.1-9.4 2.3-9.4 1.2.1 4.6 2.1 7.6 4.5l5.5 4.4 4-2.1c6.9-3.5 17.7-6.8 22.5-6.8 4.6 0 4.6-.1 9.9-7.5 3-4.1 5.6-7.5 5.7-7.5.2 0 2.7.5 5.5 1.1l5 1.1V767h3.9c3.4 0 4.4-.6 7-3.9 2.3-2.8 5-4.6 10.3-6.8 6.7-2.7 7.4-3.2 8.2-6.5.8-3.1.5-4.3-2.2-9l-3.2-5.5 2.6-2.4c1.4-1.3 4.3-5.5 6.5-9.4 2.1-3.8 5.5-9.1 7.5-11.8l3.6-4.7H780v-12.9l5.3-3 5.4-3.1 6.9 2c3.8 1.1 9.7 2 13.1 2h6.3v-7.4c0-8.3-.9-7.4 9.2-9.2 3.1-.5 3.9-1.2 4.8-4 1.1-3.4 1.2-3.4 7.3-3.4 5 0 7 .5 9.9 2.5 3.3 2.2 4.7 2.5 13.2 2.5h9.4l6.7-12 6.7-12h4.4c3.8 0 4.6-.4 5.6-2.5 1.4-3.1 13.8-11.2 18.4-12.1 4.4-.8 4.8-1.5 7-10.7 1.6-6.8 2.2-8 5.1-9.8 4.2-2.6 4.3-5.5.3-14.4-2.2-5-3-8.2-3-12.5 0-6.6-.5-6.2 11.3-7.6 5-.5 6-1 7.5-3.6.9-1.6 4.2-4.4 7.2-6.3 5.3-3.2 6-3.3 19-3.9 7.4-.3 18.2-.9 24-1.2 5.8-.4 12.1-.2 14 .3 2.3.6 5 .6 8-.2 4.4-1.1 4.5-1.1 4.8-5.7.2-3.7-3.7-23.2-5-24.2-.1-.2-2.5-1.6-5.2-3.1-3.8-2.2-6.1-4.7-10.4-11.3-3-4.7-6.5-11.6-7.8-15.4l-2.3-6.9 4.5-2.1c3.2-1.6 4.3-2.6 3.8-3.8-.3-.8-.9-5.7-1.2-10.8-.4-8.3-.7-9.5-2.7-10.8-1.4-.9-2.7-3.3-3.4-5.9-1-3.8-.8-5.2 1.2-10.9 1.3-3.5 3.7-8.1 5.4-10.3 2.6-3.3 3.1-4.9 3.7-12.3.3-4.7.9-10.2 1.2-12.3l.7-3.7h6.7c6.5 0 6.8-.1 7.9-2.9.7-1.5 3-4.5 5.2-6.7 6.1-5.9 5.6-8.8-2.7-15.8l-6.5-5.6H996v-4.4c0-4.3 0-4.3-5.2-6.3l-5.3-2-.3-5.6c-.2-4.4-.7-5.9-2.2-6.7-1.9-1-2.9-6-1.2-6 .4 0 1.8-.9 3.2-1.9l2.4-1.9-4.7-2.3-4.7-2.3v-6.5c0-6.3-.2-6.7-3.3-8.7-3-1.9-3.6-1.9-9.6-.7-3.5.7-9.5 2.2-13.2 3.3-6.9 2.1-6.9 2.1-11.4.1-2.9-1.3-9.2-6.6-18.2-15.4l-13.8-13.5 2.2-6.8c1.2-3.8 2.7-10.2 3.4-14.3.7-4.5 2-8.9 3.4-11 1.3-2 3.3-5.9 4.4-8.7l2-5.2-2.5-2.3c-1.8-1.7-2.4-3.3-2.4-6.5 0-4.1 0-4.2-4.6-5.3-2.6-.7-7.3-2.5-10.5-4.2-5.9-2.9-5.9-3-5.9-7.3 0-4-.4-4.7-3.4-6.5-3.5-2.2-4-3.4-5.1-11.1-.5-3.9-.2-5.2 2.7-9.9 3.1-5 3.8-5.6 10.1-7.7 3.7-1.2 8.1-3.2 9.7-4.4l3-2.1-5.4-4.5c-4.8-3.9-5.6-5-6.6-9.8-1-4.9-.9-5.9.9-9.5 1.2-2.2 2.1-4.2 2.1-4.5 0-.3-5.2-3.2-11.5-6.6-10.7-5.7-11.9-6.6-17.2-13.7-3.2-4.1-6.3-8.2-7-9-.7-.9-7-2.2-19.5-3.9-20.9-2.9-22.9-2.7-40.9 3.2-7.8 2.6-11.3 4.3-13.5 6.5-1.6 1.7-7.4 6.6-12.9 10.8l-10 7.6-8 .8c-4.4.4-10.5 1-13.5 1.3l-5.5.5-5.5-5.5c-3-3.1-6.3-5.6-7.3-5.6s-3.5 1-5.6 2.2l-3.8 2.2-6.9-3.1c-3.8-1.7-6.8-3.5-6.6-4.2.1-.6.3-1.6.5-2.3.1-.6-1.3-1.6-3.1-2.1-3-.9-3.6-.7-6.6 2.2-1.9 1.8-7.7 5.2-12.9 7.6l-9.6 4.3-7.6-6.5c-7.5-6.4-7.7-6.6-11.2-5.5-3 .9-5 .6-14.1-2.2l-10.7-3.2-1-6.1c-.5-3.4-1.4-6.6-2-7.1-.5-.5-4.9-2.6-9.7-4.7l-8.8-3.8v-5.1c0-5.1-.1-5.2-8.3-13.4-8.9-8.9-8.4-8.7-19.2-6.7z"/>
    <path d="M98 553.4c0 3 .8 4 5.6 7.9 5.4 4.3 5.6 4.4 10 3.4 2.5-.6 4.3-1.5 4.1-2.1-.3-.6-1.3-3.7-2.3-6.9l-1.8-5.7H98v3.4zm-39 64.7c0 1.8 1.4 3.2 5.5 5.6l5.5 3.2v-2.8c0-3.9-2.8-6.9-7.2-7.7-3.5-.6-3.8-.4-3.8 1.7zm163 308.7c0 3.8.2 7.1.5 7.4.8.7 10.5-1.3 10.5-2.2 0-1.2-9.1-12-10.1-12-.5 0-.9 3.1-.9 6.8z"/>
</svg>
