<svg version="1.0" xmlns="http://www.w3.org/2000/svg" class="fill-current"  width="1365.333" height="1365.333" viewBox="0 0 1024 1024">
    <path d="M774 391c-5.2 1.1-13.5 3-18.5 4.4-7.1 2.1-11.2 2.6-19.8 2.6h-10.8l1.7 3.2c.9 1.8 2.7 4.4 4 5.8l2.4 2.6-2.6 3.7c-1.3 2-3.1 3.7-3.8 3.7-.7 0-6.4-1.1-12.6-2.5-8.5-2-13-3.6-18.5-6.9l-7.4-4.3-9.8 1.3c-5.4.7-19.4 1.3-31.1 1.4H626l-7.8-4.4c-4.3-2.5-11.7-5.6-17-7-8.6-2.5-10.4-2.6-27.5-2.4l-18.2.3 6.8 4c3.7 2.1 6.7 4.2 6.7 4.5 0 .4-1.1 1.7-2.4 2.9l-2.5 2.3-14.3-2.6c-16-2.9-18.1-3-22.2-1.3l-3 1.3 4.8 3.7c2.7 2 4.4 3.7 3.7 3.7-.6 0-5.3-.9-10.4-2.1-17.5-3.9-31.2-5.9-41.2-5.9l-10 .1-5.9 4.4c-3.8 2.9-7 4.5-8.8 4.5-2.7 0-2.8.2-2.8 4.5v4.5h11.7l1.2 3.9c1.2 4.2 1.4 4.3 10.3 6.1 3.2.6 9.8 2.9 14.8 5 15.7 6.8 16.9 7 54.6 7 32.6 0 35.3-.2 71.3-4 48.1-5.1 50.9-5.2 62.6-.3l9 3.8-33.5.6c-18.4.3-41.6 1.3-51.5 2.2-9.9.9-23.1 1.9-29.2 2.3l-11.3.7v6.7h9.8c7.5 0 14.6 1 29.7 4l19.9 4h28.5c18.9 0 32.8-.5 41.1-1.5 7-.8 21.1-1.5 32.1-1.5h19.6l5.4 7 5.4 6.9H792c33.6.1 37.8-.1 52.5-2.3 8.8-1.4 21.4-3.8 28-5.5 6.8-1.7 18.8-3.7 27.5-4.6 23.5-2.4 31.8-3.4 40.3-5.2 6.4-1.3 7.7-1.9 7.1-3.2-1.8-4.5-1.8-4.5 8.4-7.4 8.8-2.4 11.6-2.7 25.3-2.7h15.4l13-5.1c7.2-2.9 13.3-5.5 13.8-5.9.4-.3.1-2.6-.8-4.9-.8-2.4-1.5-6.1-1.5-8.2V415h-6.7c-3.8 0-15.1-.7-25.3-1.5-10.2-.8-25.8-1.5-34.6-1.5-10.8 0-25.5-1-44.5-3-38-4-42.9-5-52.9-10l-8.3-4.1-3.1 2.9c-1.7 1.7-5.4 4.2-8.3 5.6-4.4 2.2-6.6 2.6-13.5 2.6-7.5 0-8.7.3-12.8 3-4.3 2.8-5 3-15 3-5.8 0-14.5.5-19.3 1.1-4.9.6-9.1.9-9.3.6-.2-.2 3.4-2.5 8.1-5.2l8.5-4.7v-7.4c0-4.1-.1-7.4-.2-7.3-.2 0-4.6.9-9.8 1.9zm-443.4 33.9c-2.6 2.6-7 5.9-9.7 7.1-2.7 1.3-4.9 2.7-4.9 3.1 0 2.8 11.2 16.2 26.4 31.6l17.9 18.2-8.4-2.2c-8-2.2-15.9-6.1-49.3-24.3-4.8-2.7-10.8-6.6-13.2-8.8-6.3-5.4-25.3-11.7-37.6-12.4l-8.8-.4-6.9 5.6-7 5.6h-10c-5.6 0-10.1.3-10.1.7 0 .3 1.8 3 4 5.9 3.6 4.8 3.9 5.6 2.8 7.9-.6 1.4-1.4 2.5-1.7 2.5-.4 0-6.7-2.4-14.1-5.4-7.4-3-15.4-6-17.7-6.7-4.2-1.2-4.3-1.3-4.3-5.6 0-3.2.4-4.3 1.5-4.3 1.8 0 19-1.7 25.2-2.6l4.2-.5-1.3-3.7-1.3-3.7-8.9.5c-10 .6-38.9.6-56.9 0-14.7-.4-55.6 1.3-57.5 2.5-.7.5-8.8 1.1-17.9 1.5-14.7.5-17.3.9-22.7 3.1-6.1 2.5-6.3 2.6-10.6.9-2.4-.9-6.2-2.9-8.3-4.3-3.1-2.1-5.2-2.7-9.2-2.7-2.9 0-5.3.4-5.3.9 0 1.2 4.8 19.3 5.2 19.6.2.1 1.9 1.2 3.8 2.5s6.2 4.9 9.5 8c3.3 3.1 8.6 7.8 11.8 10.3 5.4 4.3 6.4 4.7 11.3 4.7 4.5 0 7.1-.8 14.4-4.5 9-4.5 9-4.5 19.7-4.5h10.8l-5.6 5.6-5.6 5.6-10.4 1.3c-5.7.8-13.2 1.5-16.6 1.5-6.3 0-6.3 0-6.3 2.9 0 3.2.5 3.4 11 4.6 10.1 1.1 10.9 1.4 11.2 4.3.3 2.3 1.2 3 6.3 4.9 3.3 1.2 12 3.6 19.4 5.5l13.4 3.3 8.6 8c4.7 4.4 10.5 9.5 12.7 11.2l4.2 3.3h33.3c32.7 0 33.6-.1 41.9-2.5 4.7-1.4 16.2-3.7 25.5-5.1 22.4-3.3 21.5-3 21.5-6.4 0-2.7-.4-2.9-5.7-4-8.6-1.7-8.3-1.4-8.3-7.4v-5.4l7.8-2.6c4.2-1.4 8-2.6 8.3-2.6.4 0 4.7 5.4 8 10.2.3.5 3.7.2 7.6-.6l7.1-1.5 9 3.9c12.7 5.5 18.5 7 27.1 7.1 8.7 0 30.7 2.2 31.6 3.1.3.3-2.9.9-7.2 1.3-8.3.8-22.1 3.9-45.8 10.5-25 7-27.8 7.3-69.7 7.9l-37.8.6 5.6 9.7 5.5 9.8h9.2c5.1 0 14.8.7 21.7 1.5 6.9.8 16.4 1.5 21.3 1.5 4.8 0 8.7.2 8.7.5 0 .6-4 8.7-4.5 9.3-.2.2-3.6-.2-7.7-.9-6.7-1.1-8.5-1-22.3 1.5-8.2 1.5-15.1 2.9-15.2 3-.1.1 1.9 2.8 4.4 5.9 3.8 4.9 6.2 6.6 14.7 11 9.9 5.1 10.3 5.2 21.1 5.7 10 .6 12.3 1.1 25.5 5.9 8 2.9 20.1 7.9 27 11.1 14.1 6.5 19.4 8.3 29.5 10 5.1.8 9.1 2.3 14.7 5.6l7.7 4.4h10.4c13.8 0 24.2-2.2 34.6-7.5l8.5-4.2-4.2-2.8c-2.3-1.5-4.2-2.9-4.2-3 0-.1 2.4-1.9 5.4-4.1 4.1-2.9 6.1-5.3 8.2-9.7 2.3-4.7 4.5-7.1 11.9-13.1 14.4-11.7 21.2-15.1 32.5-16.6 7.5-1 10.3-1.8 13.5-4 6.5-4.6 10.2-9.1 13-16.1l2.6-6.6 12.7-2.8c7-1.5 13.3-3.3 14-3.9 2-1.9 4.2-11.4 4.2-18.4V516h10.3c13.1 0 67.4-7 82.4-10.7l11.3-2.7 8.1 3.9 8.1 4-4.3.8c-2.4.4-14.3 1.1-26.4 1.5l-22 .7 15.3 4.2c18.5 5 24.8 8.9 30.7 19 2 3.4 4.1 6.6 4.8 7.1.7.5 9.5 1.9 19.7 3.2 10.2 1.2 19.8 2.5 21.4 2.9l3 .7-5 2.8c-2.7 1.6-9.9 6.4-16.1 10.7l-11.2 7.9H641c-6 0-11 .4-11 .8s2.3 2.5 5.1 4.6l5.2 3.8 36.1-2.7c33.2-2.4 36.8-2.9 45.2-5.6l9.1-3 8.3 3.6c4.5 1.9 8.7 3.8 9.3 4.2.5.3-2.4 2.4-6.6 4.5-7.9 3.9-8.7 5-6.4 8.3 1.3 1.7 2.1 1.7 20.3-2 15.1-3 22-3.9 33.9-4.3l15-.5 16.6-8.2 16.5-8.3 23-2.9c21.5-2.8 22.7-3 18.9-4.1-10.2-3.1-30.8-5.2-50.3-5.2-22.5-.1-27.4-.9-41.2-6.7-5.2-2.2-11.3-4.6-13.5-5.4l-4-1.2 7.8-2.6c4.2-1.4 7.7-2.8 7.7-3.1 0-.3-3.3-1.7-7.2-3.1-6.7-2.2-9.3-2.4-30.8-2.9l-23.5-.5-2.3-6c-1.2-3.3-3-7.6-4-9.5l-1.7-3.5-18.5-.5c-15.2-.4-19.3-.9-23.2-2.5-2.7-1.1-4.8-2.2-4.8-2.6 0-.3 1.5-1 3.3-1.5 2.9-.9 3.2-1.3 3.5-5.5l.3-4.5-19.8-3.7c-10.9-2.1-21-4-22.6-4.3-1.7-.4-3.3-1.6-4.2-3.3-1.4-2.7-1.7-2.8-12.2-3.5-5.9-.5-19.1-1.1-29.3-1.5-15.8-.7-19.8-1.2-27-3.4-5-1.5-13.3-3-20-3.7-21.4-1.9-19.7-1.4-22.8-7.7-2.6-5.4-3-5.7-13.7-11.1l-11-5.5-8.3 1.2c-8.9 1.3-21.3 5.6-27.4 9.7-2.1 1.3-4 2.4-4.2 2.4-.2 0-1-1.6-1.6-3.6-1.6-4.8 0-8.5 5.2-11.9 2.2-1.5 3.6-3 3.2-3.5-.5-.4-3.4-1.5-6.4-2.5-3-.9-10.8-3.9-17.2-6.6-11.7-4.9-11.9-4.9-22.5-4.8-6 0-14.2.6-18.3 1.3l-7.5 1.4-11.8-4.4-11.8-4.4h-30.5l-4.8 4.9zM9.9 503.4l10.3 10.4 7.7 1.2c8.3 1.3 23.3 5.5 47 13.2 14.1 4.6 15.7 4.9 19.3 3.9 2.1-.7 3.8-1.5 3.8-1.9 0-1-6.3-6.9-11.7-11.1-3.4-2.6-6.5-3.7-16-5.7-6.5-1.4-15.2-4.1-19.3-5.9-4.1-1.9-8.8-3.7-10.3-4.1-1.5-.3-5.8-2.8-9.5-5.5l-6.7-4.9h-25l10.4 10.4zm973.1-2.5c6.5 4 6.5 4 16.5 4l10-.1-11.7-3.3c-6.5-1.9-13.9-3.7-16.5-4l-4.8-.7 6.5 4.1z"/>
</svg>
