<svg version="1.0" xmlns="http://www.w3.org/2000/svg" class="fill-current"  width="1365.333" height="1365.333" viewBox="0 0 1024 1024">
    <path d="M94.4 224.1c-1.9 2.2-2.1 5.2-.8 7.9 1.1 2.3.8 2.9-2.6 6.7-2.8 3.2-4 3.9-4.9 3-.8-.8-1.4-.8-2.5.3-3 3.3-4.9 15.1-2.6 16.5.5.3.7 1.2.4 1.9-.3.8.2 2.9 1.2 4.8 1 1.8 2.1 5.3 2.5 7.8.6 3.7.4 4.9-1.3 6.7-1.6 1.7-1.9 3.1-1.5 6.5.9 8 2.7 11.3 7.6 13.9l4.6 2.4-.2 5.2c-.1 3.1-1.2 7.2-2.6 10-2 4-2.2 5.5-1.4 8.8 2.3 10.6 2.2 11.7-2.7 20.3-2.5 4.5-4.6 8.5-4.6 9.1 0 .5-.6 1.1-1.4 1.4-.8.3-1.6 3-2 7-.9 8.9-3.9 17-8.1 21.9-3.8 4.5-4.2 6.3-2 9.2 1.7 2.3 2 7.2.5 8.1-.5.3-1 1.3-1 2.2 0 2.8-5.7 13.8-7.9 15.1-1.5.8-2.1 2.2-2.1 4.6 0 1.9-.4 3.7-.9 4.1-.5.3-2.1 2.7-3.6 5.3-2.5 4.4-2.6 5.3-2 12.4.6 6.9.5 8-1.4 10.4-2.4 3.1-2.7 6.6-.6 8.4 1.7 1.4 1.2 4.6-2.1 14.4-2.8 8-6.7 13.6-9.5 13.6-1.1 0-2.3 1-2.8 2.2-1.8 4.5-6.8 9.8-14.4 15.2-12.5 9-15.3 13.3-10 15.6 5.1 2.1 7.3 3.4 7.9 5 .4.8 1 8.5 1.3 17.1.5 13.5.9 16 2.5 17.8 1.6 1.8 1.7 2.5.8 4.7-.7 1.3-1.2 4.8-1.2 7.7.1 4.8.2 5 1.5 3.3.8-1.1 1.7-3.6 2.1-5.5.3-2 .9-4.8 1.4-6.3.7-2.1.4-3-1.6-4.9-3.1-2.9-3-4.4.6-9.8 3.3-4.9 3.7-6.6 1.6-7.8-2-1.2-4.6-6.8-4.6-10 0-1.6-.8-4.5-1.9-6.5-1.9-3.8-1.8-8.8.2-8.8.6 0 1.8-.6 2.6-1.4.9-.7 2.9-1.6 4.5-2l2.9-.7-.7 5.4c-.9 8 .1 11.7 3 11.7 2.1 0 2.4.5 2.4 3.6s.3 3.5 2 2.9c1.1-.3 2-.2 2 .3 0 1.2-2.7 8-4.1 10.6-5 8.7-8.9 23.5-5.5 20.7.8-.6 1.6-2.4 1.9-3.9.6-3.3 2.8-9 6.1-16.2l2.6-5.5-.7 5.5c-.3 3-.9 6.2-1.3 7-.4.8-.4 2.6-.1 3.9.6 2.1.8 2 2.9-2.1 1.5-3.2 2.2-6.3 2.2-10.6 0-4.4.4-6.1 1.5-6.6 1.3-.5 1.5.2.9 4.3l-.6 4.9 4.3-.9c5.3-1.2 7.9-3.4 7.9-6.6 0-2.2.3-2.4 3-1.8 2.7.6 3 .4 3-2 0-2 .4-2.6 1.8-2.3 2.4.5 2.6 4 .6 10.3-1.9 6.1-1.4 11.7 1.2 14.6 2.3 2.6 1.4 13.8-1.7 20.1-1.4 2.9-1.9 5.3-1.5 6.4.6 1.5 1.7 0 4.9-6.6 3.8-7.9 4.2-9.2 4.5-18.4.3-8.1.7-9.9 2.1-10.3 1.3-.3 1.5-1.4 1.2-5-.2-3.5 0-4.4 1-4.1.8.3 1.5 1.3 1.7 2.4.2 1 1.1 3.9 2.1 6.4 1.1 2.5 2.7 6.6 3.6 9.2l1.6 4.6 3.4-2.1c3-1.9 3.4-2.7 3.5-6.4 0-2.3.5-5.4 1.2-6.8 1.4-3.2.4-4.3-2-2.2-2.7 2.5-3.2 2.1-3.2-2.3 0-4.5.1-4.6 3.5-2.4 2.7 1.7 4.5 1.2 4.5-1.4 0-.9.4-2.3.9-3.1.7-1.1 1.5-1 4.1.9 2.3 1.6 3.5 1.9 4.3 1.1 1.2-1.2-1.4-4.7-4.4-5.6-1.1-.4-1.9-1.1-1.9-1.7 0-.6-1.3-2.5-2.9-4.3-4.2-4.8-5.1-12.2-2.1-17 1.5-2.5 2.1-4.7 1.8-7.6-.2-3.2.1-4.4 1.6-5.3 1.4-.9 2-.8 2.4.3.3.8 1.6 2.5 2.8 3.8 1.8 1.8 2.4 3.5 2.4 6.6 0 2.4-.5 4.8-1.1 5.4-1.1 1.1 1.1 9.4 3.1 11.8.5.6 1.2 3.1 1.5 5.5.4 2.5 1 5.6 1.5 7 1.4 4.1 2 12 1 12-.5 0-1.4-1.8-2-4.1-1-3.5-1.4-4-3.4-3.5-1.3.3-3.2-.1-4.4-1-4.8-3.3-5.8 1.7-1.2 6.1 3.4 3.3 4.8 7.1 6 16.5.5 3.6 1.4 8.4 2.1 10.7 2.5 8.2-3.9 26.6-19.2 55.5-2.3 4.5-2.6 5.5-1.8 8.3.5 1.6.7 7 .6 12-.2 8.4-.4 9-2.4 9.3-1.3.2-2.6 1.5-3.4 3.4l-1.3 3.1-.9-2.7c-1-3-4.3-3.3-4.1-.3 0 .9.1 4.9.2 8.8l.2 7.1 2.5-1.6c2.4-1.6 2.5-1.5 2.5.2 0 1-1.1 2.9-2.5 4.2-1.4 1.3-2.5 3.2-2.5 4.2 0 2.9-6.7 12.7-9.3 13.7-1.3.5-3.2 2.2-4.2 3.8-2.3 3.6-6.6 8.3-7.7 8.3-1.4 0-.9-5.7.7-7 .8-.7 1.5-2.1 1.5-3.1s.9-2.4 2-3.1c2.7-1.7 2.7-5.8 0-5.8-1 0-2.4.8-3 1.7-.8 1.3-1.3 1.4-1.6.6-.8-1.9-8.4-.5-11.1 1.9-2.4 2.2-4.9 7.5-4 8.5.4.3 1.5 0 2.4-.7 1-.7-.4.8-3 3.3-4 4-7.7 6-7.7 4.2 0-1.2 2.4-5.5 3.2-5.5.4 0 1.6-1.5 2.5-3.4 1-1.8 2.9-5.3 4.2-7.7 1.7-3 1.9-4 .7-3-2.1 1.8-2 1.2.8-5.4 1.4-3 2.2-5.5 1.7-5.5-2.6 0-8.1 8.6-8.1 12.8 0 2.8-2.3 6.9-7.5 14-4.6 6.1-6.1 6.7-8.9 3.7-1.3-1.4-2.8-2.5-3.5-2.5-1.3 0-1.4-1.2-.2-6.3 1.2-5.3-.2-4.6-3.8 1.7l-3.1 5.5-5.7.3-5.8.3v7l7 .8c8 .9 10.7 2.6 8.7 5.7-1.4 2.2-1.1 2.6 6.5 9 3.6 3.1 4.3 4.3 4.8 8.6.7 4.9.6 5.2-2.6 7.7l-3.4 2.7h2.6c1.4 0 3.4-.9 4.3-1.9 1-1 3.3-2.2 5.1-2.5 5.9-1.1 10.4-4.1 18.8-12.2 1.9-1.8 4.8-3.4 7-3.8 2-.4 4.5-1.5 5.5-2.5.9-1 3.4-2.1 5.5-2.5 2.1-.4 4.7-1.6 5.8-2.7 1-1 2.8-1.9 3.9-1.9 1.2 0 3.2-.7 4.5-1.6 1.3-.8 4.1-1.5 6.2-1.4 6.2.3 6.9.1 10.7-2.9 2.6-2 5.2-3.1 9.3-3.6 3.2-.4 7.3-1.3 9.1-2.1 1.8-.7 5.7-1.6 8.5-2 2.9-.4 5.7-1 6.2-1.4.6-.4 4.4-1.2 8.5-1.9s8.9-1.7 10.5-2.3c2.4-.8 4.2-.6 9 1.2 3.3 1.2 7.4 2.5 9.2 2.7 4.4.7 9.9-2.7 10.6-6.6.3-1.6.9-4 1.3-5.5.5-2.2.3-2.5-1-2-1 .4-2.6-.1-3.9-1.3-1.2-1.1-3-2.3-3.9-2.6-1-.4-1.8-1.6-1.8-2.7s-.6-2-1.4-2c-.8 0-2.9-1.3-4.7-3-1.8-1.6-4.8-3.7-6.6-4.5-1.8-.9-3.3-2-3.3-2.5 0-.6-.6-1-1.4-1-.7 0-1.6-.9-1.9-1.9-.3-1.2-1.5-2.1-3.3-2.3-2.3-.2-3-.9-3.2-3-.3-2.1-1-2.9-3-3.3-1.5-.3-5-1.7-7.7-3-7-3.5-16.5-3.5-21-.1-2.7 2.1-11.6 4.6-16.2 4.6-2.2 0-1.5-3.5 1.2-6 2.8-2.7 3.1-4.4 1.1-9-1.6-3.9-.4-10.6 2.4-13 1-.8 2.3-2.6 3-3.9 1.2-2.3 1.1-2.3-1.4-1.7-2.5.6-2.6.5-2.6-3.9 0-4.7 2.5-8.5 5.5-8.5.8 0 1.5-.9 1.5-2 0-2.5.8-2.5 3.9-.1 2 1.5 2.2 2.1 1.2 3.9-.6 1.1-1.1 4.1-1.1 6.6 0 3.9.3 4.6 1.9 4.6 3 0 5.1 1.1 5.1 2.6 0 .8.4 1.4 1 1.4 1.6 0 4.4 6.3 4.1 9.2-.2 1.8.4 3 1.8 3.8 1.7.9 2.1.8 2.1-.5 0-.8.4-1.5.8-1.5.5 0 1.5-1.8 2.2-3.9 1.4-4.3 1.6-3.8-8.2-15.6-3.1-3.6-3.6-6.6-1.3-8.5.8-.7 1.5-1.8 1.5-2.5 0-1.5-4.3-3.5-7.6-3.5-1.7 0-2.8-.7-3.1-2-.3-1.3-1.4-2-2.9-2-2.8 0-2.9-.5-.8-5.6 2-4.7 2.9-5.4 7.6-5.4 3.2 0 3.9.4 4.4 2.5 1 3.9 3.1 5.1 5.4 3 2.1-1.9 2.6-5 1-6s-1.2-4 1-6.8c2.7-3.4 2.7-5.1-.1-3.7-3.1 1.7-3.8.2-.9-2 2.1-1.6 2.3-2.2 1.4-3.8-.8-1.2-.9-3.3-.3-6.3.4-2.4.8-4.7.9-5.2 0-.4.9-.7 2.1-.7 1.4 0 2.5 1.1 3.5 3.6 1.5 3.6 1.5 3.7-1.2 6.5-3 3.1-2.5 5.1.6 3.1 2.6-1.6 3-1.5 3 .8 0 1.1.9 2.5 1.9 3.2 1.8 1.1 1.8 1.3.3 2.5-1.5 1.1-1.5 1.4-.2 2.3 3.4 2.2 4.1-.2 2.6-8.8-.7-3.8-.6-4.2 1.3-4.2 1.1 0 2.3.4 2.6 1 .9 1.5 4.1 1.2 5.5-.5 1.7-2.1 3-1.9 3 .5 0 2.7 2.9 3.8 4.5 1.7 1.3-1.8 3.5-2.1 7.1-1.1 1.6.4 2 1.1 1.6 2.7-.5 2-.4 2.1 1.2.7 1.6-1.3 2.1-1.1 4.5 1.8 1.4 1.8 3.4 3.2 4.4 3.2 1.3 0 1.7.8 1.7 3.2 0 5.6 1.3 6.5 5 3.5 4.1-3.5 6.5-3.4 8.7.3.9 1.6 2.3 3 3 3 .7 0 2.3 1.1 3.5 2.5 1.7 2 3.1 2.5 6.9 2.5 3.9 0 4.7.3 4.3 1.5-.4.8-1.6 1.5-2.9 1.5-4.6 0-8.5 1.3-8.5 2.8 0 1.1.9 1.4 4.5 1 3.8-.5 4.5-.3 5.1 1.4.5 1.8 1.2 1.9 7.7 1.3 13.2-1.2 25.8-.6 37.3 1.9 9.5 2 11.3 2.1 12.9 1 1.9-1.4 10-1.9 12.9-.8.9.3 1.6 1.7 1.6 3.1 0 1.3 1.1 3.9 2.5 5.7 2.8 3.7 3.2 8.6 1.5 17.7l-1 5.4 3.7 3.2c3.1 2.6 4.7 3.2 8.4 3.3 2.9 0 5.1.6 5.9 1.5.7.8 2.2 1.5 3.4 1.5 1.3 0 2.8 1.2 3.8 3 1 1.7 2.5 3 3.6 3 2.2 0 14.7 8.8 16.6 11.6 2 2.9 2.6 6.7 1.8 9.9l-.8 2.9-4.1-5.4c-10.9-14.6-20.6-20.7-12.4-7.8 1.6 2.5 3.4 4.9 4 5.2.6.4 1.1 1.6 1.1 2.6 0 1.1.9 2.4 2 3 1.1.6 2 2 2 3.1 0 1.2.8 2.3 2 2.6 1.1.3 2 1.4 2 2.4s.6 2.2 1.4 2.6c.7.4 3.7 3.7 6.7 7.2 4.5 5.4 5.1 6.6 4.1 8.2-.7 1-1.2 3-1.2 4.3 0 1.9-.8 2.7-3.5 3.6-2.4.8-3.5 1.8-3.5 3.1 0 1 .7 1.9 1.5 1.9 2.2 0 1.8 2-1 4.6-1.6 1.4-2.5 3.4-2.5 5.2 0 1.6-.9 4.1-2 5.5-1.4 1.8-2 4-2 7.8 0 3.3-.6 5.9-1.5 6.9-1.9 2.1-2.3 11-.8 16.7 1 4 .9 4.3-.8 4.3-1.1 0-2.3-.8-2.6-1.8-1.2-3.2-5.3-6.2-8.6-6.2-3.9 0-10.7-6.2-10.7-9.8 0-2.6-2-3.6-6.7-3.6-1.8 0-3.3-.5-3.3-1.1 0-.7-1.1-1.7-2.5-2.3-1.4-.6-2.5-1.9-2.5-2.8 0-2-8.4-10.4-10.4-10.4-.9 0-1.6-.5-1.6-1 0-1.6-8.1-10-9.1-9.4-.5.2-.6 1.9-.2 3.6.5 2.8.4 2.9-1.4 2-2.9-1.6-10.9-9.4-11.6-11.4-.3-1-1.9-2-3.4-2.4-1.5-.4-3.7-1.5-4.8-2.4-1.1-1-3.3-2.5-5-3.3-1.6-.8-4.6-3.1-6.4-5.1-1.9-2-4-3.6-4.6-3.6-.6 0-1.9-1.3-2.8-3-1-1.7-2.3-3-2.9-3-.5 0-3-1.8-5.5-4s-5.1-4-5.8-4c-.7 0-1.9-1.8-2.8-4-1.1-2.9-2.1-4-3.6-4-1.1 0-2.5-.8-3-1.8-.6-1.1-3.2-4.3-6-7.2-4.7-5.1-5.1-5.4-9.4-5.1l-4.4.2-1.2-4.5c-.6-2.5-1.7-4.6-2.4-4.6-2.8 0-9.7-9.6-9.7-13.4 0-.8 1.1-2.7 2.4-4.3 2.5-3.1 2.4-5.3-.3-5.3-2.2 0-5.1-3.1-5.1-5.3 0-.9-.4-1.9-1-2.2-.5-.3-1.7-2.3-2.7-4.3-1.6-3.2-1.8-3.4-2.1-1.5-.5 3.2-4.8 6.3-8 5.7-3.6-.6-7.8 3.2-8.4 7.6-.4 2.6.3 4.5 3.4 9.1 2.1 3.2 3.8 6.5 3.8 7.3 0 .8.6 1.9 1.3 2.3.8.4 2.7 3.2 4.2 6.1 3.6 6.7 13.9 14.7 17.3 13.5.7-.3 2.9.5 5 1.7 2 1.3 5.3 2.3 7.3 2.3 3 0 4.1.7 7.5 4.8 2.4 3 4.7 4.8 6.1 4.9 1.2 0 2.4.8 2.7 1.8.3.9 3.1 3.7 6.1 6.1 3 2.4 5.5 5 5.5 5.7 0 .8.7 1.4 1.5 1.4.7 0 1.8.6 2.2 1.3.4.8 1.5 1.6 2.4 1.9.9.4 2.2 2.8 2.9 5.5 1.6 6 2.6 7.3 5.6 7.3 1.3 0 2.9.9 3.6 2 .7 1.1 2.3 2 3.5 2 1.4 0 2.3.6 2.3 1.5 0 .8.5 1.5 1 1.5.6 0 1 .7 1 1.5s.9 1.5 2 1.5c1.4 0 2 .7 2 2.1 0 1.2.8 2.3 2 2.6 2.5.7 2.6 3.3.2 3.3-2.2 0-4.8-1.9-5.4-4-.3-1-1.6-1.4-4.5-1.2-2.9.3-4.2-.1-4.6-1.2-.3-.8-2.2-2.2-4-3-1.9-.8-4.3-2.8-5.3-4.5-1-1.8-2.9-3.4-4.1-3.7-1.3-.4-2.3-1.2-2.3-2 0-1.7-7.9-5.4-11.4-5.4-3.3 0-3.4 2.4-.2 4.5 1.3.9 2.6 2.5 2.9 3.5.3 1.2 1.4 2 2.6 2 1.1 0 2.6.9 3.3 2 .7 1.1 1.8 2 2.5 2s1.3 1.1 1.3 2.4c0 1.9.6 2.5 2.7 2.8 2 .2 2.9 1.1 3.8 3.8.9 2.5 2 3.7 4.1 4.3 1.6.5 4.3 1.3 5.9 1.9 1.7.6 8.9 1.4 16.2 1.7 12.1.6 13.4.8 15.7 3 2.8 2.7 3.5 6.1 1.1 6.1-.8 0-1.9.8-2.4 1.9-1.8 3.2 2.9 4.5 17.9 5.1 10.8.4 13.4.8 13.2 1.9-.7 3.1 1 7.1 2.9 7.1 1.6 0 1.8.5 1.3 2.5s-.1 2.6 1.9 3.4c2.5 1 4.7 5.4 4.7 9.6 0 1.6-.8 2.5-2.5 2.9-3 .8-3.3 2.6-.6 3.3 1.1.3 2.1 1.3 2.4 2.4.7 2.5 2.8 2.4 8.6-.5 4.8-2.5 7.1-2.2 7.1 1 0 2.7 5.1 2.1 12.2-1.4 6.3-3.1 8.5-3.7 15.9-4 5.5-.2 9.5 0 10.9.8 3 1.6 9.2-1.5 8-3.9-5-10.2-5.1-13-.5-17.5 1.9-2 3.5-4.1 3.5-4.8 0-.7.9-3.8 2.1-6.8 3-8 3.8-10.7 5.5-18.9 2.1-9.8 4.4-15.3 6-14 1 .8.8 1.8-.6 4.2-2.1 3.6-3.6 16.5-2.2 18.6 1.8 2.6 3.5.1 2.8-4.1-.5-2.8-.1-5.2 1.3-8.4 2.2-4.9 3-5.3 4.9-2.4.7 1.1 1.9 2 2.7 2 .9 0 1.5.9 1.5 2.5 0 2.4 3.4 5.3 4.3 3.8.3-.5.2-4.1 0-8.1-.6-7.2-.6-7.2-3.5-7.2-2.3 0-2.8-.4-2.4-1.8.3-.9.8-3.1 1.2-4.7 3-12.4 18.3-33.9 28.9-40.6 13.6-8.6 15.8-9.2 15.3-4.1-.2 2.1.1 2.7 1.7 2.7 1.5 0 2.1-.8 2.3-3.3.3-3.1.5-3.2 4.5-3.2 2.3.1 5.3.7 6.7 1.5 3.2 1.8 8 1.9 8 .2 0-.8-1-1.9-2.2-2.5l-2.3-1.1h2.2c1.2-.1 3.3.3 4.7.9 1.4.5 2.6.6 2.6.2 0-.4-1.5-1.2-3.2-1.7-3.9-1.2-3.7-2.6.6-4s3.9-2.8-1.4-4.4c-11.2-3.4-12-4.6-1.7-2.7 5.4 1 6.7 1 6.7 0 0-.7-.4-1.6-1-1.9-.5-.3-1-1.9-1-3.6 0-2.4-.4-2.9-2.4-2.9-1.3 0-6.5-2.2-11.7-4.8-7.1-3.6-9.5-5.3-9.7-7-.4-3 3.5-4.4 11-4 4.8.2 6-.1 7.8-2 2-2.2 5.3-2.8 8.4-1.6 2.6 1 1.9 2.7-2.9 7.4-2.5 2.4-4.5 4.8-4.5 5.2 0 .4 1.5.8 3.4.8 2.7 0 3.9.7 5.6 3 2.3 3.3 4 3.9 4 1.5 0-.8.6-3.3 1.2-5.5 1.2-3.9 3-5.1 4.3-3 .3.6 1.4 1 2.5 1s2 1 2.5 2.7c.3 1.5 1.5 3.9 2.5 5.3 1.7 2.4 1.7 2.8.4 4.2-1.2 1.2-1.3 2.2-.3 5.9 1.1 4.4 1.9 19.3 1.1 21.6-.2.7-1.5 1.3-2.8 1.3-2.7 0-3.2-2.6-1.1-6.1 1-1.7 1-2.3 0-2.6-.7-.3-1.3-1.7-1.3-3.3 0-4.1-1-6-3.1-6-1.2 0-1.9-.7-1.9-1.9 0-1-.7-2.5-1.6-3.2-.9-.7-2-2.4-2.5-3.6-.7-2-1.2-2.2-2.9-1.3-1.8 1-2 1.7-1.4 5.6.4 3 .2 4.9-.6 6-1 1.1-1 1.8-.2 2.6s.8 1.7.1 3c-1.6 3-.3 4.8 3.4 4.8 4 0 7.1 2.8 6.1 5.5-.9 2.1 1.1 3.5 5.2 3.5 3.4 0 10 5.9 7.6 6.7-1 .4-1 1 .3 2.9 1 1.5 1.7 5.6 2 11.1.8 13.2 1.5 17.6 3.5 19.8.9 1.1 2 2.8 2.3 3.7 1 2.8 8.1 2.4 10.8-.5 1.1-1.2 2.5-2.7 3-3.2 5.5-5.2 10.9-11.2 10.9-12.2 0-.6 3.3-2.7 7.3-4.7 6.2-3.1 8.6-3.6 17-4.2 7.9-.6 9.7-1 9.2-2.1-.3-.8-.5-1.7-.5-1.9 0-.2-.9-.4-2-.4-2.5 0-14-5.7-14-6.9 0-.5-1.8-3.2-4-6-4.1-5.1-4.9-7.5-3-8.6 1.7-1.1-.9-3.5-3.7-3.5-1.3 0-5.6 1.6-9.4 3.6-3.8 2-7.2 3.4-7.5 3.1-.9-.9 3.9-6.8 6.9-8.3 1.5-.8 2.7-2.2 2.7-3 0-1.2.5-1.4 1.8-.9 3.3 1.4 12.2 1.7 15.1.6 1.5-.7 3.3-2.3 3.9-3.7.9-1.8 1.9-2.4 4.4-2.4 3.9 0 5.1.7 6.7 3.7.8 1.6.9 2.9.1 4.2-.5 1.1-1 3.2-1 4.8 0 6.8-2.4 9.3-9.9 10.3l-4.3.5 4.1 4.7c3.4 3.8 5.3 5 11 6.7 3.8 1.2 7.5 2.1 8.3 2.1.7 0 2.2.7 3.3 1.5 1.9 1.5 1.9 1.6-.3 3.7-2 2-2.5 2.1-4.4.9-2.1-1.3-2.5-1.1-6.1 3l-3.8 4.3 4.3 2.3c6.8 3.5 9 3.1 13.1-2.6 2-2.7 5.3-6.2 7.4-7.7 2.1-1.6 4.4-3.7 5.1-4.6.7-1 1.9-1.8 2.7-1.8.7 0 3.2-1.5 5.4-3.4 2.3-1.9 5.8-4 7.9-4.7 2-.6 4.9-2 6.3-3 4.3-3 10.9-4.8 20.5-5.5 7.3-.5 9.6-.4 12.2 1 1.7.9 4.7 1.6 6.6 1.6 5.5 0 8.6 1.8 8.6 5.2 0 4.2 4.1 5.9 7.3 3.1 3-2.7 5.8-3.3 19.8-3.9l11.9-.5v2.9c0 1.7.6 3.2 1.4 3.5.8.3 1.6 1.8 1.8 3.4.2 2.2.9 2.9 3.1 3.1 1.5.2 2.7-.1 2.7-.5 0-.5.6-1.8 1.4-2.8 1.3-1.9 1.4-1.9 3.7.3 1.3 1.2 3.3 2.8 4.3 3.5 2.7 2 1.5 8.4-2 9.7-1.3.5-2.4 1.4-2.4 1.9 0 1.3 9.4 4.1 13.8 4.1 2.2 0 4 .7 5.1 2.1l1.7 2.2 2.7-2.7c2.2-2.2 3.1-2.5 5.9-1.8 1.8.4 5.8.7 8.8.7 5.4 0 5.4 0 6.5-3.7 1.5-5.4 4.1-7.5 11-9.1 8.5-1.9 8.2-4.1-.6-4.5-5.9-.3-7.5.1-14.1 3.2-5.9 2.9-8.1 3.4-11.1 2.9-3.3-.5-4.1-1.2-6.2-5.2-2.6-5.2-5.6-7.1-11.3-7.1-2.3 0-5.1-.9-7.4-2.5-2-1.4-4.1-2.5-4.6-2.5-.6 0-1.3-1.6-1.6-3.5-.7-3.7-1.5-4.1-4.5-2.5-1.4.7-2.3.4-3.6-1-1.4-1.6-2.6-1.9-5-1.4-4.2.7-5.7-2.2-2.6-4.8 2.3-1.8 2.6-3.9 1.1-6.9-.9-1.5-2.2-1.9-7-1.9-3.2 0-6.2-.5-6.5-1-.8-1.3-4.2-1.3-5 0-.4.6-.1 1.7.5 2.5s.9 1.8.7 2.3c-.3.4-.2 1.4.3 2.2 1.2 2-8.9 5.4-12.3 4.1-1.4-.6-3-.5-4.1.1-1.1.6-2.1.6-3.1-.2s-2.2-.7-5 .4c-3.4 1.4-3.9 1.4-7.4-.4-3.3-1.7-3.7-2.2-3.3-4.9.3-2 0-3.1-.8-3.1-.7 0-2.7-.7-4.6-1.6-4-1.9-9-1.3-12.7 1.6-2.8 2.2-11.7 2.9-11.7.9 0-1.8-6.5-.4-10.1 2.1-1.6 1.2-4.8 2.4-7 2.7-2.3.4-4.9 1.5-6.2 2.9-1.2 1.3-2.7 2.4-3.3 2.4-2.8 0-6.4 4.2-6.4 7.4 0 4-2.5 7.6-5.2 7.6-1.2 0-3.6-1.1-5.4-2.5-1.8-1.4-3.6-2.5-4.1-2.5-.4 0-1.4-.4-2.2-.9-1.1-.7-.6-1.8 2.8-5 4-3.8 4.6-4.1 10.1-4.1 3.4 0 6.2-.5 6.6-1.2.7-1-1.4-3.2-4-4.1-2.5-.9.7-2 5.4-1.8 4.7.1 5 0 5-2.4 0-2.1.5-2.5 2.9-2.5 1.7 0 3.3-.5 3.6-1 .4-.6 2.1-.8 4.1-.4 3.2.6 3.4.4 3.4-2 0-2.6 1.3-3.5 2.5-1.5 1.5 2.3 13-1.9 14-5.1.4-1.1 1-2 1.5-2 1.5 0 5.5-4.3 6.8-7.3 1.2-2.8 1.3-2.9 7.2-2.2 9.1 1.1 13.1 0 15.9-4 1.5-2.2 3.7-3.9 6-4.6 2.9-.9 4-1.9 5.4-5.3.9-2.2 1.7-4.9 1.7-5.9s.7-2 1.5-2.3c.8-.4 1.5-1.2 1.5-2 0-.9 1.2-1.4 3.6-1.4 1.9 0 4.3-.4 5.3-.9 2.1-1.2 9-1.4 14.4-.5 2.5.4 4.8.1 6.4-.7 2.4-1.3 9.1-1.5 26.9-.8 4.4.2 5.6-.2 9-2.9 2.2-1.7 5.5-3.5 7.4-3.8 1.9-.4 6.5-2.7 10.3-5.1 4.3-2.7 7.9-4.3 9.9-4.3 1.8 0 4.5-1.1 6.3-2.5 3.3-2.4 10.7-5.5 13.6-5.5.8 0 3-1.6 4.9-3.5 1.9-1.9 4.3-3.5 5.5-3.5 2.8 0 4.5-1.9 4.5-5 0-2.2.6-2.8 4-3.6l3.9-1.1-1.9 2.7c-1 1.4-2.2 3.9-2.6 5.6-.3 1.6-1.7 4-2.9 5.4-1.7 1.8-2.4 4.1-2.8 8-.5 6.5-9.7 28.8-14 33.9-1.5 1.8-2.7 4.3-2.7 5.5 0 2.8-1.8 4.6-4.5 4.6-3.2 0-6 6.7-5 11.7.4 2.1.9 5 1.2 6.6.3 1.5-.2 4.2-1.1 6.1-.9 1.9-1.6 3.9-1.6 4.4 0 .6 2 3.7 4.5 7 2.9 3.8 4.3 6.6 3.9 7.6-1 2.5-3 1.9-4.4-1.4-1-2.5-1.8-3-4.6-3s-3.4.4-3.4 2c0 2.8-2.5 3.5-5.5 1.6-3.2-2.1-3.5-2.1-3.5 1.1 0 5 2.2 7.8 6 7.9 1.9 0 5 .7 6.7 1.5 2.9 1.2 3.6 1.1 6.3-.5l3.1-1.7 1 3c1.4 3.9 4.2 4.1 12.7.6 3.4-1.4 7.3-2.5 8.7-2.5 3.9 0 6.5-1.8 6.5-4.4 0-1.5 9.9-17.4 24.8-39.8 13.6-20.5 25.8-40 27.1-43.3 1.3-3.3 6.1-13 10.6-21.5 10.1-19 11.7-22.6 16.6-36.4 3.9-11.1 6.8-15.4 12.1-18.2 3.2-1.7 7.1-.5 8.8 2.6 1.7 3.1 6.2 2.6 10.6-1.2 2.1-1.8 6.6-7.6 10-12.8 7-10.7 12.7-16.7 16.4-17.2 1.7-.2 3.5-1.8 5.5-5 3.6-5.6 7.4-6.5 9.3-2.3 1.2 2.5 3.2 3.4 3.2 1.4 0-.6 1-1.9 2.1-2.8 1.5-1.2 2.3-3.2 2.6-6.8.5-4.4 1.1-5.7 4.9-9.4 5.8-5.7 5.8-7.3-.1-6.4-4.2.6-4.9.4-8.2-2.5-2.9-2.6-4.1-3.1-6.7-2.6-3.3.7-6.4 3.1-5.3 4.2.4.4 1.8.2 3.2-.4 2.1-1 2.8-.9 4.3.6 1 .9 2.9 2.5 4.2 3.4 2.1 1.5 2.3 1.9 1 2.8-.8.6-2.6.8-4 .5-1.4-.3-5.8-1.2-9.9-1.9-4-.8-8-2.1-8.8-2.9-1.3-1.3-1.2-1.4 1.3-.9l2.7.5-2.2-3.1c-1.2-1.7-3-3.3-3.9-3.6-1-.4-2.6-2.3-3.5-4.4-.9-2-3.4-4.9-5.5-6.3-3.7-2.7-3.8-2.7-6.1-.8-1.3 1-3 1.9-3.9 1.9-2.2 0-10.2-4-10.2-5.1 0-.5-.9-.9-1.9-.9-1 0-2.1-.6-2.4-1.4-.3-.8-1.8-2-3.4-2.8-2-.9-3-2.3-3.3-4.5-.3-1.8-1.6-4-3.2-5.2-1.4-1.2-2.9-3.5-3.3-5.2-.4-1.6-1.7-4-2.8-5.3-1.2-1.2-3-3.2-4-4.5l-1.7-2.2-5.3 4c-3.6 2.7-5.1 4.4-4.9 5.7.6 3.4 2.1 4 5.2 2.2 1.6-.9 3.2-1.3 3.4-.9.3.4-1.1 1.3-3 2-1.8.7-3.4 1.7-3.4 2.2 0 2.2 2.1 4.9 3.3 4.2.8-.5.8-.2-.1.9-1 1.2-1 2.1-.1 4.2 1.5 3.3 2 3.3 5.9-.4 1.8-1.7 3.5-2.8 3.7-2.6.3.3-1.1 1.9-3.1 3.6-2 1.8-3.6 4-3.6 5 0 5.3-2.3 1.7-6-9.6-4.1-12.2-4.2-12.7-3.5-21.5.6-7.8.9-8.9 2.6-8.9 2.4 0 2.6 4.7.4 7.6-1.4 1.8-2.1 6.4-.9 6.4.3 0 2.6-1.4 5.1-3.1 3.5-2.4 4.4-3.6 4-5.3-.3-1.1-.9-6-1.2-10.8-1-11.6-1.7-11.9-12.7-4.4-3.4 2.3-7 5.9-8.9 8.8-1.7 2.7-5.3 6.8-8 9.1-3.4 3-5 5.2-5.2 7.2-.5 4.1-3.3 9.2-7.8 14.4-2.2 2.4-3.9 4.9-3.9 5.6 0 .7-2.9 4.7-6.4 8.9-6.4 7.7-6.4 7.8-7.1 15.4-.9 11.6-1.3 12.5-6.1 18.2-2.4 2.8-4.4 5.6-4.4 6.1s-1.6 2.7-3.5 4.8c-2.8 3.1-3.7 5.1-4.2 9.2-.6 4.9-1.2 5.8-7.2 11.9-11.5 11.4-12.1 11.7-24.6 12.9-6.1.6-14.6 1.5-19 2.1-4.4.6-11 1.4-14.7 1.8-4.7.6-7.4 1.4-9 2.9-1.3 1.2-4.4 2.7-7 3.3-2.9.8-6.5 2.7-9 4.9-2.4 2.1-7.2 5.7-10.8 8.1-3.6 2.4-9.6 7-13.5 10.1-7.3 5.9-16.4 11.5-30 18.4-4.4 2.2-9.6 5.7-11.6 7.8-2.1 2-4.5 3.7-5.4 3.7-1 0-3.3 1-5.2 2.1-3.2 2-4.3 2.1-14.5 1.5-9.4-.6-12.5-1.3-19.7-4.2-4.7-1.9-10.8-4.8-13.6-6.3-16.6-9.7-25.4-13.9-29.8-14.6l-4.7-.6-8.3 7.6-8.2 7.6-7-.6c-3.8-.4-8.5-1.3-10.4-2.1-1.8-.8-4.6-1.4-6.1-1.4s-3.3-.7-4-1.5c-.7-.8-2.6-1.5-4.2-1.5s-4.6-.9-6.6-1.9c-2.1-1.1-5.6-2.3-7.7-2.7-2.2-.3-5.6-1.5-7.5-2.4-1.9-1-7.3-3.2-12-5-4.7-1.8-10.2-4.5-12.2-6.1-2-1.6-4.3-2.9-5.1-2.9-1.6 0-2.7 4.2-2.7 10.6 0 3.6-.3 4.2-1.6 3.7s-1.5-1.5-.9-4.9c.7-4.8 1-4.6-11-5.9-7.4-.9-11.3-2.8-12.1-6-.8-3.2-19.2-18.8-26-21.9-1.7-.8-5-4-7.4-7.1-2.4-3.1-5.8-6.9-7.6-8.3-1.7-1.5-3.9-4.1-4.8-5.9-.9-1.8-4.3-5-7.5-7.2s-6.8-5.5-7.9-7.3c-5-7.8-7.3-10.8-8.2-10.8-.6 0-1-.5-1-1 0-.6-2.5-3.5-5.5-6.5-3-2.9-6.4-7.3-7.4-9.8-1.1-2.5-2.8-4.8-3.8-5.1-1-.4-3.3-3.8-5.1-7.7-1.9-3.8-4.2-7.4-5.3-8-1-.5-1.9-1.4-1.9-1.9s-1.8-3.8-4-7.2c-2.2-3.5-4-6.9-4-7.6 0-.7-1.6-2.9-3.5-4.9-1.9-1.9-3.9-5-4.5-6.9-.7-1.9-1.5-3.4-1.9-3.4-1.2 0-9.1-8.2-9.1-9.5 0-.7-2.3-4.5-5.2-8.6-2.9-4.1-6.8-10.2-8.8-13.6-4.1-7-7.3-9.9-14.8-13.7-3.1-1.6-6.1-4-7-5.7-.9-1.6-2.1-2.9-2.5-2.9-1.3 0-11.6-11.4-13.6-14.9-2.9-5.3-12.4-16.1-14.2-16.1-1 0-2.4-.9-3.2-2-.7-1-3.8-3.4-6.8-5.2-3-1.8-6.8-4.3-8.4-5.4-5.1-3.6-13.3-7.4-16.1-7.4-1.4 0-5.2-1.6-8.3-3.5-3.2-1.9-7.6-3.7-9.8-4.1-2.5-.4-5-1.6-6.2-3-1.2-1.3-2.5-2.4-3.1-2.4-.5 0-1.8-1.7-2.9-3.8-1.1-2.1-2.7-4.5-3.7-5.3-2.2-1.8-6.4-10.7-6.4-13.7 0-5.6-3-12.7-6.5-15.2-1.9-1.4-4.5-4.4-5.7-6.8-2.4-4.5-15.2-15.2-18.2-15.2-.8 0-2.1-.9-2.8-2-.7-1.1-1.8-2-2.4-2-.7 0-1.9-1.1-2.7-2.3-.9-1.4-4.1-3.4-7.4-4.6-7.7-2.9-9.1-4.1-9.5-8.1-.2-2.7-.5-3.1-1.4-1.9zM878 440c0 .5-.3 1-.7 1-.5 0-1.9.3-3.3.6-2.4.5-2.4.5-.6-1 2.2-1.8 4.6-2.1 4.6-.6zm128.9-166.5c-10.5 3.8-23.4 12.2-32.8 21.4-2.5 2.4-6.8 5.5-9.6 6.8-13.1 6.3-28.5 16.5-28.5 18.9 0 .7 1.3 2.2 2.8 3.3 2.4 1.7 2.7 2.5 2.4 5.5-.4 3.3-.2 3.6 2.1 3.6 1.3 0 3-.6 3.6-1.4 1-1.1.8-1.6-.8-2.1-2.5-.8-2.8-3.3-.5-4.2.9-.3 2.6.5 4.3 2.1 1.5 1.4 3.1 2.6 3.5 2.6.4 0 2.2 1 3.9 2.3 4.1 2.9 9.1 4.7 11.7 4 1.5-.4 2-1.4 2-3.7 0-2.8.5-3.4 3.6-4.5 1.9-.7 4-2.3 4.5-3.5 2-4.2 6-5.5 26.9-8.6 7.6-1.1 10.8-2.9 13.3-7.5 2.2-4.2 4.7-16.4 4.7-23.7v-7.7l-3.7-2.6c-4.1-2.8-7.9-3.1-13.4-1zM907 340.9c-.8.4-2.4 1.3-3.5 1.8-1.2.6-4.9 1.4-8.3 1.8-5.8.7-6.3.9-7.6 4-1.1 2.7-2.1 3.3-5.5 3.9-2.2.3-4.1 1.1-4.1 1.6 0 .6-1.3 1-2.9 1-2.6 0-3.3.7-6.1 6.3-4.9 10-4.1 18.4 2 20.5 2.7 1 6.3.1 7.5-1.8.4-.6 1.6-.8 2.7-.4 2.5.8 3.8-1 3.8-5.4 0-2.8.5-3.4 4-4.8 3-1.2 4-2.2 4-3.9 0-1.2.9-3 1.9-3.9 2.4-2.2 3.4-5.6 1.6-5.6-.8 0-1.8.7-2.3 1.6-1.3 2.4-3.2.8-3.2-2.6 0-2.6.4-2.9 4.6-3.8 4-.9 4.9-.7 6.5.9 2.4 2.4 4.4 2.4 6.9-.1 1.1-1.1 2-2.7 2-3.5 0-2 3.7-1.9 4.8.1.5.9 3.1 2 6 2.6 4.4.8 6.4.5 13.2-1.7 4.5-1.4 8.9-2.5 9.8-2.5.9 0 2.3-.4 3.1-.9 1.1-.7.7-1.2-1.5-2.3-2.4-1.2-3.3-1.3-5.4-.2-1.4.8-3.4 1.4-4.5 1.4s-3.1.7-4.5 1.5c-3 1.7-12.3 2-15.2.4-1.4-.8-1.8-1.7-1.4-3.4.5-1.9.1-2.3-2.5-2.9-3.7-.7-4-.7-5.9.3zm61.3 18.8c-1.5.6-1.7 4.3-.3 4.3 1.2 0 2.4-2.5 1.8-3.8-.1-.5-.9-.7-1.5-.5zm-6.7 9.9c-.4.9-.4 1.9-.1 2.3.8.7 3.8-1.2 4.3-2.7.6-1.9-3.5-1.4-4.2.4zm-9.1 4.4c-1.1.5-5.4.9-9.5.9-11 .2-11.6.4-12.7 6.2-1.1 5.4-1.4 4.9 7.4 11.7 2.4 1.9 4.4 2.8 4.8 2.2.4-.6 2.4-1.9 4.6-3 2.1-1.1 3.9-2.7 3.9-3.6 0-.9 2-3.8 4.4-6.6 6-6.9 4.5-11-2.9-7.8z"/>
    <path d="M904.3 391.2c-1 1.3-4.1 6.7-6.7 12-4.3 8.6-4.8 10.2-4.2 14 .8 5.3 6.2 11.9 17.1 20.8 4.1 3.3 7.6 6.9 8 7.9.5 1.7.9 1.6 4.1-1.3 5.6-4.9 6.7-7.8 6-15.8-.8-7.9.4-12.8 4.5-17.3 2.7-3.1 4.3-9.6 3-12.8-.6-1.6-1-1.4-3 1.4-1.3 1.7-2.7 4.3-3.1 5.8l-.8 2.6-.1-2.6c-.1-1.4.5-3.4 1.3-4.4 1.1-1.5 1.1-2.4.1-4.8s-2.6-3.5-7.6-5.3c-8.5-3.1-15.9-3.2-18.6-.2zM23.7 587.7c-1.2 1.2-.7 3.4 1.3 6 1.2 1.6 2 4.1 2 6.5 0 4.3 2.6 9.8 4.7 9.8 1.7 0 1.6-1.5-.1-4.3-.8-1.2-1.7-4.4-2.1-7-.4-2.8-1.5-5.7-2.6-6.8-1.2-1.2-1.8-2.7-1.5-3.5.6-1.4-.5-1.9-1.7-.7zm138.9 4.4c-1.3 6.6-.7 9.9 2.3 12.9 1.6 1.6 3.8 4.7 5 7 1.9 3.6 1.9 4.3.7 6.3-1.4 2-1.2 2.6 2.1 6.9 2.5 3.5 4.2 4.8 5.9 4.8 2.2 0 2.3-.3 1.4-2-.6-1.1-1.7-2-2.5-2-1.4 0-2.1-2.2-1.5-4.5.2-.6.5-2.8.7-5.1.3-3.3-.1-4.5-2.2-6.4-1.6-1.5-2.5-3.4-2.5-5.3 0-2.4-.3-2.7-1.4-1.8-1.7 1.4-3.2-.3-2.8-3.1.2-1-.2-2.7-.8-3.8-.9-1.6-.8-2.5 0-3.5 1.5-1.8.5-3.5-1.9-3.5-1.3 0-2.1 1-2.5 3.1zM35.7 607.7c-.9 2.1-2.2 4.9-3 6.3-.8 1.4-2.2 5.6-3.1 9.4-1.7 7.6-.8 11.7 2.7 12.4 1.5.3 1.7-.5 1.7-6.1 0-4.5.8-8.8 2.8-14.3 2.6-7.4 3.1-11.4 1.3-11.4-.4 0-1.5 1.7-2.4 3.7zm105.4-.8c-1.1.7-1 1.1.7 2 1.1.6 2.8 1.1 3.8 1.1 1.6 0 1.6-.1-.1-2-2-2.2-2.4-2.3-4.4-1.1zm-74.4.9c-1.5.3-1.7 1.2-1.5 4.5.4 5.4 2.1 5.1 3-.4.9-4.8.9-4.7-1.5-4.1zm72.9 5.1c-.7 1.1 2.2 2.3 3.5 1.5.5-.3.7-1 .4-1.5-.8-1.2-3.2-1.2-3.9 0zm.7 4.8c-.7 1.7 2.8 5.3 5.2 5.3.8 0 1.1.8.8 2-.3 1.3.1 2.2 1.1 2.6 1.2.5 1.4 1 .6 1.9-1.2 1.4 1.5 2.5 6.3 2.5 2.6 0 3.8-2.2 1.8-3.5-.5-.3-1.2-1.9-1.6-3.5-.4-1.7-1.3-3-2-3-.8 0-1.5-1-1.7-2.3-.2-1.8-.9-2.2-3.5-2-1.8.2-3.5-.2-3.8-.7-.9-1.5-2.5-1.2-3.2.7zm27 10.9c-.3.9 0 1.9.7 2.4.9.5.9 1.3.2 2.6-1.1 2 .5 5.4 2.5 5.4 2.8 0 3-9.5.4-11-2.6-1.3-3.1-1.3-3.8.6zm-114.6 7.1c-1.3 1.2-.7 5.4.9 6 .8.3 2.3-.1 3.2-1 1.4-1.5 1.4-1.8-.3-3.7-1.9-2.1-2.8-2.4-3.8-1.3zm138.3 7.1c0 1.1.7 2.5 1.5 3.2.8.7 1.5 1.9 1.5 2.6 0 .8.9 2.3 2.1 3.5 2.3 2.3 6.9 10.6 6.9 12.5 0 1.5 3.8 4.4 5.7 4.4 2 0 1.6-1-3.4-9.4-8.9-14.6-10.2-16.5-12.4-17.7-1.6-.8-1.9-.6-1.9.9zm-158.4 6.7c-1.6 3-3.2 5.5-3.6 5.5-1.4 0-8 10.8-8 13.2 0 2 .5 2.5 2.2 2.4 1.8-.1 2.4-.9 3-4.3.6-4 6-13.3 7.6-13.3.4 0 1.4-1.3 2.4-2.9 1.3-2.3 1.4-3.3.5-4.5-1-1.4-1.6-.8-4.1 3.9zm32.8 1.3c-.6.4-1.3 1.5-1.7 2.4-.3 1-1.3 1.8-2.1 1.8-2.1 0-5.6 5.3-5.6 8.4 0 1.5-.7 3.8-1.6 5.1-2.2 3.4-5.4 16.8-4.3 17.9.5.6 1.5-.4 2.4-2.5 2.2-4.6 3.5-6.8 6.8-11 1.5-2 2.7-4.1 2.7-4.6 0-.6 1-1.8 2.3-2.6 1.8-1.3 1.9-1.6.5-1.6-2.2-.1-2.3-2.4-.3-4.1.8-.7 1.5-2.7 1.5-4.4 0-1.8.5-3.7 1.2-4.4 1.3-1.3 0-1.6-1.8-.4zm592.9 1.8c-.3.8-.1 2 .6 2.7 2.2 2.2 1.2 3.7-2.5 3.7-4.5 0-10.4 2.7-10.4 4.8 0 .8.7 2.3 1.6 3.3 1.5 1.7 1.5 2.1-.5 5.2l-2.1 3.4 4.2.6c3.4.5 4.7.2 6.4-1.4 1.2-1.2 3.4-1.9 5.7-1.9 3.6 0 7.7-2.7 7.7-5.1 0-.6-1-4.2-2.2-7.9-1.6-5-2.9-7.2-4.6-7.9-3-1.4-3.2-1.4-3.9.5zm-423 5.9c-.4 1.1.3 2.5 1.9 3.8 1.4 1.2 3.1 3.7 3.8 5.4.8 2.1 1.9 3.3 3.1 3.3 3.3 0 3-1.9-1.2-7.2-4.9-6.3-6.7-7.5-7.6-5.3zm-207.8 9.6c-.8 2.3.7 4.5 2.4 3.5.6-.4 1.1-1.8 1.1-3.2 0-3-2.6-3.2-3.5-.3zm248.5.2c0 2.2 6 13.7 7.2 13.7 1.5 0 .1-4.6-2.9-9.7-2.7-4.7-4.3-6.2-4.3-4zm-66 5.1c0 1.9 5.1 3.1 6.1 1.5 1.2-1.9.1-2.9-3.2-2.9-1.8 0-2.9.5-2.9 1.4zm527.5.6c-.4.6-.3 1.9 0 3.1.5 1.6 1.4 1.9 3.8 1.7 2-.2 3.2-.9 3.2-1.7 0-1.8-6.1-4.5-7-3.1zm-715.4 4c-1.5 4.4-1.4 9 .2 9 1.7 0 3.9-3.7 2.6-4.5-.5-.4-.7-1.5-.4-2.6.4-1 .2-2.6-.3-3.5-.8-1.4-1.1-1.1-2.1 1.6zm146.9 7c0 1.7 9 10 10.8 10 2.6 0 7.2 7.5 7.2 11.6 0 1.9.5 3.4 1 3.4.6 0 1 .6 1 1.3 0 .8 1.7 2.7 3.8 4.4l3.7 3-.1-10.2c0-11.3-1.3-14.4-6.9-16.5-1.6-.6-4.8-2-7-3-11.6-5.2-13.5-5.8-13.5-4zm30.6 17c.9 6.8.9 6.9 4.6 6.1 2.7-.6 3.3-1.2 3.3-3.1 0-1.9-.6-2.6-2.5-2.8-1.4-.2-3.3-1.3-4.3-2.5-1.7-2.2-1.7-2.1-1.1 2.3zm78.8 12.5c.3.9.6 2.1.6 2.6s1.6 2.5 3.6 4.5c3.4 3.2 6.7 5.1 12.3 6.9 2.1.6 2.1.5.9-1.5-.7-1.2-2.8-2.8-4.6-3.5-2.9-1.3-3.2-1.7-2.2-3.5s.8-2-1.9-2c-2.3 0-3-.5-3.3-2.3-.2-1.6-1.1-2.3-3.2-2.5-2.3-.3-2.8 0-2.2 1.3z"/>
</svg>
