<svg version="1.0" xmlns="http://www.w3.org/2000/svg" class="fill-current"  width="1365.333" height="1365.333" viewBox="0 0 1024 1024">
    <path d="M94.5 52c-2.5 1.6-3.1 2.8-3.6 7.2-.3 2.9-.2 5.7.2 6.2.5.6.9 2.3.9 3.8 0 2.4-.4 2.8-2.9 2.8-1.6 0-3.4.7-4.1 1.5-1.5 1.8-.5 6.5 1.5 6.5.8 0 3.5.7 6 1.5 4.2 1.5 4.8 1.5 7.6-.2 1.8-1.1 3.9-3.9 5.5-7.3 2.2-4.6 2.5-6.5 2.1-11.5-.5-5.3-1-6.4-4.1-9.2-4.2-3.8-5.1-4-9.1-1.3zM24.7 93.1c-.9.6-1.7 1.9-1.7 2.9 0 1.6-.7 2-3.7 2-2 0-4.5-.8-5.5-1.7-1.6-1.4-2.2-1.5-3.6-.5-.9.7-2.8 1.7-4.2 2.2-1.4.6-3.2 1.4-4 1.9-1.7.9-2.6 6-1.3 7 .4.3 1.3 1.5 1.9 2.6.7 1.2 2.6 2.2 4.7 2.6 2 .3 4.2 1 4.9 1.6.7.6 3.7 1.6 6.7 2.2 5.3 1.1 5.6 1.1 9-1.7 2.2-1.8 3.7-4 3.9-5.6.2-1.6 2.1-4.5 4.3-6.7 2.1-2.1 3.9-4.3 3.9-4.9 0-1.5-3.5-3-7-3-1.7 0-3.9-.4-4.8-.9-1.1-.6-2.4-.6-3.5 0zm191 23.6c-.3.5-.8 4.8-1.2 9.6l-.7 8.9-5.2-.7c-12.5-1.5-12.4-1.4-14.4-5.3-1.4-2.8-2.5-3.7-4.3-3.6-1.3.1-3-.7-3.7-1.7-1.5-2.2-5.6-1.7-8.4 1-1.3 1.3-1.5 2.8-.9 8.9.9 9.2 3 11.7 9.9 11.7 3.6 0 4.7.4 5 1.7.3 1.4-.3 1.8-2.3 1.8-1.5 0-4 .8-5.5 1.7-2.6 1.5-3.3 1.5-8.4.1-3.1-.8-5.8-1.3-6.1-1-1.4 1.4-.4 7.3 1.5 8.4 1.1.7 2 2 2 2.9 0 2 2 2.9 6.1 2.9 1.6 0 2.9.4 2.9 1 0 .5-1.1 1-2.5 1-2 0-2.5.5-2.5 2.5 0 3.3-3.5 5.2-5.8 3.2-2.6-2.3-9.9-4.6-11.1-3.4-1.3 1.3 2.6 8.6 5.4 9.9 1.2.5 3.5 3.3 5.1 6.1 2.3 4 3.8 5.4 6.4 6.2 6.7 1.9 7.8 3.9 3.3 5.6-5.8 2.2-9.1 9.1-5.7 11.9.8.8 2 2.2 2.6 3.3 1 1.9.8 2-5.3 1.4-3.4-.4-7-1.4-8-2.3-2.4-2.1-3.3-.3-2.4 5.2.6 4 .4 4.7-2.4 7.5-2.5 2.4-2.9 3.5-2.4 5.9.5 2.7.3 3-1.8 3-4.7 0-5.4 1.2-4.1 7.7 2 9.3 2.1 8.8-1.6 8.5-2.6-.3-4.6.7-10.4 4.9-7 5-7.2 5.1-10.6 3.9-2.9-1-3.6-1-4.3.1-2.4 3.9-2.4 3.9-7.5 3-4.5-.9-5.1-.8-7.5 1.5-1.4 1.3-2.8 2.1-3.2 1.8-.3-.4-2.3.1-4.3 1.1l-3.6 1.7.5 10.1.5 10.1 3.3 2.3c1.8 1.3 4.8 2.8 6.6 3.4 3.1 1 3.3 1.4 3.3 5.4 0 4.7 2.5 11.6 4.6 12.8.8.4 1.4 2 1.4 3.6 0 1.9 1.4 4.2 4.9 7.7 2.6 2.7 5.2 6 5.6 7.4 1.1 3.8 5.5 7.9 9 8.6l3.2.6-.5 6.9c-.5 7.6 1 11.2 5.3 12.9 1.5.6 2.7 2 3.1 3.7.9 4.4 3.4 10.6 4.9 12.3.9 1 1.1 3.2.8 6.8-.6 5.2-.7 5.3-3.2 4.7-1.4-.4-2.6-.7-2.6-.8 0-.1-.6-1.8-1.4-3.7-.7-1.9-1.6-4.8-1.8-6.3-.3-1.6-1.6-3.5-2.9-4.4-1.3-.8-2.4-2.4-2.4-3.4s-.4-2.1-1-2.4c-.5-.3-1-1.7-1-3 0-1.4-.9-2.9-2-3.5-2.6-1.4-6.1-.4-5.4 1.5.4.8-.3 1.5-1.7 1.7-1.6.2-2.5 1.3-3.1 3.6-.5 1.8-1.5 3.5-2.2 3.8-.8.3-3.5-1.6-6.2-4.2l-4.8-4.6-2.1 2.7c-1.1 1.5-3.7 4.4-5.7 6.4-3.9 3.7-4.6 5.9-2.8 7.7.7.7.8 1.9.1 3.6-.8 2.1-.6 2.9 1 4.4 2.7 2.5 2.4 4.2-1.4 6.4l-3.4 2 1.9 5.8c1.1 3.1 3.6 8.2 5.6 11.2 2 3 4.7 7.2 6 9.3 1.7 2.5 3.7 4.1 6.3 4.8 3 .9 3.6 1.5 2.9 2.8-.4.9-1.5 3.8-2.3 6.6-1.1 4-1.6 4.6-2.2 3-2-5.7-4.3-8.9-6.7-9.9-1.6-.6-2.8-1.8-2.8-2.8 0-2.6-2.1-6.6-3.7-7.2-1.9-.8-3.3.1-4.1 2.5-.7 1.8-1.1 1.6-4.5-1.6-6.3-5.9-10.1-3.8-9.7 5.3.4 7.7.2 8.2-2.6 8.2-2.4 0-2.6.3-2.2 4.2.3 3.8 0 4.3-1.9 4.6-1.7.2-2.3 1-2.3 2.7 0 1.3-.5 2.5-1.1 2.7-.5.2-1.1 1.9-1.1 3.7-.1 2.6.6 4.1 2.9 6.1 2 1.8 2.8 3.2 2.3 4.1-.5.8-.2 2.8.5 4.5 1.6 3.8 5.7 4.9 14.1 3.8 4.5-.5 5.4-.4 5.4.9 0 .9-1.2 2.2-2.8 2.9-3.8 1.8-6.2 9.2-3.8 11.6 1.5 1.5 2.1 1.5 8.3-.3 10.7-2.9 13.9-3.1 15.5-.6 1.1 1.7 2.3 2.1 7.1 2.1 3.2 0 7.4-.7 9.4-1.5 1.9-.8 4.3-1.5 5.1-1.5 3.6 0-2.5 3.8-9.8 6.1-7.6 2.3-11.8 2.7-17.8 1.4-3-.7-3.2-.5-3.8 2.4-.4 1.7-1.3 3.6-2 4.2-2.9 2.4-1.6 5.7 4.1 9.9 3 2.2 5.9 4 6.5 4 .5 0 1 .7 1 1.5 0 1.8 8.9 4.6 11.1 3.4 1.9-1 2.9-.2 2.9 2.2 0 3.3 7.8 3.9 10.6.8 3.3-3.7 10.1-7.9 12.8-7.9 1.3 0 3.7-.5 5.3-1.1 8.8-3.5 13.9-2.5 7.8 1.6-1.8 1.3-4.3 2.6-5.6 3-1.3.4-4.4 2.2-6.9 3.9-2.6 1.8-6.7 4-9.3 5-5.3 2-6.1 4.5-2.6 8.2 1.7 1.8 2.8 2.1 6 1.7l3.9-.6v3.9c0 5.5-1 6.6-5.6 6.2-2.9-.2-4.2-.9-4.9-2.6-1.7-3.8-7.5-2-7.5 2.3 0 3.6-2.7 2.1-3.4-2-.6-2.8-1.7-3.9-7.4-7.2-6.5-3.7-7-3.9-15.7-3.8h-9l.3 2.5c.2 1.4.5 5.8.7 9.9.5 8 1.1 9.3 5.5 11.1 3.2 1.3 4.1 4.6 1.6 5.6-2.6 1-5.5-1.6-7.3-6.5-.9-2.6-2.7-6.1-3.9-7.7-2.1-2.5-2.4-2.6-3-1-.4 1-.2 2.7.5 3.8.7 1.1 1.1 2.1.9 2.2-.2.1-1.5.7-3 1.4-2.5 1-2.8 1.7-2.8 6.1 0 2.7.4 5.2 1 5.6.5.3.9 1.8 1 3.3.1 6.8 1.3 14.8 2.4 15.4.6.4 2.4.8 4 .8 2.7 0 2.8.2 2.2 3.1-.3 1.8-.1 3.8.5 4.5 1.3 1.6 4.9 1.9 4.9.4 0-.6.6-1 1.4-1 .8 0 3.2 3.3 5.3 7.2 2.5 4.7 4.9 7.8 6.7 8.6 3.4 1.7 3.8 1.3 4.5-4.1.5-3.7.9-4.2 3.3-4.5 2.6-.3 9.8 2.4 9.8 3.7 0 .3-2.9 1.9-6.5 3.6-3.6 1.6-6.4 3.4-6.2 3.9.2.5 2.2 1.6 4.5 2.5 4 1.4 4.2 1.4 6.7-.9l2.5-2.3v2.6c0 3.2-.7 3.7-7.8 4.7-8.6 1.2-10.9 2.5-12.7 6.6-1.4 3.4-1.4 3.9.1 5.5 1.1 1.2 1.4 2.7 1 4.3-.5 2.1.1 3 4 5.7 3.9 2.6 5 3 6.5 2 2.6-1.5 2.6-1.5 3.3 2.1 1.3 7.1 11.1 11 20.6 8.2 6.1-1.8 8-3.7 8-7.7 0-1.7 1-5.5 2.1-8.3 1.7-4 2.8-5.3 4.8-5.7 1.4-.3 3.8-.9 5.3-1.3 2.4-.5 2.9-.2 3.8 2.1 1.4 3.7.6 5.7-3.1 7.9-4.9 2.9-6.9 5.3-6.9 8.5 0 3.7 1.5 4.9 7 5.3l4.5.4-3 1.3c-3.1 1.3-10.6 2.9-18.6 3.8-2.7.3-6.7-.1-9.5-1-4.3-1.3-5.4-1.3-7.5-.1-1.3.7-3.4 1.3-4.6 1.4-1.3 0-2.4.8-2.8 2.1-.4 1.1-2.5 2.8-5 3.9-5.7 2.4-8.9 7.6-8 12.8.5 3.1.2 4.1-1.4 5.7-3.4 3-2.7 7 2.5 13.6 4.1 5.1 5.1 5.9 8 5.9 2.9 0 3.4-.3 3.4-2.4 0-1.7 1.4-3.4 4.8-5.9 2.6-1.9 6.8-5.1 9.4-7.2 5.3-4.2 8.1-4.3 8.6-.3.4 3.4-3 5.8-8.3 5.8-3 0-4.7.6-6.2 2.2-2.7 3-3.8 9.1-2.1 11.7 1 1.6 1 2.3 0 3.3-2.2 2.2-1.3 3.8 2.2 3.8 2.1 0 4.5.9 6.3 2.4 3 2.5 6.7 4.6 8 4.6.4 0 2.4-2.9 4.3-6.5s3.8-6.5 4.3-6.5c1.6 0 .5 4.3-2.4 9-3 4.9-3.1 5.3-1.9 9.6.7 2.4 1.8 4.8 2.5 5.2 2.3 1.3 2.2 4.6-.2 7.9-1.9 2.6-2.2 3.7-1.3 5.3.6 1.1 1.9 2 2.9 2 2.3 0 3 1.7 2.2 4.9-.5 1.8-2.2 2.9-7.4 4.9-5.4 2-7.6 3.5-10.9 7.3-2.2 2.7-5.6 5.8-7.4 6.9-1.9 1-3.4 2.6-3.4 3.5 0 .8-.8 1.5-1.7 1.5-1 0-3.9.7-6.5 1.7-4.1 1.4-4.5 1.8-3.5 3.4.9 1.4.8 2.5-.4 4.6-3.3 6 .1 9.3 9.6 9.3 5.6 0 6.7.8 4.1 3-.8.6-1.6 2.1-1.8 3.3-.2 1.4-1.1 2.3-2.6 2.5-1.2.2-2.9 1.4-3.8 2.7-1.4 2.1-1.4 2.6.1 5.5.9 1.7 2.3 3.4 3.1 3.7 2.1.8 1.7 3.3-1.1 5.9-1.4 1.3-2.5 3.3-2.5 4.4 0 1.7-.4 2-2 1.5-2.5-.8-5.1 1.1-4.3 3.1.3.8 0 2.8-.7 4.4-1 2.4-1 3.3 0 4.5 1.5 1.9 1.4 2-4.1 4.8-4.3 2.1-4.4 2.4-4.9 7.7-.4 4.5-1.4 6.7-5 11.9-2.5 3.5-5.7 7.7-7.2 9.4-1.6 1.6-2.8 3.4-2.8 4.1 0 1.1 3.3 10.4 5 14.1.5 1.1 1 3.1 1.2 4.5.2 1.7.9 2.5 2 2.4 1.2-.1 2.1 1 2.8 3.5 1.5 5.4 1.2 7-1.4 9.4-1.3 1.2-3.1 3.7-4 5.4-1.8 3.5-2.7 3.9-5.6 2.3-2.5-1.3-6.6 2.1-7.6 6.3-.3 1.7-1.3 4.1-2 5.2-2.3 3.3-1.6 5 4.2 10.5 4.7 4.4 5.9 5.1 8.4 4.7 2.5-.5 2.7-.4 2.3 1.6-.3 1.2-1.1 2.7-1.7 3.2-.6.6-1.9 2.4-2.8 4.1l-1.8 3.2 4 2.7c3.2 2.2 3.8 3.1 3 4.5-.8 1.5-.3 2.2 2.5 3.9 3.9 2.3 4.3 3.5 1.8 5-3.8 2.2-4.3 2.8-3.8 4.3.5 1.3 1.3 1.4 4.3.6 5.8-1.4 13.1-1.8 13.7-.8 1.4 2.3 6.1.8 11.8-3.8 1.6-1.2 3.5-2.2 4.3-2.2.8 0 2.4-1 3.5-2.1 1.9-1.9 2.8-2.1 9.1-1.5 4.8.5 8 1.5 10.5 3.2 2 1.3 4.5 2.4 5.7 2.4 1.2 0 3.4.7 5 1.5 1.5.8 3.5 1.5 4.3 1.5 2.4 0 9-5.8 9.7-8.5.5-1.8 1.3-2.5 3.2-2.5 1.3 0 2.7.7 3 1.5.4 1 2.1 1.4 5.7 1.4 2.9 0 7.8.1 11.1.3 5.3.3 6.2 0 9.4-2.8 3-2.6 4-2.9 5.5-2 2.1 1.3 3.8-.6 3.4-3.9-.2-1.8.5-2 7.2-2.3 6.6-.3 7.8-.6 10.8-3.2 1.9-1.7 3.9-3 4.5-3 .7 0 2.5-1.2 4-2.7 1.6-1.5 5.5-3.7 8.6-4.8l5.7-2-.3-8.1c-.3-5 .1-9 .8-10.4 1-1.9.8-2.5-1.1-4.3l-2.2-2.1 2.5-.8c1.9-.7 2.5-1.4 2.1-2.9-.3-1 0-3.2.6-4.7 1.4-3.2-.3-8.5-3.8-11.6-1.1-1-2.3-3.2-2.6-4.8-.4-1.8-1.5-3.2-2.6-3.5-1.2-.3-1.9-1.4-1.9-2.8 0-1.2-.9-3.4-2-4.8s-2-3.4-2-4.4c0-1-.9-3.5-2-5.6-2.2-4.1-2.2-4.6-1.6-15.6.3-4.1.2-8-.2-8.5-.4-.6-.5-3.6-.3-6.7.1-3.3-.2-6-.8-6.3-1.3-.9-.3-6.6 1.6-8.8 2-2.3 5-2.9 6.4-1.2.6.8 2.5 1.4 4.1 1.4 3.1 0 4.8 2.4 2.9 4.3-.6.6-1.1 1.9-1.1 2.8 0 .9-.7 2.3-1.6 3-1.1.9-1.4 2.3-1.1 4.6.3 1.8.1 4.7-.5 6.4-.8 2.4-.7 3.8.7 6.9 1.1 2.5 1.5 5 1.1 7.2-.3 1.9 0 5 .9 7.3.8 2.2 1.4 5.4 1.5 7.1 0 2.6.6 3.4 3.9 4.9 2.2.9 4.3 1.5 4.8 1.2.4-.2 1.8-.1 3.1.4 1.8.7 2.2 1.4 1.7 3-.5 1.6 0 2.7 1.8 4.3l2.6 2.1-2.4 5.5c-3 6.9-3 7.4-.1 8.8 2.2 1 3.2.6 8.1-2.6 6.5-4.3 7.6-6.9 4.5-10.9-2.1-2.7-2.1-2.7-.2-4.3 2.9-2.2 3.6-5.7 1.9-8.4l-1.5-2.2 5.8.2c5.5.3 5.8.2 6.5-2.4.4-1.8.2-3-.9-3.8-1.4-1-.7-1.5 4.4-3.4 4.6-1.7 5.9-2.7 5.6-3.9-.3-.9-.8-2.8-1.1-4.3-.6-2.2-1.3-2.7-4.8-3-2.6-.3-4.8 0-5.7.8-.8.7-3.6 1.8-6.1 2.4-4.3 1.1-5.1 1-9.8-1.4-4.6-2.4-5.1-3-5.1-6 0-1.9.7-3.9 1.6-4.7 1.4-1.1 1.8-1 3 .6.8 1 1.4 2.5 1.4 3.2 0 2.5 4.7 3.4 8.7 1.8 1.9-.8 4.6-1.5 5.8-1.5 3.4 0 5.9-6.5 3.8-9.7-1.2-1.8-1.3-2.8-.2-5.8 1.2-3.1 1.1-4-.6-7.3-2.3-4.3-4.6-6.4-9.6-9-2-1-5.7-4.2-8.4-7.2-4.2-4.7-4.5-5.4-2.9-6.3 1.4-.8 2.1-.4 3.6 1.7 1.1 1.4 2.6 2.6 3.3 2.6.8 0 1.5.9 1.7 2.1.2 1.1 1.5 2.8 3 3.7 2.5 1.5 2.8 1.5 4.7-.3 2.1-1.8 2.1-1.8 2.1.2 0 2.2 3.1 5.4 7.7 7.7 3.2 1.6 4 3.1 6.7 13.8.9 3.6 1.2 6.8.7 8.5-1.2 4 .4 7.6 2.8 6.8 1.1-.3 3.4.1 5 .9 1.7.9 4 1.6 5.1 1.6 2 0 2.1-.4 1.7-6.2-.9-10-1.8-13.9-3.6-14.6-2.3-.9-5.1-4.5-4.6-5.9.2-.6-.3-1.7-1.1-2.3-2-1.8-1.7-4 .6-4s2.5-1.5.8-7c-1.4-4.2-3.6-5.2-5.8-2.5-2.2 2.6-10 1.4-12.2-1.9-.4-.6-.8-2.1-.8-3.3 0-1.3-1.7-3.6-4.5-5.9-4.9-4-5.6-5.4-2.5-5.4 2.6 0 11 8.5 11 11.1 0 1.2.9 2.1 2.6 2.5 3.1.8 4.4-.7 4.4-5.3 0-1.7.4-3.4.9-3.7 1.5-1 1.9-5.5.5-6.7-.8-.6-1.4-1.9-1.4-2.9 0-2.4-4.8-4-12.2-4-5 0-6.9-.6-12.3-3.7-4.1-2.3-7-4.8-8.2-7-1.8-3.4-4-4.1-7.4-2.3-1.9 1.1-2.5.4-1.1-1.6 1.2-1.8 5-3.4 6.6-2.8.8.3 2.4 2.2 3.6 4.1 1.3 2.2 3.5 4 6 5 2.2.9 4.2 2.4 4.5 3.4.6 1.7 1.8 1.9 10.2 1.9 8 0 9.9-.3 12-2 3.4-2.6 6.1-2.5 12.2.5 6 3.1 6.6 4.6 8.2 21 1.2 11.6 5.1 23.9 9 28.1 1.2 1.3 1.9 3.5 1.9 6.1 0 4.3 1.7 10.3 2.9 10.3.5 0 2.4 1.6 4.4 3.5 4.5 4.4 9.3 5 8.3 1.1-.4-1.8.1-3.2 2-5.3l2.5-2.8 2 2.5c1.1 1.4 2.2 3.7 2.5 5.2.8 3.3 2.8 5.2 4.8 4.5 1-.4 1.3-2.2 1.1-6.9-.3-7.2-1.8-11.8-3.9-11.8-.8 0-1.7-1.3-2.1-3-.4-2-1.3-3-2.5-3-2.3 0-3.2-3.6-1.3-5.2 1.5-1.2 1.5-2.5-.7-12.5-.9-4.6-.8-5.6 1-9 1.1-2.1 2-5 2-6.5s.4-2.9.9-3.2c2.4-1.5 1.7-16-.9-17.6-1.9-1.2-6-11.4-4.8-12.1 2.7-1.7 10.7 4.8 13.5 11 1.5 3.1.7 12.9-1.2 15.1-.7.8-2.4 3.6-3.8 6.2-4.2 7.9-5 29.9-1.1 28.4 1-.4 1.4.2 1.4 1.8 0 1.3.7 2.9 1.5 3.6.8.7 1.5 1.9 1.5 2.7 0 3.6 3.1 7.2 7.2 8.3 2.3.7 5.2 1.9 6.5 2.7 1.2.8 4.8 1.6 7.9 1.7 5 .1 5.9.5 8 3.1 1.3 1.7 2.4 3.6 2.4 4.4 0 .7 1.4 2.9 3 4.8 2 2.2 3 4.5 3 6.6 0 3.8.7 5 3.8 6.6 1.2.6 2.2 1.8 2.2 2.6s1.6 3.3 3.6 5.4c2.2 2.5 3.7 5.4 4.1 7.8.3 2.1 1.4 4.7 2.4 5.8 1 1.1 2.7 3 3.8 4.2 1.2 1.3 3.8 2.6 6.1 2.9 2.2.4 4 1 4 1.5s.9.9 1.9.9c1.1 0 2.3.5 2.6 1 .3.6 3.8 1 7.6 1 3.9 0 8.5.7 10.5 1.5 2.8 1.2 4.5 1.2 8.7.4 2.9-.6 5.7-1.6 6.4-2.1.7-.6 1.9-.5 3.2.1 1.8 1 13.3 1.4 21.6.8 1.7-.1 4.1-1 5.5-1.9 3.9-2.6 8-3.4 8-1.4 0 1 2.5 2.9 6.6 4.9l6.6 3.2-.4 5.4c-.2 4 .1 5.5 1.2 6.1.8.3 3.4 1.6 5.7 2.8 2.3 1.2 5.3 2.2 6.6 2.2 1.3 0 7-2.7 12.6-6.1 7.9-4.7 10.2-6.6 10.7-8.7.3-1.5 1.5-5 2.7-7.7 1.5-3.7 2-7 1.9-12.4-.1-6 .3-7.9 1.9-9.9 1.9-2.5 1.9-2.5-.1-4.7-1.1-1.2-1.8-2.9-1.5-3.7.3-.8-.1-2.1-1-2.8-2.2-1.9-1.8-4.7 1-6.6 3.1-2 3.1-3.7 0-9.6-2-3.8-2.4-5.5-1.9-9.1.6-4.4.5-4.6-4.6-9.5-4.5-4.4-5.2-5.5-4.8-8.1.4-2.5 0-3.2-2.3-4.1-1.5-.7-3-1.8-3.2-2.5-.3-.7-1.8-1.6-3.4-1.9-3.3-.9-11.2-5.8-13.8-8.6-1.5-1.7-1.6-2.7-.8-7 .9-4.5.8-5-.8-5-2.2 0-3.4-4.7-2-8.3.6-1.5 1.7-2.7 2.6-2.7 1.7 0 5.5 5.6 5.5 8 0 3.1 3.6 10 5.5 10.6 5.1 1.6 10.3 5.9 11.4 9.4.6 2.1 2.2 4.9 3.5 6.3 3 3.2 7.6 3.7 7.6.9 0-1.1.9-2.7 2-3.7 2.4-2.2 2.7-10.8.6-16.9-1.3-3.7-4.9-7.5-7.2-7.6-.5 0-2.3-1.3-3.8-2.8-2.1-2.3-2.6-3.7-2.4-6.6.2-3.3-.3-4.2-3.7-7.1-3-2.5-3.7-3.6-2.9-4.5 2-2 6.7 1.4 9.7 6.9 2.7 4.9 7.8 10.1 10 10.1.7 0 3.2 2.1 5.6 4.6 3.8 4 4.6 4.3 5.4 2.9.7-1.3-.1-2.7-3.7-6.4-5.9-6-6-7.6-.1-2.2 2.4 2.2 5.1 4.1 5.9 4.1 3.4 0 6.6 2.3 6.6 4.8 0 3.2 6.7 14 9.2 14.8 1.1.3 3.5 1.9 5.4 3.6 4.3 3.8 4.7 8.5 1 12.1-1.4 1.4-3 4.3-3.6 6.5-1.1 3.4-1 4.8.9 10.1 1.1 3.4 2.1 8.6 2.1 11.7 0 3 .7 6.8 1.6 8.5.8 1.7 1.8 5.3 2.1 8.2.5 5.1 4.1 14.7 5.5 14.7 1.3 0 4.8 6.8 4.8 9.2 0 3.3 2.9 5.8 6.7 5.8 1.7 0 4.1.8 5.4 1.9 2.2 1.8 2.2 2 .9 7.4-1.3 5.5-1.3 5.7 1.5 9.6 1.5 2.2 3.6 4.3 4.6 4.6 2.8.9 4.3 4.3 2.8 6.1-3.1 3.8 4.7 10 11.6 9.2 1.9-.2 3.5 0 3.5.6 0 .5 1 2 2.2 3.3 1.6 1.7 1.8 2.3.7 2.3-2.3 0-7.3 5.6-6.6 7.5.6 1.4 1 1.4 4 .1 2.3-.9 5.6-1.2 10.5-.8l7.2.5v-2.9c0-4 1-5.1 5.9-6.9 5.3-1.8 19.3-2 22.1-.3 1.5 1 2.6 1 5.2 0 2.7-1 3.4-.9 4.1.3.4.8 1.5 1.5 2.3 1.5 1.8 0 7.4 5.6 7.4 7.4 0 3.6 9.7 6.5 12.5 3.7.6-.6 3.4-.7 6.5-.3 4.7.6 5.7 1.1 6.8 3.5.7 1.5 1.8 2.7 2.4 2.7 2.3 0 7.8 3.3 8.3 5.1 1 2.9 7.6 6 10 4.6 1.1-.5 2.3-1.6 2.7-2.2.4-.7 2.9-1.6 5.4-2 3.3-.5 4.8-1.2 5.1-2.5.3-1.1 1.3-2.2 2.2-2.5.9-.3 3.4-2 5.5-3.9 3.7-3 4.1-3.8 4.7-9.7.3-3.5.2-6.8-.2-7.3-.5-.6-.9-1.4-.9-1.8 0-1.6 2.2-.7 5.6 2.5 1.9 1.7 4.8 3.9 6.4 4.8 2.9 1.6 3 1.6 7-2.2 3.5-3.3 4.7-3.9 8.6-3.9 3.2 0 5.6-.7 8.2-2.5 2-1.4 4.6-2.5 5.7-2.5 1.8 0 2 .5 1.7 4.5-.3 3.1 0 4.5.8 4.5 1.4 0 10-6.7 11.3-8.7.4-.7 1.4-1.3 2.2-1.3 2.9 0 5.8-15.3 3.9-20.4-.3-.9-1.5-1.6-2.5-1.6s-1.9-.5-1.9-1.1c0-.6-1-2.4-2.2-3.9-1.3-1.5-3.6-4.4-5.2-6.4-1.8-2.2-4.5-4.1-6.7-4.8-2.5-.7-3.9-1.8-4.3-3.2-.4-1.6-2-2.5-6.5-3.8-5.8-1.5-6.1-1.5-10.8.7-4.7 2.1-14.5 3.9-15.7 2.8-1-1.1 1.3-3.9 5.5-6.9 3.2-2.2 5.9-3.1 10.8-3.6 3.6-.3 8.7-1 11.3-1.3 3.7-.6 5.3-.4 7.4 1 1.8 1.2 3.6 1.5 5.9 1.1 5.4-1 16.6 1.4 19.2 4.1 1.2 1.3 3.3 2.3 4.7 2.3 2.6 0 7.7-1.7 8.6-2.8.3-.4 1.4-1.2 2.5-1.8 1.3-.7 2.4-2.9 3-6 1.4-6.3 4.1-12.4 5.5-12.4 1.9 0 4.9-4.3 5-7.1 0-5.4 1.3-9.2 3.2-9.7 1.6-.4 1.8-1.1 1.2-5.6-.8-6.8-2.2-10.4-4.5-11.1-1-.4-1.9-1.3-1.9-2.1 0-3.3-9.6-8.3-21.2-10.8-1.6-.4-3.2-1.7-4-3.4-1.3-2.6-1.7-2.7-8.3-2.7-5.7 0-7.9-.5-12-2.8-3.8-2-6.4-2.7-10.6-2.7-4.7 0-5.9-.4-8-2.6-5.1-5.6-11.6-8.6-25.7-11.9l-5.3-1.3-5.2 4.5c-5.3 4.5-5.9 4.8-13.9 5.8-3.1.4-5.1 1.2-5.8 2.4-.6 1.2-2.6 2-5.5 2.4-2.5.4-6.5 1.8-8.8 3.1-2.3 1.4-6.4 3-9 3.7-5.3 1.3-9.9 5.8-11.8 11.6-1 3-.8 3.7 2.4 8.1 2.7 3.7 3.6 6.1 4.2 11 .8 7 3.5 10.2 8.7 10.2 1.5 0 6.4 1.8 10.8 4s8.6 4 9.5 4c.8 0 2.3 1.7 3.4 3.8 2 3.8 10.2 12.2 12.1 12.2.5 0 1.2 1.1 1.6 2.5.4 1.7 1.8 3.1 4 4 1.9.8 3.8 2.4 4.3 3.7.7 1.9.4 2.5-1.7 3.7-2.2 1.2-2.9 1.1-5.6-.5-6.7-3.9-12.3-8.7-16.6-14.2-5.1-6.4-10.3-9.4-19.3-11.4-4.6-1-6.2-1.8-7.5-4-.9-1.5-2.4-2.8-3.4-2.8s-2.4-1.4-3.3-3c-1.9-3.6-2.2-3.7-6.5-.5-2.9 2.1-4.5 2.5-11 2.5-5 0-8.3.5-9.7 1.5-1.7 1.2-2.7 1.2-6.4.2-3.7-1.1-4.6-2-7.6-7.4-4.5-8.2-11.4-13.8-19.1-15.3-3.1-.7-8.4-2.7-11.7-4.5-6.6-3.7-8.7-4.2-12.7-3.1-2.2.6-4.1 0-9.5-3-6.6-3.8-7.1-3.9-15.5-3.6-5.4.1-8.8-.2-8.8-.8 0-.5.9-1 2-1 1 0 2.9-.4 4.2-.9 1.3-.5 3.1-1.2 4.1-1.5 1.7-.6 1.6-.9-1.2-4.1-1.7-2-3.1-4.1-3.1-4.7 0-.6-.9-.8-2.1-.5-4 1.1-5.1-.4-1.7-2.3 2.5-1.3 3.4-2.5 3.6-4.8.3-2.8.1-3-4-3.7-2.4-.4-5.4-1.3-6.8-2-2.4-1.3-2.4-1.3 1.5-1.3 8.8 0 13.3-2.4 10.6-5.6-.7-.8-.9-2.9-.5-5.2.6-4.2 1-3.8-7.3-7.8-1.8-.8-3.3-2-3.3-2.5v-1.9c0-.4.8-.8 1.8-.8.9-.1 2.3-.2 3-.3 1.8-.1 1.5-4.8-.4-5.9-.9-.5-2.5-.7-3.6-.4-1.2.3-2.6-.5-3.9-2.3-1.4-1.7-2.8-2.5-4-2.2-1 .3-2.3-.1-2.9-.9-.7-.7-3.6-2-6.6-2.9-3-.8-5.4-1.7-5.4-2 0-.2 1.6-.9 3.6-1.5 3-1 3.8-.9 5.3.4 4.9 4.4 1.4-8.3-4.3-15.8-2.2-2.9-3.4-3.6-6.2-3.6-1.9 0-5.2-.9-7.3-2-3.7-1.8-8.1-6.3-8.1-8.1 0-.4-2.9-3.8-6.4-7.5-5.8-6-6.6-6.6-9.2-6-8.8 2.2-9 2.2-14.7-3.5-8.1-8.2-13.3-12.6-15.6-13.4-2.6-.8-2.7-2.5-.2-2.5 3.1 0 8.5 2.7 11.4 5.7 9.5 10 9.9 10.3 12.8 10.3 1.7 0 3.9-.5 5-1.1 1.6-.8 2.5-.7 3.8.5 1 .9 2.4 1.6 3.3 1.6 1.9 0 5.1 3.5 7.6 8.5 1.2 2.4 4.4 5.8 7.7 8.3 6.5 4.9 9 5.4 8.1 1.7-.8-3.2 1.9-8.6 3.9-7.9 1 .4 1.2 1.5.9 3.3-.9 4.2 2.9 11.1 6 11.1 2.2 0 2.5.5 3.1 6.2.9 8 1.7 9.5 5.4 10 3.1.5 4.1-.9 4.1-6 0-3.9 3.2-2.2 4.8 2.6 1 3 2 4.4 3.8 4.8 1.7.4 2.4 1.3 2.4 2.9 0 3.7 2.2 4.8 5.9 2.9 3.4-1.7 3.9-2.9 1.7-3.7-.8-.3-1.8-2.3-2.2-4.4-.4-2.1-2-5.3-3.6-7.2-1.6-1.8-3.4-4.4-4-5.7-.6-1.2-3-3.3-5.3-4.5-3.7-2-4.1-2.5-3.1-4.1.7-1.3 2.1-1.8 4.1-1.6 5.3.5 4.3-2.6-2.9-9.7-3.6-3.6-6.6-6.9-6.6-7.4s-.9-1.3-2-1.6c-1.1-.3-2-1.4-2-2.4s-.7-2.4-1.5-3.1c-1.7-1.4-2-4-.5-4 1.4 0 5 3.7 5 5.1 0 .6 3.9 5.1 8.6 9.9l8.6 8.8 4.4-4.2c4.6-4.4 5.9-9.1 2.9-10.2-.8-.4-1.5-1.2-1.5-1.9 0-1.6-3.3-4.5-5.3-4.5-.8 0-2.8-.5-4.2-1-2.3-.9-2.5-1.3-1.5-2.5 1.6-2 3.5-1.9 8.1.2 3.4 1.7 6.9 6.7 6.9 10.1 0 .7 1.9 2.4 4.3 3.8 5.8 3.6 11.7 9.4 11.7 11.6 0 2 5.7 8.8 7.4 8.8.7 0 3.4 2.7 6.2 6 2.7 3.3 6.6 7.1 8.7 8.5 3.3 2.3 3.7 2.4 3.7.7 0-1-1.5-3.6-3.4-5.8-3.3-3.8-4-5.4-3.7-8.2.2-2 1.8-1.4 5 2 2.8 3 3.8 4.8 5.5 10.2.6 1.7.9 1.7 3.6-1 2.7-2.6 2.9-3.5 3-9.6 0-6.5-.1-6.8-3-8.3-1.6-.8-3.8-1.5-5-1.5-1.1 0-2-.4-2-.9s-1.3-1.4-3-2.1c-1.7-.7-3-2-3-2.9 0-1-.6-2.6-1.4-3.6-1.7-2.4-.4-5.5 2.2-5.5 1 0 2.4-.6 3.1-1.2.7-.8 4-1.3 8.4-1.3 8.9 0 9.6-1.5 3.6-8-5.2-5.6-9-6.1-11.4-1.4-1.9 3.5-4.8 3.6-5.3.1-.3-1.6.4-2.5 2.3-3.2 3.5-1.3 2.8-2.9-2-4.6-3.4-1.1-4.3-1.1-6.2.1-2.6 1.8-6.3 2-6.3.4 0-.6 1-1.9 2.2-2.9 2.2-1.8 2.2-1.8.4-3.9-1-1.1-2.2-1.8-2.7-1.5-1.2.7-4.9-1.4-4.9-2.9 0-1.7-7.2-8.6-13-12.4-6.3-4.3-8.3-6.7-7.5-9.2.7-2.4 1.3-2.5 4.9-1.1 1.8.6 2.7 1.9 3.2 4.4.5 2.8 1.5 4.1 4.8 6 2.2 1.3 5.2 3.6 6.5 5 2.9 3.1 4.7 3.3 6.1.6.6-1.1 2-2 3.2-2 1.9 0 4.7-2.5 4.8-4.2 0-.3-2.2-1.4-4.9-2.3-2.7-.9-5.6-2.4-6.5-3.4-1.6-1.8-1.6-2 .4-3.4 2.9-2 7.4-.7 11.5 3.3 1.7 1.6 3.7 3 4.5 3 .8 0 2.9 1.4 4.6 3.1 3.2 3.1 3.4 3.2 8.6 2.1 5.2-1.1 5.4-1 12.3 3 9.6 5.6 13.1 7.4 19.6 9.9 5 1.9 6.1 2 10.5.9 9.8-2.3 10.4-2.3 12.7-.2 2.6 2.4 6.1 1.5 7.2-1.8.6-1.9 1.2-2.1 3.8-1.5 1.8.3 6.6.9 10.7 1.2 4.1.3 8.1 1 8.7 1.5.7.6 2 .8 2.8.4 1.3-.4 1.5-2.1 1.2-8.6-.4-8-.4-8 2.2-8.7 1.4-.3 4.6-1.6 7.1-2.9 5.4-2.9 7.2-3 9.3-.6 1.5 1.6 2.6 1.7 9.7 1 10.6-1.2 25.6.2 25.1 2.2-.2.8-.6 2.3-.8 3.3-.5 1.5-.2 1.6 2 .8 1.8-.7 3.6-.7 5.8.1 1.7.6 5.3.8 8 .5 4.7-.6 4.9-.5 4.9 1.8 0 2.7 3.6 5.9 8.5 7.5 3.6 1.2 4.5 3 4.5 9.7 0 2.3.5 4.5 1 4.8.6.3 1 1.7 1 3 0 1.5 1 3.1 2.5 4.1 1.4.9 2.5 2.3 2.5 3 0 .8 1.8 3.4 4.1 5.9 3.6 3.9 4.1 5.2 4.6 10.4.5 5.5.4 6-2 7.5-2.4 1.6-2.4 1.8-.9 4.9 2.1 4.3 2 4.3 3.6 2.2 1.3-1.8 1.5-1.8 7.7-.1 3.5 1 9.2 3.1 12.5 4.7 3.4 1.6 7 2.9 8.1 2.9 1 0 2.3.4 2.9.9 2.3 2.3 26.5 1 33.7-1.8 1.6-.6 6.1-1.1 10.2-1.1 9.6 0 11-.5 9-3.3-.8-1.2-1.5-3.6-1.5-5.3 0-3.8-3.4-6.2-12.6-8.9-3.3-.9-7.5-2.5-9.4-3.5-2.1-1.1-6.4-2-10.7-2.3-5.9-.4-7.7-.9-10.3-3.1-1.7-1.4-4.3-2.6-5.6-2.6-1.4 0-2.7-.7-3-1.5-1.1-2.7-3.4-1.7-3.4 1.5 0 2.5-.4 3-2.3 3-3.2 0-6.7-2.7-6.7-5.3 0-1.2-1.1-3.9-2.4-6.1-2.1-3.3-2.3-4.3-1.4-7 1.6-4.8 2.3-5.1 6.7-3.2 2.2 1 4.4 1.5 5 1.2 2-1.3 1.1-6.8-1.9-11.8-1.6-2.6-3-5.2-3-5.7s1.1-3.2 2.5-5.9c2.2-4.3 3-5 6.2-5.6 5.6-.9 5.9-.8 7.1 1.9 1.1 2.3 1.4 2.4 7.4 1.8 7.2-.6 9.4.8 10 6.2.3 2.7.6 3 3.3 2.7 4.7-.4 7.2.6 10.5 4.1 2.7 2.8 3.1 3.7 2.6 7.3-.3 2.4-.1 4.5.6 5.2 1.3 1.3 7 1.6 8.2.5.4-.4 2.1-1.2 3.9-1.8 2.8-.9 3.2-1.5 3.2-4.5 0-2.9.5-3.7 3.9-5.6 3.1-1.8 3.9-2.8 4.1-5.5.3-3.8 2.7-5.9 6.6-5.9 2.2 0 3.2-.9 5.4-4.8 1.5-2.6 3.6-5.6 4.5-6.7 1-1.1 2-4.2 2.4-6.9.7-5.3 1.5-6.3 5.8-7.2 3.6-.8 5.4-3 6.8-8.4.6-2.5 2-5.9 3-7.7 1.1-1.8 2.6-7.6 3.5-13 .9-5.4 2.3-11.2 3.1-12.8 2.1-4.2 8.4-23.8 8.4-26 0-1-.8-2.7-1.7-3.8-1.7-1.8-1.7-1.9 0-3.2 2.2-1.6 2.3-8.7.2-10.5-1.1-.9-1.5-2.9-1.3-6.9.2-4.5-.4-6.8-2.7-11.5-1.7-3.2-4.2-6.7-5.7-7.8-3.3-2.3-5.4-6.6-6.7-13.3-.5-2.8-1.9-8.4-3-12.5-3-10.8-2.8-14.9.9-18.5 2.8-2.7 3-3.4 3-10.3 0-6.2-.3-7.6-2-9-1.1-1-2.8-3.3-3.8-5.2-1.4-2.9-2.8-3.8-8.2-5.7-3.6-1.2-7.8-3.3-9.5-4.6-1.6-1.3-4-2.9-5.2-3.5-1.2-.7-2.3-2.2-2.5-3.4-.4-3-5.8-4.4-9.5-2.5-3.2 1.6-4.7 1.3-8.6-1.9-1.5-1.3-4.6-2.8-6.8-3.4-2.1-.6-5.6-2-7.6-3.2-2.6-1.6-6.1-2.3-12.4-2.8-5.3-.4-9.4-1.2-10.5-2.1-1.1-.9-3.4-1.3-6.9-1.1-3.8.3-6-.2-8.7-1.8-3.6-2.1-3.6-2.1-5-.2-.7 1.1-4.3 3.2-7.8 4.7-7.4 3.1-9.4 4.6-11 8.3-1.6 3.9-7.8 8.3-10.5 7.6-1.7-.4-2.5-.1-3 1.5-.3 1.2-1.7 2.4-2.9 2.7-1.3.3-2.9 1.8-3.7 3.2-.7 1.5-2.1 3.4-3.2 4.2-2.9 2.5-5.1 17.4-4 27.2.8 6.9.7 8-.8 9.4-1 .9-2.1 3-2.4 4.8-1.2 6-2.9 11.6-3.7 11.6-.4 0-.8-.6-.8-1.4 0-2.3-2.2-3.1-3.5-1.2-.7.9-1.9 1.4-2.7 1.1-.9-.4-1.7.5-2.3 2.7-1.5 4.9-4.1 4.8-5.5-.1-.6-2.2-1.6-4.2-2.3-4.4-.8-.3-.4-1.1 1.1-2.2 2.8-2.1 3-6.5.3-6.5-1.1 0-3 1.3-4.3 2.8-1.3 1.6-4.4 4.3-6.9 6-3.5 2.4-4.8 3.9-5.3 6.5-.6 3.2-6 9.7-7.1 8.5-.3-.2.2-2.7 1-5.4s1.5-8.2 1.5-12.2c0-7-.1-7.3-3.9-11.1-2.1-2.1-5.2-4.2-6.9-4.5-1.6-.4-3.8-1.7-4.9-2.9-5.5-6.1-10.5-9.7-13.3-9.7-1.6 0-4.5-.8-6.5-1.7-3.4-1.6-3.6-1.6-5.5.5-1.2 1.2-3.3 2.2-4.9 2.2-1.7 0-3.6 1-4.9 2.5-1.2 1.4-2.9 2.5-3.7 2.5-1.3 0-1.5 1.2-1.3 6.2.3 6 .2 6.3-2.1 6.6-1.4.2-4.2-.2-6.3-.9-5.9-1.9-17.5.1-20.5 3.6-3.2 3.6-3 7.3.3 8.5 1.4.6 2.4 1.6 2.1 2.3-.7 2.2-3.6 1.9-6-.6l-2.2-2.5-6.2 2.9c-4.7 2.2-7.5 4.5-11.3 9-5.4 6.5-6 9-3.4 14 .8 1.7 1.4 4 1.2 5.2-.4 2.8-3.4 3.4-4.2.9-.4-1.1-1.5-2.2-2.6-2.5-1.1-.3-2.7-2.1-3.7-4.1-.9-2-2.2-3.6-2.9-3.6-.7 0-1.7 2.3-2.4 5-1.3 5.4-2.5 6.9-4.3 5.1-3.1-3.1-9.7 1.1-9.7 6.1 0 2.6 1.6 3.8 5.1 3.8 1 0 1.9.7 1.9 1.5 0 1.1-1.1 1.5-3.8 1.5-2 0-5.1.4-6.9.9-2.7.8-3.5.6-5.4-1.5-1.2-1.3-3-2.4-3.8-2.4-1.4 0-1.7 1.9-1.9 13.2-.1 7.3-.3 14.6-.3 16.3-.1 1.6.4 5.4 1.1 8.3.8 3.4.9 6 .4 7.3l-.9 2-2.8-2.1c-3.5-2.8-7.9-1.9-10.9 2.1-1.5 2-3 2.9-5 2.9-2.8 0-2.8 0-2.8 6.8 0 6.4-.2 7-3.3 10-4.7 4.6-6.6 1.6-3-4.7 1.7-2.9 1.7-3.1-.5-7.6-1.2-2.5-2.2-5.7-2.2-7.1 0-1.3-.7-2.7-1.4-3-2.3-.9-7.6 2.8-8.3 5.6-2 8.2-6.9 14.3-17.4 21.3-3 2-6.7 5-8.2 6.6-2.5 2.7-3.5 3-7.8 3-2.7-.1-5.4.3-6.1.8-.7.6-3.7 1.3-6.5 1.7-4.8.6-5.3.5-5.3-1.2 0-2.8-2.8-4.8-9.2-6.7-6.8-1.9-12.7-2.2-15.6-.6-3.1 1.7-13.1 1.2-18.2-.8-5.3-2.2-5.9-3.4-2.5-4.9 3.4-1.6 5.1-1.5 7.8.2 1.7 1.1 4.9 1.4 13.7 1.1 12.3-.4 18.6.7 21 3.7 1.6 1.9 4.6 2.3 14.9 2 6.1-.2 6.3-.2 4.3-2-2.9-2.4-3.2-5.5-.7-6 1.1-.3 3.1-.8 4.3-1.3l2.4-.9-2.4-2c-1.2-1.1-1.8-1.9-1.1-2 1.6 0 3.5-5.8 2.1-6.6-1.3-.8 4.8-4.3 7.5-4.4 1.4 0 1.7-.9 1.7-4.8 0-2.7-.6-5.6-1.2-6.5-3.1-4.1-15.9-3.8-20.4.4-1.8 1.7-3 1.9-6.9 1.4-4.2-.7-4.7-.5-5.2 1.4-.4 1.7-1.3 2.1-4.4 2.1-3.2 0-3.9.4-3.9 2 0 3.2-3.1 4.2-5.7 1.8-2.1-2-2.4-2-4.1-.5-1 1-2.7 1.7-3.8 1.7-1.1 0-2.4.4-3 .9-1.8 1.6-10.8 4.1-15 4.1-2.7 0-6.4-1.1-10.2-3-6.9-3.4-14.5-4.1-16-1.4-.5.9-4.6 2.5-9.8 3.8-8.7 2.2-9.2 2.2-22.7.7-11.4-1.3-14.3-1.3-17-.2-1.8.7-3.6 1.3-4.2 1.2-.5 0-4-.3-7.7-.7-6.4-.6-6.8-.8-6.8-3.2v-2.5l11.5.7c9.9.6 11.6.5 12.1-.9.4-.8.1-2.2-.6-3-1.1-1.3-.3-1.5 5.7-1.5 5.5 0 7.6-.4 9.6-2 1.4-1.1 3.1-2 3.7-2 .7 0 1.8-.7 2.4-1.5.6-.9 3.2-1.7 6.1-2 6.5-.5 10.7-1.5 12.4-2.9.8-.6 2.8-1.5 4.5-2.1 4.2-1.4 3.9-3.6-.9-5.9-3.5-1.7-4.8-1.8-11.4-.8-4 .5-7.7 1.5-8 2.1-.5.8-2.3.8-6.2.1-2.9-.5-8.8-1.3-12.9-1.7-4.4-.5-7.3-1.2-7-1.8.3-.6 1.6-1 3-1s4.7-.4 7.3-.9c5.3-.9 5.8-2.8 1.1-3.6l-2.9-.6 2.5-.7c4.4-1.2 14.9-.8 18.7.8 4.3 1.8 7.5 1.9 9.1.3 2-2 1.5-2.5-6-5.5-4-1.5-8.1-3.6-9-4.6-2.1-2-10.1-2.3-14.5-.6l-2.8 1.1 2.8 1c2 .7 3.7.7 5.5-.1 2-1 2.7-.9 3.3.1.7 1-.8 1.5-6.4 2.2-5.2.6-7.5 1.4-8.5 2.7-1.5 2.2-4.4 2.6-3.6.5.3-.7-.2-1.6-1-1.9-.9-.4-1.6-1.5-1.6-2.5 0-1.1-.7-2.5-1.5-3.2-1.3-1-1.9-1-3.3.4-2.6 2.3-3.5 2-2.8-1 .5-1.7 0-3.3-1.4-5.1-2.7-3.5-2.5-4.3 1-4.3 2.9 0 9-2.4 9-3.6 0-.2-1-.9-2.2-1.5-1.3-.5-3.8-2.1-5.7-3.4-1.9-1.4-4.4-2.5-5.7-2.5-1.7 0-2.5-.7-3-2.5-.5-2.1-1.2-2.5-4.8-2.6-6.3-.2-6.9 0-9.6 3.1-2.1 2.4-3.2 2.9-6.7 2.8-6-.1-5.5-3 1-6.3 1.1-.5 2.5-2.5 2.9-4.3.9-3.4 3.2-4.1 6.7-2.2 1 .5 3.6 1 5.7 1 13.3.2 17.7-.1 19.6-1.5 2.3-1.5 2.5-1.4-4.9-4-.7-.2-1.3-.8-1.3-1.2 0-1 7.9-4.3 10.2-4.3 2.8 0 7.8-5.5 7.8-8.7 0-4.5-2.5-7.3-6.6-7.3-2.7 0-4.4 1-8.5 5-2.8 2.7-5.5 5-6 5-1.8 0-.8-2.8 2.7-7.5 3.2-4.1 3.5-5 2.5-7.1-.9-2.2-1.7-2.4-7.2-2.4-9.1 0-13.7 1.7-16.6 6.2-2.7 4-4.3 4.2-4.3.3 0-3-2.7-4-5.6-2-2.9 1.9-3 4.4-.4 7.8 2.7 3.4 2.5 6.9-.5 9.7-1.4 1.3-2.5 3.2-2.5 4.3 0 1-.8 3.2-1.7 4.9-1.8 2.9-1.8 2.9-8.8 2.3l-7-.6-3 4.8c-1.6 2.6-3.7 4.8-4.5 4.8-2.3 0-2.3-3.9 0-7.6 1.1-1.9 2.7-4.8 3.5-6.6.8-1.7 2.4-3.4 3.5-3.8 1.1-.3 2-1.3 2-2.2 0-.8.9-1.7 2-2 1.8-.5 1.9-1.1 1.4-5.7-.6-5.2-.6-5.3 2.5-6.6 3.9-1.6 6.1-6.3 6.1-13.2 0-3.4-.4-5-1.5-5.4-1.4-.6-2.2-4.4-.9-4.4 1.5 0 4.4 2.2 4.4 3.4 0 .8 1.8 1.6 4.6 2 6.7.9 7.1.8 7.7-1.3 1.7-6.6 32.1-2.5 37.5 5.1.9 1.3 2.6 1.8 5.7 1.8s5.5.8 8.1 2.5c2.5 1.7 5 2.5 7.9 2.5 2.3 0 6.2.7 8.5 1.5 3.1 1.1 8.6 1.5 20.7 1.5 16.3 0 16.3 0 17.3-2.4.5-1.3 1.3-2.7 1.9-3.1 2.2-1.3 11.8-2.3 15.9-1.5 3.1.5 4.5.4 5.3-.6.6-.8 2-1.4 3-1.4 3.9 0 9.9-2.5 9.9-4.1 0-.8-1.6-2.3-3.5-3.2-3-1.5-3.8-1.5-6.9-.2-1.9.8-6.8 1.8-10.8 2.1-8.9.8-16.8 2.7-20.2 4.9-3.2 2.1-4.6 1.2-4.6-2.9 0-3.6 1.5-5.4 6.9-8.1 6.1-3.1 9.1-3.5 12.8-2 4.3 1.8 7.5 1.9 9.1.3.7-.7 4.6-1.3 9-1.5 5.4-.2 8-.8 8.8-1.8.6-.8 1.6-1.5 2.3-1.5.6 0 1.1-.9 1.1-1.9 0-2-1.8-3.1-5-3.1-1 0-2-.7-2.4-1.5-.8-2.3-12-2-17.4.5-3.9 1.8-4.7 1.8-8 .6-2-.8-5.5-1.7-7.6-2.1-4.8-.8-3.1-2.5 2.5-2.5 5 0 9.8-1.8 13.5-5 2.5-2.2 4.5-2.8 10.4-3.4 9.1-.8 12-2.2 14.5-6.8 1.9-3.5 1.9-3.7.2-5.6-1.3-1.4-1.6-2.8-1.1-4.6.3-1.5.2-2.6-.4-2.6-.5 0-1.2-1-1.5-2.3-.4-1.2-1.2-3.1-2-4.1-1.3-1.8-1.5-1.8-4.5.4-1.8 1.3-3.2 2.9-3.2 3.6 0 1.2-5.9 3.8-6.7 3-.3-.2.2-1.5 1-2.8.8-1.2 1.8-3.3 2.1-4.5.7-2.1.4-2.2-5.6-2.1-4.3.1-8.3-.6-12.6-2.2l-6.3-2.3-2.4 2.3c-3.2 3-5.5 2-5.5-2.4 0-3.1.4-3.6 2.8-4.2 2.4-.5 9-2.3 16.2-4.2 3.4-1 3.9-5.6 1-8.8-3.6-3.7-6.8-3.9-13-.5-5.1 2.8-7 3.1-7 1.2 0-.5 2-1.6 4.5-2.5 2.5-1 5.2-2.7 5.9-3.8 1.4-1.9 1.8-2 4.6-.8 3.8 1.6 8.3 0 7.4-2.5-.9-2.1-6.1-4.8-6.9-3.5-.3.6-1.9 1-3.5 1-3.7 0-10.8 2.7-13.6 5.2-2.5 2.2-3.4 2.3-3.4.3 0-1.9 17.9-10.5 21.9-10.5 1.7 0 3.6-.7 4.3-1.6.7-.8 2.1-2.3 3.1-3.2 4.6-4.2 6.4-12.7 3-13.8-1-.3-2.8-1.1-4-1.7-3-1.4-6 1.2-6.9 5.9-.5 2.9-1.1 3.4-4.8 4.2-2.4.5-4.6.5-5.3-.1-.7-.5-4-.6-7.5-.2-5.6.6-6.1.5-4.3-.7 1.1-.8 3.9-2 6.2-2.6 3.9-1.2 6.7-3.2 4.4-3.2-2.1 0-1.1-3.1 1.3-4 3.5-1.3 4.1-3 1.8-4.6-1.3-.9-2.1-2.6-2.1-4.2 0-1.5-.1-3.4-.1-4.2-.1-.8 0-2.4.2-3.4.2-1.5-.5-2.2-2.8-2.9-2.6-.7-4.1-.4-9.2 2.2-3.4 1.7-6.2 3.5-6.2 4 0 .4-1.4 2.6-3.1 4.7-1.7 2.2-4.4 6.6-6.1 9.8-2.8 5.5-2.9 6.3-2.1 12.2.9 5.9.8 6.3-1.3 7.4-1.4.8-2.4 2.5-2.8 4.9-1.1 6.5-3.1 14.6-3.9 15.8-1.1 1.8-2.7 1.6-2.7-.2 0-.8-.9-1.5-1.9-1.5-1.5 0-2.1.9-2.5 3.7-.9 6-1 16.4-.2 21 .9 4.8-.9 9.1-4.7 11.6-1.3.8-5.3 6-8.8 11.6-5.3 8.2-6.7 9.9-8.4 9.4-4.9-1.4-4.8-2.5.5-7.2l5.2-4.6.9-8.8c.7-7.1.6-9.4-.6-11.6-.9-1.8-1.2-4.2-.8-6.4.3-2.1-.1-5.5-1.1-8.3-.9-2.6-1.6-5.8-1.6-7 0-3.2-6.5-8.7-9.3-7.8-3.2.9-3.7 1.6-4.4 5.7-.4 2.5 0 4.4 1.1 6.1 1.5 2.4 1.3 5.6-.4 5.6-.5 0-1.8-1.2-3-2.7-2-2.6-2.2-2.6-6-1.2-2.1.8-6.4 3.8-9.5 6.8-5.4 5.1-5.6 5.5-4.5 8.2 1.6 3.7-.4 7.1-5.5 9.5-2.7 1.3-3.7 2.5-4.6 5.7-.6 2.3-2.4 5.7-4 7.5-1.6 1.8-2.9 3.6-2.9 4 0 .4-2 1.8-4.5 3.2-4.3 2.3-4.4 2.6-3.9 6.1.5 3.1.3 3.8-1.5 4.4-1.1.3-2.9.2-3.9-.4-1.3-.7-3.5-.6-7.3.4-3 .8-7 1.5-8.9 1.5-4.2 0-17.7 3.2-21.1 5-1.3.7-3.3 2.1-4.5 3.1-1.1 1.1-3.1 1.8-4.4 1.7-2.1-.3-2.5.2-3.2 4.2-.5 2.8-1.8 5.5-3.7 7.3-2.5 2.5-3.4 2.9-6.4 2.3-3.1-.6-3.5-1-4-4.7-1-7.7-7.8-11.8-9.8-6-1.4 4.1-3.9 4.9-3.9 1.2 0-1.5-.8-3.5-1.8-4.4-1.6-1.5-2.1-1.5-4.6-.2-1.5.8-3.2 1.2-3.7.9-1.6-.9-1-5.2.9-6.6 1.1-.7 2.4-2.3 3.1-3.6.6-1.2 1.8-2.2 2.6-2.2 1.6 0 5.5-7.3 5.5-10.1 0-1-.4-2.1-1-2.4-1.9-1.1-1-4.3 1.6-6 2.3-1.5 2.6-2.2 2.1-5.8-.4-3.2-1.5-5.1-4.6-7.9-4-3.8-4-3.8-4.6-13-.7-10.4-1.9-12.8-6.9-12.8s-7.6-1.1-7.6-3.1c0-2.2-3.6-4.9-6.6-4.9-1.7 0-2.4-.8-2.9-3-.4-1.7-1.1-3-1.6-3s-1.6-1.1-2.5-2.5c-1.6-2.4-1.6-2.7.1-4.5 1.5-1.7 1.6-2.4.7-4.5-1-2.1-1.9-2.5-5.1-2.5-3.6 0-4.4.5-7.6 4.6-1.9 2.6-3.5 5.7-3.5 7 0 1.7-1.1 2.9-4 4.4-2.4 1.2-4.2 2.9-4.5 4.3-.2 1.2-.8 4.2-1.3 6.7-.9 4.5-.9 4.5-2 1.7-1.5-3.6-3.1-3.4-7.3 1-5.8 6.3-7.3 10.3-6.4 17 .4 3.2 1 6.2 1.3 6.8 1 1.6.1 8.9-1.3 10.5-4.2 5-.8 14.5 7.5 20.7 3.1 2.3 5 4.5 5 5.8 0 1.1.5 2.7 1 3.5.7 1.2.4 1.6-1.8 2-1.9.4-2.8 1.2-3 2.8-.3 2.3-.4 2.3-2.3.6-1.2-1.1-1.9-3-1.9-5.4 0-2.9-.5-3.9-2.5-4.8-1.3-.6-3.3-2.9-4.5-5.1-2.4-4.7-8.5-7.9-16.8-8.8-6.5-.7-7.9-2.3-1.9-2.3 4.1 0 4.5-.2 6.2-3.9 1.1-2.6 1.5-5.2 1.2-7.8-1.7-10.7-1.8-11-6.2-14.2-2.4-1.7-5.2-3.1-6.2-3.1-1.2 0-.7-.6 1.5-1.7 4.8-2.3 6.5-7.1 5.7-15.5l-.7-6.7 5.1-.7c2.8-.4 5.4-1.1 5.7-1.5.3-.5 1.4-.9 2.5-.9 3.1 0 2.3-4.2-1.6-8-1.9-1.9-3.5-4.2-3.5-5.2 0-1.2-.8-1.8-2.4-1.8-3.8 0-7.6-1.8-7.6-3.6 0-1.1.5-1.4 1.8-.9.9.4 3.4.9 5.4 1.2 2.7.4 4.5 1.5 6.8 4.4 2.7 3.4 3.6 3.9 7.2 3.9 3.7 0 4.7-.7 11.7-7.4 4.2-4 8.7-7.7 10.1-8.1 5.2-1.5 11-5.7 14.1-10.3 2.7-4 3.2-5.5 3.1-10.2-.3-15.4-.6-16.8-4.7-18.4-.6-.2-.5-.9.3-1.7 1.5-1.6 1.6-6.5.1-7.4-.5-.4-1.4-1.8-1.9-3.1-1.4-3.7-3.8-3-4.5 1.3-1.2 7.4-1.6 8.3-5 11.8-4.3 4.2-9.9 7.2-15.3 8.1-3.2.5-4.4.2-6.1-1.5-3.2-3.2-2.6-4.9 2.2-6.2 5.5-1.6 9.7-4.6 9.7-6.9 0-1 1.1-3.2 2.5-4.8 1.7-2 2.5-4.2 2.5-6.6 0-2 .4-3.6.9-3.6.6 0 3-2.6 5.5-5.8 8.8-11.1 9.8-12 12.3-10.4 2.9 1.8 6.3.1 6.3-3.2 0-1.7-1.1-3-3.6-4.5-4.8-2.8-4-4.6 1.9-4.2 4.3.2 4.7 0 6.2-3.1.9-1.8 2.8-4.2 4.2-5.4 2.2-1.9 2.6-3.2 3.3-11.6.7-8.8.5-16.1-.6-21.6-.5-2.4-3.4-3.1-3.4-.7 0 .8-1.1 2.2-2.4 3-1.5 1-2.9 3.3-3.5 5.8-3.1 12.7-3.7 14.7-4.4 14.1-.4-.4-.7-2-.7-3.5 0-2.1-.7-3.1-2.7-4.1-2.7-1.3-2.8-1.6-2.5-7.5.5-8-.3-10.3-3.4-10.3-2.1 0-2.4-.5-2.4-3.4 0-4.7.9-6.6 3.1-6.6 3.7 0 9.9-3.2 12.4-6.5 1.7-2.4 3.7-3.6 6.3-4.1 2-.4 5.4-1.8 7.4-3.1 2.3-1.4 5.3-2.3 7.7-2.3 3.1 0 4.3-.5 5.1-2.1.7-1.1 1-2.2.8-2.3-.2-.1-1.6-.8-3.2-1.4-2.6-1.2-2.8-1.6-2.2-5.1.6-3.8.6-3.8-4.4-5.9-3.2-1.3-5.2-1.7-5.6-1-.3.5-1.8.8-3.2.5-1.4-.3-3.6.1-4.7.9-1.9 1.3-2.4 1.2-3.5-.1-1.7-2-2.9-1.9-5.6.7-5.1 4.9-6.5 5.8-9.5 5.8-3.2 0-3.9.6-13.4 11.5-3.1 3.5-4.6 4.5-7.1 4.5-2.2 0-4.9 1.4-9.5 5.1-10.3 8.2-13.9 12.1-13.9 15.1 0 3.9 1 5.8 3 5.8 2.4 0 3.4 4.1 1.4 5.7-1 .7-1.3 1.9-.9 3.2.4 1.3-.1 2.7-1.4 4-1.2 1.2-2.1 3.4-2.1 5 0 2.9-2.1 5.7-3.3 4.4-1-1-.8-6.8.3-9.9.6-1.6.7-3.1.1-3.8-.5-.6-1.2-2.6-1.6-4.4-.4-2.1-1.6-3.7-3.4-4.7-2.7-1.3-3-1.2-6 1.8-1.7 1.8-3.1 3.8-3.1 4.5 0 .7-1.5 1.2-3.8 1.2-2.6 0-4.5.7-5.7 2-1 1.1-2.9 2-4.2 2-1.3 0-2.6.7-2.9 1.5-.4.8-1.6 1.5-2.8 1.5-4.2 0-6.6 2.7-6.6 7.6 0 4.2.3 4.6 5.9 9 4 3.1 6.9 6.4 8.7 9.9 2.7 5.1 2.7 5.4 1.1 7.8-2.4 3.7-2.3 9.3.3 10 1.1.3 2 1.2 2 2.1 0 1.3-.4 1.5-1.9.6-2.9-1.5-3.2-2.3-3.5-10.5-.4-8.9-1.1-10-10.1-14.4-3.4-1.7-6.6-3.8-6.9-4.6-.3-.8-1.6-1.5-3-1.5-1.9 0-2.9 1-4.5 4.4-1.2 2.4-2.2 5.9-2.1 7.7.1 7-.9 12.1-2.6 14-.9 1-2.2 2.9-2.8 4.1-.6 1.2-1.7 2.3-2.3 2.6-2 .6-.5-11.2 2.2-17.8 1.3-3 2.6-6.9 2.9-8.6 1-4.7 6.2-14.3 10.6-19.5 2.2-2.6 4.7-6.3 5.7-8.3 1.7-3.6 8.5-8.6 11.7-8.6 2.9 0 5-7.3 2.4-8.3-1.9-.8 1.1-2.7 4.1-2.7 1.3 0 4.2-1.3 6.6-2.9 2.4-1.6 5.2-3.2 6.2-3.5 1-.3 4.4-3 7.5-6 5.6-5.4 18.3-13.6 21.1-13.6 2.1 0 3.3-2 4-6.2.4-2.7 2-5 6.3-9.2 3.2-3.1 6.3-5.6 6.8-5.6.6-.1 2.6-1.4 4.5-3s6.3-3.9 9.8-5.1l6.3-2.1v-4.6c0-2.6-.6-5.8-1.3-7.2-1.6-3.2-4.7-3.9-4.7-1.1 0 1.3-1.4 3-3.8 4.5-2 1.3-4.3 3-5 3.9-.7.9-5.1 2.8-9.8 4.3-7.4 2.3-9 3.3-13.2 7.9-2.7 2.9-5.9 5.6-7.3 6-1.3.4-3.1 1.3-3.9 1.9-4.8 3.9-20.8 10.6-25.2 10.6-2.6 0 1.7-2.9 5.7-3.9 3.5-.9 5.5-2.4 10.2-7.6 3.1-3.5 7.1-7 8.8-7.7 3.1-1.2 6.6-3.8 13.9-10.1 2.4-2 4.8-3.7 5.3-3.7 1.6 0 4.3-3.5 4.3-5.7 0-1.1-.7-2.6-1.6-3.4-1.3-1-2-1-4.4.4-1.5.9-4.1 1.7-5.6 1.7s-3.5.6-4.3 1.4c-.9.8-4.7 2.1-8.6 2.9-7.2 1.5-18.1 6.3-20.4 9.1-.8.9-2.2 1.6-3.2 1.6-2.7 0-2.4-3.7.4-4.6 1.2-.4 5.3-2.4 9-4.5 3.8-2.2 7.4-3.9 7.9-3.9.6 0 3.4-1.8 6.2-3.9 2.8-2.2 6.5-4.5 8.1-5.3 1.7-.7 3.9-2.4 4.9-3.6 1-1.3 3.9-3.2 6.3-4.3 2.3-1 4.3-2.3 4.3-2.8s.3-1.6.6-2.5c.8-2-2.1-2.2-3.3-.3-2.1 3.5-9.3 2.5-9.3-1.3 0-2.2-4.7-5.6-9.3-6.6-1.5-.3-2.6-1.1-2.4-1.7.3-.8 2.7-1.1 7.1-.9 6.8.3 9.6-.7 9.6-3.4 0-.8-1.1-1.9-2.5-2.4-1.5-.6-3.2-2.5-4.1-4.5-1.8-4.3-5.6-6.3-11-5.7-2.4.2-4.5-.1-4.8-.7-.8-1.3-2.3-1.4-2.9-.4zM272 772c0 .5-.9 1.4-1.9 1.9-1.4.8-2 .7-2.4-.3-.3-.8-.3-1.7 0-2 1-1 4.3-.7 4.3.4zm189.7-645.2c-2.7 1.6-2.8 2-2.2 6.2.3 2.5.9 6.9 1.2 9.8.5 4.5 1 5.5 3.5 6.8 1.9 1 4.1 1.3 6.3.8 2.9-.5 3.5-1.1 3.5-3.1 0-1.8-.8-2.7-3-3.4-2.7-1-3-1.5-3-5.3 0-3.5.4-4.5 2.5-5.6 1.5-.8 2.5-2.2 2.5-3.6 0-1.8-.8-2.5-3.7-3.3-4.7-1.3-4.2-1.4-7.6.7zm-7.2 38.3c-2.5 4.7-1.4 6.3 3.7 5.5 4.7-.8 5.8-1.8 5.8-5.9 0-2.5-.3-2.7-4-2.7-3.4 0-4.2.4-5.5 3.1z"/>
    <path d="M434 250.2c-1.9 1.2-5.7 3-8.5 4-2.7 1.1-5.3 2.5-5.7 3.1-1.1 1.7-1 11.6.1 15.3.9 3.1 11.4 16.6 14.9 19 1 .7 3.1 3.1 4.7 5.3 2.2 3.2 3.1 3.9 4.1 3 1.1-.9 1.4-.8 1.4.2.1 3.2 1.6 4.1 6.3 3.4 3.7-.6 4.6-1.2 5.1-3.1.4-1.3 2.4-3.6 4.6-5 2.2-1.4 4.2-3.4 4.5-4.4.3-.9 1.9-2.9 3.5-4.4 1.7-1.4 3-3.5 3-4.5s.9-2.9 1.9-4.2c1.9-2.4 1.9-2.4-.1-4.6-1.6-1.7-2.5-2-4.5-1.2-3.1 1.2-6.3-.5-6.3-3.3 0-2-.3-2-8.5-1.3-6.8.5-8.5.4-8.5-.7 0-.7.9-1.9 2-2.6 2.1-1.3 2.7-5.1 1-6.8-.8-.8-.6-1.5.5-2.4 1.4-1.2 1.3-1.6-1.1-4.2-3.4-3.5-9.1-3.7-14.4-.6zm-114.2 21.6c-1.5.9-4.4 4.5-6.5 8.1-2.1 3.6-5 7.9-6.5 9.6-1.7 2-3.7 6.8-5.7 13.7-3.9 13.4-8.3 23.3-11 24.8-2.3 1.2-3 6.5-.9 7.2 2 .7 2.3 21.3.4 27.8-1 3.2-1.4 6.8-1 8.8.7 3.8 4.3 6.7 7.3 5.7 2.4-.7 13.1-10.9 13.1-12.5 0-2.1 5.2-10.1 7.7-11.7 3.8-2.5 6.6-8.9 5.9-13.4-.7-4.3.4-5.5 4.8-5 2.8.3 2.9.2 2.4-4.1-1-7.8-2.3-9.8-6.3-9.8-4.3 0-4.4-.8-.4-4.6 2.8-2.6 3.1-2.7 4-1.2.6 1 1.9 1.8 2.9 1.8 1.7 0 2-.7 2-4.5s.6-5.1 3.6-8.5c3.6-4 3.9-6.3 1.2-9.8-1.7-2-2.7-1.4-5.9 3.8-3.3 5.3-6.1 6.4-7.9 3.1-1.3-2.5-1.3-6.8 0-7.6 1.7-1 1.1-5.1-1-7-2.7-2.4-2.5-4.8.7-9.6 2.3-3.4 2.4-4.2 1.2-5.4-1.2-1.2-1.8-1.2-4.1.3zm106.5 23.9c-.7.3-1.3 1.7-1.3 3.1 0 1.5-.9 4-2 5.7-2.5 3.8-2.5 6.2 0 7 1.5.5 2 1.5 2 4.4 0 4.4 2.8 7.9 4.8 5.9.7-.7 1.2-2.2 1.2-3.4 0-1.7.9-2.5 3.4-3.4 2.7-.8 3.8-2 4.6-4.6 1.1-3.1 1-3.8-.7-5.7-1.1-1.2-2.7-3.4-3.6-4.8-1.6-2.7-6.2-4.9-8.4-4.2zm-37.3 4.6c-3.2 1.6-5 3.3-6.3 5.9-.9 2.1-2.1 3.8-2.6 3.8s-1.2 1.8-1.6 4c-.8 4.8-2.1 5.9-4 3.4-1.7-2.3-2.8-1.3-4.5 3.8-.6 2.1-1.8 3.8-2.6 3.8-5.5 0-14.6 8.5-18.2 17.1-1.1 2.5-3.2 5.5-4.6 6.7-1.5 1.1-3.1 3.5-3.8 5.4-1.7 5-2.8 6-5.9 5.3-2.2-.5-2.9-.2-3.4 1.7-.4 1.3-2.6 4.3-4.9 6.8-2.3 2.5-5.7 7-7.6 10-2.9 4.5-3.5 6.4-3.5 11 0 3 .6 7.4 1.4 9.8 1.1 3.2 1.2 5.7.5 10.7-1.1 7-.3 9.7 4.2 14.5 3.4 3.7 4.8 10.8 4 20.6-.3 4.6-1.2 9.8-2 11.6-2.8 6.6-3.6 11.3-2.9 16.3.7 4.2 1.2 5.1 3.2 5.3 1.5.3 3.4-.6 5.5-2.5 8-7.5 16.3-10.3 30.3-10.3 15.8 0 22.8-2.4 16.4-5.6-3.2-1.7-1-2.7 4.2-1.9 3.1.5 5.4.1 9-1.4 5.1-2.2 6-4.3 2.6-6.2-1.2-.6-3.9-2.9-5.9-5-3.2-3.4-4.3-3.9-8.2-3.9-3.1 0-6.1.8-8.9 2.5-4.9 2.8-7.9 3.2-7.9 1.1 0-2.3 9.8-6.4 17-7.1 5.7-.5 7-1.1 10.3-4.3 3-2.9 3.7-4.3 3.7-7.3 0-4.3-2.4-5.8-6-3.9-1.1.6-2 .8-2 .5 0-1.1 2.2-5 4-7 1-1.1 2.1-3.7 2.4-5.7.7-3.8.7-3.8-3.3-4.4-2.6-.4-4.1-1.2-4.4-2.4-.7-2.7 1.2-4 6.1-4 3.7 0 5-.6 7.9-3.5 3.2-3.2 3.4-3.8 2.8-7.5-.7-4-.5-4.2 4.5-8.8 3-2.7 7.5-8.5 10.7-13.9 3.8-6.4 6.1-9.3 7.6-9.5 1.2-.2 2.7-1.4 3.3-2.8 1.6-3.3 5.4-17.4 4.9-17.9-.3-.2-4.7-.6-9.8-.9l-9.4-.5-6.3 4.3c-5.2 3.5-7.4 4.4-12.6 4.9-5.5.6-7 1.3-12.3 5.4-3.7 3-6.2 4.3-6.6 3.6-1.7-2.7 11.5-12.4 27.8-20.5 9.1-4.6 9.8-5.1 9.2-7.4-1-3.8-2.2-4.6-4.6-3.2-3.5 2.2-3.6.2-.2-2.8 2.1-1.9 3.2-3.9 3.4-6.2.2-2.8-.5-4-5-8.6-6.1-5.9-8.1-6.3-15.1-2.9zm68 87.2c-1.6 3.6-2.7 7.1-2.4 7.9.3.7-.2 1.9-1.1 2.6-3.6 3-1 5.8 3.4 3.5 2.8-1.4 3.1-1.4 4 .3 1 1.6 1.2 1.6 2.6-.3 1-1.2 1.3-3 1-4.7-.4-1.4.1-4.7.9-7.3 2.5-7.2 2.2-8.5-1.9-8.5-3.4 0-3.7.3-6.5 6.5zm92.3 8.5c-4 2.4-4.1 3.7-.8 5.2 1.9.8 3.1.8 5 0 1.4-.7 3.5-1.2 4.5-1.2 3 0 2.6-3.8-.6-5-3.5-1.4-4.4-1.3-8.1 1zm.2 14c-1.1.5-3.9.9-6.3.9-2.3.1-5.9.8-7.9 1.6-1.9.8-5 1.5-6.9 1.5-4 0-5.1 1.5-2.9 4 2.5 2.8 9.6 3.6 12.8 1.6 1.3-.9 5.1-2.1 8.3-2.6 7-1.2 9.1-2.8 7.5-5.9-1.3-2.3-1.6-2.4-4.6-1.1zm11 63.5c-3 2.9-3.6 10.9-.9 11.9 2.8 1.1 7.4.6 10.5-1 2.7-1.3 3-1.9 2.4-4.7-.7-3.4-5.6-8.7-8.1-8.7-.8 0-2.6 1.1-3.9 2.5zM539.1 507c-3 1.7-6.1 3-6.9 3-1.8 0-6.4 4.8-5.7 6 .2.4 3.4 1.6 7 2.5 3.7 1 6.4 2.3 6.2 2.9-.6 1.7-4.3 1.9-5.9.3-3.5-3.6-12.4-2.2-14.8 2.3-.6 1.1-1.9 2-3 2-2.6 0-17.3 5.4-20.2 7.4-1.2.9-3 1.6-3.9 1.6-2.1 0-8.2 7.7-7.5 9.5.3.8 2.1 1.7 4.1 2.1 1.9.3 3.8 1 4.1 1.6.9 1.4 11.4 5.9 16.4 6.9 15.8 3.1 22.4 3.9 23.4 2.9.5-.5 2.7-1 4.7-1 4.5 0 6.9-2.3 4.2-3.9-1.5-.8-1-1 2.3-1.1 4.5 0 6.8-1.8 5.8-4.4-.5-1.4.1-1.6 3.9-1.4 4.9.3 6.3-1 2.9-2.8-1.2-.6-3-2.2-4.1-3.5-1.6-2-1.7-2.8-.6-4.2.7-.9 1.8-1.7 2.6-1.7 1.8-.1-2.8-4-4.7-4-1.9 0-1.8-2.4.1-4 .9-.7 1.4-1.9 1.1-2.7-.3-.8 0-2.3.7-3.3 1-1.7.8-2.2-1.1-3.5-3.2-2.3-2.8-3.8.8-3 3.1.7 6.5-.9 5.5-2.6-.3-.4.9-1.2 2.7-1.7l3.3-.9-4.2-2.1c-6.1-3.2-12.5-2.9-19.2.8zm-37.8 72.2c-5.3 5.7-.3 9.1 12.2 8.4 4.1-.3 7.9-.7 8.4-1.1.5-.3 0-1.6-1.3-2.8-1.2-1.2-2.7-3-3.2-3.9-.6-1.2-2.9-1.9-7.4-2.3-6-.7-6.7-.5-8.7 1.7zM42.5 647.8c-2.4 2-4.9 8.7-4 10.3.5.6 2.2.8 4.6.4 2.5-.4 3.9-.3 3.9.4 0 .6-.8 1.1-1.9 1.1-1 0-2.4.6-3 1.3-.6.8-2.3 1.2-4.1.9-2.5-.4-3.1 0-4 2.3-.7 2-.7 3.1.1 4.1.6.8.9 2.3.6 3.4-.8 3.3 5.3 5.8 15.3 6.3 5.2.2 8.5.8 8.8 1.5.5 1.5 4.9 1.6 5.7.1.4-.6 4.4-.9 10.4-.8 9.6.2 12.7-.3 11.6-2.2-1.5-2.4 3.2-.5 7.4 3 4.5 3.8 4.7 3.9 8.3 2.6 3.1-1 3.8-1 4.2.1.8 2.1 3.6 1.7 3.6-.5 0-1 .7-2.5 1.6-3.2 1.3-1 1.5-2.4 1.1-6.1-.4-2.8-.2-5 .4-5.4.6-.4.4-1.3-.7-2.5-1.2-1.3-2.4-1.7-4.3-1.2l-2.6.6 2.3-2.5c2.6-2.9 2.3-6.5-.8-9.3-1.6-1.5-1.9-1.4-3.8.9-1.2 1.6-3 2.6-4.5 2.6-3.6 0-5.7 1-5.7 2.6 0 .8-1 1.4-2.5 1.4-1.4 0-2.5.4-2.5.9 0 1.3-2.9 4.1-4.2 4.1-.6 0-.7-1.2-.3-3.1l.7-3-6.4.7c-9.9 1.2-10.1 1.1-10.8-1.5-.3-1.3-1.4-2.9-2.5-3.5-1.1-.6-2.2-1.4-2.5-1.7-.3-.3-2.7-1.1-5.5-1.8-2.7-.8-6.2-2.2-7.7-3.2-3.3-2.3-3.8-2.3-6.3-.1zm629 29.3c-2.6 1.3-4.8 4.6-4 5.9.4.6 1.7 1 3 1 1.2 0 2.5.7 2.9 1.5.6 1.7 3.6 2.1 3.6.5 0-2.5 2.2-1 10.5 7.1 1.7 1.6 3.5 2.9 4.1 2.9.7 0 1.4.9 1.7 2 .7 2.9 3.3 2.5 5.8-.9 1.5-2.1 3.4-3.2 6-3.6 2.2-.4 4.1-1.1 4.5-1.6 1.1-1.8-.7-4.9-2.8-4.9-1.2 0-3.8-1.8-5.8-4-3.2-3.5-4.3-4-8.1-4-2.4-.1-6.4-.5-8.9-1.1-8.2-1.7-10.5-1.9-12.5-.8zm-31.2 40.6c-.7.3-1.3 1.6-1.3 2.9 0 2-.5 2.4-2.9 2.4-3.3 0-4.1 1.4-4.1 7.2 0 3.3.7 4.6 3.8 7.7 2.1 2.1 4.4 5.6 5.1 7.8.8 2.4 3.4 6.1 6 8.7 4.1 4 5.4 4.7 10.2 5.3 4.2.5 6 1.3 8.2 3.6 1.5 1.6 2.7 4 2.7 5.2 0 3.7 1.1 5.5 3.2 5.5 1 0 3.3.7 5 1.6 3 1.5 3.2 1.5 4.5-.2 1.6-2.2 1.7-3.6.2-5.1-1.3-1.3-.4-3.3 1.7-3.3s1.7-1.9-1.2-5.7c-1.6-2.1-3.3-3.3-5-3.3-1.3 0-2.3-.5-2.1-1.2.3-1.5-3.6-2.6-10.3-2.7-6.3-.2-8.1-1.2-10-6.1-.7-1.9-1.9-4.2-2.7-5.1-1.8-2.1-1.6-3.9.3-3.9.9 0 1.8.9 2.1 2 .5 1.8 7.9 6.7 8.8 5.8.2-.2-.2-2.7-.9-5.6-.9-4-2-5.9-4.3-7.8-1.7-1.3-4.5-4.7-6.2-7.4-1.7-2.8-3.6-5-4.3-5-.6 0-2.1-.8-3.2-1.9-1.2-1-2.7-1.6-3.3-1.4zm3 66c-2.8 1.9-2.9 4.3-.3 6.6 1.2 1 2 2.9 2 4.7 0 2.5.4 3 2.5 3 2.2 0 2.5.4 2.5 3.9s.3 3.9 3.3 4.6c1.7.5 3.9.9 4.7.9.8.1 2.9 1.6 4.7 3.3 1.9 2 4.1 3.3 5.7 3.3 3.7 0 6.5 1.3 12.6 5.9 3.1 2.4 7.1 4.4 9.3 4.8 2 .3 4 1 4.3 1.4.3.5 1.6.9 3 .9 1.3 0 3.2.7 4.2 1.5.9.9 3.4 2.9 5.5 4.7 2.1 1.7 4.4 4.3 5.2 5.7.7 1.4 3.3 4.7 5.7 7.3 3.8 4.1 4.9 4.8 9.5 5.3 4.4.6 5.4.4 5.9-1 .9-2.3-1.6-9.6-4-11.5-6.4-5.1-10.1-8.9-11.2-11.5-1.8-4.5-4.2-6.2-11.4-8.2-5.2-1.4-7.3-2.6-10.2-5.8-2-2.3-3.9-5.2-4.3-6.7-.4-1.4-2.4-4.2-4.5-6.3-4.2-4.1-11.6-6.5-20.2-6.5-2.7 0-4.8-.5-4.8-1 0-.6-1-1-2.2-1-3.3 0-8.6-3.6-10.6-7-1.9-3.3-3.6-3.7-6.9-1.3zM585 811.1c0 4.9 3.8 16.4 6 18.4 1.1 1 2 2.6 2 3.6 0 1.9 2.5 4.9 4.1 4.9 1.3 0 1.1-4.3-.7-13.1-1.4-7-2.1-8.3-6-12.4-2.5-2.5-4.7-4.5-4.9-4.5-.3 0-.5 1.4-.5 3.1zm-223.7 43.6c-3.3 1.3.1 8.3 4 8.3 2 0 2.1-1.5.6-5.9-1.1-3-2-3.5-4.6-2.4zm-27.3 3.2c0 1.1 1.1 2.8 2.5 3.9 3.4 2.7 3.1 4.3-1 7-4 2.5-4.4 5-1.5 7.7 1.1 1 2 2.4 2 3.1 0 1.3 3 3.4 4.8 3.4.5 0 1.7-1.5 2.6-3.3 1.7-3 1.7-3.6.2-8.7-.9-2.9-1.6-6.6-1.6-8.2 0-2.1-.8-3.3-3.2-4.8-4.1-2.5-4.8-2.5-4.8-.1zm257.2 6.3c-.8 3.1-.5 3.7 4 8.5 5.3 5.8 5.7 7.3 2.8 12.1-1.5 2.4-2 5-2 9.7 0 6.2.1 6.5 2.4 6.5 2.9 0 4.3-1.6 4.8-5.5.2-2.1 1.1-3.4 3.1-4.3 1.9-.9 2.7-2.1 2.7-3.8 0-3.7-2.6-9.1-4.9-10.4-1.2-.6-3.5-3.8-5.1-7.2-4.7-9.8-6.4-10.9-7.8-5.6zm16.4 32.4c-.3.9-.6 2.7-.6 4 0 1.4-.7 2.7-1.5 3-.8.3-1.9 2.1-2.5 4-1 2.9-.9 3.9.4 5.9.9 1.3 1.6 3.1 1.6 4 0 1 1 1.5 3.1 1.5 3.7 0 12.9 2.9 12.9 4.1 0 .5 1.3.9 2.9.9 2.7 0 2.8-.2 3.5-6.2.6-5.8.4-6.4-2.2-9.2-1.6-1.7-3.6-4.3-4.5-5.9-1-1.5-2.3-2.7-3.1-2.7-.7 0-1.8-1.1-2.4-2.5-1.4-2.9-6.6-3.6-7.6-.9z"/>
</svg>
