<svg version="1.0" xmlns="http://www.w3.org/2000/svg" class="fill-current"  width="1365.333" height="1365.333" viewBox="0 0 1024 1024">
    <path d="M770.2 170.2c-1.4 1.4-1.6 7.8-.3 7.8 1.5 0 3.4-5.7 2.4-7.4-.7-1.3-1.2-1.3-2.1-.4zm11.3 11.2c-2.2 2.7-4.8 4.7-6.6 5.1-1.6.4-3.1 1.1-3.4 1.6-.9 1.3.4 1.1 6.3-1.1 3.6-1.4 6.5-1.9 8.7-1.4 3.7.7 11.2 6.6 19.2 15.1 4.2 4.4 5.5 5.3 6.6 4.4.9-.7 1.2-2.2.8-4.4-.5-2.7-2.7-5.3-11.2-12.9-6.5-5.9-11.7-9.8-13.6-10.2-2.8-.6-3.4-.3-6.8 3.8zm65.7 54-2.3 1.2 3.6 2.8c2 1.6 6.1 3.4 9.2 4.1l5.5 1.3-5.3-5.4c-5.6-5.7-6.9-6.2-10.7-4zm32.8 47.9c0 .7.7 2.2 1.5 3.3.8 1 1.5 2.7 1.5 3.6 0 2.4 3.2 2.3 5.4-.1 1.6-1.7 1.5-2-1.3-5-2.9-3.1-7.1-4.2-7.1-1.8zm-106.1 5.5c-4.2 1.5-10.8 4.6-14.7 6.9-4.7 2.9-8.2 4.3-10.5 4.3-5.1 0-6.7.9-6.7 3.7 0 5.2-9.5 19.3-13 19.3-.9 0-3.8 3-6.4 6.8-4.5 6.6-4.6 7-4 12.3.4 4.1.1 6.6-1.4 10.4-1 2.7-2.3 7.2-2.6 10-.4 2.7-1.6 6.5-2.6 8.2-1.5 2.6-1.7 4.2-1.1 7.5 1 5.9-1.2 12.1-6 16.8-3.7 3.5-3.9 4.1-3.9 9.6 0 3.3.4 7.4.9 9.1.8 2.6.6 3.7-1 5.7-2.9 3.6-2.3 6.2 2.5 12.4 4 5.1 4.5 6.3 4.7 11.2.1 3.8-.5 7-2 10.1-1.8 4-2 5.4-1.1 9.9 1.1 6 1.3 12.3.4 16.8-.4 2.1-1.4 3.2-3 3.6-1.6.4-2.4 1.4-2.4 2.7 0 3.7-1.9 5.7-10.4 10.8-7.4 4.5-9.3 5.1-17.1 6.1-8.5 1.1-10.3 1.8-20.8 8-2.4 1.4-4.3 1.9-5.5 1.4-2.1-.9-1.1-1.2-11.2 3-4.6 2-9.3 3.6-10.3 3.6-3.1 0-1.9 9 3.2 24.7 2.7 8.1 2.8 9.2 1.7 13.5-.6 2.4-2.1 5.6-3.3 7.2-3.8 4.8-3.9 8.7-.4 15.9 1.7 3.5 3.1 7 3.1 7.8 0 .8 1.3 3.6 2.8 6.4 3.4 6.2 6.8 7.6 16.3 6.8 5.9-.5 6.9-.3 8.5 1.5l1.7 2.1 6.5-2.4c3.6-1.3 6.9-2.2 7.4-1.9.4.3.8 2.3.8 4.5 0 8.3 4.1 12.9 11.6 12.9 1.3 0 2.9.8 3.6 1.8 1.8 2.6 6 3.4 8.4 1.8 2.4-1.6 6.2-2.6 7.7-2 .9.3 1 3.5.6 11.1l-.6 10.6 3.1 2.8c1.7 1.6 3.9 2.9 4.8 2.9.9 0 2 .5 2.3 1 .3.5 1.7 1 3 1 2.6 0 3.8 2.5 6 12.8.8 3.5 2.8 8.7 4.5 11.6 3.5 6.1 3.9 9.6 1.1 10.3-2.7.7-4.1 6.7-4.1 18.2 0 8.3.3 10.1 1.5 10.1.9 0 1.5-.9 1.5-2.4 0-3.8 1.4-3.9 4-.3 1.3 1.8 2.9 3.6 3.7 4 .7.4 1.3 1.7 1.3 2.7 0 2.4.1 2.4 4.4.6 3-1.2 3.8-1.2 7.5.5 2.3 1 5.6 3 7.5 4.4 1.8 1.4 4 2.5 5 2.5.9 0 1.9.7 2.2 1.5 1.6 4.1 9.1-1.7 10-7.7.5-2.8 1.8-5.1 4.5-7.8 2.1-2 4.1-4.8 4.4-6.1.7-2.7 7-7.9 9.5-7.9 1 0 3.4 1.3 5.5 3 3.5 2.7 4.1 2.9 9.7 2.3l5.9-.6 6.7 6.6c7.4 7.2 12.4 9.4 18.7 8.3 3.1-.6 4-1.4 5.4-4.6 1.3-3.2 2.6-4.3 6.5-6 2.7-1.1 5.6-2 6.6-2 2.5 0 4.7-3 5.4-7.6.5-3.6.3-4.3-2.7-7.1-1.7-1.6-5.3-4.5-7.9-6.3-4.7-3.3-4.9-3.3-9.5-2.1-10.4 2.8-12 2.6-15.8-1.2-2.9-2.9-3.5-4.2-3.5-7.9 0-3.6.7-5.2 4-9.2 5.9-7.1 5-8.7-2.5-4.1-4.4 2.7-7.5 3.1-9.3 1.3-1-1-.6-1.8 2-4 3.3-2.6 3.3-2.7 1.6-5.6-2.3-3.9-1.4-6.6 4.3-13.4 5.2-6 5.9-7.8 3.2-7.8-1.2 0-2.5-1.6-3.7-4.5-2.3-5.6-1.5-12 1.9-17.1 1.3-1.9 2.9-5 3.5-6.9.6-1.8 2.2-4.1 3.6-5l2.6-1.7-4.1-3.5c-3.9-3.2-4.1-3.8-4.1-8.8 0-5.1.2-5.6 3.7-8l3.7-2.5 3.7 3.6 3.7 3.6 3.9-2.1 4-2 .5-7.3c.7-8.5-.6-12.1-5.8-15.8-3.3-2.3-3.5-2.8-3.1-7 .9-9.2 3.6-15.7 9.7-23.1 3.3-3.8 7.2-9.3 8.7-12 2.9-5 4-5.6 7.2-3.9 2.2 1.1 3.2.2 9.6-9.1 13.8-19.9 19.8-29.6 24.9-40.1l5.7-11.7-2.7-4.3c-1.5-2.4-4.2-6.1-6.1-8.4-2.7-3.4-3.3-5-3.3-9-.1-7.2-2.4-15.8-5.4-19.7-3.1-4-10.2-6.4-16-5.3-3.1.6-3.7.2-7.6-4.1-2.4-2.7-5.2-6.8-6.3-9.3-1.1-2.5-3.1-6-4.5-7.7-2.3-3.1-4.6-12.4-6.7-27.3-.5-3.5-1.3-5-4-7.1-1.8-1.4-5-4.5-6.9-6.8-3.5-4.1-3.6-4.6-3.6-12.2s-.1-7.9-2.8-9.3c-1.5-.8-3.7-3.1-4.7-5-2.1-3.8-3.3-4.2-9.7-2.7-3.5.8-3.8.7-9.5-5.1-6.8-7-15.2-12.2-20.8-13-2.9-.5-6.1.1-11.6 2zM949 458.1c-2.5 1-5.3 2.1-6.2 2.5-1.8.6-3.1 3.1-2.3 4.3.8 1.4 11.4 2 14.6.9 1.6-.5 3.4-1.9 4.1-3.1.9-1.8.7-2.4-1.6-4.4-3.1-2.7-2.8-2.7-8.6-.2zm-937.9 1.1c-.5 1.3-1.9 4.8-3.1 7.8-1.7 4.4-2 6.5-1.5 11.3.6 5.1.4 6.2-1.8 9.5-1.4 2-3 5.4-3.7 7.5-1.1 3.4-1 4 1.4 6.8 2.5 3 8 18.7 11 31.6 1 4.5 3 8.5 7.1 14.5 6.2 8.9 10.5 19 10.5 24.5 0 2.2 1.4 5.8 3.9 10.1 2.2 3.8 5.1 11 6.7 16.6 2.3 8.3 2.6 10.3 1.6 12.9-.6 1.7-1.1 3.1-.9 3.2.1.1 3.9 2.7 8.5 5.9 7.4 4.9 8.9 5.6 13.3 5.6 4 0 5.5.5 7.5 2.5l2.5 2.5-2.1 3-2.2 3 2.4 2c1.2 1.1 2.6 1.9 3 2 .4 0 .4 1.5.2 3.2-.8 4.7 1.4 8.9 7.1 14.1 3.9 3.5 6.3 4.7 10.8 5.7 4.4.9 5.7 1.6 5.7 2.9 0 2.6 1.7 3.6 8.4 5 3.5.8 6.6 2.1 7.5 3.3 1.4 1.7 2 1.8 4.6.8 4.4-1.7 7.1-.5 9.7 4.2 2.3 4.2 2.4 4.3 9.8 5.4 4.1.7 11 1.3 15.2 1.3 7.7.1 7.7.1 10.4-3.5l2.7-3.5 8.1.6c13.7 1 25.6 2.5 37.4 4.7 8.9 1.6 13.9 1.9 23.5 1.5 13.4-.5 20.4-2.4 28.7-7.7 7-4.5 12.5-4.2 19.3.9 14 10.4 19.1 11.4 58.3 10.9 32.6-.5 37.9-1.2 45.1-6 2.7-1.8 5.5-2.8 8-2.8 4.8-.1 14.5-4.2 15.4-6.6 1.6-4 1-5.3-2.6-6-2.6-.5-4.1-.2-5.4 1-1.5 1.4-2.6 1.5-6 .7-2.2-.5-7.9-.6-12.5-.4l-8.4.6-8.9-7.5c-10.4-8.8-20-14.2-26.8-15.2-2.7-.5-5.8-1.4-6.9-2.2-1.8-1.2-2.3-1.1-4.1.5-2 1.9-2.1 1.9-7.8-1.5-5.3-3.1-6.5-3.4-13.8-3.4-8 0-8.1 0-11.2-3.6-3.9-4.4-10-8.8-19.2-13.9-3.8-2.1-10.3-6.4-14.3-9.4-6.1-4.5-7.9-6.6-10.7-12-2.4-4.9-4.5-7.5-8.1-10.1-2.7-1.9-7.6-5.7-10.9-8.5-3.3-2.7-10.1-7.7-15.1-10.9-5-3.3-10-7.4-11.1-9-1.1-1.7-6.8-8.4-12.7-14.8-10.1-11.1-11.8-13.9-9.6-15.3 2.2-1.4.6-2.2-6.9-3.9-6.8-1.4-8-2-8.5-4.1-.3-1.3-1.4-2.6-2.4-2.9-1-.3-3.5-2.4-5.5-4.5-2.1-2.2-5.6-4.6-8.2-5.4-4-1.4-5.1-1.4-9.3-.2-4.1 1.3-4.8 1.3-5.8 0-2.4-3.3-8.8-7.5-13.7-9.1-2.9-.9-6.5-2.7-8.1-4l-3-2.2-3.9 1.9c-3.3 1.7-4.6 1.9-8.6 1-9.4-2-9.6-2.2-12.5-11.4-1.4-4.7-2.6-9.6-2.6-11 0-3.1-1.6-4.3-3.5-2.7-1 .8-3.4 1.1-6.5.8-3.3-.3-5.6-.1-6.8.8-3.1 2.4-7 1.5-15.6-3.6-4.7-2.7-9.7-5.5-11.2-6-1.5-.6-4.4-2.4-6.5-4-9.2-7.3-23-10.5-24.8-5.8zm942.2 23.5c-1.8.2-3.3 1-3.3 1.6 0 .7-.3 2.8-.6 4.7-.6 3.5-.5 3.6 4.5 5.9 5.7 2.7 8.1 1.9 8.1-2.7 0-4.5-2.2-10.2-3.9-10-.9 0-3.1.3-4.8.5zm63.8 31-6.5.4 3 1.9c1.6 1.1 4.6 2 6.7 2 3.3 0 3.7-.3 3.7-2.5 0-1.4-.1-2.4-.2-2.3-.2.1-3.2.3-6.7.5zM439 727c-1.9 1-5.3 1.9-7.5 2-2.2 0-7.4 1.3-11.5 2.9-4.1 1.5-10 3.1-13 3.5-4.8.6-6.6 1.5-13.5 6.9-4.4 3.5-11.5 8.2-15.7 10.5-6.3 3.5-8.6 5.5-12.8 11.2-5.3 7.2-7 11.2-7 16.9 0 2.2-1.1 4.9-3.5 8.2-2 2.6-4.3 6.8-5.1 9.3-1.5 4.2-1.4 4.7.3 7 1 1.4 3.9 3.7 6.5 5.1 2.6 1.4 6 4.2 7.6 6.1l2.9 3.5 6.5-1.5c3.5-.8 8.7-2.4 11.5-3.5l5.1-2 8.4 2.3c18.7 5.2 29.8 13.8 29.8 23.1 0 9.5.3 10 9.9 13.4 4.7 1.7 9.3 3.1 10 3.1.8 0 3.3-1.7 5.5-3.8 2.3-2.2 4.9-4.3 5.7-4.8.8-.5 2.5-2.5 3.7-4.5 1.5-2.5 3.7-4.3 6.5-5.4 2.3-.9 7.6-4.7 11.7-8.4 21.9-19.5 40.5-30.9 72.3-44.2 10.3-4.4 21.2-9.5 24.2-11.5 4.7-3.2 5.2-3.8 4.2-5.5-1-1.6-1.4-1.6-2.7-.4-2.5 2.2-6.4.7-11.6-4.6l-4.8-4.9h-10.3c-7.1 0-11.5.5-14.3 1.6-3.4 1.4-4.5 1.4-7.1.4-2.1-.9-5.7-1.1-11.6-.7-8.4.6-8.6.6-16.2-3.3-6.5-3.3-8-4.5-10.3-8.7-1.4-2.7-3.2-7.1-3.9-9.8-.6-2.8-1.6-5.5-2.1-6.2-1.4-1.8-9-2.6-13.3-1.4-3.1.8-4.3.7-6.9-.7-1.7-.9-4.9-1.7-7.1-1.7-2.2-.1-6.9-.4-10.5-.8-5.5-.6-7.1-.4-10 1.3zm280.1 48.2c.5 2.9.5 6.7 0 8.4-.8 3-.7 3.3 2.8 4.6 3.2 1.3 4 2.2 5 6.1.8 2.6 1 6.2.6 8.5-.5 3.1-1.3 4.2-4 5.5-2.9 1.4-5.4 5.1-4.3 6.3.3.2 2.7-.3 5.4-1.1 7.1-2.2 10.6-1.9 18.1 1.5 3.6 1.6 6.7 3 6.8 3 .1 0 .5-1.7.8-3.8.3-2 .9-4.7 1.2-5.8.5-1.7.1-2.3-1.9-2.8-1.4-.3-4.2-2.3-6.1-4.4-2.8-3-3.5-4.5-3.5-7.9 0-4-.2-4.3-3.7-5.2-2.1-.6-4.3-1.1-4.9-1.1-.6 0-2.3-3.3-3.8-7.4-2-5.4-3.4-7.6-5.2-8.5-3.9-1.7-4.2-1.4-3.3 4.1zm151.8 3-3.7 1 3.9 8.3c4.3 9.1 5 14.9 2.4 19.9-.8 1.5-1.5 4.1-1.5 5.7 0 2.5.4 2.9 2.8 2.9 6.1 0 7.2.9 7.2 5.5 0 5.3-5.2 17.5-7.5 17.5-.8 0-1.5.3-1.5.6 0 1.2 4.1 7.4 4.8 7.3 3.5-.3 10.2-16.7 10.2-24.8 0-1.7-1.6-9.5-3.6-17.3-2.8-11.3-3.4-15.2-2.8-19.4.6-5.1.5-5.3-2.4-6.8-3.4-1.8-3.3-1.8-8.3-.4z"/>
</svg>
