<svg version="1.0" xmlns="http://www.w3.org/2000/svg" class="fill-current"  width="1365.333" height="1365.333" viewBox="0 0 1024 1024">
    <path d="M150.1 1.3c-1.4.6-2.8 2.4-3.2 3.9-1.3 4.8-7 13.8-8.7 13.8-.9 0-3.3.4-5.2 1l-3.5 1v13l5 .1c2.8.1 5.5 0 6-.2.6-.2 2.6-.3 4.7-.3 4.3 0 14.3 6.1 15.3 9.5 1.1 3.3-2.3 9.9-5.1 9.9-2.9 0-6.4 4.8-6.4 8.9 0 2.3.4 3.1 1.8 3.1 2.2 0 4.8-2.7 5.4-5.5.4-2.4 4.8-3.2 8.8-1.5 3.8 1.6 6.5 0 8-4.7 2.8-8.7 7.5-13.4 15-14.8 3.9-.7 7.1-3 8.8-6.2 1.5-2.7.7-3.3-4.5-3.3-5.7 0-9.9-2.2-10.8-5.7-1.1-4.6-3.3-7.3-6-7.3-1.8 0-2.8-.8-3.6-2.8-2-5-2.4-5.4-7.1-7.2-2.5-.9-6-2.7-7.6-3.9-3.5-2.4-3.9-2.5-7.1-.8zm210.3 43.4c-2.3 3.2-4.9 7.3-5.8 9-1.2 2.3-2.4 3.3-4.1 3.3-1.3 0-3.2 1.1-4.3 2.5-2.3 2.9-6.3 3.2-10.2 1-4.1-2.4-6-1.9-6 1.5 0 1.6.7 3.3 1.5 3.7 1.3.8 1.3 1.4.3 4.3-.7 1.9-2.4 5.1-3.8 7.1-2.1 3.2-3.1 3.8-7.3 4.3-6.8.8-9.5 2.7-10.8 8.1-.8 3.1-1.8 4.6-3.3 5.1-5.1 1.5-5.6 2.9-5.6 15.5 0 11-.2 12-2.4 14.6-2.3 2.7-2.8 2.8-13.5 3.1-9.8.4-11.4.2-13.3-1.4-2.8-2.6-9.9-2.5-12.7 0-1.2 1.1-2.1 2.2-2.1 2.5 0 1.2 6.7 5.1 8.9 5.1 4 0 7.8 2.8 9.5 7 2.2 5.6 2.1 6-2.6 13.4-3.3 5.3-4.4 6.3-5.5 5.4-2.4-1.9-3.7.7-3.4 6.6.3 7-1.2 10-4.5 9.2-1.6-.4-4.2.3-7.6 2.1-4.6 2.3-6.3 2.6-12.7 2.4-6.5-.3-7.9-.7-11.1-3.2-3.3-2.7-3.9-2.8-6.9-1.8-2.9 1-3.2 1.5-2.9 4.1.4 2.4-.1 3.2-2.9 4.9-1.8 1.1-3.3 2.2-3.3 2.3 0 .2.9 2.9 2 6.1 2.4 6.9 2.5 10.8.5 12.5-.8.7-1.5 2.8-1.5 4.6 0 2.7-.5 3.7-2.5 4.6-2 .9-2.5 1.8-2.5 4.8 0 2.9-.5 3.9-2.5 4.8-1.3.6-3.8 3-5.5 5.3-3.6 5-5.5 6.4-10.1 7.7-2.9.8-3.4 1.3-3.2 3.7.1 1.6.8 3.2 1.5 3.7 2 1.2 7.1.9 9.3-.6 3.2-2.1 14-2.8 18.1-1.1 2.3.9 5.1 1.2 8 .8 3.8-.5 4.8-.2 6.9 1.7 2.3 2.1 2.5 3.1 2.5 10.2 0 8.4-.8 10.9-6.3 18.6-3.6 5-11.9 10-18.2 10.9-4.1.5-4.5.8-4.5 3.3 0 2.1-.7 3-3.1 4-4 1.7-6.9 7.5-6.9 13.8 0 4.1.4 5.2 3.2 7.8 4.3 4 10 7.4 12.6 7.4 1.2 0 2.8 1.3 4.1 3.5 1.1 2 2.7 3.8 3.6 4.1.8.4 1.5 1.4 1.5 2.3.1 3.7 1.5 4.1 5.3 1.4 2-1.4 3.7-3.3 3.7-4.2 0-3.1 3-6.1 6.1-6.1 1.9 0 2.9.5 2.9 1.5 0 .8.4 1.5.9 1.5s1.4-.7 2.1-1.5c3-3.6 8-.5 13.6 8.5 3.1 5.1 4.1 6 6.6 6 3.7 0 9.4 4.3 10.2 7.6.4 1.4 2.2 3.9 4.1 5.6 2.5 2.1 3.5 3.8 3.5 5.9 0 3.3 2.5 4.8 9.6 5.6 3.6.5 4.9 0 8.9-2.7l4.8-3.3 5.4 1.7c7 2.2 18.2 9.5 20.8 13.5 1.1 1.7 2.3 3.1 2.7 3.1.3 0 2.7-.9 5.2-2 3.6-1.5 5.1-3 7.3-6.9 2.5-4.5 3.2-5.1 6-5.1 3.1 0 3.2.2 2.6 3-.4 2-.1 3.6.9 4.8.9.9 2.3 3.2 3.2 5 1.6 3.2 1.6 3.2-.9 4.4-2.3 1-2.5 1.7-2.7 7.7-.1 3.6-.2 7.9-.3 9.4-.1 3.7-11.1 12.4-16.7 13.3-5 .8-4.9 2.3.6 8.7 3.3 3.9 4.5 6.4 5 9.9.4 2.6 1.3 5.1 1.9 5.5.7.5 4.4.8 8.2.9 3.9 0 10 .4 13.8.9 7.7.9 8.6 2.3 3.9 6.8-2.4 2.3-3.7 2.7-8.3 2.7-4.7 0-5.9.4-8 2.6-2.2 2.4-2.4 3.4-2.7 15.8-.3 12.3-.2 13.3 1.7 15 1.2 1.1 2.1 3.1 2.1 4.7 0 2.3.7 3.1 4.3 4.7 5.1 2.3 8.7 7.4 8.7 12.3 0 4.2-.8 5.5-5.1 8.2-3.7 2.4-3.4.9-3.8 20.6 0 3-1 5.9-3.1 9.2-2.1 3.5-3 6.2-3 9.3v4.3l5.3 1.1c2.8.6 7 1.4 9.2 1.8 2.2.3 4.8 1.3 5.7 2.1 1.4 1.2 3 1.4 7.2.9 4.9-.5 5.8-.3 10.5 2.7 4.6 2.9 5 3.5 4.6 6.2-.9 5.3-3.5 6.8-12.7 7.6-4.6.4-10.3 1.2-12.7 1.8-3.8 1-5 .9-7.7-.5-3.7-2-6.4-1.3-6.4 1.6 0 1.1-1.3 4.7-2.9 7.8-2.4 4.7-3.8 6.2-7.1 7.7-3.4 1.5-4.7 1.7-7.1.8-2.6-1-3.1-.8-5.4 1.9-4.2 4.9-3.2 7.6 4.5 12 5.2 3.1 6.9 4.7 8.7 8.5 2.9 6 6.1 9.3 8.9 9.3 1.3 0 3.3 1.3 4.8 3.1 2.5 2.9 3 3.1 8.9 2.8 3.5-.2 7.1.2 8.4.9 1.2.7 2.7 1.2 3.3 1.2.6 0 2.9 1.4 5.1 3.2 3.3 2.7 3.9 3.7 3.9 7 0 2.8 1.1 5.8 3.9 10.4 2.2 3.6 4.7 8.7 5.7 11.4 1.1 3 2.6 5.2 4 5.9 1.3.5 3 2.2 4 3.6.9 1.4 2.5 2.5 3.5 2.5 1.3 0 2.4 1.3 3.4 3.8 1.5 3.6 1.6 3.7 6 3.4 4.2-.4 4.8-.1 9 4.2 2.4 2.5 4.9 5.5 5.5 6.6 1.5 2.8 5.2 5 10.7 6.4l4.7 1.2 2.8 9c2.4 7.4 2.8 10 2.2 15.2-.5 5.7-.4 6.4 1.8 8.2 1.3 1.1 3.3 1.9 4.6 2 1.9 0 2.2.5 2.2 4.4 0 3.9.7 5.3 6.5 12.4 5.7 7.2 6.5 8.7 7.1 13.7.5 4.2 1.3 6 3 7.4 2.2 1.7 2.4 2.7 2.4 9.5 0 6.3-.4 8.2-2.2 10.6-2 2.8-2.1 3.1-.5 4.3 1.3.9 1.9 3.2 2.3 8.2.6 7 .6 7-2.9 10.3-4.7 4.5-17 8.2-29.7 8.9-8.9.5-10 .3-17.7-2.6-8.8-3.4-11.3-5.9-11.3-11.1 0-2.6-.6-3.3-3.5-4.6-1.9-.7-5.2-1.4-7.3-1.4-2.3 0-4.5-.6-5.2-1.5-.7-.8-2.7-1.5-4.5-1.5-1.8 0-3.8-.7-4.6-1.6-.7-.9-2.2-1.4-3.6-1.1-1.4.2-2.3-.1-2.3-.8 0-2.6-3.5-4.5-7.2-3.8-5.8.9-8.9-.5-14.5-6.5-6-6.4-7.9-11.1-8.9-22.4-.6-6.9-.4-8 1.6-11.3 1.9-3.1 2.2-4.6 1.7-9.2-.5-4.5-1.3-6.4-4.6-10.3-2.8-3.3-4.1-5.8-4.3-8.5-.3-3.5-.7-4-3.6-4.7-1.8-.5-11.5-.6-21.5-.3s-24.7.7-32.7.8c-12.1.2-15.1.5-18 2.1-4.4 2.4-5 3.2-5 7.8 0 3.9.1 4 6.9 5.3 1.9.4 5.1 1.9 7.1 3.4 3.4 2.4 3.8 3.3 5.3 10.6.9 4.4 2.4 10.5 3.2 13.5.8 3 1.5 6.7 1.5 8.3 0 3.9 1.7 6.7 4 6.7 1.6 0 2 .7 2 3.4 0 2.6.7 4.1 3.1 6 1.7 1.4 3.7 2.6 4.4 2.6.8 0 2.8 1.4 4.5 3 1.7 1.7 3.5 3 4 3 1.8 0 1 4.9-1 6.3-2.1 1.4-4.2 6.1-3.3 7.1 2.3 2.2 12.9-.6 19.9-5.4 5.2-3.4 8.3-3.7 16.5-1.4 5.8 1.6 5.8 1.7 7.4 6.9 2.3 8 2 13.5-1 17.5-2.1 2.9-2.5 4.5-2.5 10.6 0 12.4-1.4 16.5-6.8 20.7-3.6 2.7-5.2 4.8-6.6 8.7-2 5.5-7.1 10-11.4 10-1.3 0-5 1.3-8.1 2.9-3.1 1.6-6.9 3.2-8.4 3.5-1.5.4-3.2 1.7-3.8 3-1.2 2.6-3.9 4.1-9.2 5.1-5.9 1.1-10.3 9.5-5.8 11 1.2.3 3.7-.3 6-1.5 2.2-1.1 5.1-2 6.4-2 3.1 0 10.6 4.9 16.3 10.6 4.1 4 5 4.5 7.8 4 1.7-.4 5.1-2 7.5-3.6 3.5-2.4 5.5-3 9.7-3 5.9 0 7.1-1 9.3-8.1.8-2.4 2.3-4.2 4.4-5.4 3.2-1.7 3.4-1.7 7.3.3 6 3.1 6.8 4.4 6 10.3-.4 3-.2 6.5.4 8.5.8 2.3.8 3.9.2 4.7-.5.7-1.5 2.8-2.1 4.8-.6 2-2.4 5.3-3.9 7.4-2.8 3.6-2.8 3.8-1.6 9.7.7 3.3 2 7.8 2.9 10.1l1.6 4.1-3.4 6.6c-5 9.6-5.4 12-2.2 15 1.4 1.3 3.9 4.5 5.6 7.2 3.4 5.3 6.5 6.4 7.3 2.5.3-1.2.7-4.7.9-7.7.3-4 1.3-7 3.7-11 1.9-3 3.9-5.8 4.6-6.2.6-.4 1.5-2 1.8-3.4.7-2.5 1-2.6 5.2-2.1 2.5.2 6.8 1.6 9.5 3.1 2.9 1.5 6.7 2.6 8.9 2.6h3.8l.7 6.4c.4 3.7.3 7.1-.3 8.2-.8 1.4-.4 3.4 1.4 7.8 1.3 3.3 2.4 7 2.4 8.3 0 2.6 2.7 3.2 3.6.8.4-.8 1.7-1.5 3-1.5 3.6 0 9.4-3.1 9.4-5.1 0-1 1.2-2.7 2.7-3.8 5.3-4.2 14.8 0 15.9 7.1.4 2.2 1.7 5.2 3 6.8 1.3 1.5 2.4 3.5 2.4 4.4 0 1 .7 3 1.5 4.6 1.8 3.4 5.5 4.2 5.5 1.1 0-2.7 2.5-3.3 4.6-1 1 1.1 3 1.9 4.8 1.9 6.7-.1 10.1-1.6 15.4-7.1 4.3-4.5 5.2-6 5.2-9 0-2.1.7-4.2 1.6-5 .8-.7 2.4-3 3.5-5 1-2.1 2.8-4.1 4-4.4 1.5-.5 1.8-1.1 1.3-2.3-.4-1-1-6.5-1.2-12.4l-.4-10.6 7.9-4.5c4.3-2.5 9-5.5 10.5-6.6l2.7-2.1 5.1 2c6.1 2.4 9.4 5.9 11.5 12.2.9 2.5 2.3 5.2 3.1 5.8.7.7 1.4 2.5 1.4 4s1.1 7 2.4 12.1c1.3 5.2 2.7 11.3 3.1 13.6.7 4.2.8 4.3 4.3 4.3 6.4 0 8.2-.9 8.2-4.1 0-1.5-.5-3.1-1.1-3.4-2.4-1.6-2.8-5.3-.8-9.1 1-2.1 1.9-4.6 1.9-5.5 0-1 1.1-3.1 2.5-4.7 3.5-4.2 8.9-4.8 13.4-1.4 2.2 1.6 5.2 2.7 8.5 3 2.8.3 5.6 1.1 6.1 1.9.6.7 2.6 1.6 4.5 1.9 3.3.5 3.6.3 5.5-3.8 1.5-3.2 2.7-4.4 4.5-4.6 1.7-.2 3-1.4 4-3.5 1.2-2.5 2.2-3.3 4.8-3.5 2.6-.3 3.2-.7 3.2-2.7 0-4.3 4-11.1 7.6-12.8 3.6-1.8 5.4-5.4 3.3-6.8-2.4-1.5-19.2-1-21.3.6-2.8 2.1-8.2 1.9-10.5-.4-1-1-2.6-3.9-3.6-6.5l-1.8-4.6h-5.1c-7 0-19-5.5-21.7-9.9-1-1.7-3.4-3.9-5.3-4.8-4.5-2.1-7.1-7.7-6.3-13.5 1-7-1.7-11.6-10.2-17.2-7-4.7-7.1-4.8-7.1-9.1 0-2.4-.5-4.7-1.1-5.1-1.2-.7-.5-6 1.3-9.9.8-1.8 2.4-2.7 6.4-3.5 5.3-1.1 7-.9 19.3 2.6 2 .6 2.2.5 1.4-1.2-.6-1-1.3-4.2-1.7-6.9-1-7.8-3.4-13.9-6.6-17-4-3.9-4-8.6 0-14.5 8.5-12.7 7.4-11.8 13.7-12.5 8.3-.9 8.6-1.1 7.9-4.3-1.6-7-1.8-10.4-.6-13.2 2-4.9 5.2-5.9 14.5-5 9.2 1 9.6 1.1 19 5.5 7.2 3.4 19.8 6.5 26.6 6.5 7.8 0 3.4-5.3-6.1-7.4-1.4-.3-4.6-3.1-7.5-6.5-3.3-4-5.8-6-7.3-6-3.2-.1-3.7-2.5-1.8-8.6 1.8-5.7 1.3-8.3-2.4-13.5-2.4-3.3-2.8-14.8-.7-16.8.6-.7 1.7-3.9 2.2-7l1-5.7 5.2-.3c4-.2 5.5-.8 6.6-2.6.8-1.2 3.5-2.8 5.8-3.5 9.5-2.8 15.9-6.3 16.7-9.1.4-1.5 1.9-4.1 3.4-5.8 2.3-2.8 3.3-3.2 7.6-3.2h5l1.1-4.6c.7-2.6 1.1-4.8.9-4.9-.2-.1-1.3-.8-2.5-1.4-1.4-.7-2.3-2.1-2.3-3.6 0-2.2.8-4.2 5.3-13.5 1-2 2.1-2.6 5.5-2.8l4.2-.3v-4.7c0-8.7-.4-9.2-7.3-9.2-3.4 0-8 .7-10.2 1.5-3.6 1.4-4.4 1.4-7.8 0L653 650v-6.6c0-5.1.5-7.2 2-9.1 4.5-5.8 1.5-9-8.8-9.6-6.9-.5-7.6-.7-11.4-4.3-2.2-2.2-5.2-6.6-6.8-10-1.5-3.4-3.8-6.8-5-7.7-2.1-1.5-2.5-1.5-4.9.4l-2.6 2.1-.7-4.7c-.4-2.6-1.5-5.7-2.6-6.9-4.2-4.6-4.5-6.3-1.7-10.3 3.2-4.8 3.2-5.8-.6-7.3-4-1.7-5.6-4.3-6.4-10.6-.8-6.1.6-9.6 5.9-14.2 1.9-1.6 4.1-4.3 4.9-5.9.9-1.5 2.5-3.6 3.8-4.7 2.7-2.2 1.2-3.6-4.2-3.6-4.1 0-5.9-1.5-5.9-4.7 0-6.5 9.9-16.4 18.9-18.9 7.6-2.2 8.4-3 7.7-7.6-.5-2.8-.1-4.6 1.4-7 1.1-1.8 2-4.2 2-5.4 0-1.1 1.9-5 4.2-8.7 3.1-4.9 4.9-6.7 6.7-6.9 2-.2 2.9-1.3 4.5-5.3 1.6-4.2 3-5.8 8.6-9.7l6.7-4.6.7-9.7c.8-12 2.3-15.2 7.4-16.1 4-.7 11.2-4.8 11.2-6.4 0-2.5 6.6-6.9 11.4-7.5 3.1-.5 5.7-1.5 7-3 1.2-1.2 3.1-2.7 4.2-3.3 1.9-1 2.5-.7 4.8 2.3 1.9 2.5 3.5 3.5 5.5 3.5 4.2 0 5.9-2 6.7-7.5.6-4.8.4-5.2-3.6-9.8-2.3-2.6-5.8-5.4-7.6-6.2-2-.8-3.9-2.6-4.6-4.2-.6-1.5-1.8-3.6-2.6-4.5-1.9-2.2-.7-3.8 2.8-3.8 3.4 0 5-2.3 5-6.9 0-1.7 1.1-4.7 2.5-6.7s2.5-4.7 2.5-6c0-4.3 2.1-7.4 5.1-7.4 2.4 0 2.8-.5 3.4-3.9.5-3.2.1-4.8-2.3-9.2-1.7-3-3.5-7.9-4.2-10.9-1.3-6.4-3.2-9-8.6-11.8-2.1-1.1-8.5-6.4-14.1-11.6l-10.1-9.6h-5.5c-3.8 0-5.9-.5-6.8-1.6-.7-.9-3.5-2.8-6.2-4.4-3.8-2.2-5.7-2.7-8.8-2.3-3 .4-3.9.2-3.9-.9 0-.9-.7-2.1-1.5-2.8-2.2-1.8-1.8-3.9 1-6.6 2.8-2.5 3.3-6.6 1.3-10.9-1.4-3-2.9-3.2-5.3-.5-1.4 1.6-3.1 2-7.6 2-3.4 0-6.3-.5-6.9-1.3-.5-.6-1.9-2.4-3.1-3.9-1.1-1.5-3.2-3.6-4.7-4.7-2.7-1.9-2.8-1.9-8.2 0-3.6 1.3-5.7 1.6-6.4.9-.6-.6-3.9-1-7.4-1-6.6 0-9-.8-12.3-4.1-1.5-1.5-3.3-1.9-8.8-1.9-4.9 0-7.2-.4-8.1-1.5-1.8-2.1-6.7-1.9-10.6.6-1.9 1.1-5.8 2.3-8.7 2.6-5.4.5-5.4.5-12.6-5.3-4-3.3-8.1-7.5-9.1-9.5-2.8-5.3-6.9-9.9-9-9.9-1.2 0-2.1-1-2.5-3l-.7-3-2.8 3c-1.5 1.6-3.3 3-3.9 3-2 0-1.1 3.6 1.4 6 2.2 2 2.5 3.2 2.4 7.7-.2 4.9-.4 5.3-2.6 5.3-4 0-6.2 1.8-9.2 7.8-6.2 12.1-15.5 17.3-21.3 11.8-2.4-2.3-4-6.1-5-12.1-.2-1.4-1.8-2.5-5-3.6-2.6-.8-5.6-2.3-6.7-3.3-1.9-1.7-1.9-1.7-1.4.3s.2 2.1-9.5 2.1c-5.6 0-11.2-.5-12.6-1.1-1.9-.9-2.9-.9-3.9 0-1.1.9-1.7.8-2.7-.4-1-1.3-1-1.9.5-3.5 1.6-1.8 1.5-2-3.4-4.4-6.5-3.3-9.5-8.6-9.2-16.4l.2-5.4-8.1-8.2-8-8.2v-6c0-5 .4-6.4 2.3-8.2 2.4-2.3 6.1-2.9 7.2-1.2.3.5 2.3 1 4.4 1h3.7l-.7-6.1c-.8-7.2-2-8.9-4.9-7.1-3 1.9-4.8 1.5-11.1-2.4-3.6-2.1-6.9-3.4-8.3-3.2-1.4.2-3.4-.6-4.8-1.8-1.3-1.2-3.6-2.4-5.3-2.7-9.8-1.9-15.5-7.8-15.5-16.1 0-3.6.4-4.6 2-5.1 1.1-.3 2-1 2-1.5 0-2.1-4.8-6.2-7.9-6.8-2.5-.6-3.9-1.7-5.2-4.2-2.2-4-4.8-5.2-10.6-4.9-2.4.2-4.7-.1-5.3-.7-1.4-1.4.4-6.8 3.4-10.5 3.9-4.6 3.5-6.2-1.6-5.7-3.6.3-4.6 0-6.1-1.9-1.4-1.7-2.9-2.3-5.7-2.3-3.5 0-4-.3-5.1-3.4-1.1-3-1.7-3.4-5.8-3.9-12.5-1.6-13.6-1.9-15.5-4.4-2.9-4-1.1-6.1 9-10.5 14.7-6.6 21.5-8.8 28.6-9.5 5.8-.5 7-1 8.4-3.1 1.6-2.4 1.6-2.5-.7-1.9-1.4.4-3.7-.2-6.1-1.6l-3.9-2.1.7-5.6c.7-5.9 2.8-10 5.1-10 2 0 6.3-3 6.3-4.4 0-.7-1.5-3-3.2-5l-3.3-3.8-4.1 5.9zm448.9 267.5c-.6.7-1.3 2.3-1.6 3.5-.5 2.4.2 2.7 4.1 1.7 2.6-.7 3.1-4.8.6-5.8-2.1-.8-2-.8-3.1.6zm-55.6 24.4c-1.2 1.3-.8 2 1.8 3.2 4 1.8 6.5 1.5 6.5-.8 0-1.4-.7-2-2.4-2-1.3 0-3.1-.2-3.8-.5-.8-.3-1.7-.2-2.1.1zm92.5 5.4c-1.8 2.1-4.1 6-5.2 8.5-1.1 2.5-2.7 4.8-3.5 5.2-.9.3-2.3 2.2-3.1 4.2-1 2.6-2.9 4.5-6.7 6.6-4.4 2.6-5.2 3.6-5.5 6.4-.3 2.6-2.1 5.1-9 11.9-8.5 8.5-8.8 8.7-12.7 8.2-3-.4-4.1-1-4.3-2.5-.4-2.2-2-4.5-3.1-4.5s-4.8 7.2-5.6 10.8c-.8 4-3.6 4.9-11.4 3.5-6.9-1.3-10 .4-10.1 5.3 0 2.6.5 3.3 2.5 3.8 1.4.4 5 1.6 8 2.7 4.8 1.8 5.4 2.4 6.2 5.7.8 3.6 1.1 3.7 5.8 4.2 10.2 1.1 26.4 15.4 30.2 26.8.9 2.6 3.6 6.9 6 9.6 6.2 7 7.4 9.7 7.6 18 .2 8.3 2.3 12.6 6.1 12.6 4.2 0 8.4 3.2 9.3 7 .7 2.7 1.8 4 5.1 5.8 3.7 2.1 4.4 2.2 6.2.9 2-1.4 2-1.4 0-3.2-2.5-2.3-4.6-9-6-19.6-1.6-11.7-.4-16.4 4.8-18.7 2.1-.9 5.1-2.7 6.9-4 2-1.4 4.6-2.2 7.5-2.2 3.9-.1 4.6-.5 7.4-4.3 1.7-2.3 3.7-5.9 4.4-8.1 1.1-3.4 1-4.3-.9-8.1-1.1-2.3-2.4-6.2-2.7-8.7-.6-4-.3-5.1 2.8-9.5 3.4-4.9 3.5-5 6.1-3.7 1.4.8 3.3 1.1 4.2.8 1.3-.6 1.2-1.2-1-4.9-1.4-2.5-2.5-5.9-2.5-8 0-5.2-2.4-9.1-7.5-12.1l-4.5-2.6v-6.4c0-8.1-2-12.2-10.7-22.4-3.6-4.1-7-8.9-7.8-10.5-1.4-3.5-5.1-7-8.1-7.9-1.6-.5-2.8.3-5.2 3.4zm-84.4 26.7c-1.8.5-4.2 4.7-5.3 9.7-.5 2.4-.3 2.7 1 2.2.9-.3 2.5-.6 3.5-.6 1.1 0 2.2-1.2 2.9-3.1 1.3-3.6 1.5-9 .4-8.8-.5.1-1.6.3-2.5.6z"/>
    <path d="M709.6 469c-2.1 1.6-4.1 3.1-4.3 3.4-.2.2.1 3.2.8 6.6 1.2 6.1 1.2 6.1-1.7 9.1l-2.9 3 3.2 2.7c2.6 2.2 3 3 2.2 4.4-.9 1.6.3 5.8 1.6 5.8.3 0 3.7-1.6 7.7-3.5s8.5-3.6 10-4c1.6-.3 3.5-1.9 4.7-3.9 2.2-3.5 2.9-9.6 1.1-9.6-2.4 0-10-8.3-10.6-11.5-.5-2.6-1.3-3.6-3.6-4.4-4-1.4-3.7-1.5-8.2 1.9zm52.4 59.7c0 .4 1.2 1.9 2.6 3.5 2.2 2.2 3 2.5 4.6 1.7 1.9-1 1.9-1.1-.3-3.5-2-2.2-6.9-3.4-6.9-1.7zm-52 26.2c-2.4 1.9-2.4 1.9-.5 4.1 2.4 2.7 8.7 6 11.4 6 1 0 2.2-.7 2.5-1.6.8-2.2.9-2-2.2-3.3-1.6-.7-3.6-2.5-4.6-4.1-2-3.5-3.2-3.7-6.6-1.1zm26 5.9c0 1.1 1.7 2.5 4.8 3.9 6 2.7 14.4 2.1 15-1.1.7-3.3-2.5-4.6-11.5-4.6-7.2 0-8.3.2-8.3 1.8zm-33.5 154c-.3.3-.5 2.5-.5 4.9 0 2.4-.5 5.2-1.2 6.2-1 1.6-.6 2.6 2.8 6.5 2.8 3.3 4.7 4.5 6.6 4.6 2.3 0 2.8-.5 3.4-3.5.3-2 .4-6.3.2-9.6-.3-4.7-.9-6.4-2.4-7.3-2.2-1.3-8.2-2.5-8.9-1.8zm-240.2 62.9c-.7.2-1.3 1.5-1.3 2.8 0 1.6-1 3-3 4.1-2.4 1.5-2.8 2.3-2.3 4.3.3 1.5.6 2.7.7 2.8.3.5 12-3.8 13.3-4.9 2.7-2.2-1-9.9-4.6-9.7-.9 0-2.2.3-2.8.6zm153.5 41.1c-1.6.9-2.8 1.9-2.8 2.2.1.9 10.5 6.7 13.3 7.4 2.6.6 2.7.5 2.7-3.4 0-3.6-.3-4.1-4-6-4.7-2.4-5.7-2.4-9.2-.2zm-163.9 190.4c-.6 1.3-1.8 2.7-2.5 3.1-2.1 1.2-1.7 8.1.5 10.1 1.8 1.7 2.1 1.7 4.6 0 2.4-1.6 2.6-2.1 2.3-8.3-.2-5.2-.6-6.6-2-6.9-.9-.2-2.2.7-2.9 2z"/>
</svg>
